<svg width="86" height="82" viewBox="0 0 86 82" xmlns="http://www.w3.org/2000/svg"><path d="M17.073 20.3385H15.5617V13.2553L12.2723 17.4655L8.96936 13.2553V20.3385H7.45801V10.3803H8.33931L12.2723 15.4311L16.2072 10.3803H17.075V20.3385H17.073ZM28.0255 11.7373C28.9957 10.7456 30.1727 10.2507 31.5526 10.2507C32.9345 10.2507 34.1115 10.7476 35.0875 11.7373C36.0635 12.729 36.5505 13.9249 36.5505 15.329C36.5505 16.733 36.0635 17.929 35.0875 18.9206C34.1115 19.9123 32.9345 20.4072 31.5526 20.4072C30.1708 20.4072 28.9957 19.9123 28.0255 18.9206C27.0553 17.929 26.5702 16.733 26.5702 15.329C26.5683 13.9269 27.0553 12.729 28.0255 11.7373ZM34.0322 12.7329C33.3597 12.0456 32.5344 11.7019 31.5545 11.7019C30.5747 11.7019 29.7514 12.0456 29.0827 12.7329C28.4159 13.4202 28.0815 14.2862 28.0815 15.329C28.0815 16.3815 28.414 17.2495 29.0827 17.9329C29.7494 18.6163 30.5728 18.958 31.5545 18.958C32.5363 18.958 33.3597 18.6163 34.0322 17.9329C34.7048 17.2495 35.0411 16.3815 35.0411 15.329C35.0392 14.2862 34.7029 13.4202 34.0322 12.7329ZM50.7808 13.2121L47.9803 20.3385H46.3144L50.3614 10.3803H51.2427L55.2472 20.3385H53.5812L50.7808 13.2121ZM66.619 11.7667C67.5892 10.7751 68.7662 10.2802 70.1461 10.2802C71.528 10.2802 72.705 10.777 73.681 11.7667C74.657 12.7584 75.144 13.9543 75.144 15.3584C75.144 16.7625 74.657 17.9584 73.681 18.9501C72.705 19.9418 71.528 20.4367 70.1461 20.4367C68.7643 20.4367 67.5892 19.9418 66.619 18.9501C65.6488 17.9584 65.1637 16.7625 65.1637 15.3584C65.1637 13.9563 65.6488 12.7584 66.619 11.7667ZM72.6257 12.7624C71.9532 12.075 71.1279 11.7314 70.1481 11.7314C69.1682 11.7314 68.3449 12.075 67.6762 12.7624C67.0094 13.4497 66.675 14.3157 66.675 15.3584C66.675 16.411 67.0075 17.279 67.6762 17.9623C68.3429 18.6457 69.1663 18.9874 70.1481 18.9874C71.1279 18.9874 71.9532 18.6457 72.6257 17.9623C73.2983 17.279 73.6346 16.411 73.6346 15.3584C73.6346 14.3157 73.2983 13.4497 72.6257 12.7624ZM8.14797 30.5676H11.3968C12.796 30.5676 13.9769 31.0369 14.9394 31.9756C15.9018 32.9143 16.3812 34.1043 16.3812 35.5457C16.3812 36.9871 15.8999 38.1771 14.9394 39.1158C13.9788 40.0544 12.798 40.5238 11.3968 40.5238H8.14797V30.5676ZM9.65932 39.0726H11.3949C12.3941 39.0726 13.2212 38.7584 13.8803 38.126C14.5393 37.4957 14.8679 36.6356 14.8679 35.5437C14.8679 34.4617 14.5393 33.6055 13.8803 32.9693C13.2232 32.335 12.3941 32.0168 11.3949 32.0168H9.65932V39.0726ZM32.0145 40.4943H31.1332L27.0592 30.5362H28.7251L31.5661 37.6626L34.3801 30.5362H36.0596L32.0145 40.4943ZM51.5384 39.0726H52.6999V40.5238H48.8635V39.0726H50.0251V32.0168H48.8635V30.5656H52.6999V32.0168H51.5384V39.0726ZM74.3304 36.8555C74.0424 36.3921 73.8027 36.0582 73.6114 35.852C73.4162 35.6458 73.2152 35.5103 73.0007 35.4338C73.337 35.2511 73.7409 34.8034 74.2163 34.0807L76.4563 30.5696H74.7362L72.8325 33.5996C72.533 34.0552 72.2856 34.3596 72.0885 34.5088C71.8933 34.66 71.5976 34.7366 71.2091 34.7366H71.1898H70.9115V30.5715H69.4001V34.7366H69.116H69.0967C68.7082 34.7366 68.4125 34.66 68.2173 34.5088C68.0183 34.3615 67.7728 34.0572 67.4732 33.5996L65.5696 30.5696H63.8495L66.0894 34.0807C66.5649 34.8034 66.9688 35.2511 67.3051 35.4338C67.0925 35.5103 66.8896 35.6458 66.6944 35.852C66.503 36.0582 66.2634 36.3921 65.9754 36.8555L63.6485 40.5238H65.3589L67.3747 37.3386C67.6626 36.883 67.9062 36.5825 68.0975 36.4333C68.2888 36.288 68.5845 36.2134 68.9846 36.2134H69.116H69.4001V40.5238H70.9115V36.2134H71.1898H71.3212C71.7213 36.2134 72.0169 36.2899 72.2083 36.4333C72.3996 36.5806 72.6431 36.881 72.9311 37.3386L74.9469 40.5238H76.6573L74.3304 36.8555ZM16.6517 63.0184H15.1404V61.1843H7.87547V51.2262H9.38681V59.7331H13.8532V51.2262H15.3646V59.7331H16.6517V63.0184ZM29.8867 55.407H34.4091V56.8582H29.8867V59.7036H34.7454V61.1548H28.3753V51.1967H34.7454V52.6479H29.8867V55.407ZM54.5688 61.1823H53.6875L48.5079 54.1561V61.1823H46.9966V51.2242H47.8779L53.0574 58.2505V51.2242H54.5688V61.1823ZM70.9037 52.6754V61.1823H69.3924V52.6754H66.5359V51.2242H73.7737V52.6754H70.9037ZM66.4161 72.0418H69.5798C70.8863 72.0418 71.9319 72.3855 72.7166 73.0728C73.5012 73.7601 73.8916 74.6634 73.8916 75.7827C73.8916 76.9119 73.4993 77.8172 72.7166 78.5006C71.9338 79.1839 70.8863 79.5256 69.5798 79.5256H67.9274V82H66.4161V72.0418ZM67.9293 78.0862H69.6803C70.4824 78.0862 71.1472 77.8938 71.6749 77.5108C72.2025 77.126 72.4653 76.5506 72.4653 75.7827C72.4653 75.0346 72.1986 74.4651 71.6671 74.0763C71.1356 73.6874 70.4727 73.493 69.6784 73.493H67.9274V78.0862H67.9293Z"/></svg>