<svg width="90" height="22" viewBox="0 0 90 22" xmlns="http://www.w3.org/2000/svg"><g clip-path="url(#clip0_683_2652)"><path d="M85.5985 7.36449C85.344 6.84539 85.0502 6.34667 84.717 5.86834C84.3703 5.39 84.0888 4.92604 83.8724 4.47528C83.656 4.02451 83.5479 3.5198 83.5479 2.95874C83.5479 2.13873 83.8109 1.48056 84.3371 0.981844C84.8633 0.483124 85.5714 0.233765 86.464 0.233765C87.3553 0.233765 88.061 0.483124 88.581 0.981844C89.101 1.48056 89.3604 2.13993 89.3604 2.95874C89.3604 3.5186 89.2522 4.02451 89.0359 4.47528C88.8195 4.92604 88.538 5.39 88.1913 5.86834C87.8569 6.34667 87.5594 6.84539 87.3 7.36449C87.0406 7.88359 86.8598 8.51898 86.7615 9.26946H86.1308C86.0288 8.51898 85.853 7.88359 85.5985 7.36449ZM83.6401 13.101C83.6401 12.3913 83.8909 11.8074 84.3924 11.3495C84.894 10.8927 85.5776 10.6637 86.4443 10.6637C87.311 10.6637 87.9982 10.8891 88.506 11.3399C89.0137 11.7906 89.267 12.3781 89.267 13.1022C89.267 13.8395 89.0125 14.4305 88.506 14.8741C87.9982 15.3176 87.311 15.5394 86.4443 15.5394C85.5776 15.5394 84.894 15.3176 84.3924 14.8741C83.8909 14.4293 83.6401 13.8383 83.6401 13.101Z"/><path d="M1.16407 1.94092L3.05118 0.63298L2.50533 4.82294H0.368652L0.41414 0.63298H14.1218L14.144 4.82294H12.0294L11.4848 0.63298L13.3486 1.94092H1.16407ZM7.82491 13.445L11.3483 13.7771V15.0851H3.18765V13.7771L6.6201 13.445H7.82491ZM5.00591 7.50476C5.00591 5.22216 5.00591 2.91678 4.9383 0.63298H9.57556C9.50794 2.87122 9.50794 5.1766 9.50794 7.50476V8.1917C9.50794 10.4971 9.50794 12.8025 9.57556 15.0862H4.93707C5.00468 12.848 5.00468 10.5426 5.00468 8.21447V7.50476H5.00591Z"/><path d="M16.6641 15.1714V0.441177H29.6108V2.54515H31.7684V6.75309H29.6108V8.85707H31.7684V13.0674H29.6108V15.1714H16.6641ZM20.9805 6.75429H27.4544V2.54635H20.9805V6.75429ZM20.9805 13.0674H27.4544V8.85946H20.9805V13.0674Z"/><path d="M41.5399 15.7792C39.3799 15.7792 37.6452 15.2181 36.3359 14.0972C35.0266 12.9751 34.3726 11.4226 34.3726 9.43731C34.3726 6.79146 35.2885 4.55681 37.1215 2.73457C38.9533 0.911122 41.2227 0 43.9286 0C46.096 0 47.8368 0.557463 49.1486 1.67239C50.4604 2.78731 51.1181 4.34342 51.1181 6.34189C51.1181 9.00932 50.2022 11.25 48.3692 13.0614C46.5374 14.8729 44.2606 15.7792 41.5399 15.7792ZM47.5455 5.98583C47.5455 4.43213 47.1914 3.2177 46.4833 2.34015C45.7752 1.46259 44.8199 1.02381 43.6188 1.02381C41.8718 1.02381 40.4863 1.85581 39.4659 3.52101C38.4443 5.1862 37.9341 7.27219 37.9341 9.78257C37.9341 11.3219 38.2845 12.5351 38.9852 13.4223C39.686 14.3106 40.6449 14.7542 41.8608 14.7542C43.6077 14.7542 44.992 13.927 46.0137 12.2738C47.0353 10.6206 47.5455 8.52499 47.5455 5.98583Z"/><path d="M68.0049 15.4855V0.382431H71.7963V7.43763L71.623 10.0151H71.666C72.1283 8.95897 72.561 8.10059 72.9655 7.43763L77.2548 0.382431H81.0893V15.4855H77.2978V8.45185L77.4712 5.87434H77.4282C76.9659 6.93052 76.5332 7.79009 76.1287 8.45185L71.8172 15.4867H68.0049V15.4855Z"/><path d="M53.3652 15.0671V0.480743H65.5878V9.23231H57.6017V15.0671H53.3652ZM62.5967 6.31552V3.39873H57.6017V6.31552H62.5967Z"/><path d="M2.96491 18.925V20.9738H2.82722V19.1504L1.76748 20.6981H1.69618L0.645051 19.1623V20.9738H0.502441V18.925H0.640133L1.73552 20.5398L2.83091 18.925H2.96491V18.925Z"/><path d="M6.6164 19.9668H4.59036C4.59282 20.1406 4.63954 20.2952 4.72805 20.4331C4.81657 20.571 4.93951 20.6765 5.09564 20.7532C5.25178 20.8299 5.42635 20.8683 5.61936 20.8683C5.77673 20.8683 5.92179 20.8431 6.0558 20.7916C6.1898 20.74 6.29922 20.6645 6.38527 20.565L6.47871 20.6513C6.37421 20.7592 6.24881 20.8419 6.10006 20.8995C5.9513 20.957 5.79148 20.9858 5.61936 20.9858C5.39316 20.9858 5.19276 20.9414 5.01573 20.8539C4.8387 20.7652 4.69978 20.6429 4.59897 20.4847C4.49816 20.3264 4.44775 20.1478 4.44775 19.9476C4.44775 19.7474 4.49447 19.5687 4.5879 19.4105C4.68134 19.2522 4.81165 19.13 4.97762 19.0413C5.14359 18.9525 5.32923 18.9094 5.53454 18.9094C5.73616 18.9094 5.91934 18.9525 6.08407 19.0401C6.24881 19.1264 6.37913 19.2475 6.47379 19.4033C6.56845 19.5592 6.6164 19.7354 6.6164 19.932V19.9668ZM5.06737 19.1348C4.92722 19.2055 4.81657 19.305 4.73297 19.4333C4.64937 19.5615 4.60389 19.7042 4.59528 19.8613H6.47871C6.46641 19.703 6.41847 19.5604 6.33364 19.4333C6.24881 19.3062 6.13817 19.2067 5.99925 19.1348C5.86155 19.064 5.70665 19.0281 5.53331 19.0281C5.35996 19.0281 5.20629 19.0628 5.06737 19.1348Z"/><path d="M9.79557 19.0413C9.96768 19.13 10.1029 19.2534 10.2025 19.4129C10.3021 19.5723 10.3512 19.7522 10.3512 19.9512C10.3512 20.1514 10.3021 20.33 10.2025 20.4859C10.1029 20.6429 9.96768 20.7652 9.79557 20.8527C9.62345 20.9402 9.43167 20.9846 9.22144 20.9846C8.99892 20.9846 8.79853 20.9342 8.62273 20.8347C8.44569 20.7352 8.31415 20.5974 8.22809 20.4247V21.7387H8.08057V18.9238H8.22318V19.4848C8.30923 19.3062 8.44078 19.1647 8.61781 19.0628C8.79484 18.9597 8.99523 18.9094 9.22144 18.9094C9.4329 18.9094 9.62345 18.9537 9.79557 19.0413ZM9.72303 20.7508C9.87302 20.6729 9.99104 20.565 10.0771 20.4271C10.1632 20.2892 10.2062 20.131 10.2062 19.9512C10.2062 19.7725 10.1632 19.6131 10.0771 19.474C9.99104 19.335 9.87302 19.2259 9.72303 19.1479C9.57305 19.07 9.40462 19.0317 9.21775 19.0317C9.03089 19.0317 8.86246 19.07 8.71247 19.1479C8.56249 19.2259 8.44447 19.3338 8.35841 19.474C8.27235 19.6131 8.22932 19.7725 8.22932 19.9512C8.22932 20.1298 8.27235 20.2892 8.35841 20.4271C8.44447 20.565 8.56249 20.6729 8.71247 20.7508C8.86246 20.8287 9.03089 20.8671 9.21775 20.8671C9.40462 20.8671 9.57305 20.8287 9.72303 20.7508Z"/><path d="M13.7639 19.9668H11.7378C11.7403 20.1406 11.787 20.2952 11.8755 20.4331C11.964 20.571 12.087 20.6765 12.2431 20.7532C12.3992 20.8299 12.5738 20.8683 12.7668 20.8683C12.9242 20.8683 13.0693 20.8431 13.2033 20.7916C13.3373 20.74 13.4467 20.6645 13.5327 20.565L13.6262 20.6513C13.5217 20.7592 13.3963 20.8419 13.2475 20.8995C13.0988 20.957 12.9389 20.9858 12.7668 20.9858C12.5406 20.9858 12.3402 20.9414 12.1632 20.8539C11.9862 20.7652 11.8472 20.6429 11.7464 20.4847C11.6456 20.3264 11.5952 20.1478 11.5952 19.9476C11.5952 19.7474 11.6419 19.5687 11.7354 19.4105C11.8288 19.2522 11.9591 19.13 12.1251 19.0413C12.2911 18.9525 12.4767 18.9094 12.682 18.9094C12.8836 18.9094 13.0668 18.9525 13.2315 19.0401C13.3963 19.1264 13.5266 19.2475 13.6213 19.4033C13.7159 19.5592 13.7639 19.7354 13.7639 19.932V19.9668V19.9668ZM12.2136 19.1348C12.0734 19.2055 11.9628 19.305 11.8792 19.4333C11.7956 19.5615 11.7501 19.7042 11.7415 19.8613H13.6249C13.6126 19.703 13.5647 19.5604 13.4799 19.4333C13.395 19.3062 13.2844 19.2067 13.1455 19.1348C13.0078 19.064 12.8529 19.0281 12.6795 19.0281C12.5062 19.0281 12.3538 19.0628 12.2136 19.1348Z"/><path d="M17.1298 19.9907H16.5507V20.9738H16.4081V19.9907H15.834L15.0103 20.9738H14.832L15.7135 19.9272L14.8984 18.925H15.0681L15.834 19.8769H16.4081V18.925H16.5507V19.8769H17.1298L17.8957 18.925H18.0653L17.2502 19.9272L18.1317 20.9738H17.9535L17.1298 19.9907Z"/><path d="M20.8417 19.0988C20.9892 19.2247 21.0618 19.4081 21.0618 19.6479V20.9738H20.9191V20.5638C20.8454 20.6957 20.7347 20.7988 20.5872 20.8731C20.4397 20.9486 20.2639 20.9858 20.0598 20.9858C19.8016 20.9858 19.5988 20.933 19.4525 20.8275C19.305 20.722 19.2324 20.583 19.2324 20.4091C19.2324 20.2437 19.2988 20.1082 19.4328 20.0039C19.5668 19.8996 19.7807 19.8481 20.0746 19.8481H20.9167V19.6467C20.9167 19.4441 20.8564 19.2906 20.736 19.1851C20.6155 19.0796 20.4385 19.0269 20.2036 19.0269C20.0401 19.0269 19.8877 19.052 19.7451 19.1024C19.6025 19.1527 19.4808 19.2199 19.3799 19.3038L19.3 19.2091C19.4131 19.1144 19.5484 19.0413 19.707 18.9885C19.8656 18.9358 20.0328 18.9094 20.2073 18.9094C20.4827 18.9094 20.6942 18.9717 20.8417 19.0988ZM20.9142 20.3816V19.9548H20.0721C19.8311 19.9548 19.6553 19.9943 19.5447 20.0747C19.4328 20.155 19.3775 20.2641 19.3775 20.4007C19.3775 20.5482 19.439 20.6645 19.5619 20.7484C19.6848 20.8323 19.8533 20.8743 20.0672 20.8743C20.4839 20.8755 20.7667 20.71 20.9142 20.3816Z"/><path d="M27.0191 18.925V20.9738H26.8814V19.1504L25.8217 20.6981H25.7504L24.6993 19.1623V20.9738H24.5566V18.925H24.6943L25.7897 20.5398L26.8851 18.925H27.0191V18.925Z"/><path d="M28.7624 20.758C28.5829 20.6069 28.4932 20.4019 28.4932 20.1442C28.4932 19.9104 28.5497 19.6994 28.6628 19.5124C28.7759 19.3254 28.9321 19.1779 29.13 19.07C29.3291 18.9621 29.5541 18.9082 29.8074 18.9082C30.1135 18.9082 30.3569 18.9849 30.5376 19.1372C30.7184 19.2894 30.8093 19.4956 30.8093 19.7534C30.8093 19.9871 30.7528 20.1981 30.6397 20.3852C30.5266 20.5722 30.3704 20.7184 30.1725 20.8251C29.9734 20.9318 29.7484 20.9846 29.4951 20.9846C29.1865 20.9858 28.9419 20.9103 28.7624 20.758ZM30.1024 20.7256C30.2758 20.6309 30.4122 20.4991 30.5118 20.3288C30.6114 20.1586 30.6606 19.9692 30.6606 19.7582C30.6606 19.5268 30.5844 19.3482 30.4307 19.2211C30.277 19.094 30.0643 19.0317 29.7914 19.0317C29.5713 19.0317 29.3746 19.0796 29.1988 19.1755C29.023 19.2714 28.8866 19.4033 28.787 19.5723C28.6874 19.7414 28.6382 19.9308 28.6382 20.1406C28.6382 20.372 28.7145 20.5506 28.8681 20.6777C29.0206 20.8036 29.2357 20.8671 29.5111 20.8671C29.7324 20.8671 29.9291 20.8203 30.1024 20.7256Z"/><path d="M34.0328 18.925V20.9738H33.8865V19.0437H32.5993L32.5686 19.6275C32.5502 19.914 32.5244 20.1538 32.4912 20.3444C32.4567 20.535 32.399 20.6909 32.3178 20.812C32.2367 20.933 32.1211 20.993 31.9724 20.993C31.9453 20.993 31.8912 20.9846 31.8076 20.969L31.8261 20.8539C31.874 20.8647 31.9109 20.8695 31.9379 20.8695C32.0621 20.8695 32.1592 20.812 32.2268 20.6981C32.2957 20.583 32.3424 20.4403 32.367 20.2677C32.3928 20.0951 32.4125 19.8745 32.4272 19.6071L32.4678 18.9238H34.0328V18.925Z"/><path d="M35.7761 20.758C35.5966 20.6069 35.5068 20.4019 35.5068 20.1442C35.5068 19.9104 35.5634 19.6994 35.6765 19.5124C35.7896 19.3254 35.9457 19.1779 36.1437 19.07C36.3428 18.9621 36.5678 18.9082 36.8211 18.9082C37.1272 18.9082 37.3706 18.9849 37.5513 19.1372C37.732 19.2894 37.823 19.4956 37.823 19.7534C37.823 19.9871 37.7665 20.1981 37.6534 20.3852C37.5402 20.5722 37.3841 20.7184 37.1862 20.8251C36.987 20.9318 36.762 20.9846 36.5088 20.9846C36.2002 20.9858 35.9556 20.9103 35.7761 20.758ZM37.1161 20.7256C37.2895 20.6309 37.4259 20.4991 37.5255 20.3288C37.6251 20.1586 37.6743 19.9692 37.6743 19.7582C37.6743 19.5268 37.598 19.3482 37.4444 19.2211C37.2907 19.094 37.078 19.0317 36.8051 19.0317C36.585 19.0317 36.3883 19.0796 36.2125 19.1755C36.0367 19.2714 35.9002 19.4033 35.8007 19.5723C35.7011 19.7414 35.6519 19.9308 35.6519 20.1406C35.6519 20.372 35.7281 20.5506 35.8818 20.6777C36.0342 20.8036 36.2494 20.8671 36.5248 20.8671C36.7461 20.8671 36.9428 20.8203 37.1161 20.7256Z"/><path d="M41.4102 20.8587V21.4941H41.2676V20.9726H38.9883V21.4941H38.8457V20.8587H38.9834C39.0965 20.8539 39.1838 20.7928 39.2465 20.6753C39.3092 20.5578 39.3522 20.4139 39.378 20.2413C39.4038 20.0687 39.4235 19.8541 39.4383 19.5963L39.4739 18.925H41.0328V20.8587H41.4102ZM39.4801 20.4247C39.4309 20.6453 39.3461 20.7904 39.2244 20.8587H40.8853V19.0425H39.6067L39.576 19.5987C39.5612 19.9284 39.5292 20.2041 39.4801 20.4247Z"/><path d="M42.7874 18.3507C42.7579 18.3256 42.7432 18.2956 42.7432 18.262C42.7432 18.2248 42.7567 18.1937 42.785 18.1697C42.8132 18.1445 42.8477 18.1325 42.8895 18.1325C42.9276 18.1325 42.962 18.1445 42.9915 18.1697C43.021 18.1949 43.0358 18.2248 43.0358 18.2584C43.0358 18.2932 43.021 18.3232 42.9915 18.3495C42.962 18.3759 42.9276 18.3891 42.8895 18.3891C42.8513 18.3879 42.8169 18.3759 42.7874 18.3507ZM42.8182 18.925H42.9657V20.9738H42.8182V18.925Z"/><path d="M46.5897 19.9907H46.0107V20.9738H45.8681V19.9907H45.2939L44.4703 20.9738H44.292L45.1735 19.9272L44.3584 18.925H44.528L45.2939 19.8769H45.8681V18.925H46.0107V19.8769H46.5897L47.3556 18.925H47.5253L46.7102 19.9272L47.5917 20.9738H47.4134L46.5897 19.9907Z"/><path d="M48.9185 18.925H49.066V19.884H50.7318V18.925H50.8793V20.9738H50.7318V19.9991H49.066V20.9738H48.9185V18.925Z"/><path d="M52.5967 18.925H52.7442V20.764L54.4813 18.925H54.6104V20.9738H54.4617V19.1348L52.7208 20.9738H52.5967V18.925Z"/><path d="M57.775 20.9738L56.9378 20.0111L56.1006 20.9738H55.9272L56.853 19.9164L55.9752 18.925H56.1485L56.9366 19.8205L57.7209 18.925H57.8906L57.0226 19.9164L57.9582 20.9738H57.775Z"/><path d="M63.0919 18.925V20.9738H62.9443V19.0437H61.2613V20.9738H61.1138V18.925H63.0919Z"/><path d="M66.5294 19.0413C66.7016 19.13 66.8368 19.2534 66.9364 19.4129C67.036 19.5723 67.0851 19.7522 67.0851 19.9512C67.0851 20.1514 67.036 20.33 66.9364 20.4859C66.8368 20.6429 66.7016 20.7652 66.5294 20.8527C66.3573 20.9414 66.1655 20.9846 65.9553 20.9846C65.7328 20.9846 65.5324 20.9342 65.3566 20.8347C65.1796 20.7352 65.048 20.5974 64.962 20.4247V21.7387H64.8145V18.9238H64.9571V19.4848C65.0431 19.3062 65.1747 19.1647 65.3517 19.0628C65.5287 18.9597 65.7291 18.9094 65.9553 18.9094C66.1655 18.9094 66.3573 18.9537 66.5294 19.0413ZM66.4557 20.7508C66.6057 20.6729 66.7237 20.565 66.8098 20.4271C66.8958 20.2892 66.9388 20.131 66.9388 19.9512C66.9388 19.7725 66.8958 19.6131 66.8098 19.474C66.7237 19.335 66.6057 19.2259 66.4557 19.1479C66.3057 19.07 66.1373 19.0317 65.9504 19.0317C65.7635 19.0317 65.5951 19.07 65.4451 19.1479C65.2951 19.2259 65.1771 19.3338 65.0911 19.474C65.005 19.6131 64.962 19.7725 64.962 19.9512C64.962 20.1298 65.005 20.2892 65.0911 20.4271C65.1771 20.565 65.2951 20.6729 65.4451 20.7508C65.5951 20.8287 65.7635 20.8671 65.9504 20.8671C66.1373 20.8671 66.3057 20.8287 66.4557 20.7508Z"/><path d="M68.5886 20.758C68.4091 20.6069 68.3193 20.4019 68.3193 20.1442C68.3193 19.9104 68.3759 19.6994 68.489 19.5124C68.6021 19.3254 68.757 19.1779 68.9562 19.07C69.1553 18.9621 69.3803 18.9082 69.6336 18.9082C69.9397 18.9082 70.1831 18.9849 70.3638 19.1372C70.5445 19.2894 70.6355 19.4956 70.6355 19.7534C70.6355 19.9871 70.579 20.1981 70.4658 20.3852C70.3527 20.5722 70.1966 20.7184 69.9987 20.8251C69.7995 20.9318 69.5745 20.9846 69.3213 20.9846C69.0127 20.9858 68.7681 20.9103 68.5886 20.758ZM69.9286 20.7256C70.102 20.6309 70.2384 20.4991 70.338 20.3288C70.4376 20.1586 70.4867 19.9692 70.4867 19.7582C70.4867 19.5268 70.4105 19.3482 70.2569 19.2211C70.1044 19.0952 69.8905 19.0317 69.6176 19.0317C69.3975 19.0317 69.2008 19.0796 69.025 19.1755C68.8504 19.2714 68.7127 19.4033 68.6132 19.5723C68.5136 19.7414 68.4644 19.9308 68.4644 20.1406C68.4644 20.372 68.5406 20.5506 68.6943 20.6777C68.8467 20.8036 69.0619 20.8671 69.3373 20.8671C69.5586 20.8671 69.7553 20.8203 69.9286 20.7256Z"/><path d="M72.4317 20.8539C72.2583 20.7652 72.1219 20.6429 72.0223 20.4847C71.9227 20.3264 71.8735 20.1478 71.8735 19.9476C71.8735 19.7474 71.9227 19.5687 72.0223 19.4105C72.1219 19.2522 72.2583 19.13 72.4317 19.0413C72.605 18.9525 72.8017 18.9094 73.0218 18.9094C73.1964 18.9094 73.3599 18.9393 73.5099 18.9981C73.6598 19.0568 73.7816 19.1444 73.8775 19.2606L73.7656 19.3434C73.682 19.2403 73.5762 19.1635 73.4472 19.1108C73.3181 19.058 73.1767 19.0317 73.0218 19.0317C72.8325 19.0317 72.6603 19.07 72.5079 19.1479C72.3555 19.2259 72.235 19.3338 72.1489 19.4716C72.0629 19.6095 72.0198 19.7689 72.0198 19.9476C72.0198 20.1262 72.0629 20.2856 72.1489 20.4247C72.235 20.5638 72.3542 20.6729 72.5079 20.7508C72.6603 20.8287 72.8325 20.8671 73.0218 20.8671C73.1767 20.8671 73.3181 20.8407 73.4472 20.788C73.5762 20.7352 73.682 20.6573 73.7656 20.5554L73.8775 20.6345C73.7828 20.7508 73.6598 20.8383 73.5099 20.8971C73.3599 20.9558 73.1976 20.9858 73.0218 20.9858C72.8017 20.9858 72.605 20.9414 72.4317 20.8539Z"/><path d="M76.7614 19.0437H75.8394V20.9738H75.6918V19.0437H74.7661V18.925H76.7614V19.0437Z"/><path d="M77.9885 20.758C77.809 20.6069 77.7192 20.4019 77.7192 20.1442C77.7192 19.9104 77.7758 19.6994 77.8889 19.5124C78.002 19.3254 78.1569 19.1779 78.3561 19.07C78.5552 18.9621 78.7802 18.9082 79.0335 18.9082C79.3396 18.9082 79.583 18.9849 79.7637 19.1372C79.9444 19.2894 80.0354 19.4956 80.0354 19.7534C80.0354 19.9871 79.9789 20.1981 79.8658 20.3852C79.7527 20.5722 79.5965 20.7184 79.3986 20.8251C79.1994 20.9318 78.9744 20.9846 78.7212 20.9846C78.4126 20.9858 78.168 20.9103 77.9885 20.758ZM79.3285 20.7256C79.5019 20.6309 79.6383 20.4991 79.7379 20.3288C79.8375 20.1586 79.8867 19.9692 79.8867 19.7582C79.8867 19.5268 79.8104 19.3482 79.6568 19.2211C79.5043 19.0952 79.2904 19.0317 79.0175 19.0317C78.7974 19.0317 78.6007 19.0796 78.4249 19.1755C78.2503 19.2714 78.1126 19.4033 78.0131 19.5723C77.9135 19.7414 77.8643 19.9308 77.8643 20.1406C77.8643 20.372 77.9405 20.5506 78.0942 20.6777C78.2466 20.8036 78.4618 20.8671 78.7372 20.8671C78.9585 20.8671 79.1552 20.8203 79.3285 20.7256Z"/><path d="M83.2316 19.0413C83.4037 19.13 83.5389 19.2534 83.6385 19.4129C83.7381 19.5723 83.7873 19.7522 83.7873 19.9512C83.7873 20.1514 83.7381 20.33 83.6385 20.4859C83.5389 20.6429 83.4037 20.7652 83.2316 20.8527C83.0595 20.9414 82.8677 20.9846 82.6575 20.9846C82.4349 20.9846 82.2346 20.9342 82.0588 20.8347C81.8817 20.7352 81.7502 20.5974 81.6641 20.4247V21.7387H81.5166V18.9238H81.6592V19.4848C81.7453 19.3062 81.8768 19.1647 82.0538 19.0628C82.2309 18.9597 82.4313 18.9094 82.6575 18.9094C82.8677 18.9094 83.0595 18.9537 83.2316 19.0413ZM83.1578 20.7508C83.3078 20.6729 83.4258 20.565 83.5119 20.4271C83.5979 20.2892 83.641 20.131 83.641 19.9512C83.641 19.7725 83.5979 19.6131 83.5119 19.474C83.4258 19.335 83.3078 19.2259 83.1578 19.1479C83.0078 19.07 82.8394 19.0317 82.6526 19.0317C82.4657 19.0317 82.2973 19.07 82.1473 19.1479C81.9973 19.2259 81.8793 19.3338 81.7932 19.474C81.7072 19.6131 81.6641 19.7725 81.6641 19.9512C81.6641 20.1298 81.7072 20.2892 81.7932 20.4271C81.8793 20.565 81.9973 20.6729 82.1473 20.7508C82.2973 20.8287 82.4657 20.8671 82.6526 20.8671C82.8394 20.8671 83.0078 20.8287 83.1578 20.7508Z"/><path d="M85.2357 18.3507C85.2062 18.3256 85.1914 18.2956 85.1914 18.262C85.1914 18.2248 85.2049 18.1937 85.2332 18.1697C85.2615 18.1445 85.2959 18.1325 85.3377 18.1325C85.3758 18.1325 85.4102 18.1445 85.4397 18.1697C85.4692 18.1949 85.484 18.2248 85.484 18.2584C85.484 18.2932 85.4692 18.3232 85.4397 18.3495C85.4102 18.3759 85.3758 18.3891 85.3377 18.3891C85.2996 18.3879 85.2652 18.3759 85.2357 18.3507ZM85.2664 18.925H85.4139V20.9738H85.2664V18.925Z"/><path d="M88.9582 20.4295C88.9582 20.6081 88.8857 20.7436 88.7418 20.8359C88.598 20.9282 88.3804 20.9738 88.089 20.9738H87.1313V18.925H88.0669C88.3189 18.925 88.5169 18.9693 88.6595 19.0592C88.8021 19.1492 88.8734 19.2774 88.8734 19.4465C88.8734 19.57 88.834 19.6719 88.7554 19.7522C88.6767 19.8325 88.5673 19.8888 88.4283 19.92C88.7812 19.9704 88.9582 20.1394 88.9582 20.4295ZM87.2789 19.8805H88.0669C88.2771 19.8805 88.4406 19.8445 88.555 19.7738C88.6693 19.703 88.7259 19.5975 88.7259 19.4585C88.7259 19.3194 88.6693 19.2139 88.555 19.1432C88.4406 19.0724 88.2784 19.0365 88.0669 19.0365H87.2789V19.8805ZM88.6312 20.7568C88.7517 20.6861 88.8119 20.5758 88.8119 20.4247C88.8119 20.2749 88.7578 20.1646 88.6496 20.0926C88.5415 20.0219 88.3718 19.9859 88.1394 19.9859H87.2801V20.8623H88.0952C88.3312 20.8635 88.5107 20.8275 88.6312 20.7568Z"/></g><defs><clipPath id="clip0_683_2652"><rect width="90" height="22"/></clipPath></defs></svg>