<svg width="39" height="38" viewBox="0 0 39 38" xmlns="http://www.w3.org/2000/svg"><path d="M7.89319 9.44634H7.22199V6.26712L5.76112 8.15685L4.29425 6.26712V9.44634H3.62305V4.97675H4.01444L5.76112 7.24371L7.50866 4.97675H7.89405V9.44634H7.89319ZM12.7573 5.5858C13.1882 5.14069 13.7109 4.91858 14.3237 4.91858C14.9374 4.91858 15.4601 5.14157 15.8936 5.5858C16.3271 6.03091 16.5433 6.56768 16.5433 7.19788C16.5433 7.82809 16.3271 8.36486 15.8936 8.80997C15.4601 9.25507 14.9374 9.47719 14.3237 9.47719C13.71 9.47719 13.1882 9.25507 12.7573 8.80997C12.3264 8.36486 12.111 7.82809 12.111 7.19788C12.1101 6.56856 12.3264 6.03091 12.7573 5.5858ZM15.425 6.03267C15.1263 5.72418 14.7598 5.56993 14.3246 5.56993C13.8894 5.56993 13.5238 5.72418 13.2268 6.03267C12.9307 6.34116 12.7822 6.72986 12.7822 7.19788C12.7822 7.67031 12.9298 8.05989 13.2268 8.36662C13.5229 8.67335 13.8886 8.82671 14.3246 8.82671C14.7606 8.82671 15.1263 8.67335 15.425 8.36662C15.7237 8.05989 15.873 7.67031 15.873 7.19788C15.8721 6.72986 15.7228 6.34116 15.425 6.03267ZM22.8632 6.24773L21.6195 9.44634H20.8796L22.6769 4.97675H23.0683L24.8467 9.44634H24.1069L22.8632 6.24773ZM29.8971 5.59902C30.328 5.15391 30.8507 4.9318 31.4635 4.9318C32.0772 4.9318 32.6 5.15479 33.0334 5.59902C33.4669 6.04413 33.6832 6.5809 33.6832 7.2111C33.6832 7.84131 33.4669 8.37808 33.0334 8.82319C32.6 9.26829 32.0772 9.49041 31.4635 9.49041C30.8498 9.49041 30.328 9.26829 29.8971 8.82319C29.4662 8.37808 29.2508 7.84131 29.2508 7.2111C29.2508 6.58178 29.4662 6.04413 29.8971 5.59902ZM32.5648 6.04589C32.2661 5.7374 31.8996 5.58315 31.4644 5.58315C31.0292 5.58315 30.6636 5.7374 30.3666 6.04589C30.0705 6.35438 29.922 6.74308 29.922 7.2111C29.922 7.68353 30.0696 8.07311 30.3666 8.37984C30.6627 8.68657 31.0284 8.83993 31.4644 8.83993C31.8996 8.83993 32.2661 8.68657 32.5648 8.37984C32.8635 8.07311 33.0128 7.68353 33.0128 7.2111C33.0128 6.74308 32.8635 6.35438 32.5648 6.04589ZM3.92947 14.0376H5.3723C5.99373 14.0376 6.51816 14.2482 6.94561 14.6695C7.37305 15.0908 7.58591 15.625 7.58591 16.2719C7.58591 16.9189 7.37219 17.453 6.94561 17.8743C6.51902 18.2956 5.99459 18.5063 5.3723 18.5063H3.92947V14.0376ZM4.60067 17.8549H5.37145C5.8152 17.8549 6.18256 17.7139 6.47525 17.4301C6.76793 17.1471 6.91385 16.7611 6.91385 16.271C6.91385 15.7854 6.76793 15.4011 6.47525 15.1155C6.18342 14.8308 5.8152 14.688 5.37145 14.688H4.60067V17.8549ZM14.5289 18.493H14.1375L12.3281 14.0235H13.068L14.3297 17.2221L15.5795 14.0235H16.3253L14.5289 18.493ZM23.1996 17.8549H23.7155V18.5063H22.0117V17.8549H22.5276V14.688H22.0117V14.0367H23.7155V14.688H23.1996V17.8549ZM33.3218 16.8598C33.1939 16.6518 33.0875 16.502 33.0025 16.4094C32.9158 16.3169 32.8266 16.256 32.7313 16.2217C32.8806 16.1397 33.06 15.9387 33.2712 15.6144L34.266 14.0384H33.502L32.6566 15.3984C32.5236 15.6029 32.4137 15.7395 32.3262 15.8065C32.2395 15.8744 32.1081 15.9088 31.9356 15.9088H31.927H31.8034V14.0393H31.1322V15.9088H31.0061H30.9975C30.8249 15.9088 30.6936 15.8744 30.6069 15.8065C30.5185 15.7404 30.4095 15.6038 30.2765 15.3984L29.431 14.0384H28.6671L29.6619 15.6144C29.8731 15.9387 30.0525 16.1397 30.2018 16.2217C30.1074 16.256 30.0173 16.3169 29.9306 16.4094C29.8456 16.502 29.7392 16.6518 29.6113 16.8598L28.5779 18.5063H29.3375L30.2327 17.0766C30.3606 16.8721 30.4687 16.7373 30.5537 16.6703C30.6387 16.6051 30.77 16.5716 30.9477 16.5716H31.0061H31.1322V18.5063H31.8034V16.5716H31.927H31.9854C32.1631 16.5716 32.2944 16.606 32.3794 16.6703C32.4643 16.7364 32.5725 16.8713 32.7004 17.0766L33.5956 18.5063H34.3552L33.3218 16.8598ZM7.70608 28.6027H7.03487V27.7795H3.80844V23.3099H4.47965V27.1281H6.46323V23.3099H7.13444V27.1281H7.70608V28.6027ZM13.5839 25.1864H15.5923V25.8378H13.5839V27.1149H15.7417V27.7663H12.9127V23.2967H15.7417V23.948H13.5839V25.1864ZM24.5455 27.7786H24.1541L21.8538 24.625V27.7786H21.1826V23.309H21.574L23.8743 26.4627V23.309H24.5455V27.7786ZM31.8 23.9604V27.7786H31.1288V23.9604H29.8602V23.309H33.0746V23.9604H31.8ZM29.807 32.6528H31.212C31.7923 32.6528 32.2566 32.807 32.6051 33.1155C32.9536 33.424 33.127 33.8294 33.127 34.3318C33.127 34.8386 32.9527 35.245 32.6051 35.5517C32.2575 35.8584 31.7923 36.0118 31.212 36.0118H30.4782V37.1224H29.807V32.6528ZM30.479 35.3657H31.2567C31.6129 35.3657 31.9081 35.2793 32.1425 35.1075C32.3768 34.9347 32.4935 34.6765 32.4935 34.3318C32.4935 33.996 32.3751 33.7404 32.139 33.5659C31.903 33.3914 31.6086 33.3041 31.2558 33.3041H30.4782V35.3657H30.479Z"/></svg>