<svg width="31" height="31" viewBox="0 0 31 31" xmlns="http://www.w3.org/2000/svg"><g clip-path="url(#clip0_606_2809)"><path d="M10.5875 18.227L8.63623 18.2353L8.65075 21.6838L6.2474 21.6942L6.19971 9.84952L10.5544 9.83293C13.3641 9.82256 14.7742 11.187 14.7846 13.9263C14.7908 15.3073 14.4362 16.369 13.727 17.1093C13.0158 17.8476 11.9686 18.2208 10.5875 18.227ZM8.62794 16.1783L10.5606 16.17C11.7571 16.1658 12.3522 15.4193 12.346 13.9325C12.3439 13.2005 12.1967 12.6759 11.9043 12.3586C11.6119 12.0414 11.1599 11.8817 10.544 11.8858L8.61135 11.8941L8.62794 16.1783Z"/><path d="M16.1675 12.7298L18.7139 12.7194L20.1509 15.4753L21.5818 12.7091L24.1303 12.6987L21.617 17.0741L24.1655 21.6071L21.617 21.6174L20.1634 18.8968L18.7492 21.6278L16.2027 21.6382L18.6247 17.155L16.1675 12.7298Z"/><path d="M0.254515 30.6502L0.252441 30.3993V0.789783H30.1108L30.1129 1.04069V30.6502H0.254515ZM0.760483 1.2916L0.754262 30.1442L29.6048 30.1484L29.611 1.29575L0.760483 1.2916Z"/></g><defs><clipPath id="clip0_606_2809"><rect width="29.8604" height="29.8604" transform="translate(0.252441 0.789783)"/></clipPath></defs></svg>