<svg width="90" height="22" xmlns="http://www.w3.org/2000/svg"><g clip-path="url(#a)"><path d="M85.599 7.364a11.374 11.374 0 0 0-.882-1.496 9.11 9.11 0 0 1-.844-1.393 3.457 3.457 0 0 1-.325-1.516c0-.82.263-1.478.79-1.977.526-.499 1.234-.748 2.127-.748.89 0 1.596.25 2.117.748.52.499.779 1.158.779 1.977a3.46 3.46 0 0 1-.325 1.516 9.11 9.11 0 0 1-.844 1.393c-.335.479-.632.977-.892 1.496-.259.52-.44 1.155-.538 1.905h-.63c-.103-.75-.279-1.385-.533-1.905Zm-1.959 5.737c0-.71.251-1.294.753-1.752.501-.456 1.185-.685 2.052-.685s1.554.225 2.062.676c.507.45.76 1.038.76 1.762 0 .737-.254 1.329-.76 1.772-.508.444-1.196.665-2.062.665-.867 0-1.55-.221-2.052-.665-.502-.445-.752-1.036-.752-1.773ZM1.164 1.94 3.051.634l-.545 4.19H.369L.414.633h13.708l.022 4.19H12.03l-.545-4.19 1.864 1.308H1.164Zm6.661 11.505 3.524.332v1.308H3.188v-1.308l3.432-.332h1.205Zm-2.819-5.94c0-2.283 0-4.588-.067-6.872h4.637c-.068 2.238-.068 4.544-.068 6.872v.687c0 2.305 0 4.61.068 6.894H4.937c.068-2.238.068-4.543.068-6.872v-.71h.001Zm11.659 7.666V.441H29.61v2.104h2.158v4.208H29.61v2.104h2.158v4.21H29.61v2.104H16.665Zm4.316-8.417h6.474V2.546H20.98v4.208Zm0 6.313h6.474V8.86H20.98v4.208ZM41.54 15.78c-2.16 0-3.895-.562-5.204-1.683-1.31-1.122-1.963-2.674-1.963-4.66 0-2.646.916-4.88 2.748-6.702C38.953.91 41.224 0 43.93 0c2.167 0 3.908.557 5.22 1.672 1.311 1.115 1.97 2.671 1.97 4.67 0 2.667-.917 4.908-2.75 6.72-1.832 1.81-4.108 2.717-6.83 2.717Zm6.005-9.794c0-1.554-.354-2.768-1.062-3.646-.708-.877-1.663-1.316-2.864-1.316-1.747 0-3.133.832-4.153 2.497-1.022 1.665-1.532 3.751-1.532 6.262 0 1.539.35 2.752 1.051 3.64.701.888 1.66 1.331 2.876 1.331 1.747 0 3.131-.827 4.153-2.48 1.021-1.653 1.531-3.749 1.531-6.288Zm20.46 9.5V.382h3.792v7.056l-.174 2.577h.043c.463-1.056.895-1.914 1.3-2.577l4.29-7.056h3.834v15.104h-3.792V8.451l.173-2.578h-.043c-.462 1.057-.895 1.916-1.3 2.578l-4.31 7.035h-3.813v-.002Zm-14.64-.419V.481h12.223v8.751h-7.986v5.835h-4.236Zm9.232-8.751V3.399h-4.995v2.917h4.995ZM2.965 18.925v2.049h-.137V19.15l-1.06 1.548h-.071L.646 19.162v1.812H.503v-2.049H.64l1.095 1.615 1.095-1.615h.134Zm3.652 1.042H4.59a.867.867 0 0 0 .505.786c.156.077.33.115.524.115.157 0 .302-.025.436-.076a.812.812 0 0 0 .33-.227l.093.086a1.05 1.05 0 0 1-.379.248 1.32 1.32 0 0 1-.48.087c-.227 0-.427-.045-.604-.132a1.026 1.026 0 0 1-.417-.37.977.977 0 0 1-.151-.536c0-.2.047-.38.14-.538a.975.975 0 0 1 .39-.369 1.16 1.16 0 0 1 .557-.132c.201 0 .385.044.55.131a.978.978 0 0 1 .532.892v.035Zm-1.55-.832a.855.855 0 0 0-.472.727H6.48a.88.88 0 0 0-.48-.727 1.003 1.003 0 0 0-.465-.107.992.992 0 0 0-.466.107Zm4.729-.094a.996.996 0 0 1 .556.91c0 .2-.05.379-.15.535-.099.157-.234.28-.406.367a1.25 1.25 0 0 1-.574.132c-.223 0-.423-.05-.599-.15a.95.95 0 0 1-.395-.41v1.314h-.147v-2.815h.142v.56a.959.959 0 0 1 .395-.421c.177-.103.377-.154.604-.154.211 0 .402.045.574.132Zm-.073 1.71a.879.879 0 0 0 .483-.8.889.889 0 0 0-.129-.477.892.892 0 0 0-.354-.326 1.08 1.08 0 0 0-.505-.116 1.08 1.08 0 0 0-.505.116.884.884 0 0 0-.483.803c0 .179.043.338.129.476a.894.894 0 0 0 .354.324c.15.078.318.116.505.116s.355-.038.505-.116Zm4.041-.784h-2.026a.868.868 0 0 0 .506.786c.156.077.33.115.523.115.158 0 .303-.025.437-.076a.811.811 0 0 0 .33-.227l.093.086a1.05 1.05 0 0 1-.379.248 1.32 1.32 0 0 1-.48.087c-.227 0-.427-.045-.604-.132a1.027 1.027 0 0 1-.417-.37.978.978 0 0 1-.151-.536c0-.2.046-.38.14-.538a.975.975 0 0 1 .39-.369 1.16 1.16 0 0 1 .556-.132c.202 0 .385.044.55.131a.977.977 0 0 1 .532.892v.035Zm-1.55-.832a.855.855 0 0 0-.472.727h1.883a.88.88 0 0 0-.479-.727 1.003 1.003 0 0 0-.466-.107.995.995 0 0 0-.466.107Zm4.916.855h-.578v.984h-.143v-.983h-.574l-.824.983h-.178l.881-1.047-.815-1.002h.17l.766.952h.574v-.952h.143v.952h.579l.765-.952h.17l-.815 1.002.881 1.047h-.178l-.823-.983Zm3.712-.891c.148.126.22.31.22.549v1.326h-.143v-.41a.76.76 0 0 1-.332.31 1.145 1.145 0 0 1-.527.112c-.258 0-.461-.053-.607-.159a.49.49 0 0 1-.22-.418c0-.165.066-.3.2-.405.134-.104.348-.156.642-.156h.842v-.201c0-.203-.06-.356-.18-.462-.121-.105-.298-.158-.533-.158-.164 0-.316.025-.459.075-.142.05-.264.118-.365.202l-.08-.095a1.23 1.23 0 0 1 .407-.22c.159-.053.326-.08.5-.08.276 0 .487.063.635.19Zm.073 1.283v-.427h-.843c-.24 0-.416.04-.527.12a.38.38 0 0 0-.167.326.4.4 0 0 0 .184.347c.123.084.291.126.505.126.417.002.7-.164.848-.492Zm6.105-1.457v2.049h-.138V19.15l-1.06 1.548h-.071L24.7 19.162v1.812h-.143v-2.049h.138l1.095 1.615 1.096-1.615h.134Zm1.743 1.833a.761.761 0 0 1-.27-.614 1.198 1.198 0 0 1 .638-1.074c.199-.108.424-.162.677-.162.306 0 .55.077.73.23.18.151.272.358.272.615a1.2 1.2 0 0 1-.17.632 1.2 1.2 0 0 1-.467.44c-.2.107-.424.16-.677.16-.309 0-.554-.075-.733-.227Zm1.34-.032c.173-.095.31-.227.41-.397.099-.17.148-.36.148-.57 0-.232-.076-.41-.23-.538-.154-.127-.366-.19-.64-.19-.22 0-.416.049-.592.145a1.053 1.053 0 0 0-.412.396c-.1.17-.148.359-.148.569 0 .231.076.41.23.537.152.126.367.19.643.19.22 0 .418-.048.59-.142Zm3.93-1.801v2.049h-.146v-1.93H32.6l-.03.584a6.866 6.866 0 0 1-.078.716 1.237 1.237 0 0 1-.174.468.392.392 0 0 1-.345.181c-.027 0-.081-.008-.165-.024l.018-.115c.049.01.085.015.112.015a.32.32 0 0 0 .29-.17c.068-.116.115-.259.14-.431.025-.173.045-.393.06-.66l.04-.684h1.565v.001Zm1.744 1.833a.761.761 0 0 1-.27-.614 1.198 1.198 0 0 1 .637-1.074c.2-.108.424-.162.678-.162.306 0 .55.077.73.23.18.151.272.358.272.615a1.2 1.2 0 0 1-.17.632c-.113.187-.27.333-.467.44-.2.107-.424.16-.678.16-.308 0-.553-.075-.732-.227Zm1.34-.032c.173-.095.31-.227.409-.397.1-.17.149-.36.149-.57 0-.232-.076-.41-.23-.538-.154-.127-.367-.19-.64-.19-.22 0-.416.049-.592.145a1.053 1.053 0 0 0-.412.396 1.1 1.1 0 0 0-.149.569c0 .231.077.41.23.537.153.126.368.19.643.19.221 0 .418-.048.592-.142Zm4.293.133v.635h-.142v-.521H38.99v.521h-.143v-.635h.138c.113-.005.2-.066.263-.184a1.33 1.33 0 0 0 .132-.434c.026-.172.045-.387.06-.645l.036-.671h1.558v1.934h.378Zm-1.93-.434c-.048.22-.133.365-.255.434h1.661v-1.817h-1.279l-.03.557c-.015.33-.047.605-.096.826Zm3.308-2.075a.114.114 0 0 1-.044-.088c0-.037.013-.068.041-.092a.15.15 0 0 1 .105-.038.15.15 0 0 1 .102.038c.03.025.044.055.044.088a.118.118 0 0 1-.044.091.15.15 0 0 1-.102.04.16.16 0 0 1-.102-.038Zm.03.575h.148v2.049h-.147v-2.049Zm3.772 1.065h-.579v.984h-.142v-.983h-.575l-.823.983h-.178l.881-1.047-.815-1.002h.17l.765.952h.575v-.952h.142v.952h.58l.765-.952h.17l-.815 1.002.881 1.047h-.178l-.824-.983Zm2.329-1.065h.147v.959h1.666v-.959h.148v2.049h-.148v-.975h-1.666v.975h-.147v-2.049Zm3.678 0h.148v1.839l1.737-1.839h.129v2.049h-.149v-1.84l-1.74 1.84h-.125v-2.049Zm5.178 2.049-.837-.963-.837.963h-.173l.925-1.058-.878-.991h.174l.788.895.784-.895h.17l-.868.991.935 1.058h-.183Zm5.317-2.049v2.049h-.147v-1.93h-1.683v1.93h-.148v-2.049h1.978Zm3.438.116a.996.996 0 0 1 .556.91c0 .2-.05.379-.15.535-.099.157-.234.28-.406.367a1.235 1.235 0 0 1-.574.132c-.223 0-.423-.05-.6-.15a.95.95 0 0 1-.394-.41v1.314h-.147v-2.815h.142v.56a.959.959 0 0 1 .395-.421c.177-.103.377-.154.604-.154.21 0 .402.045.574.132Zm-.074 1.71a.879.879 0 0 0 .483-.8.889.889 0 0 0-.129-.477.893.893 0 0 0-.354-.326 1.08 1.08 0 0 0-.505-.116 1.08 1.08 0 0 0-.506.116.884.884 0 0 0-.483.803c0 .179.043.338.13.476a.894.894 0 0 0 .353.324c.15.078.319.116.506.116s.355-.038.505-.116Zm2.134.007a.761.761 0 0 1-.27-.614 1.198 1.198 0 0 1 .637-1.074c.199-.108.424-.162.677-.162.306 0 .55.077.73.23a.762.762 0 0 1 .272.615 1.2 1.2 0 0 1-.17.632 1.2 1.2 0 0 1-.467.44c-.199.107-.424.16-.677.16-.309 0-.553-.075-.733-.227Zm1.34-.032c.172-.095.309-.227.408-.397.1-.17.15-.36.15-.57 0-.232-.077-.41-.23-.538-.153-.126-.367-.19-.64-.19-.22 0-.417.049-.593.145a1.061 1.061 0 0 0-.411.396 1.1 1.1 0 0 0-.15.569c0 .231.077.41.23.537.153.126.368.19.644.19.221 0 .418-.048.591-.142Zm2.502.128a.986.986 0 0 1-.558-.906.986.986 0 0 1 .558-.907c.174-.088.37-.132.59-.132.175 0 .338.03.488.09.15.058.272.145.368.262l-.112.082a.78.78 0 0 0-.318-.232 1.111 1.111 0 0 0-.426-.08c-.19 0-.361.039-.514.117a.893.893 0 0 0-.359.324.882.882 0 0 0-.129.476.88.88 0 0 0 .488.803c.153.078.325.116.514.116.155 0 .297-.026.426-.079a.792.792 0 0 0 .318-.233l.112.08a.876.876 0 0 1-.368.262 1.32 1.32 0 0 1-.488.089 1.3 1.3 0 0 1-.59-.132Zm4.33-1.81h-.922v1.93h-.147v-1.93h-.926v-.119h1.995v.119Zm1.227 1.714a.761.761 0 0 1-.27-.614 1.198 1.198 0 0 1 .638-1.074c.199-.108.424-.162.677-.162.306 0 .55.077.73.23.18.151.272.358.272.615a1.2 1.2 0 0 1-.17.632 1.2 1.2 0 0 1-.467.44c-.2.107-.424.16-.677.16-.309 0-.553-.075-.733-.227Zm1.34-.032c.173-.095.31-.227.41-.397.099-.17.148-.36.148-.57 0-.232-.076-.41-.23-.538-.152-.126-.366-.19-.639-.19-.22 0-.417.049-.593.145a1.06 1.06 0 0 0-.411.396 1.1 1.1 0 0 0-.15.569c0 .231.077.41.23.537.153.126.368.19.644.19.221 0 .418-.048.591-.142Zm3.903-1.685a.996.996 0 0 1 .556.91c0 .2-.05.379-.149.535-.1.157-.235.28-.407.367a1.235 1.235 0 0 1-.574.132c-.222 0-.423-.05-.599-.15a.95.95 0 0 1-.394-.41v1.314h-.148v-2.815h.143v.56a.959.959 0 0 1 .395-.421c.177-.103.377-.154.603-.154.21 0 .402.045.574.132Zm-.073 1.71a.879.879 0 0 0 .483-.8.889.889 0 0 0-.13-.477.892.892 0 0 0-.353-.326 1.08 1.08 0 0 0-.506-.116 1.08 1.08 0 0 0-.505.116.884.884 0 0 0-.483.803c0 .179.043.338.129.476a.894.894 0 0 0 .354.324c.15.078.318.116.505.116s.356-.038.506-.116Zm2.077-2.401a.114.114 0 0 1-.044-.088c0-.037.013-.068.042-.092a.15.15 0 0 1 .104-.038c.038 0 .073.012.102.038.03.025.044.055.044.088a.119.119 0 0 1-.044.091.15.15 0 0 1-.102.04.16.16 0 0 1-.102-.038Zm.03.575h.148v2.049h-.147v-2.049Zm3.693 1.505a.453.453 0 0 1-.217.406c-.144.092-.361.138-.653.138h-.957v-2.049h.935c.252 0 .45.044.593.134a.43.43 0 0 1 .214.387.42.42 0 0 1-.118.306.644.644 0 0 1-.327.168c.353.05.53.22.53.51Zm-1.68-.55h.788c.21 0 .374-.035.489-.106a.347.347 0 0 0 .17-.316.347.347 0 0 0-.17-.315c-.115-.07-.277-.107-.489-.107h-.788v.845Zm1.353.877c.12-.07.18-.181.18-.332 0-.15-.054-.26-.162-.332-.108-.071-.278-.107-.51-.107h-.86v.876h.816c.236.002.415-.034.536-.105Z"/></g><defs><clipPath id="a"><path d="M0 0h90v22H0z"/></clipPath></defs></svg>