<svg width="152" height="90" viewBox="0 0 152 90" fill="none" xmlns="http://www.w3.org/2000/svg">
<g clip-path="url(#clip0_4_214)">
<path d="M5.55392 40.325C8.62127 40.325 11.1078 37.8549 11.1078 34.8078C11.1078 31.7607 8.62127 29.2905 5.55392 29.2905C2.48658 29.2905 0 31.7607 0 34.8078C0 37.8549 2.48658 40.325 5.55392 40.325Z"/>
<path d="M53.9552 40.325C57.0225 40.325 59.5091 37.8549 59.5091 34.8078C59.5091 31.7607 57.0225 29.2905 53.9552 29.2905C50.8878 29.2905 48.4013 31.7607 48.4013 34.8078C48.4013 37.8549 50.8878 40.325 53.9552 40.325Z"/>
<path d="M99.1819 40.325C102.249 40.325 104.736 37.8549 104.736 34.8078C104.736 31.7607 102.249 29.2905 99.1819 29.2905C96.1145 29.2905 93.628 31.7607 93.628 34.8078C93.628 37.8549 96.1145 40.325 99.1819 40.325Z"/>
<path d="M146.44 40.325C149.507 40.325 151.993 37.8549 151.993 34.8078C151.993 31.7607 149.507 29.2905 146.44 29.2905C143.372 29.2905 140.886 31.7607 140.886 34.8078C140.886 37.8549 143.372 40.325 146.44 40.325Z"/>
<path d="M5.55392 90C8.62127 90 11.1078 87.5298 11.1078 84.4827C11.1078 81.4356 8.62127 78.9655 5.55392 78.9655C2.48658 78.9655 0 81.4356 0 84.4827C0 87.5298 2.48658 90 5.55392 90Z"/>
<path d="M146.44 90C149.507 90 151.993 87.5298 151.993 84.4827C151.993 81.4356 149.507 78.9655 146.44 78.9655C143.372 78.9655 140.886 81.4356 140.886 84.4827C140.886 87.5298 143.372 90 146.44 90Z"/>
<path d="M6.73043 34.8077H4.35769V82.1387H6.73043V34.8077Z"/>
<path d="M147.629 34.8077H145.256V82.1387H147.629V34.8077Z"/>
<path d="M144.869 83.3009H5.54078V85.658H144.869V83.3009Z"/>
<path d="M52.989 33.6259H5.54078V35.983H52.989V33.6259Z"/>
<path d="M149.962 33.6259H102.514V35.983H149.962V33.6259Z"/>
<path d="M87.5013 -0.000347271L53.9506 33.3289L55.6284 34.9956L89.179 1.66634L87.5013 -0.000347271Z"/>
<path d="M18.5941 64.17H23.5828V66.5141H15.7482V52.5218H18.5941V64.17Z"/>
<path d="M27.8156 62.6748L30.1884 52.5283H33.363L29.301 66.5206H26.3433L22.3077 52.5283H25.4626L27.8156 62.6748Z"/>
<path d="M37.6549 66.5141H34.809V52.5218H37.6549V66.5141Z"/>
<path d="M44.6286 62.6748L47.0013 52.5283H50.1759L46.114 66.5206H43.1563L39.1207 52.5283H42.2755L44.6286 62.6748Z"/>
<path d="M65.9766 60.7813C65.9766 62.6553 65.5297 64.1178 64.6358 65.156C63.7419 66.1941 62.4997 66.71 60.9157 66.71C59.3382 66.71 58.096 66.1941 57.189 65.169C56.2885 64.1439 55.8284 62.701 55.8153 60.8532V58.4634C55.8153 56.5438 56.2622 55.0421 57.1627 53.9582C58.0566 52.8809 59.3054 52.339 60.896 52.339C62.4603 52.339 63.6959 52.8678 64.603 53.9321C65.5034 54.9899 65.9635 56.4785 65.9766 58.3982V60.7813ZM63.1241 58.4373C63.1241 57.1772 62.9466 56.237 62.5851 55.6232C62.2236 55.0094 61.665 54.7026 60.9025 54.7026C60.1467 54.7026 59.588 54.9964 59.2265 55.5906C58.865 56.1847 58.681 57.0858 58.6678 58.2937V60.7813C58.6678 62.0023 58.8519 62.9099 59.2199 63.4845C59.588 64.0656 60.1533 64.3529 60.9223 64.3529C61.665 64.3529 62.2171 64.0721 62.5786 63.5041C62.9401 62.936 63.1241 62.0546 63.1307 60.8662V58.4373H63.1241Z"/>
<path d="M70.8602 61.5975V66.5141H68.0142V52.5218H72.8122C74.2057 52.5218 75.3164 52.9527 76.1446 53.808C76.9728 54.6699 77.3868 55.7799 77.3868 57.151C77.3868 58.5222 76.9793 59.6061 76.1577 60.3961C75.3362 61.1927 74.2057 61.5844 72.7531 61.5844H70.8602V61.5975ZM70.8602 59.2404H72.8122C73.3512 59.2404 73.7719 59.0641 74.0676 58.7115C74.3634 58.359 74.5146 57.8497 74.5146 57.1772C74.5146 56.4785 74.3634 55.9235 74.0611 55.5122C73.7587 55.1008 73.3512 54.8919 72.8451 54.8854H70.8602V59.2404Z"/>
<path d="M86.5623 60.4614H82.1323V64.17H87.3773V66.5141H79.2929V52.5218H87.3576V54.8788H82.1323V58.1827H86.5623V60.4614Z"/>
<path d="M98.8533 66.5141H96.0073L91.8468 57.3404V66.5141H89.0008V52.5218H91.8468L96.0139 61.7085V52.5218H98.8467V66.5141H98.8533Z"/>
<path d="M108.548 64.17H113.537V66.5141H105.702V52.5218H108.548V64.17Z"/>
<path d="M122.088 63.6542H118.21L117.454 66.5206H114.444L118.847 52.5283H121.45L125.88 66.5206H122.844L122.088 63.6542ZM118.834 61.2971H121.463L120.149 56.3087L118.834 61.2971Z"/>
<path d="M127.195 66.5141V52.5218H131.546C133.018 52.5218 134.135 52.8482 134.898 53.4946C135.66 54.1476 136.042 55.1008 136.042 56.3545C136.042 57.0662 135.884 57.6799 135.568 58.1892C135.253 58.6985 134.819 59.0772 134.273 59.3122C134.904 59.4951 135.391 59.8542 135.733 60.3961C136.074 60.938 136.245 61.604 136.245 62.4006C136.245 63.7587 135.871 64.7838 135.121 65.4759C134.372 66.168 133.281 66.5141 131.855 66.5141H127.195ZM130.041 58.3785H131.52C132.637 58.3785 133.196 57.804 133.196 56.6613C133.196 56.028 133.064 55.5709 132.808 55.2967C132.551 55.0225 132.131 54.8854 131.552 54.8854H130.041V58.3785ZM130.041 60.4353V64.1766H131.861C132.367 64.1766 132.755 64.0199 133.025 63.7065C133.288 63.3931 133.419 62.9491 133.419 62.3679C133.419 61.1143 132.959 60.4679 132.045 60.4353H130.041Z"/>
</g>
<defs>
<clipPath id="clip0_4_214">
<rect width="152" height="90"/>
</clipPath>
</defs>
</svg>
