<svg width="139" height="75" viewBox="0 0 139 75" fill="none" xmlns="http://www.w3.org/2000/svg">
<g clip-path="url(#clip0_1236_4889)">
<path d="M3.92916 32.3876L11.4492 32.4175L11.4009 41.9245C11.3864 44.6505 13.0537 46.3724 16.432 46.3852C19.6072 46.3981 21.463 44.6633 21.4775 41.9629L21.5259 32.456L29.0459 32.4859L28.9928 42.7961C28.9638 48.12 24.5126 51.5339 16.403 51.4997C8.29329 51.4698 3.847 47.9704 3.87116 42.6209L3.91949 32.3876H3.92916Z" />
<path d="M48.1409 51.0041L43.7622 44.9581L39.3836 44.941L39.3546 50.9699L31.8345 50.94L31.9264 32.4987L46.5266 32.5543C53.7229 32.5842 55.7962 35.6563 55.7817 38.643C55.7721 40.7195 54.6701 43.0824 51.4031 44.2104L56.4245 51.034L48.1409 50.9998V51.0041ZM39.4271 36.7629L39.4077 40.9716L44.695 40.993C47.1018 41.0015 47.846 40.0188 47.8509 38.8481C47.8557 37.7329 47.0969 36.7929 44.7481 36.7843L39.4319 36.7629H39.4271Z" />
<path d="M83.5324 45.7913C83.5179 48.3892 81.4494 51.1323 75.3986 51.1109L58.4156 51.0426L58.5075 32.6013L75.3744 32.6696C80.6036 32.691 83.0926 34.5197 83.0781 37.297C83.0684 39.1685 81.7104 40.7964 78.7091 41.3305C81.9085 41.7578 83.5469 43.3217 83.5324 45.7913ZM73.3011 46.9962C74.9733 47.0048 75.6837 46.1246 75.6886 45.2145C75.6886 44.2531 74.8718 43.5481 73.3156 43.5438L65.9695 43.5139L65.9502 46.9706L73.2963 47.0005L73.3011 46.9962ZM66.0082 36.733L65.9937 39.8265L73.0449 39.8522C74.78 39.8607 75.2246 39.0062 75.2294 38.2242C75.2294 37.4722 74.7655 36.7672 73.0643 36.7587L66.013 36.733H66.0082Z" />
<path d="M83.2086 51.1408L92.9953 32.7337L102.719 32.7722L112.322 51.2519L104.271 51.2177L102.671 47.7055L92.8841 47.6671L91.2506 51.1665L83.1989 51.1366L83.2086 51.1408ZM94.7352 43.6763L100.878 43.7019L99.4231 40.5016C99.0751 39.7197 98.2632 37.7158 97.8862 36.5237H97.7992C97.4416 37.7158 96.5765 39.7112 96.2237 40.4931L94.74 43.6806L94.7352 43.6763Z" />
<path d="M113.874 51.2605L113.965 32.8192L121.751 32.8491L130.257 41.4801C130.813 42.0526 131.543 42.967 132.007 43.7746H132.157L132.171 40.9161L132.21 32.8875L138.995 32.9132L138.903 51.3545L131.557 51.3246L122.67 42.6893C122.085 42.1167 121.176 40.9973 120.891 40.3478H120.741L120.727 43.1764L120.688 51.2818L113.874 51.2562V51.2605Z" />
<path d="M2.76926 65.2025C2.79825 59.383 8.63644 55.2769 16.8669 55.3068C23.7732 55.3324 28.9009 58.0029 30.288 62.2714L22.5263 63.5404C21.8932 61.4083 19.9552 60.2589 16.8428 60.2461C13.0537 60.2333 10.7243 62.1176 10.7049 65.1342C10.6904 68.1721 12.9716 70.0265 16.8234 70.0436C19.9068 70.0564 21.9415 68.9198 22.5408 66.8176L30.23 68.3516C28.5046 72.5773 23.4977 75.0256 16.5335 75C8.09998 74.9658 2.74509 71.1545 2.77409 65.2068L2.76926 65.2025Z" />
<path d="M28.9251 74.4232L38.7118 56.0161L48.4357 56.0545L58.0387 74.5343L49.987 74.5001L48.3873 70.9879L38.6006 70.9494L36.9671 74.4488L28.9154 74.4189L28.9251 74.4232ZM40.4516 66.9586L46.5943 66.9843L45.1396 63.784C44.7916 63.002 43.9797 60.9981 43.6027 59.806H43.5157C43.1581 60.9981 42.293 62.9935 41.9402 63.7754L40.4565 66.9629L40.4516 66.9586Z" />
<path d="M59.5901 74.5428L59.6819 56.1015L70.817 56.1442L74.4997 65.5358C74.8476 66.4203 75.1666 67.1509 75.2488 67.8517H75.3068C75.3986 67.1509 75.7272 66.3989 76.0849 65.4888L79.7144 56.1784L91.1443 56.2212L91.0525 74.6625L84.1752 74.6368L84.2284 64.5061C84.2332 63.3353 84.3878 61.9595 84.6585 60.6093H84.5135C84.3347 61.2588 83.6484 63.0191 83.0878 64.2668L78.511 74.6155L71.5177 74.5855L67.3083 64.254C66.7283 62.8226 66.2644 61.4169 66.0034 60.5324H65.8874C66.1484 61.7544 66.1677 63.1858 66.1629 64.4292L66.1097 74.5599L59.5852 74.5343L59.5901 74.5428Z" />
<path d="M109.476 56.2938C115.294 56.3152 118.721 58.6695 118.702 62.6431C118.682 66.7749 115.111 69.3813 109.558 69.3599L102.299 69.33L102.27 74.7052L94.7497 74.6753L94.8415 56.234L109.476 56.2895V56.2938ZM107.494 65.1171C109.582 65.1256 110.761 64.3223 110.766 62.8183C110.776 61.3143 109.659 60.5281 107.547 60.5196L102.347 60.4982L102.323 65.0957L107.494 65.1171Z" />
<path d="M1.47888 19.6505L0 17.0612L38.2382 0L76.4328 17.0612L74.954 19.6505L38.2382 3.25158L1.47888 19.6505Z"/>
</g>
<defs>
<clipPath id="clip0_1236_4889">
<rect width="139" height="75" />
</clipPath>
</defs>
</svg>
