<svg width="82" height="82" viewBox="0 0 82 82" fill="none" xmlns="http://www.w3.org/2000/svg">
<g clip-path="url(#clip0_4_208)">
<path d="M28.3811 47.8846L23.0226 47.9074L23.0625 57.3772L16.4626 57.4057L16.3317 24.879L28.29 24.8335C36.006 24.805 39.8782 28.552 39.9067 36.0743C39.9237 39.8668 38.95 42.7824 37.0025 44.8153C35.0493 46.8425 32.1736 47.8675 28.3811 47.8846ZM22.9999 42.2585L28.3071 42.2357C31.5928 42.2243 33.2271 40.1743 33.21 36.0914C33.2043 34.0813 32.8 32.6406 31.9971 31.7693C31.1942 30.8981 29.9528 30.4596 28.2615 30.471L22.9543 30.4938L22.9999 42.2585Z"/>
<path d="M43.7048 32.7886L50.6976 32.7601L54.6439 40.3281L58.573 32.7317L65.5715 32.7032L58.6698 44.7185L65.6683 57.1665L58.6698 57.195L54.678 49.7239L50.7944 57.2235L43.8016 57.252L50.4527 44.9406L43.7048 32.7886Z"/>
<path d="M0.00569444 82L0 81.311V0H81.9943L82 0.689028V82H0.00569444ZM1.39514 1.37806L1.37806 80.6105L80.6049 80.6219L80.6219 1.38944L1.39514 1.37806Z"/>
</g>
<defs>
<clipPath id="clip0_4_208">
<rect width="82" height="82"/>
</clipPath>
</defs>
</svg>
