<svg width="89" height="92" viewBox="0 0 89 92" fill="none" xmlns="http://www.w3.org/2000/svg">
<path d="M12.6813 13.4603H10.7482V4.47669L6.54083 9.81653L2.31615 4.47669V13.4603H0.383026V0.830453H1.51027L6.54083 7.23627L11.5739 0.830453H12.6838V13.4603H12.6813ZM26.6903 2.55146C27.9312 1.29371 29.4367 0.666077 31.2017 0.666077C32.9692 0.666077 34.4747 1.2962 35.723 2.55146C36.9714 3.80921 37.5944 5.32599 37.5944 7.10677C37.5944 8.88754 36.9714 10.4043 35.723 11.6621C34.4747 12.9198 32.9692 13.5475 31.2017 13.5475C29.4342 13.5475 27.9312 12.9198 26.6903 11.6621C25.4493 10.4043 24.8288 8.88754 24.8288 7.10677C24.8264 5.32848 25.4493 3.80921 26.6903 2.55146ZM34.3733 3.81419C33.5131 2.94248 32.4575 2.50663 31.2042 2.50663C29.9509 2.50663 28.8978 2.94248 28.0425 3.81419C27.1896 4.6859 26.762 5.78426 26.762 7.10677C26.762 8.44173 27.1871 9.54257 28.0425 10.4093C28.8953 11.276 29.9484 11.7094 31.2042 11.7094C32.46 11.7094 33.5131 11.276 34.3733 10.4093C35.2336 9.54257 35.6637 8.44173 35.6637 7.10677C35.6612 5.78426 35.2311 4.6859 34.3733 3.81419ZM55.7958 4.4219L52.2139 13.4603H50.083L55.2594 0.830453H56.3867L61.5087 13.4603H59.3778L55.7958 4.4219ZM76.0541 2.58882C77.295 1.33107 78.8005 0.703434 80.5655 0.703434C82.333 0.703434 83.8384 1.33356 85.0868 2.58882C86.3352 3.84657 86.9581 5.36334 86.9581 7.14412C86.9581 8.9249 86.3352 10.4417 85.0868 11.6994C83.8384 12.9572 82.333 13.5848 80.5655 13.5848C78.798 13.5848 77.295 12.9572 76.0541 11.6994C74.8131 10.4417 74.1926 8.9249 74.1926 7.14412C74.1926 5.36584 74.8131 3.84657 76.0541 2.58882ZM83.7371 3.85155C82.8768 2.97984 81.8213 2.54399 80.568 2.54399C79.3147 2.54399 78.2616 2.97984 77.4062 3.85155C76.5534 4.72326 76.1257 5.82161 76.1257 7.14412C76.1257 8.47908 76.5509 9.57993 77.4062 10.4467C78.2591 11.3134 79.3122 11.7467 80.568 11.7467C81.8213 11.7467 82.8768 11.3134 83.7371 10.4467C84.5974 9.57993 85.0275 8.47908 85.0275 7.14412C85.0275 5.82161 84.5974 4.72326 83.7371 3.85155ZM1.26554 26.4338H5.421C7.21075 26.4338 8.72115 27.0291 9.95222 28.2196C11.1833 29.4101 11.7963 30.9194 11.7963 32.7475C11.7963 34.5756 11.1808 36.0849 9.95222 37.2754C8.72362 38.4659 7.21322 39.0611 5.421 39.0611H1.26554V26.4338ZM3.19866 37.2206H5.41853C6.69657 37.2206 7.75459 36.8221 8.59755 36.0201C9.44051 35.2206 9.86075 34.1298 9.86075 32.745C9.86075 31.3727 9.44051 30.2868 8.59755 29.4798C7.75707 28.6754 6.69657 28.2719 5.41853 28.2719H3.19866V37.2206ZM31.7925 39.0238H30.6653L25.4543 26.394H27.5851L31.219 35.4323L34.8183 26.394H36.9665L31.7925 39.0238ZM56.7649 37.2206H58.2506V39.0611H53.3436V37.2206H54.8293V28.2719H53.3436V26.4313H58.2506V28.2719H56.7649V37.2206ZM85.9174 34.4087C85.5491 33.8209 85.2426 33.3975 84.9978 33.136C84.7481 32.8745 84.4911 32.7026 84.2167 32.6055C84.6468 32.3739 85.1635 31.806 85.7716 30.8895L88.6366 26.4363H86.4365L84.0016 30.2793C83.6184 30.8571 83.302 31.2432 83.0499 31.4324C82.8002 31.6242 82.422 31.7214 81.9251 31.7214H81.9004H81.5444V26.4388H79.6113V31.7214H79.2479H79.2232C78.7263 31.7214 78.3481 31.6242 78.0984 31.4324C77.8438 31.2456 77.5299 30.8596 77.1467 30.2793L74.7117 26.4363H72.5117L75.3767 30.8895C75.9848 31.806 76.5015 32.3739 76.9316 32.6055C76.6597 32.7026 76.4001 32.8745 76.1505 33.136C75.9057 33.3975 75.5992 33.8209 75.2309 34.4087L72.2546 39.0611H74.4423L77.0206 35.0214C77.3889 34.4436 77.7004 34.0625 77.9451 33.8732C78.1899 33.6889 78.5681 33.5943 79.0798 33.5943H79.2479H79.6113V39.0611H81.5444V33.5943H81.9004H82.0685C82.5802 33.5943 82.9584 33.6914 83.2031 33.8732C83.4479 34.06 83.7593 34.4411 84.1277 35.0214L86.706 39.0611H88.8937L85.9174 34.4087ZM12.1424 67.591H10.2093V65.2647H0.916984V52.6349H2.8501V63.4242H8.56294V52.6349H10.4961V63.4242H12.1424V67.591ZM29.0708 57.9374H34.8554V59.778H29.0708V63.3868H35.2855V65.2274H27.1377V52.5976H35.2855V54.4381H29.0708V57.9374ZM60.641 65.2622H59.5138L52.8887 56.3509V65.2622H50.9556V52.6324H52.0829L58.7079 61.5438V52.6324H60.641V65.2622ZM81.5345 54.473V65.2622H79.6014V54.473H75.9478V52.6324H85.2055V54.473H81.5345ZM75.7945 79.0353H79.8412C81.5123 79.0353 82.8496 79.4711 83.8533 80.3428C84.8569 81.2145 85.3563 82.3602 85.3563 83.7798C85.3563 85.2119 84.8545 86.3601 83.8533 87.2268C82.8521 88.0936 81.5123 88.5269 79.8412 88.5269H77.7276V91.6651H75.7945V79.0353ZM77.7301 86.7013H79.9697C80.9956 86.7013 81.846 86.4572 82.5209 85.9716C83.1957 85.4834 83.5319 84.7537 83.5319 83.7798C83.5319 82.8309 83.1908 82.1087 82.511 81.6155C81.8312 81.1224 80.9833 80.8758 79.9673 80.8758H77.7276V86.7013H77.7301Z"/>
</svg>
