<svg width="70" height="70" viewBox="0 0 70 70" xmlns="http://www.w3.org/2000/svg">
<g clip-path="url(#clip0_364_394)">
<path d="M24.228 40.8771L19.6537 40.8966L19.6877 48.9806L14.0537 49.0049L13.9419 21.2382L24.1502 21.1994C30.737 21.1751 34.0426 24.3737 34.0669 30.7952C34.0815 34.0327 33.2502 36.5216 31.5877 38.257C29.9204 39.9875 27.4655 40.8625 24.228 40.8771ZM19.6343 36.0744L24.1648 36.0549C26.9697 36.0452 28.3648 34.2952 28.3502 30.8098C28.3454 29.0938 28.0002 27.8639 27.3148 27.1202C26.6294 26.3764 25.5697 26.0021 24.1259 26.0119L19.5954 26.0313L19.6343 36.0744Z"/>
<path d="M37.3091 27.9903L43.2785 27.966L46.6473 34.4264L50.0014 27.9417L55.9757 27.9174L50.0841 38.1743L56.0584 48.8007L50.0841 48.825L46.6764 42.4472L43.3612 48.8493L37.3917 48.8736L43.0695 38.3639L37.3091 27.9903Z"/>
<path d="M0.00486111 70L0 69.4118V0H69.9951L70 0.588194V70H0.00486111ZM1.19097 1.17639L1.17639 68.8139L68.809 68.8236L68.8236 1.18611L1.19097 1.17639Z"/>
</g>
<defs>
<clipPath id="clip0_364_394">
<rect width="70" height="70"/>
</clipPath>
</defs>
</svg>
