<svg width="150" height="39" viewBox="0 0 150 39" fill="none" xmlns="http://www.w3.org/2000/svg">
<path d="M142.665 12.7524C142.241 11.8535 141.751 10.9899 141.196 10.1616C140.618 9.33333 140.149 8.52994 139.788 7.7494C139.427 6.96885 139.247 6.09489 139.247 5.12336C139.247 3.70343 139.686 2.56374 140.563 1.70016C141.439 0.836577 142.62 0.404785 144.107 0.404785C145.593 0.404785 146.769 0.836577 147.636 1.70016C148.502 2.56374 148.935 3.7055 148.935 5.12336C148.935 6.09281 148.754 6.96885 148.394 7.7494C148.033 8.52994 147.564 9.33333 146.986 10.1616C146.429 10.9899 145.933 11.8535 145.501 12.7524C145.068 13.6512 144.767 14.7515 144.603 16.051H143.552C143.382 14.7515 143.089 13.6512 142.665 12.7524ZM139.401 22.6857C139.401 21.4567 139.819 20.4457 140.655 19.6527C141.491 18.8618 142.63 18.4653 144.074 18.4653C145.519 18.4653 146.664 18.8556 147.511 19.6361C148.357 20.4167 148.779 21.4339 148.779 22.6877C148.779 23.9644 148.355 24.9879 147.511 25.7559C146.664 26.524 145.519 26.9081 144.074 26.9081C142.63 26.9081 141.491 26.524 140.655 25.7559C139.819 24.9858 139.401 23.9623 139.401 22.6857Z"/>
<path d="M1.94044 3.3609L5.08563 1.09607L4.17588 8.35141H0.614746L0.690558 1.09607H23.5367L23.5736 8.35141H20.0494L19.1417 1.09607L22.2479 3.3609H1.94044ZM13.0418 23.2814L18.9142 23.8565V26.1213H5.31307V23.8565L11.0338 23.2814H13.0418ZM8.34352 12.9952C8.34352 9.0427 8.34351 5.0507 8.23082 1.09607H15.9596C15.8469 4.97181 15.8469 8.96381 15.8469 12.9952V14.1848C15.8469 18.1768 15.8469 22.1687 15.9596 26.1234H8.22877C8.34147 22.2476 8.34147 18.2556 8.34147 14.2242V12.9952H8.34352Z"/>
<path d="M27.7739 26.2708V0.763977H49.3518V4.40722H52.9478V11.6937H49.3518V15.3369H52.9478V22.6276H49.3518V26.2708H27.7739ZM34.9679 11.6958H45.7579V4.4093H34.9679V11.6958ZM34.9679 22.6276H45.7579V15.3411H34.9679V22.6276Z"/>
<path d="M69.2332 27.3233C65.6331 27.3233 62.742 26.3518 60.5598 24.4108C58.3777 22.4677 57.2876 19.7794 57.2876 16.3417C57.2876 11.7601 58.8141 7.89058 61.8691 4.73518C64.9221 1.5777 68.7045 0 73.2144 0C76.8267 0 79.7281 0.965304 81.9143 2.89591C84.1006 4.82652 85.1968 7.52107 85.1968 10.9816C85.1968 15.6006 83.6703 19.4804 80.6153 22.6172C77.5623 25.7539 73.7676 27.3233 69.2332 27.3233ZM79.2425 10.3651C79.2425 7.67468 78.6524 5.57177 77.4721 4.0522C76.2919 2.53262 74.6999 1.77284 72.698 1.77284C69.7864 1.77284 67.4772 3.21353 65.7765 6.09698C64.0738 8.98044 63.2235 12.5925 63.2235 16.9395C63.2235 19.605 63.8075 21.7058 64.9754 23.242C66.1433 24.7803 67.7415 25.5484 69.768 25.5484C72.6796 25.5484 74.9867 24.116 76.6894 21.2533C78.3921 18.3906 79.2425 14.7619 79.2425 10.3651Z"/>
<path d="M113.342 26.8147V0.662231H119.661V12.879L119.372 17.3423H119.444C120.214 15.5134 120.935 14.027 121.609 12.879L128.758 0.662231H135.149V26.8147H128.83V14.6353L129.119 10.172H129.047C128.277 12.0009 127.556 13.4894 126.881 14.6353L119.696 26.8168H113.342V26.8147Z"/>
<path d="M88.9424 26.0902V0.832458H109.313V15.9867H96.0032V26.0902H88.9424ZM104.328 10.936V5.88525H96.0032V10.936H104.328Z"/>
<path d="M4.94201 32.7705V36.3183H4.71252V33.1608L2.9463 35.8408H2.82745L1.07557 33.1815V36.3183H0.837891V32.7705H1.06738L2.89302 35.5668L4.71867 32.7705H4.94201Z"/>
<path d="M11.0275 34.5745H7.65077C7.65487 34.8755 7.73273 35.1433 7.88025 35.382C8.02778 35.6208 8.23268 35.8034 8.4929 35.9363C8.75312 36.0692 9.04408 36.1356 9.36577 36.1356C9.62804 36.1356 9.86982 36.092 10.0932 36.0027C10.3165 35.9135 10.4989 35.7827 10.6423 35.6104L10.798 35.7598C10.6238 35.9467 10.4148 36.0899 10.1669 36.1896C9.91899 36.2892 9.65263 36.339 9.36577 36.339C8.98876 36.339 8.65477 36.2622 8.35972 36.1107C8.06466 35.9571 7.83313 35.7453 7.66511 35.4713C7.49709 35.1973 7.41309 34.888 7.41309 34.5413C7.41309 34.1946 7.49095 33.8853 7.64667 33.6113C7.80239 33.3372 8.01959 33.1255 8.2962 32.9719C8.57281 32.8183 8.88221 32.7435 9.22439 32.7435C9.56042 32.7435 9.86572 32.8183 10.1403 32.9698C10.4148 33.1193 10.632 33.3289 10.7898 33.5988C10.9476 33.8687 11.0275 34.1738 11.0275 34.5143V34.5745ZM8.44577 33.1338C8.21219 33.2563 8.02778 33.4286 7.88845 33.6507C7.74912 33.8728 7.67331 34.1199 7.65896 34.3918H10.798C10.7775 34.1178 10.6976 33.8708 10.5562 33.6507C10.4148 33.4307 10.2304 33.2584 9.9989 33.1338C9.76942 33.0113 9.51125 32.949 9.22234 32.949C8.93343 32.949 8.67731 33.0092 8.44577 33.1338Z"/>
<path d="M16.3261 32.9719C16.613 33.1255 16.8384 33.3393 17.0043 33.6154C17.1703 33.8915 17.2522 34.2029 17.2522 34.5475C17.2522 34.8942 17.1703 35.2035 17.0043 35.4734C16.8384 35.7453 16.613 35.9571 16.3261 36.1086C16.0392 36.2601 15.7196 36.3369 15.3692 36.3369C14.9984 36.3369 14.6644 36.2498 14.3714 36.0775C14.0763 35.9052 13.8571 35.6664 13.7137 35.3675V37.6427H13.4678V32.7684H13.7055V33.74C13.8489 33.4307 14.0681 33.1857 14.3632 33.0092C14.6582 32.8307 14.9922 32.7435 15.3692 32.7435C15.7217 32.7435 16.0392 32.8203 16.3261 32.9719ZM16.2052 35.9321C16.4552 35.7972 16.6519 35.6104 16.7953 35.3716C16.9388 35.1329 17.0105 34.8589 17.0105 34.5475C17.0105 34.2382 16.9388 33.9621 16.7953 33.7213C16.6519 33.4805 16.4552 33.2916 16.2052 33.1566C15.9552 33.0217 15.6745 32.9553 15.3631 32.9553C15.0516 32.9553 14.7709 33.0217 14.521 33.1566C14.271 33.2916 14.0743 33.4784 13.9308 33.7213C13.7874 33.9621 13.7157 34.2382 13.7157 34.5475C13.7157 34.8568 13.7874 35.1329 13.9308 35.3716C14.0743 35.6104 14.271 35.7972 14.521 35.9321C14.7709 36.0671 15.0516 36.1335 15.3631 36.1335C15.6745 36.1335 15.9552 36.0671 16.2052 35.9321Z"/>
<path d="M22.9401 34.5745H19.5634C19.5675 34.8755 19.6453 35.1433 19.7929 35.382C19.9404 35.6208 20.1453 35.8034 20.4055 35.9363C20.6657 36.0692 20.9567 36.1356 21.2784 36.1356C21.5406 36.1356 21.7824 36.092 22.0058 36.0027C22.2291 35.9135 22.4115 35.7827 22.5549 35.6104L22.7106 35.7598C22.5364 35.9467 22.3275 36.0899 22.0795 36.1896C21.8316 36.2892 21.5652 36.339 21.2784 36.339C20.9014 36.339 20.5674 36.2622 20.2723 36.1107C19.9773 35.9571 19.7457 35.7453 19.5777 35.4713C19.4097 35.1973 19.3257 34.888 19.3257 34.5413C19.3257 34.1946 19.4035 33.8853 19.5593 33.6113C19.715 33.3372 19.9322 33.1255 20.2088 32.9719C20.4854 32.8183 20.7948 32.7435 21.137 32.7435C21.473 32.7435 21.7783 32.8183 22.0529 32.9698C22.3275 33.1193 22.5446 33.3289 22.7024 33.5988C22.8602 33.8687 22.9401 34.1738 22.9401 34.5143V34.5745ZM20.3563 33.1338C20.1227 33.2563 19.9383 33.4286 19.799 33.6507C19.6597 33.8728 19.5839 34.1199 19.5695 34.3918H22.7086C22.6881 34.1178 22.6082 33.8708 22.4668 33.6507C22.3254 33.4307 22.141 33.2584 21.9095 33.1338C21.68 33.0113 21.4218 32.949 21.1329 32.949C20.844 32.949 20.5899 33.0092 20.3563 33.1338Z"/>
<path d="M28.5503 34.616H27.5852V36.3183H27.3475V34.616H26.3906L25.0178 36.3183H24.7207L26.1898 34.506L24.8313 32.7705H25.1141L26.3906 34.4188H27.3475V32.7705H27.5852V34.4188H28.5503L29.8268 32.7705H30.1095L28.7511 34.506L30.2202 36.3183H29.9231L28.5503 34.616Z"/>
<path d="M34.7363 33.0715C34.9822 33.2895 35.1031 33.6071 35.1031 34.0223V36.3183H34.8654V35.6083C34.7425 35.8367 34.5581 36.0152 34.3122 36.1439C34.0663 36.2747 33.7733 36.339 33.4332 36.339C33.0029 36.339 32.6648 36.2477 32.421 36.065C32.1751 35.8823 32.0542 35.6415 32.0542 35.3405C32.0542 35.054 32.1648 34.8195 32.3882 34.6388C32.6115 34.4582 32.968 34.369 33.4578 34.369H34.8613V34.0202C34.8613 33.6694 34.7609 33.4037 34.5601 33.221C34.3593 33.0383 34.0643 32.947 33.6729 32.947C33.4004 32.947 33.1463 32.9906 32.9086 33.0778C32.6709 33.1649 32.4681 33.2812 32.3001 33.4265L32.1669 33.2625C32.3554 33.0985 32.5808 32.9719 32.8451 32.8805C33.1094 32.7892 33.3881 32.7435 33.679 32.7435C34.138 32.7435 34.4904 32.8515 34.7363 33.0715ZM34.8572 35.2928V34.5537H33.4537C33.0521 34.5537 32.759 34.6222 32.5746 34.7613C32.3882 34.9004 32.296 35.0893 32.296 35.326C32.296 35.5813 32.3984 35.7827 32.6033 35.928C32.8082 36.0733 33.0889 36.146 33.4455 36.146C34.1401 36.148 34.6113 35.8616 34.8572 35.2928Z"/>
<path d="M45.0323 32.7705V36.3183H44.8029V33.1608L43.0366 35.8408H42.9178L41.1659 33.1815V36.3183H40.9282V32.7705H41.1577L42.9834 35.5668L44.809 32.7705H45.0323Z"/>
<path d="M47.938 35.9446C47.6388 35.683 47.4893 35.3281 47.4893 34.8817C47.4893 34.4769 47.5835 34.1116 47.772 33.7877C47.9605 33.4639 48.2207 33.2085 48.5506 33.0217C48.8826 32.8349 49.2575 32.7415 49.6796 32.7415C50.1898 32.7415 50.5955 32.8743 50.8967 33.138C51.1979 33.4016 51.3495 33.7587 51.3495 34.205C51.3495 34.6098 51.2553 34.9751 51.0668 35.299C50.8783 35.6228 50.6181 35.8761 50.2882 36.0609C49.9562 36.2456 49.5813 36.3369 49.1592 36.3369C48.6449 36.339 48.2371 36.2082 47.938 35.9446ZM50.1714 35.8886C50.4603 35.7246 50.6877 35.4962 50.8537 35.2014C51.0197 34.9066 51.1016 34.5786 51.1016 34.2133C51.1016 33.8126 50.9746 33.5033 50.7185 33.2833C50.4623 33.0632 50.1079 32.9553 49.653 32.9553C49.2862 32.9553 48.9584 33.0383 48.6654 33.2044C48.3724 33.3705 48.1449 33.5988 47.979 33.8915C47.813 34.1842 47.731 34.5122 47.731 34.8755C47.731 35.2762 47.8581 35.5855 48.1142 35.8055C48.3683 36.0235 48.7268 36.1335 49.1858 36.1335C49.5546 36.1335 49.8825 36.0525 50.1714 35.8886Z"/>
<path d="M56.7218 32.7705V36.3183H56.478V32.976H54.3327L54.2815 33.987C54.2508 34.4831 54.2077 34.8983 54.1524 35.2284C54.095 35.5585 53.9987 35.8283 53.8635 36.038C53.7283 36.2477 53.5357 36.3515 53.2877 36.3515C53.2427 36.3515 53.1525 36.3369 53.0132 36.31L53.0439 36.1107C53.1238 36.1294 53.1853 36.1377 53.2304 36.1377C53.4373 36.1377 53.5992 36.038 53.7119 35.8408C53.8266 35.6415 53.9045 35.3945 53.9455 35.0955C53.9885 34.7966 54.0213 34.4146 54.0459 33.9517L54.1135 32.7684H56.7218V32.7705Z"/>
<path d="M59.6274 35.9446C59.3283 35.683 59.1787 35.3281 59.1787 34.8817C59.1787 34.4769 59.273 34.1116 59.4615 33.7877C59.65 33.4639 59.9102 33.2085 60.2401 33.0217C60.572 32.8349 60.947 32.7415 61.3691 32.7415C61.8793 32.7415 62.285 32.8743 62.5862 33.138C62.8874 33.4016 63.039 33.7587 63.039 34.205C63.039 34.6098 62.9447 34.9751 62.7562 35.299C62.5677 35.6228 62.3075 35.8761 61.9776 36.0609C61.6457 36.2456 61.2707 36.3369 60.8486 36.3369C60.3343 36.339 59.9266 36.2082 59.6274 35.9446ZM61.8608 35.8886C62.1497 35.7246 62.3772 35.4962 62.5431 35.2014C62.7091 34.9066 62.7911 34.5786 62.7911 34.2133C62.7911 33.8126 62.664 33.5033 62.4079 33.2833C62.1518 33.0632 61.7973 32.9553 61.3424 32.9553C60.9757 32.9553 60.6478 33.0383 60.3548 33.2044C60.0618 33.3705 59.8344 33.5988 59.6684 33.8915C59.5024 34.1842 59.4205 34.5122 59.4205 34.8755C59.4205 35.2762 59.5475 35.5855 59.8036 35.8055C60.0577 36.0235 60.4163 36.1335 60.8753 36.1335C61.2441 36.1335 61.5719 36.0525 61.8608 35.8886Z"/>
<path d="M69.0178 36.119V37.2192H68.7801V36.3162H64.9813V37.2192H64.7437V36.119H64.9731C65.1616 36.1107 65.3071 36.0048 65.4116 35.8014C65.5161 35.5979 65.5878 35.3488 65.6309 35.0499C65.6739 34.7509 65.7067 34.3793 65.7313 33.933L65.7907 32.7705H68.3888V36.119H69.0178ZM65.8009 35.3675C65.719 35.7495 65.5776 36.0006 65.3747 36.119H68.1429V32.9739H66.012L65.9607 33.9372C65.9362 34.5081 65.8829 34.9855 65.8009 35.3675Z"/>
<path d="M71.3125 31.7761C71.2634 31.7325 71.2388 31.6806 71.2388 31.6225C71.2388 31.5582 71.2613 31.5042 71.3084 31.4627C71.3556 31.4191 71.4129 31.3983 71.4826 31.3983C71.5461 31.3983 71.6035 31.4191 71.6527 31.4627C71.7018 31.5063 71.7264 31.5582 71.7264 31.6163C71.7264 31.6765 71.7018 31.7284 71.6527 31.7741C71.6035 31.8197 71.5461 31.8426 71.4826 31.8426C71.4191 31.8405 71.3617 31.8197 71.3125 31.7761ZM71.3638 32.7705H71.6096V36.3183H71.3638V32.7705Z"/>
<path d="M77.6503 34.616H76.6853V36.3183H76.4476V34.616H75.4907L74.1179 36.3183H73.8208L75.2899 34.506L73.9314 32.7705H74.2142L75.4907 34.4188H76.4476V32.7705H76.6853V34.4188H77.6503L78.9269 32.7705H79.2096L77.8512 34.506L79.3203 36.3183H79.0232L77.6503 34.616Z"/>
<path d="M81.5312 32.7705H81.7771V34.4312H84.5535V32.7705H84.7994V36.3183H84.5535V34.6305H81.7771V36.3183H81.5312V32.7705Z"/>
<path d="M87.6616 32.7705H87.9075V35.955L90.8027 32.7705H91.0179V36.3183H90.7699V33.1338L87.8686 36.3183H87.6616V32.7705Z"/>
<path d="M96.292 36.3183L94.8967 34.6513L93.5013 36.3183H93.2124L94.7553 34.4873L93.2923 32.7705H93.5812L94.8946 34.3212L96.2019 32.7705H96.4846L95.038 34.4873L96.5973 36.3183H96.292Z"/>
<path d="M105.154 32.7705V36.3183H104.908V32.976H102.103V36.3183H101.857V32.7705H105.154Z"/>
<path d="M110.883 32.9719C111.17 33.1255 111.395 33.3393 111.561 33.6154C111.727 33.8915 111.809 34.2029 111.809 34.5475C111.809 34.8942 111.727 35.2035 111.561 35.4734C111.395 35.7453 111.17 35.9571 110.883 36.1086C110.596 36.2622 110.276 36.3369 109.926 36.3369C109.555 36.3369 109.221 36.2498 108.928 36.0775C108.633 35.9052 108.414 35.6664 108.27 35.3675V37.6427H108.024V32.7684H108.262V33.74C108.406 33.4307 108.625 33.1857 108.92 33.0092C109.215 32.8307 109.549 32.7435 109.926 32.7435C110.276 32.7435 110.596 32.8203 110.883 32.9719ZM110.76 35.9321C111.01 35.7972 111.206 35.6104 111.35 35.3716C111.493 35.1329 111.565 34.8589 111.565 34.5475C111.565 34.2382 111.493 33.9621 111.35 33.7213C111.206 33.4805 111.01 33.2916 110.76 33.1566C110.51 33.0217 110.229 32.9553 109.918 32.9553C109.606 32.9553 109.326 33.0217 109.076 33.1566C108.826 33.2916 108.629 33.4784 108.485 33.7213C108.342 33.9621 108.27 34.2382 108.27 34.5475C108.27 34.8568 108.342 35.1329 108.485 35.3716C108.629 35.6104 108.826 35.7972 109.076 35.9321C109.326 36.0671 109.606 36.1335 109.918 36.1335C110.229 36.1335 110.51 36.0671 110.76 35.9321Z"/>
<path d="M114.315 35.9446C114.016 35.683 113.866 35.3281 113.866 34.8817C113.866 34.4769 113.96 34.1116 114.149 33.7877C114.337 33.4639 114.596 33.2085 114.928 33.0217C115.26 32.8349 115.634 32.7415 116.057 32.7415C116.567 32.7415 116.972 32.8743 117.274 33.138C117.575 33.4016 117.726 33.7587 117.726 34.205C117.726 34.6098 117.632 34.9751 117.444 35.299C117.255 35.6228 116.995 35.8761 116.665 36.0609C116.333 36.2456 115.958 36.3369 115.536 36.3369C115.022 36.339 114.614 36.2082 114.315 35.9446ZM116.548 35.8886C116.837 35.7246 117.065 35.4962 117.231 35.2014C117.397 34.9066 117.479 34.5786 117.479 34.2133C117.479 33.8126 117.352 33.5033 117.095 33.2833C116.841 33.0653 116.485 32.9553 116.03 32.9553C115.663 32.9553 115.335 33.0383 115.042 33.2044C114.751 33.3705 114.522 33.5988 114.356 33.8915C114.19 34.1842 114.108 34.5122 114.108 34.8755C114.108 35.2762 114.235 35.5855 114.491 35.8055C114.745 36.0235 115.104 36.1335 115.563 36.1335C115.932 36.1335 116.259 36.0525 116.548 35.8886Z"/>
<path d="M120.72 36.1107C120.431 35.9571 120.203 35.7453 120.037 35.4713C119.872 35.1973 119.79 34.888 119.79 34.5413C119.79 34.1946 119.872 33.8853 120.037 33.6113C120.203 33.3372 120.431 33.1255 120.72 32.9719C121.009 32.8183 121.337 32.7435 121.703 32.7435C121.994 32.7435 122.267 32.7954 122.517 32.8971C122.767 32.9989 122.97 33.1504 123.129 33.3518L122.943 33.495C122.804 33.3165 122.627 33.1836 122.412 33.0923C122.197 33.0009 121.961 32.9553 121.703 32.9553C121.388 32.9553 121.101 33.0217 120.847 33.1566C120.593 33.2916 120.392 33.4784 120.249 33.7171C120.105 33.9559 120.033 34.232 120.033 34.5413C120.033 34.8506 120.105 35.1267 120.249 35.3675C120.392 35.6083 120.591 35.7972 120.847 35.9321C121.101 36.0671 121.388 36.1335 121.703 36.1335C121.961 36.1335 122.197 36.0878 122.412 35.9965C122.627 35.9052 122.804 35.7702 122.943 35.5938L123.129 35.7308C122.972 35.9321 122.767 36.0837 122.517 36.1854C122.267 36.2871 121.996 36.339 121.703 36.339C121.337 36.339 121.009 36.2622 120.72 36.1107Z"/>
<path d="M127.936 32.976H126.4V36.3183H126.154V32.976H124.611V32.7705H127.936V32.976Z"/>
<path d="M129.981 35.9446C129.682 35.683 129.533 35.3281 129.533 34.8817C129.533 34.4769 129.627 34.1116 129.815 33.7877C130.004 33.4639 130.262 33.2085 130.594 33.0217C130.926 32.8349 131.301 32.7415 131.723 32.7415C132.233 32.7415 132.639 32.8743 132.94 33.138C133.241 33.4016 133.393 33.7587 133.393 34.205C133.393 34.6098 133.299 34.9751 133.11 35.299C132.922 35.6228 132.662 35.8761 132.332 36.0609C132 36.2456 131.625 36.3369 131.203 36.3369C130.688 36.339 130.281 36.2082 129.981 35.9446ZM132.215 35.8886C132.504 35.7246 132.731 35.4962 132.897 35.2014C133.063 34.9066 133.145 34.5786 133.145 34.2133C133.145 33.8126 133.018 33.5033 132.762 33.2833C132.508 33.0653 132.151 32.9553 131.696 32.9553C131.33 32.9553 131.002 33.0383 130.709 33.2044C130.418 33.3705 130.188 33.5988 130.022 33.8915C129.856 34.1842 129.774 34.5122 129.774 34.8755C129.774 35.2762 129.902 35.5855 130.158 35.8055C130.412 36.0235 130.77 36.1335 131.229 36.1335C131.598 36.1335 131.926 36.0525 132.215 35.8886Z"/>
<path d="M138.72 32.9719C139.007 33.1255 139.232 33.3393 139.398 33.6154C139.564 33.8915 139.646 34.2029 139.646 34.5475C139.646 34.8942 139.564 35.2035 139.398 35.4734C139.232 35.7453 139.007 35.9571 138.72 36.1086C138.433 36.2622 138.114 36.3369 137.763 36.3369C137.392 36.3369 137.058 36.2498 136.765 36.0775C136.47 35.9052 136.251 35.6664 136.108 35.3675V37.6427H135.862V32.7684H136.099V33.74C136.243 33.4307 136.462 33.1857 136.757 33.0092C137.052 32.8307 137.386 32.7435 137.763 32.7435C138.114 32.7435 138.433 32.8203 138.72 32.9719ZM138.597 35.9321C138.847 35.7972 139.044 35.6104 139.187 35.3716C139.331 35.1329 139.402 34.8589 139.402 34.5475C139.402 34.2382 139.331 33.9621 139.187 33.7213C139.044 33.4805 138.847 33.2916 138.597 33.1566C138.347 33.0217 138.067 32.9553 137.755 32.9553C137.444 32.9553 137.163 33.0217 136.913 33.1566C136.663 33.2916 136.466 33.4784 136.323 33.7213C136.179 33.9621 136.108 34.2382 136.108 34.5475C136.108 34.8568 136.179 35.1329 136.323 35.3716C136.466 35.6104 136.663 35.7972 136.913 35.9321C137.163 36.0671 137.444 36.1335 137.755 36.1335C138.067 36.1335 138.347 36.0671 138.597 35.9321Z"/>
<path d="M142.06 31.7761C142.011 31.7325 141.986 31.6806 141.986 31.6225C141.986 31.5582 142.009 31.5042 142.056 31.4627C142.103 31.4191 142.16 31.3983 142.23 31.3983C142.294 31.3983 142.351 31.4191 142.4 31.4627C142.449 31.5063 142.474 31.5582 142.474 31.6163C142.474 31.6765 142.449 31.7284 142.4 31.7741C142.351 31.8197 142.294 31.8426 142.23 31.8426C142.167 31.8405 142.109 31.8197 142.06 31.7761ZM142.111 32.7705H142.357V36.3183H142.111V32.7705Z"/>
<path d="M148.264 35.3758C148.264 35.6851 148.144 35.9197 147.904 36.0795C147.664 36.2394 147.301 36.3183 146.816 36.3183H145.22V32.7705H146.779C147.199 32.7705 147.529 32.8473 147.767 33.003C148.004 33.1587 148.123 33.3808 148.123 33.6735C148.123 33.8874 148.058 34.0638 147.926 34.2029C147.795 34.342 147.613 34.4395 147.381 34.4935C147.969 34.5807 148.264 34.8734 148.264 35.3758ZM145.466 34.425H146.779C147.129 34.425 147.402 34.3627 147.592 34.2403C147.783 34.1178 147.877 33.9351 147.877 33.6943C147.877 33.4535 147.783 33.2708 147.592 33.1483C147.402 33.0258 147.131 32.9636 146.779 32.9636H145.466V34.425ZM147.719 35.9425C147.92 35.82 148.021 35.629 148.021 35.3675C148.021 35.108 147.931 34.917 147.75 34.7925C147.57 34.67 147.287 34.6077 146.9 34.6077H145.468V36.1252H146.826C147.22 36.1273 147.519 36.065 147.719 35.9425Z"/>
</svg>
