<svg width="115" height="68" viewBox="0 0 115 68" xmlns="http://www.w3.org/2000/svg">
<g clip-path="url(#clip0_364_400)">
<path d="M4.20198 30.4678C6.52267 30.4678 8.40396 28.6015 8.40396 26.2992C8.40396 23.997 6.52267 22.1306 4.20198 22.1306C1.88129 22.1306 0 23.997 0 26.2992C0 28.6015 1.88129 30.4678 4.20198 30.4678Z"/>
<path d="M40.8211 30.4678C43.1418 30.4678 45.0231 28.6015 45.0231 26.2992C45.0231 23.997 43.1418 22.1306 40.8211 22.1306C38.5004 22.1306 36.6191 23.997 36.6191 26.2992C36.6191 28.6015 38.5004 30.4678 40.8211 30.4678Z"/>
<path d="M75.0389 30.4678C77.3596 30.4678 79.2409 28.6015 79.2409 26.2992C79.2409 23.997 77.3596 22.1306 75.0389 22.1306C72.7182 22.1306 70.8369 23.997 70.8369 26.2992C70.8369 28.6015 72.7182 30.4678 75.0389 30.4678Z"/>
<path d="M110.793 30.4678C113.114 30.4678 114.995 28.6015 114.995 26.2992C114.995 23.997 113.114 22.1306 110.793 22.1306C108.472 22.1306 106.591 23.997 106.591 26.2992C106.591 28.6015 108.472 30.4678 110.793 30.4678Z"/>
<path d="M4.20198 68C6.52267 68 8.40396 66.1337 8.40396 63.8314C8.40396 61.5292 6.52267 59.6628 4.20198 59.6628C1.88129 59.6628 0 61.5292 0 63.8314C0 66.1337 1.88129 68 4.20198 68Z"/>
<path d="M110.793 68C113.114 68 114.995 66.1337 114.995 63.8314C114.995 61.5292 113.114 59.6628 110.793 59.6628C108.472 59.6628 106.591 61.5292 106.591 63.8314C106.591 66.1337 108.472 68 110.793 68Z"/>
<path d="M5.09204 26.2992H3.29688V62.0604H5.09204V26.2992Z"/>
<path d="M111.693 26.2992H109.898V62.0604H111.693V26.2992Z"/>
<path d="M109.604 62.9385H4.19189V64.7194H109.604V62.9385Z"/>
<path d="M40.0902 25.4064H4.19189V27.1873H40.0902V25.4064Z"/>
<path d="M113.458 25.4064H77.5601V27.1873H113.458V25.4064Z"/>
<path d="M66.2016 -0.000191826L40.8179 25.1819L42.0872 26.4412L67.4709 1.25909L66.2016 -0.000191826Z"/>
<path d="M14.0678 48.484H17.8421V50.2551H11.9146V39.6831H14.0678V48.484Z"/>
<path d="M21.0446 47.3544L22.8398 39.6881H25.2416L22.1685 50.2601H19.9307L16.8774 39.6881H19.2644L21.0446 47.3544Z"/>
<path d="M28.4887 50.2551H26.3354V39.6831H28.4887V50.2551Z"/>
<path d="M33.7648 47.3544L35.56 39.6881H37.9618L34.8887 50.2601H32.6509L29.5977 39.6881H31.9846L33.7648 47.3544Z"/>
<path d="M49.9164 45.9237C49.9164 47.3396 49.5782 48.4446 48.902 49.229C48.2257 50.0134 47.2858 50.4031 46.0874 50.4031C44.8939 50.4031 43.9541 50.0134 43.2678 49.2389C42.5866 48.4644 42.2385 47.3741 42.2285 45.978V44.1724C42.2285 42.7221 42.5667 41.5874 43.2479 40.7685C43.9242 39.9545 44.8691 39.545 46.0725 39.545C47.256 39.545 48.1908 39.9446 48.8771 40.7488C49.5584 41.5479 49.9064 42.6727 49.9164 44.1231V45.9237V45.9237ZM47.7582 44.1527C47.7582 43.2006 47.624 42.4902 47.3505 42.0265C47.077 41.5627 46.6543 41.3309 46.0774 41.3309C45.5056 41.3309 45.0829 41.5529 44.8094 42.0018C44.5359 42.4507 44.3966 43.1315 44.3867 44.0442V45.9237C44.3867 46.8463 44.5259 47.532 44.8044 47.9661C45.0829 48.4052 45.5105 48.6222 46.0923 48.6222C46.6543 48.6222 47.072 48.4101 47.3455 47.9809C47.619 47.5517 47.7582 46.8857 47.7632 45.9879V44.1527H47.7582Z"/>
<path d="M53.6112 46.5403V50.2551H51.458V39.6831H55.0881C56.1423 39.6831 56.9827 40.0087 57.6093 40.655C58.2359 41.3061 58.5491 42.1448 58.5491 43.1808C58.5491 44.2168 58.2408 45.0357 57.6192 45.6326C56.9977 46.2345 56.1423 46.5305 55.0434 46.5305H53.6112V46.5403ZM53.6112 44.7594H55.0881C55.4959 44.7594 55.8141 44.6262 56.0379 44.3598C56.2617 44.0934 56.3761 43.7086 56.3761 43.2005C56.3761 42.6727 56.2617 42.2533 56.0329 41.9425C55.8042 41.6317 55.4959 41.4739 55.113 41.4689H53.6112V44.7594V44.7594Z"/>
<path d="M65.4911 45.6819H62.1394V48.484H66.1077V50.2551H59.9912V39.6831H66.0928V41.464H62.1394V43.9602H65.4911V45.6819Z"/>
<path d="M74.7901 50.2551H72.6369L69.4891 43.3238V50.2551H67.3359V39.6831H69.4891L72.6419 46.6242V39.6831H74.7851V50.2551H74.7901Z"/>
<path d="M82.1249 48.484H85.8992V50.2551H79.9717V39.6831H82.1249V48.484V48.484Z"/>
<path d="M92.3688 48.0944H89.4348L88.863 50.2601H86.5854L89.9172 39.6881H91.8864L95.238 50.2601H92.9406L92.3688 48.0944ZM89.9073 46.3135H91.8964L90.9018 42.5445L89.9073 46.3135Z"/>
<path d="M96.2324 50.2551V39.6831H99.5244C100.638 39.6831 101.484 39.9298 102.061 40.4182C102.637 40.9115 102.926 41.6317 102.926 42.5789C102.926 43.1166 102.806 43.5804 102.568 43.9652C102.329 44.35 102.001 44.6361 101.588 44.8137C102.065 44.9518 102.433 45.2231 102.692 45.6326C102.951 46.0421 103.08 46.5453 103.08 47.1471C103.08 48.1732 102.796 48.9478 102.23 49.4707C101.663 49.9936 100.837 50.2551 99.7581 50.2551H96.2324V50.2551ZM98.3856 44.1082H99.5045C100.35 44.1082 100.773 43.6741 100.773 42.8108C100.773 42.3323 100.673 41.9869 100.479 41.7797C100.285 41.5725 99.967 41.4689 99.5294 41.4689H98.3856V44.1082ZM98.3856 45.6622V48.489H99.7631C100.146 48.489 100.439 48.3706 100.643 48.1338C100.842 47.897 100.942 47.5615 100.942 47.1224C100.942 46.1753 100.594 45.6869 99.9023 45.6622H98.3856V45.6622Z"/>
</g>
<defs>
<clipPath id="clip0_364_400">
<rect width="115" height="68"/>
</clipPath>
</defs>
</svg>
