<svg width="49" height="30" viewBox="0 0 49 30" xmlns="http://www.w3.org/2000/svg"><path d="M1.90239 13.4631C2.87404 13.4631 3.66171 12.6816 3.66171 11.7177C3.66171 10.7538 2.87404 9.97235 1.90239 9.97235C0.930742 9.97235 0.143066 10.7538 0.143066 11.7177C0.143066 12.6816 0.930742 13.4631 1.90239 13.4631Z"/><path d="M17.2344 13.4631C18.2061 13.4631 18.9937 12.6816 18.9937 11.7177C18.9937 10.7538 18.2061 9.97235 17.2344 9.97235C16.2628 9.97235 15.4751 10.7538 15.4751 11.7177C15.4751 12.6816 16.2628 13.4631 17.2344 13.4631Z"/><path d="M31.5611 13.4631C32.5327 13.4631 33.3204 12.6816 33.3204 11.7177C33.3204 10.7538 32.5327 9.97235 31.5611 9.97235C30.5894 9.97235 29.8018 10.7538 29.8018 11.7177C29.8018 12.6816 30.5894 13.4631 31.5611 13.4631Z"/><path d="M46.5308 13.4631C47.5025 13.4631 48.2901 12.6816 48.2901 11.7177C48.2901 10.7538 47.5025 9.97235 46.5308 9.97235C45.5592 9.97235 44.7715 10.7538 44.7715 11.7177C44.7715 12.6816 45.5592 13.4631 46.5308 13.4631Z"/><path d="M1.90239 29.1777C2.87404 29.1777 3.66171 28.3963 3.66171 27.4323C3.66171 26.4684 2.87404 25.687 1.90239 25.687C0.930742 25.687 0.143066 26.4684 0.143066 27.4323C0.143066 28.3963 0.930742 29.1777 1.90239 29.1777Z"/><path d="M46.5308 29.1777C47.5025 29.1777 48.2901 28.3963 48.2901 27.4323C48.2901 26.4684 47.5025 25.687 46.5308 25.687C45.5592 25.687 44.7715 26.4684 44.7715 27.4323C44.7715 28.3963 45.5592 29.1777 46.5308 29.1777Z"/><path d="M2.27505 11.7178H1.52344V26.6906H2.27505V11.7178Z"/><path d="M46.9079 11.7178H46.1562V26.6906H46.9079V11.7178Z"/><path d="M46.0335 27.0581H1.89844V27.8037H46.0335V27.0581Z"/><path d="M16.9287 11.3438H1.89844V12.0894H16.9287V11.3438Z"/><path d="M47.6469 11.3438H32.6167V12.0894H47.6469V11.3438Z"/><path d="M27.8608 0.706499L17.2329 11.25L17.7644 11.7772L28.3923 1.23375L27.8608 0.706499Z"/><path d="M6.03336 21.007H7.61363V21.7485H5.13184V17.3222H6.03336V21.007Z"/><path d="M8.95422 20.5336L9.70584 17.3238H10.7115L9.42476 21.7502H8.48784L7.20947 17.3238H8.20885L8.95422 20.5336Z"/><path d="M12.071 21.7481H11.1694V17.3217H12.071V21.7481Z"/><path d="M14.2799 20.5336L15.0315 17.3238H16.0371L14.7504 21.7502H13.8135L12.5352 17.3238H13.5345L14.2799 20.5336Z"/><path d="M21.0426 19.9344C21.0426 20.5272 20.901 20.9898 20.6178 21.3183C20.3347 21.6467 19.9412 21.8098 19.4394 21.8098C18.9397 21.8098 18.5462 21.6467 18.2589 21.3224C17.9736 20.9981 17.8279 20.5416 17.8237 19.9571V19.2011C17.8237 18.5939 17.9653 18.1188 18.2505 17.7759C18.5337 17.4351 18.9293 17.2637 19.4331 17.2637C19.9287 17.2637 20.3201 17.431 20.6074 17.7677C20.8927 18.1023 21.0384 18.5732 21.0426 19.1805V19.9344ZM20.139 19.1929C20.139 18.7942 20.0827 18.4968 19.9682 18.3026C19.8537 18.1085 19.6767 18.0114 19.4352 18.0114C19.1958 18.0114 19.0188 18.1043 18.9043 18.2923C18.7898 18.4803 18.7315 18.7653 18.7273 19.1474V19.9344C18.7273 20.3206 18.7856 20.6077 18.9022 20.7895C19.0188 20.9733 19.1979 21.0642 19.4415 21.0642C19.6767 21.0642 19.8516 20.9754 19.9661 20.7957C20.0807 20.616 20.139 20.3371 20.141 19.9612V19.1929H20.139Z"/><path d="M22.5895 20.1928V21.7481H21.688V17.3217H23.2079C23.6493 17.3217 24.0011 17.458 24.2635 17.7286C24.5258 18.0013 24.657 18.3524 24.657 18.7862C24.657 19.2199 24.5279 19.5628 24.2676 19.8127C24.0074 20.0647 23.6493 20.1886 23.1891 20.1886H22.5895V20.1928ZM22.5895 19.4471H23.2079C23.3786 19.4471 23.5119 19.3914 23.6055 19.2798C23.6992 19.1683 23.7471 19.0072 23.7471 18.7944C23.7471 18.5734 23.6992 18.3978 23.6035 18.2677C23.5077 18.1376 23.3786 18.0715 23.2183 18.0694H22.5895V19.4471Z"/><path d="M27.5635 19.8334H26.1602V21.0066H27.8217V21.7481H25.2607V17.3217H27.8154V18.0674H26.1602V19.1125H27.5635V19.8334Z"/><path d="M31.4569 21.7481H30.5554L29.2375 18.8461V21.7481H28.3359V17.3217H29.2375L30.5575 20.2279V17.3217H31.4548V21.7481H31.4569Z"/><path d="M34.528 21.0066H36.1083V21.7481H33.6265V17.3217H34.528V21.0066Z"/><path d="M38.8174 20.8434H37.589L37.3496 21.7502H36.396L37.791 17.3238H38.6154L40.0187 21.7502H39.0568L38.8174 20.8434ZM37.7868 20.0978H38.6196L38.2032 18.5197L37.7868 20.0978Z"/><path d="M40.4351 21.7481V17.3217H41.8134C42.2797 17.3217 42.6337 17.425 42.8752 17.6295C43.1167 17.836 43.2375 18.1376 43.2375 18.5342C43.2375 18.7593 43.1875 18.9535 43.0876 19.1146C42.9876 19.2757 42.8502 19.3955 42.6774 19.4698C42.8773 19.5277 43.0314 19.6413 43.1396 19.8127C43.2479 19.9842 43.302 20.1948 43.302 20.4468C43.302 20.8764 43.1834 21.2007 42.946 21.4197C42.7087 21.6386 42.363 21.7481 41.9112 21.7481H40.4351ZM41.3366 19.1745H41.805C42.159 19.1745 42.336 18.9927 42.336 18.6312C42.336 18.4309 42.2943 18.2863 42.2131 18.1996C42.1319 18.1128 41.9987 18.0694 41.8155 18.0694H41.3366V19.1745ZM41.3366 19.8251V21.0086H41.9133C42.0736 21.0086 42.1965 20.9591 42.2818 20.8599C42.3651 20.7608 42.4068 20.6203 42.4068 20.4365C42.4068 20.0399 42.261 19.8354 41.9716 19.8251H41.3366Z"/></svg>