<svg width="86" height="17" viewBox="0 0 86 17" xmlns="http://www.w3.org/2000/svg"><g clip-path="url(#clip0_606_4507)"><path d="M23.4826 0.929867L25.4586 16.748L19.6628 16.7665L18.6364 5.48016L16.2087 16.7788L9.74604 16.8004L7.19233 5.60348L6.26733 16.8127L0.474609 16.8312L2.34611 0.99769L10.7325 0.969944L12.9113 11.2729L14.7521 0.95453L23.4826 0.929867Z"/><path d="M29.3091 14.7842C27.6927 13.3445 26.8814 11.316 26.8721 8.69867C26.8629 6.11215 27.6589 4.0898 29.2568 2.63161C30.8548 1.17341 33.3717 0.439694 36.8012 0.427362C40.2492 0.415031 42.7753 1.13334 44.3855 2.58228C45.9928 4.03122 46.804 6.04741 46.8102 8.63393C46.8194 11.2636 46.0266 13.3014 44.4347 14.7442C42.8429 16.1869 40.3168 16.9145 36.8535 16.9268C33.4393 16.9391 30.9255 16.227 29.3091 14.7842ZM40.4213 11.5441C41.1496 10.9245 41.5122 9.95956 41.5092 8.65243C41.5061 7.37304 41.1373 6.42352 40.4028 5.80078C39.6684 5.17805 38.476 4.86976 36.8197 4.87593C35.1786 4.88209 33.9924 5.19654 33.2641 5.82545C32.5358 6.45435 32.1732 7.40695 32.1763 8.68326C32.1793 9.97806 32.5481 10.9337 33.2826 11.5565C34.017 12.1792 35.2032 12.4875 36.8442 12.4813C38.4976 12.4752 39.6899 12.1638 40.4213 11.5441Z"/><path d="M54.1364 12.2501C58.4633 12.207 61.6193 12.1237 64.4527 11.9973C64.3543 12.8143 64.3267 15.6382 64.468 16.6185L48.6909 16.6709C48.8015 13.8501 48.8507 11.2143 48.8446 8.75724C48.8353 6.30021 48.7677 3.66436 48.6387 0.843547L54.0995 0.82505L54.1364 12.2501Z"/><path d="M68.3984 14.6548C66.782 13.2151 65.9707 11.1865 65.9615 8.56919C65.9523 5.98267 66.7482 3.96032 68.3462 2.50213C69.9442 1.04393 72.461 0.310213 75.8936 0.297882C79.3385 0.28555 81.8677 1.00386 83.4749 2.4528C85.0821 3.90174 85.8934 5.91793 85.8995 8.50445C85.9088 11.1341 85.1159 13.1719 83.5241 14.6147C81.9322 16.0575 79.4062 16.785 75.9459 16.7973C72.5317 16.8097 70.0149 16.0975 68.3984 14.6548ZM79.5106 11.4147C80.239 10.795 80.6016 9.83008 80.5985 8.52295C80.5954 7.24356 80.2236 6.29404 79.4922 5.6713C78.7577 5.04857 77.5654 4.74028 75.909 4.74645C74.268 4.75261 73.0818 5.06706 72.3535 5.69597C71.6252 6.32487 71.2625 7.27747 71.2656 8.55378C71.2687 9.84858 71.6375 10.8043 72.3719 11.427C73.1033 12.0497 74.2926 12.358 75.9336 12.3519C77.59 12.3488 78.7823 12.0343 79.5106 11.4147Z"/><path d="M4.40186 5.09481C4.48483 4.98074 4.55858 4.90367 4.62619 4.86976C4.6938 4.83277 4.78906 4.81427 4.91506 4.81427C5.081 4.81427 5.23773 4.86051 5.38831 4.95608C5.53889 5.04857 5.62493 5.18421 5.64645 5.36302C5.6864 5.65589 5.71098 5.94876 5.71713 6.24471C5.72327 6.54067 5.72327 6.83662 5.71713 7.13566C5.71098 7.43161 5.70791 7.72757 5.70176 8.02661C5.69562 8.32256 5.70483 8.61852 5.72635 8.9083C5.7663 9.61736 5.8339 10.348 5.91995 11.1095C6.00907 11.8678 6.05209 12.6016 6.05209 13.3106C6.05209 13.5203 6.01214 13.6744 5.92917 13.7792C5.8462 13.884 5.6864 13.9364 5.4467 13.9364C5.25002 13.9364 5.09944 13.8686 4.99496 13.733C4.89047 13.5973 4.81672 13.437 4.77062 13.249C4.72453 13.0609 4.6938 12.8729 4.68458 12.6786C4.67536 12.4875 4.66921 12.3334 4.66921 12.2193C4.66921 12.1361 4.65999 11.9603 4.64463 11.6952C4.62926 11.4301 4.6139 11.1187 4.59853 10.758C4.58317 10.4004 4.56473 10.0181 4.54322 9.61736C4.5217 9.21659 4.50019 8.8374 4.48176 8.4767C4.46024 8.11601 4.44181 7.80464 4.42644 7.53951C4.41107 7.27439 4.40186 7.10175 4.40186 7.01543V6.04741V5.09481Z"/><path d="M8.8425 13.3692C9.00844 13.1411 9.19283 12.9684 9.39565 12.8544C9.59847 12.7403 9.80437 12.6478 10.0164 12.5738C10.2285 12.4998 10.4405 12.432 10.6556 12.3642C10.8676 12.2964 11.0797 12.1854 11.2856 12.0282C11.3993 11.9665 11.5591 11.8709 11.7681 11.7476C11.974 11.6243 12.1798 11.4856 12.3827 11.3345C12.5855 11.1835 12.7607 11.0355 12.9112 10.8906C13.0618 10.7457 13.1356 10.6193 13.1356 10.5176C13.1356 10.5083 13.1294 10.5021 13.1202 10.5021C13.0987 10.5021 13.0895 10.496 13.0895 10.4867L13.0587 10.4559C13.0065 10.4343 12.9235 10.4097 12.8098 10.3788C12.6961 10.348 12.6285 10.3264 12.607 10.3172C11.2702 10.1599 10.1916 10.0243 9.38029 9.90407C8.56592 9.78383 7.93902 9.65744 7.4965 9.52179C7.05705 9.38615 6.76204 9.232 6.6176 9.0532C6.47317 8.87747 6.39941 8.65243 6.39941 8.38113C6.39941 8.27632 6.42093 8.16225 6.46087 8.03894C6.50082 7.91254 6.54999 7.78923 6.60838 7.66591C6.66677 7.5426 6.72516 7.42545 6.78662 7.32371C6.84808 7.2189 6.90647 7.13566 6.95871 7.074C7.12466 6.86745 7.34284 6.6794 7.61327 6.51292C7.8837 6.34645 8.17257 6.20155 8.48295 6.07516C8.79333 5.95184 9.10678 5.84086 9.42331 5.74837C9.73983 5.65589 10.0287 5.57265 10.2868 5.49866C10.5757 5.47708 10.8707 5.40926 11.1657 5.28903C11.4607 5.1688 11.7558 5.08864 12.0446 5.04856C12.1891 5.04856 12.3089 5.10714 12.4011 5.22121C12.4933 5.33527 12.5425 5.4555 12.5425 5.57882C12.5425 5.75454 12.5087 5.8871 12.4411 5.97651C12.3734 6.06591 12.2843 6.13373 12.1768 6.17997C12.0692 6.22622 11.9463 6.26321 11.8111 6.28787C11.6759 6.31254 11.5406 6.34337 11.4054 6.37419C11.3225 6.39577 11.2088 6.42352 11.0643 6.46051C10.9199 6.49751 10.7724 6.53759 10.6279 6.57766C10.4835 6.62082 10.3544 6.65473 10.2377 6.68556C10.124 6.71639 10.0564 6.73797 10.0348 6.74722C9.71218 6.88287 9.41102 7.00926 9.12522 7.12949C8.83943 7.24973 8.59051 7.36996 8.37847 7.49635C8.16643 7.61967 8.00048 7.75223 7.88063 7.89404C7.76078 8.03585 7.70547 8.18691 7.71776 8.35339V8.3688C7.82224 8.5137 8.0558 8.62468 8.41842 8.69559C8.78104 8.76957 9.20819 8.83123 9.70296 8.88364C10.1946 8.93605 10.714 8.98846 11.2579 9.04087C11.8019 9.09328 12.3028 9.17035 12.7576 9.27516C13.2124 9.37998 13.5935 9.51871 13.8946 9.69752C14.1958 9.87324 14.3494 10.1137 14.3617 10.4158C14.3617 10.5299 14.3371 10.6655 14.291 10.8228C14.2449 10.98 14.1804 11.0971 14.0974 11.1804C13.8393 11.4732 13.5289 11.7723 13.1724 12.0867C12.816 12.4012 12.4288 12.6879 12.0139 12.953C11.599 13.2181 11.1719 13.4432 10.7294 13.6251C10.2899 13.807 9.85661 13.9149 9.42945 13.9457C9.28502 13.9457 9.14981 13.8902 9.02381 13.7823C8.90396 13.6559 8.8425 13.5233 8.8425 13.3692Z"/><path d="M21.4298 11.9788C21.4298 11.3438 21.4421 10.7056 21.4698 10.0675C21.4944 9.42622 21.5251 8.78807 21.5558 8.14684C21.5866 7.5056 21.6111 6.86745 21.6265 6.22622C21.6419 5.58498 21.6388 4.94991 21.6173 4.31484C21.648 4.20078 21.7064 4.11446 21.7894 4.05897C21.8724 4.00039 21.9707 3.97265 22.0844 3.97265C22.3026 3.97265 22.4685 4.01272 22.5822 4.0898C22.6959 4.16687 22.7789 4.27477 22.8311 4.41041C22.8834 4.54606 22.9141 4.69712 22.9233 4.86359C22.9326 5.03007 22.9449 5.19654 22.9541 5.36302C23.077 5.59115 23.2276 5.81311 23.3966 6.02583C23.5656 6.23855 23.7193 6.45435 23.8545 6.67323C23.8545 6.68248 23.8637 6.70714 23.8791 6.74414C23.8944 6.78113 23.9067 6.79963 23.919 6.79963C23.9805 6.89211 24.0604 7.01543 24.1587 7.16649C24.257 7.31755 24.3523 7.46244 24.4476 7.60425C24.5398 7.74607 24.6535 7.91871 24.7887 8.12834L24.8502 8.20541L25.7536 9.51563C25.7936 9.55879 25.8305 9.57728 25.8612 9.57728H25.8919C25.7567 8.47362 25.6491 7.34838 25.5662 6.19847C25.4832 5.04856 25.4402 3.91099 25.4402 2.78883V2.00578C25.5232 1.87014 25.6645 1.80231 25.8612 1.80231C26.0579 1.80231 26.2023 1.84856 26.2976 1.94413C26.3898 2.03661 26.4543 2.15376 26.485 2.29557C26.5158 2.43738 26.5311 2.58844 26.5311 2.74875C26.5311 2.90906 26.5373 3.05704 26.5465 3.19268C26.5465 3.20193 26.5526 3.22043 26.5618 3.24818C26.5711 3.27284 26.5864 3.33141 26.6018 3.42082C26.6172 3.51022 26.6325 3.64586 26.6479 3.82775C26.6633 4.00964 26.6848 4.26244 26.7094 4.58614C26.7339 4.90984 26.7616 5.31369 26.7862 5.80386C26.8108 6.29404 26.8446 6.89211 26.8876 7.59809V7.87863L27.4162 11.3592C27.4254 11.4424 27.4715 11.5688 27.5483 11.7414C27.6251 11.9141 27.6651 12.0467 27.6651 12.1391C27.6651 12.358 27.6036 12.5337 27.4776 12.6694C27.3547 12.805 27.1765 12.8729 26.9491 12.8729C26.9183 12.8729 26.8753 12.8605 26.8231 12.8328C26.7708 12.8081 26.7186 12.7773 26.6663 12.7465C26.6141 12.7156 26.5649 12.6817 26.5188 12.6447C26.4727 12.6077 26.4389 12.58 26.4174 12.5584L23.9129 8.98537C23.9036 8.98537 23.8914 8.96688 23.8821 8.92988C23.8729 8.89289 23.8606 8.86514 23.8514 8.84356C23.7899 8.75108 23.707 8.63393 23.6025 8.49212C23.498 8.35031 23.3997 8.21158 23.3075 8.06977C23.2153 7.92795 23.1323 7.80772 23.0586 7.70291C22.9848 7.59809 22.951 7.5426 22.951 7.53026L22.8742 7.46861C22.8219 8.45821 22.782 9.45397 22.7482 10.4559C22.7174 11.4609 22.7174 12.4628 22.7482 13.4617C22.7267 13.5881 22.6621 13.696 22.5546 13.7885C22.447 13.881 22.3333 13.9303 22.2196 13.9303C22.0106 13.9303 21.8478 13.8748 21.731 13.7669C21.6142 13.659 21.5097 13.5141 21.4268 13.3384V11.9788H21.4298Z"/><path d="M28.7744 13.5881C28.6699 13.1719 28.5931 12.7804 28.5408 12.4104C28.4886 12.0405 28.4517 11.649 28.4333 11.2328C28.424 10.9923 28.424 10.7888 28.4333 10.6162C28.4425 10.4436 28.424 10.2555 28.3718 10.0459C28.3626 10.0058 28.338 9.97189 28.3011 9.95339C28.2642 9.93489 28.2274 9.90715 28.1936 9.87632C28.1567 9.84549 28.1229 9.80541 28.0922 9.75917C28.0614 9.71293 28.0461 9.63586 28.0461 9.53412C28.0461 9.45088 28.0645 9.3769 28.1014 9.31524C28.1383 9.25358 28.1751 9.19193 28.2089 9.13643C28.2427 9.08094 28.2827 9.0162 28.3165 8.94838C28.3503 8.88056 28.3718 8.8004 28.3718 8.70483V8.46745C28.3718 8.36264 28.3626 8.18691 28.3411 7.9372C28.3196 7.68749 28.3011 7.42237 28.2796 7.14183C28.2581 6.86129 28.2397 6.59616 28.2243 6.34645C28.2089 6.09674 28.1966 5.9241 28.1843 5.83161C28.1751 5.65589 28.126 5.49866 28.043 5.36302C27.96 5.22737 27.917 5.07323 27.917 4.89442C27.917 4.56147 27.9846 4.32718 28.1198 4.19153C28.255 4.05588 28.4917 3.98806 28.8358 3.98806C28.9096 3.98806 28.968 4.01889 29.0141 4.08055C29.0602 4.1422 29.1155 4.17303 29.1769 4.17303H29.2384C29.2691 4.16378 29.3152 4.14837 29.3798 4.13296C29.4412 4.11754 29.4843 4.10829 29.5058 4.10829C30.3754 3.73527 31.0546 3.4424 31.5432 3.23584C32.0318 3.02929 32.3975 2.87823 32.6464 2.78266C32.8954 2.69018 33.0644 2.63777 33.1535 2.62544C33.2426 2.61619 33.3164 2.62544 33.3778 2.65627C33.5038 2.67785 33.5868 2.71484 33.636 2.77342C33.6821 2.83199 33.7066 2.91523 33.7066 3.02929C33.7066 3.13411 33.6913 3.23893 33.6605 3.34066C33.6298 3.44548 33.5561 3.52255 33.4424 3.57496L31.4049 4.55839L31.3435 4.62005L29.6318 5.35377C29.5703 5.37535 29.5334 5.42776 29.5242 5.51099C29.515 5.59423 29.5088 5.66205 29.5088 5.71446C29.5088 5.7977 29.5181 5.94876 29.5396 6.16764C29.5611 6.38653 29.5795 6.61157 29.601 6.84587C29.6225 7.08017 29.6441 7.2898 29.6717 7.47169C29.6963 7.65358 29.7147 7.74606 29.727 7.74606H29.7424L29.7578 7.73065C29.8715 7.64741 30.0528 7.5056 30.3017 7.30213C30.5506 7.09866 30.8057 6.8952 31.0638 6.68556C31.3219 6.47901 31.5524 6.29404 31.7491 6.13065C31.9458 5.97034 32.0503 5.8871 32.0595 5.8871C32.1732 5.8871 32.2777 5.94568 32.3699 6.05974C32.4621 6.17381 32.5112 6.29404 32.5112 6.42044C32.5112 6.54375 32.4866 6.68556 32.4344 6.84279C32.3822 7.00001 32.2992 7.11716 32.1855 7.20348L29.7578 9.37381C29.7578 9.47863 29.7547 9.56187 29.7485 9.62353C29.7424 9.68518 29.7393 9.74992 29.7393 9.81775C29.7393 9.88557 29.7393 9.94106 29.7393 9.98114C29.7393 10.3542 29.7639 10.7272 29.8161 11.0971C29.8684 11.4671 29.893 11.837 29.893 12.2131H29.9544C29.9637 12.2131 30.0128 12.173 30.0958 12.0867C30.1788 12.0035 30.2402 11.9357 30.2833 11.8833C30.3048 11.8524 30.3539 11.7846 30.4308 11.6798C30.5076 11.575 30.6397 11.4054 30.8272 11.165C31.0146 10.9245 31.2636 10.61 31.5739 10.2124C31.8843 9.81775 32.2838 9.31832 32.7724 8.71408C32.8124 8.67401 32.8738 8.60927 32.9507 8.52603C33.0275 8.44279 33.0767 8.39963 33.0982 8.39963C33.1289 8.3688 33.1934 8.35647 33.2918 8.35955C33.3901 8.36572 33.4608 8.37805 33.5007 8.39963C33.553 8.42121 33.6206 8.4767 33.7036 8.57227C33.7865 8.66476 33.8296 8.75416 33.8296 8.8374C33.8296 8.96379 33.765 9.12719 33.636 9.32757C33.5069 9.53104 33.3532 9.74067 33.1781 9.95956C32.9998 10.1784 32.8247 10.3881 32.6495 10.5915C32.4743 10.795 32.3391 10.9584 32.2439 11.0817C32.0994 11.3098 31.9243 11.5904 31.7214 11.9172C31.5186 12.244 31.2974 12.5584 31.0607 12.8544C30.8241 13.1503 30.5598 13.4062 30.274 13.6189C29.9882 13.8316 29.684 13.9395 29.3644 13.9395C29.2077 13.9395 29.097 13.9149 29.0294 13.8625C28.9618 13.8162 28.8758 13.7206 28.7744 13.5881Z"/><path d="M37.3729 8.59077L37.3114 8.52911C37.2499 8.77882 37.2131 9.02853 37.2038 9.27824C37.1946 9.52796 37.1823 9.78383 37.1731 10.0428C37.1731 10.126 37.17 10.2678 37.1639 10.4651C37.1577 10.6624 37.1516 10.8752 37.1393 11.0971C37.1301 11.3222 37.1209 11.5349 37.1147 11.7384C37.1086 11.9418 37.1055 12.0806 37.1055 12.1515C37.0748 12.2779 37.0072 12.3858 36.9027 12.4782C36.7982 12.5707 36.6783 12.6201 36.5462 12.6201C36.494 12.6201 36.4294 12.6108 36.3526 12.5954C36.2758 12.58 36.1959 12.5584 36.119 12.5337C36.0422 12.5091 35.9685 12.4752 35.9009 12.432C35.8333 12.3919 35.7933 12.3426 35.7841 12.2902L34.8038 8.84048L34.0878 6.01658C34.0785 6.00733 34.057 5.97034 34.0263 5.90868C33.9956 5.84702 33.9648 5.77612 33.9341 5.69905C33.9034 5.62198 33.8757 5.5449 33.8481 5.474C33.8235 5.40001 33.8081 5.34452 33.8081 5.30136C33.8081 5.15646 33.8788 5.03932 34.0171 4.94991C34.1584 4.86051 34.2844 4.81735 34.3981 4.81735C34.7823 4.81735 35.025 4.97766 35.1295 5.30136L35.9838 8.4058C36.0361 8.38422 36.0699 8.32872 36.0852 8.23316C36.1006 8.14067 36.1098 8.0821 36.1098 8.06052C36.1098 8.05127 36.119 7.99886 36.1344 7.90329C36.1498 7.8108 36.1774 7.64741 36.2205 7.41312C36.2604 7.17882 36.3219 6.8582 36.3987 6.45435C36.4755 6.05049 36.5831 5.52949 36.7183 4.89442C36.8013 4.7896 36.8996 4.72178 37.0133 4.68479C37.127 4.64779 37.2561 4.6293 37.4036 4.6293C37.5388 4.6293 37.6464 4.65088 37.7232 4.69095C37.8 4.73411 37.8553 4.8266 37.8861 4.97149L38.9432 9.43547C38.9647 9.48788 38.9831 9.54337 39.0047 9.60811C39.0262 9.66977 39.0446 9.72834 39.0661 9.78075C39.1061 9.43855 39.1429 9.13335 39.1737 8.86822C39.2044 8.6031 39.2351 8.34414 39.2659 8.08826C39.2966 7.83238 39.3273 7.56418 39.3581 7.27747C39.3888 6.99076 39.4318 6.6609 39.4841 6.28787C39.5363 5.91485 39.5978 5.47092 39.6715 4.96224C39.7453 4.45357 39.8313 3.84317 39.9358 3.13719C39.9665 2.93064 40.0587 2.79808 40.2093 2.74567C40.3599 2.69326 40.5289 2.6686 40.7164 2.6686C40.7256 2.6686 40.7502 2.67785 40.787 2.69326C40.8239 2.70868 40.8454 2.72101 40.8577 2.73334C40.8792 2.74259 40.9192 2.75492 40.9806 2.76417C41.0421 2.77342 41.0851 2.78575 41.1066 2.795C41.1466 2.88748 41.1835 2.97072 41.2142 3.03546C41.2449 3.10328 41.2603 3.17727 41.2603 3.26051C41.2388 3.15569 41.2019 3.20193 41.1527 3.40232C41.1005 3.59962 41.036 3.92332 40.9591 4.37034C40.8823 4.81735 40.7993 5.37226 40.7102 6.032C40.6211 6.69173 40.535 7.43778 40.4551 8.26398C40.3722 9.09019 40.2953 9.9873 40.2308 10.9492C40.1632 11.911 40.1079 12.9068 40.0679 13.9395C40.0372 13.9395 39.985 13.9334 39.9112 13.9241C39.8375 13.9149 39.7637 13.8994 39.6869 13.8779C39.61 13.8563 39.5394 13.8316 39.4779 13.8008C39.4164 13.77 39.3734 13.7268 39.3519 13.6775L37.3729 8.59077Z"/><path d="M51.5303 14.0228C51.5395 13.9704 51.5549 13.8717 51.5703 13.7268C51.5856 13.5819 51.6072 13.4278 51.6317 13.2675C51.6563 13.1072 51.6809 12.9561 51.7024 12.8143C51.7239 12.6725 51.7393 12.5738 51.7485 12.5091C51.8008 12.0405 51.8653 11.575 51.9421 11.1125C52.0189 10.6501 52.0589 10.1846 52.0589 9.71601V9.48171L51.81 9.3584C51.77 9.33682 51.6655 9.269 51.4996 9.15493C51.3336 9.04086 51.1493 8.91138 50.9464 8.76341C50.7436 8.61543 50.5439 8.47054 50.3472 8.31948C50.1505 8.16842 49.9999 8.0451 49.8955 7.95262C49.834 7.91254 49.7326 7.8293 49.5912 7.70907C49.4499 7.58884 49.3054 7.45936 49.1548 7.31755C49.0043 7.17574 48.8629 7.04317 48.7277 6.91061C48.5925 6.78113 48.5003 6.68864 48.448 6.63624C48.3651 6.553 48.2882 6.45743 48.2145 6.34645C48.1407 6.23855 48.1069 6.12448 48.1069 6.01042C48.1069 5.83469 48.1745 5.70521 48.3098 5.62814C48.445 5.55107 48.5894 5.51099 48.7461 5.51099C48.8506 5.51099 48.9582 5.52332 49.0719 5.55107C49.1856 5.57573 49.2839 5.63122 49.3669 5.71446C49.7602 6.15223 50.2028 6.58691 50.6883 7.02468C51.1769 7.46244 51.6748 7.83547 52.1818 8.14992L52.2433 7.94645L52.8978 3.73218C52.9194 3.61812 52.9839 3.54413 53.0914 3.5133C53.199 3.48247 53.3004 3.46706 53.3957 3.46706C53.6661 3.46706 53.8689 3.5318 54.0103 3.66128C54.1517 3.79076 54.2193 4.00656 54.2193 4.30868V4.33951C54.2193 4.34876 54.2131 4.3765 54.1947 4.41658C54.1762 4.45666 54.1639 4.50598 54.1486 4.55839C54.1332 4.6108 54.1209 4.66012 54.1086 4.70637C54.0994 4.75261 54.0933 4.78344 54.0933 4.79269C54.0625 4.91908 54.0195 5.15955 53.9673 5.51716C53.915 5.87477 53.8597 6.30329 53.7952 6.79654C53.7337 7.2898 53.6661 7.83547 53.5924 8.42738C53.5186 9.01928 53.4479 9.61736 53.3742 10.2154C53.3004 10.8135 53.2297 11.39 53.156 11.948C53.0822 12.506 53.0146 12.9962 52.9532 13.4216C52.9624 13.5264 52.9716 13.6467 52.9777 13.7792C52.9839 13.9149 52.9654 14.0443 52.9224 14.1707C52.8794 14.2971 52.8149 14.3989 52.7288 14.4821C52.6397 14.5653 52.5199 14.6085 52.3631 14.6085C52.1665 14.6085 51.9913 14.5561 51.8407 14.4513C51.6993 14.3557 51.5918 14.2108 51.5303 14.0228Z"/><path d="M54.6187 11.168C54.6279 11.1064 54.6279 10.9399 54.6187 10.6686C54.6095 10.3973 54.6064 10.0613 54.6126 9.6636C54.6187 9.26283 54.6279 8.82198 54.6433 8.34414C54.6587 7.8663 54.6955 7.38229 54.7509 6.89211C54.8092 6.40194 54.8922 5.93335 54.9998 5.48017C55.1073 5.02699 55.2518 4.63546 55.4269 4.30251C55.4884 4.02197 55.639 3.82775 55.8787 3.71677C56.1184 3.60887 56.4533 3.54413 56.8897 3.52255C57.1694 3.52255 57.4091 3.59654 57.6057 3.74143C57.8024 3.88633 57.9714 4.06822 58.1128 4.28093C58.2542 4.49365 58.374 4.72487 58.4785 4.97458C58.583 5.22429 58.6752 5.44934 58.7581 5.64664V5.72371C58.8319 5.93335 58.8841 6.24163 58.921 6.65165C58.9579 7.06167 58.9825 7.49327 58.9978 7.94645C59.0132 8.39963 59.0224 8.83432 59.0224 9.2505C59.0224 9.66669 59.0224 9.98422 59.0224 10.2031C59.0224 10.5145 58.9825 10.8875 58.8995 11.3191C58.8165 11.7507 58.6844 12.1607 58.5031 12.543C58.3218 12.9284 58.0851 13.2551 57.7963 13.5264C57.5043 13.7977 57.1571 13.9334 56.7545 13.9334C56.4134 13.9334 56.1092 13.844 55.8449 13.6682C55.5806 13.4925 55.3563 13.2644 55.1749 12.99C54.9936 12.7156 54.8553 12.4135 54.7632 12.0929C54.671 11.7723 54.6187 11.4578 54.6187 11.168ZM56.1307 12.2131C56.1522 12.3272 56.2106 12.4443 56.3089 12.5646C56.4072 12.6848 56.524 12.7434 56.6592 12.7434H56.7822C57.2185 12.3488 57.5043 11.8925 57.6395 11.3777C57.7748 10.8628 57.8424 10.3203 57.8424 9.74684C57.8424 9.6112 57.8362 9.40464 57.827 9.12102C57.8178 8.84048 57.7993 8.52603 57.7717 8.17767C57.744 7.8293 57.7133 7.46244 57.6703 7.07709C57.6303 6.69173 57.5781 6.33103 57.5135 5.99192C57.449 5.65281 57.3783 5.35993 57.2954 5.11022C57.2124 4.86051 57.114 4.68787 57.0003 4.59539C56.9911 4.60463 56.9758 4.62621 56.9604 4.65704C56.945 4.68787 56.9358 4.70945 56.9358 4.7187C56.7176 4.98999 56.5209 5.35993 56.3458 5.82545C56.1706 6.29404 56.0385 6.84895 55.9494 7.48711C55.8602 8.12834 55.8234 8.84356 55.8418 9.64202C55.8602 10.4405 55.9524 11.2975 56.1307 12.2131Z"/><path d="M63.7765 11.7291C63.6628 11.948 63.5245 12.1915 63.3647 12.4628C63.2049 12.7341 63.0174 12.99 62.8054 13.2366C62.5933 13.4802 62.3629 13.6867 62.1201 13.8532C61.8773 14.0197 61.613 14.1029 61.3334 14.1029C60.98 14.1029 60.7003 13.9981 60.4944 13.7916C60.2885 13.585 60.1287 13.326 60.0212 13.0178C59.9136 12.7095 59.8429 12.3888 59.8122 12.0497C59.7815 11.7106 59.7661 11.4085 59.7661 11.1372V10.7303C59.7753 10.647 59.7907 10.5237 59.8061 10.3542C59.8214 10.1877 59.8429 9.99655 59.8675 9.78383C59.8921 9.57112 59.9167 9.34607 59.9382 9.11177C59.9597 8.87747 59.9812 8.65551 60.0089 8.43971C60.0335 8.22699 60.055 8.03585 60.0703 7.86938C60.0857 7.7029 60.098 7.57959 60.1103 7.49635C60.0703 7.39154 60.055 7.28672 60.0703 7.17574C60.0857 7.06475 60.1226 6.96918 60.1779 6.87978C60.2332 6.79038 60.31 6.71947 60.4022 6.6609C60.4944 6.60541 60.5989 6.57458 60.7126 6.57458C60.7433 6.57458 60.7987 6.58383 60.8755 6.60541C60.9523 6.62699 61.0322 6.65782 61.1183 6.69789C61.2012 6.73797 61.275 6.78421 61.3364 6.83046C61.3979 6.8767 61.4286 6.92294 61.4286 6.96302V7.55493C61.2842 8.67709 61.1889 9.5742 61.149 10.2401C61.106 10.906 61.0906 11.4239 61.1029 11.7939C61.1121 12.1638 61.1428 12.4166 61.1951 12.5522C61.2473 12.6879 61.2996 12.7804 61.3518 12.8328C61.4747 12.8852 61.5977 12.8975 61.7175 12.8729C61.8374 12.8482 61.9787 12.7495 62.1447 12.5831C62.3106 12.4166 62.5104 12.1576 62.7439 11.8093C62.9775 11.4609 63.2602 10.9954 63.5921 10.4127C63.6136 10.3819 63.6351 10.3233 63.6628 10.2401C63.6873 10.1569 63.7058 10.0983 63.7181 10.0675C63.6966 9.37998 63.6935 8.68942 63.7089 7.99269C63.7242 7.29597 63.7488 6.60232 63.7795 5.91793C63.8195 5.81311 63.8871 5.72988 63.9824 5.66822C64.0745 5.60656 64.1729 5.57573 64.2774 5.57573C64.3173 5.57573 64.3819 5.59115 64.4648 5.62198C64.5478 5.6528 64.6308 5.69905 64.7137 5.75454C64.7967 5.81311 64.8705 5.87169 64.9319 5.93334C64.9934 5.995 65.0241 6.05666 65.0241 6.1214V10.7241C65.0979 11.1927 65.1532 11.6644 65.1962 12.1361C65.2362 12.6108 65.2946 13.0794 65.3683 13.548C65.3683 13.6004 65.3806 13.7052 65.4083 13.8686C65.4328 14.0289 65.4636 14.2047 65.4943 14.3927C65.525 14.5808 65.5527 14.7534 65.5803 14.9075C65.608 15.0617 65.6234 15.1634 65.6357 15.2035V15.3916C65.6357 15.7646 65.4328 15.968 65.0303 15.9989C64.8551 16.0205 64.7045 15.9434 64.5878 15.7738C64.4679 15.6012 64.3726 15.3792 64.2989 15.1018C64.2251 14.8274 64.1667 14.516 64.1206 14.1738C64.0745 13.8316 64.0346 13.4987 64.0039 13.175C63.9731 12.8513 63.9424 12.5584 63.9117 12.2933C63.8717 12.0343 63.8287 11.8432 63.7765 11.7291Z"/><path d="M68.8868 7.07709C68.8776 6.99385 68.8622 6.88595 68.8469 6.75647C68.8315 6.62699 68.8161 6.50059 68.8008 6.38344C68.7854 6.26321 68.767 6.1214 68.7455 5.95493H68.6195L66.8463 6.48518C66.7941 6.56841 66.708 6.61157 66.5912 6.61157C66.4714 6.61157 66.3823 6.61157 66.3177 6.61157C66.1733 6.61157 66.0258 6.54683 65.8752 6.41736C65.7246 6.28787 65.6509 6.14298 65.6509 5.98884C65.6509 5.87477 65.6908 5.76379 65.7677 5.65281C65.8445 5.54491 65.9428 5.46783 66.0565 5.42776L68.5611 4.63238C68.5918 4.51831 68.6502 4.40117 68.7393 4.28093C68.8284 4.1607 68.9452 4.10213 69.0896 4.10213C69.2341 4.10213 69.357 4.13912 69.4553 4.21003C69.5537 4.28402 69.6643 4.33951 69.7903 4.38267C69.8825 4.37342 70.0392 4.34259 70.2574 4.29018C70.4756 4.23777 70.7061 4.18228 70.9488 4.12679C71.1916 4.0713 71.4221 4.01581 71.6403 3.9634C71.8585 3.91099 72.009 3.874 72.092 3.8555C72.218 3.83392 72.3102 3.80926 72.3717 3.77843C72.4331 3.7476 72.5315 3.73219 72.6667 3.73219C72.8418 3.73219 73.0232 3.78459 73.2106 3.88941C73.3981 3.99423 73.4903 4.14837 73.4903 4.35801C73.4903 4.49365 73.4442 4.6108 73.3489 4.70945C73.2567 4.8081 73.1399 4.87284 73.0078 4.90367L70.0515 5.65281V5.79462C70.0515 6.11832 70.0792 6.43585 70.1376 6.74722C70.1959 7.05859 70.2144 7.37304 70.1929 7.68441L70.7214 12.506V12.8482C70.7214 12.9746 70.7184 13.101 70.7122 13.2305C70.7061 13.36 70.6876 13.4771 70.6508 13.5819C70.6139 13.6867 70.5555 13.7731 70.4725 13.8378C70.3895 13.9056 70.2636 13.9395 70.1007 13.9395C69.9747 13.9395 69.8425 13.8871 69.7042 13.7823C69.5629 13.6775 69.4891 13.5542 69.4799 13.4062L68.8899 7.20965V7.07709H68.8868Z"/><path d="M75.0608 9.91948H75.0147C75.0147 10.3449 75.0239 10.7642 75.0393 11.1773C75.0546 11.5873 75.0639 12.0127 75.0639 12.4505C75.0639 12.5769 75.0608 12.6971 75.0546 12.8174C75.0485 12.9376 75.0301 13.0455 74.9993 13.1441C74.9686 13.2428 74.9133 13.3199 74.8365 13.3784C74.7596 13.437 74.6429 13.4648 74.4861 13.4648C74.1942 13.4648 73.9944 13.3137 73.8807 13.0116C73.8285 12.5214 73.7978 12.0405 73.7885 11.5688C73.7793 11.0941 73.7486 10.61 73.6963 10.1106C73.6748 9.96572 73.6164 9.82391 73.5181 9.68827C73.4198 9.55262 73.3706 9.42314 73.3706 9.29674C73.3706 9.20426 73.4044 9.1241 73.472 9.06245C73.5396 9.00079 73.5734 8.91139 73.5734 8.79732C73.5734 7.98653 73.5488 7.1819 73.5027 6.38653C73.4566 5.59115 73.4321 4.79269 73.4321 3.99114V3.72602C73.5058 3.6212 73.5765 3.55954 73.6503 3.53796C73.724 3.51638 73.8223 3.50714 73.9453 3.50714C74.2464 3.50714 74.437 3.59962 74.5199 3.78151C74.6029 3.9634 74.649 4.18536 74.6613 4.44432L74.8026 8.59693C74.8119 8.62776 74.8303 8.67709 74.858 8.74491C74.8826 8.81274 74.9225 8.84665 74.9747 8.84665C75.0485 8.84665 75.1806 8.82815 75.3804 8.79115C75.5771 8.75416 75.786 8.71408 76.0042 8.66784C76.2224 8.6216 76.4191 8.56919 76.5942 8.51061C76.7694 8.45512 76.8739 8.39963 76.9046 8.34722C76.9046 8.27323 76.9077 8.14375 76.9138 7.9557C76.92 7.76765 76.9231 7.63817 76.9231 7.56418C76.9231 7.12641 76.9169 6.69481 76.9077 6.26938C76.8985 5.84394 76.877 5.41234 76.8462 4.97458C76.8462 4.90059 76.8309 4.72795 76.8001 4.45049C76.7694 4.17612 76.7387 3.87708 76.708 3.55338C76.6772 3.22968 76.6496 2.93064 76.6219 2.65627C76.5973 2.38189 76.582 2.20617 76.582 2.13218C76.5727 2.12293 76.5666 2.08902 76.5666 2.03045C76.5666 1.97496 76.5666 1.93488 76.5666 1.9133C76.5666 1.77765 76.6158 1.679 76.7141 1.61734C76.8124 1.55569 76.92 1.52486 77.0337 1.52486C77.2826 1.52486 77.467 1.60193 77.5868 1.75916C77.7067 1.91638 77.7927 2.10752 77.845 2.33565C77.8542 2.44972 77.8696 2.64394 77.8911 2.91214C77.9126 3.18344 77.9372 3.47322 77.9679 3.78459C77.9986 4.09596 78.0263 4.39192 78.054 4.66629C78.0785 4.94375 78.097 5.1318 78.1093 5.23662V5.48633C78.1093 5.53874 78.1185 5.64047 78.1339 5.79153C78.1492 5.94259 78.1615 6.04433 78.1738 6.09674V12.4967C78.226 12.6725 78.2598 12.8205 78.2752 12.9345C78.2906 13.0486 78.2998 13.1842 78.2998 13.3415C78.2998 13.4679 78.266 13.5973 78.1984 13.7391C78.1308 13.881 78.014 13.9488 77.8481 13.9488C77.7036 13.9488 77.5715 13.9118 77.4516 13.8409C77.3318 13.7669 77.2273 13.6744 77.1413 13.5603C77.0521 13.4463 76.9845 13.3168 76.9323 13.1781C76.88 13.0363 76.8555 12.8944 76.8555 12.7495V9.52796L75.0608 9.91948Z"/></g><defs><clipPath id="clip0_606_4507"><rect width="85.4281" height="16.632" transform="translate(0.474609 0.297882)"/></clipPath></defs></svg>