<svg width="51" height="13" viewBox="0 0 51 13" xmlns="http://www.w3.org/2000/svg"><g clip-path="url(#clip0_606_2846)"><path d="M14.7623 1.63078L15.8049 10.7963H12.6648L12.13 4.25645L10.7941 10.7963H7.29414L5.93114 4.30778L5.40862 10.7963H2.271L3.31112 1.63078H7.85364L9.017 7.60335L10.0325 1.63078H14.7623Z" stroke="black" stroke-width="0.5" stroke-miterlimit="10"/><path d="M17.8952 9.66694C17.0227 8.83021 16.5864 7.65212 16.5864 6.13781C16.5864 4.63889 17.0202 3.4685 17.8903 2.62664C18.7603 1.78478 20.1233 1.36385 21.9818 1.36385C23.85 1.36385 25.218 1.78478 26.0856 2.62664C26.9556 3.4685 27.3894 4.63889 27.3894 6.13781C27.3894 7.66239 26.9581 8.84048 26.0929 9.67207C25.2278 10.5062 23.8574 10.922 21.9818 10.922C20.1283 10.922 18.7677 10.5037 17.8952 9.66694ZM23.9215 7.81126C24.3183 7.45449 24.5155 6.89497 24.5155 6.13781C24.5155 5.39605 24.3183 4.84679 23.9215 4.48489C23.5247 4.12299 22.8789 3.94076 21.9818 3.94076C21.092 3.94076 20.4511 4.12299 20.0543 4.48489C19.6575 4.84679 19.4603 5.39861 19.4603 6.13781C19.4603 6.88727 19.6575 7.44166 20.0543 7.80356C20.4511 8.16545 21.092 8.34768 21.9818 8.34768C22.8789 8.34768 23.5247 8.16802 23.9215 7.81126Z" stroke="black" stroke-width="0.5" stroke-miterlimit="10"/><path d="M31.3498 8.24502C33.6938 8.22705 35.4043 8.18599 36.9398 8.11925C36.8856 8.59152 36.8659 10.229 36.9398 10.7963H28.3921C28.4562 9.16388 28.4882 7.63673 28.4882 6.21224C28.4882 4.79032 28.4562 3.26317 28.3921 1.62822H31.3498V8.24502Z" stroke="black" stroke-width="0.5" stroke-miterlimit="10"/><path d="M39.072 9.66694C38.1994 8.83021 37.7632 7.65212 37.7632 6.13781C37.7632 4.63889 38.197 3.4685 39.067 2.62664C39.9371 1.78478 41.3001 1.36385 43.1585 1.36385C45.0268 1.36385 46.3947 1.78478 47.2623 2.62664C48.1299 3.4685 48.5662 4.63889 48.5662 6.13781C48.5662 7.66239 48.1324 8.84048 47.2697 9.67207C46.4046 10.5062 45.0342 10.922 43.1585 10.922C41.3075 10.922 39.9445 10.5037 39.072 9.66694ZM45.0983 7.81126C45.4951 7.45449 45.6923 6.89497 45.6923 6.13781C45.6923 5.39605 45.4951 4.84679 45.0983 4.48489C44.7014 4.12299 44.0557 3.94076 43.1585 3.94076C42.2687 3.94076 41.6254 4.12299 41.2311 4.48489C40.8343 4.84679 40.6371 5.39861 40.6371 6.13781C40.6371 6.88727 40.8343 7.44166 41.2311 7.80356C41.6279 8.16545 42.2687 8.34768 43.1585 8.34768C44.0557 8.34768 44.7014 8.16802 45.0983 7.81126Z" stroke="black" stroke-width="0.5" stroke-miterlimit="10"/><path d="M12.7378 2.9487C12.7404 3.0111 12.7404 3.07894 12.7431 3.15491C12.7458 3.23088 12.7378 3.29871 12.7244 3.36383C12.7191 3.3991 12.703 3.43437 12.6736 3.47236C12.6443 3.51034 12.6256 3.5429 12.6149 3.57004C12.5855 3.64601 12.5428 3.7057 12.492 3.75182C12.4386 3.79795 12.4065 3.81966 12.3905 3.82237C12.3531 3.8278 12.3211 3.85222 12.297 3.89291C12.2703 3.93361 12.2436 3.95532 12.2116 3.96075C12.1742 3.96617 12.1287 3.95532 12.0753 3.92547C12.0219 3.89563 11.9818 3.88206 11.9551 3.88749C11.8376 3.89563 11.7468 3.89563 11.68 3.88749C11.6132 3.87935 11.5571 3.86578 11.5144 3.8495C11.4503 3.82237 11.3782 3.79795 11.298 3.77624C11.2179 3.75182 11.0683 3.74368 10.8493 3.74368C10.7799 3.74911 10.7077 3.74911 10.633 3.75182C10.5582 3.75182 10.4834 3.75725 10.4086 3.76539C10.3605 3.77353 10.3044 3.78981 10.243 3.81152C10.1789 3.83322 10.1201 3.8495 10.0694 3.85764C10.0213 3.86578 9.9732 3.86578 9.92245 3.85222C9.8717 3.84136 9.81828 3.83865 9.76753 3.8495C9.67137 3.86578 9.57254 3.88749 9.46837 3.91462C9.3642 3.94175 9.25736 3.96617 9.14784 3.99059C9.09976 3.99873 9.04901 4.00958 8.99559 4.02315C8.94217 4.03672 8.88875 4.04757 8.83533 4.05842C8.8193 4.08284 8.80061 4.10726 8.78191 4.13168C8.76054 4.1561 8.74184 4.18052 8.72849 4.20494C8.70712 4.23479 8.67774 4.26463 8.63767 4.2999C8.59761 4.33518 8.57089 4.36502 8.55487 4.39215C8.53884 4.41929 8.52816 4.44913 8.52014 4.48169C8.51213 4.51425 8.50412 4.5441 8.49343 4.57123C8.45337 4.65263 8.41063 4.73945 8.36789 4.8317C8.32516 4.92395 8.28509 5.0162 8.25037 5.11388C8.22633 5.17629 8.19427 5.26582 8.15688 5.38249C8.11948 5.49917 8.07942 5.63754 8.03401 5.79491C7.9886 5.96856 7.93785 6.17477 7.87642 6.41082C7.81498 6.64687 7.75622 6.90192 7.69746 7.17867C7.66273 7.33333 7.62801 7.49884 7.58794 7.67249C7.54788 7.84614 7.51315 8.0225 7.4811 8.20429C7.45172 8.34809 7.42234 8.49189 7.39028 8.64112C7.35823 8.79035 7.32885 8.93958 7.29947 9.09152C7.23803 9.42797 7.17393 9.76441 7.10982 10.1063C7.04572 10.4454 6.98963 10.7765 6.94422 11.0966C6.92552 11.2567 6.90415 11.4195 6.88011 11.5796C6.8534 11.7397 6.8347 11.8943 6.82135 12.0436C6.82135 12.0815 6.84005 12.1195 6.87477 12.1629C6.90949 12.2036 6.92552 12.2443 6.92018 12.2823C6.92018 12.3203 6.90949 12.3556 6.88278 12.3881C6.85607 12.4207 6.84539 12.456 6.84539 12.494C6.84539 12.5184 6.82402 12.5591 6.77594 12.616C6.72786 12.673 6.69047 12.7083 6.65841 12.7273C6.64239 12.7354 6.60232 12.7626 6.54089 12.8114C6.47678 12.8602 6.43404 12.8874 6.40733 12.8928C6.37528 12.9037 6.34323 12.8982 6.31118 12.8792C6.27912 12.8602 6.24974 12.8521 6.22303 12.8575C6.20166 12.8602 6.17228 12.8521 6.13756 12.8304C6.10283 12.8087 6.06811 12.7951 6.03606 12.7924C5.98263 12.7897 5.91853 12.7707 5.84641 12.7327C5.77429 12.6947 5.72888 12.6649 5.71286 12.6378C5.69149 12.6079 5.67279 12.5699 5.65944 12.5265C5.64608 12.4804 5.63807 12.4288 5.6354 12.3719C5.6354 12.323 5.6354 12.2688 5.6354 12.2091C5.63807 12.1494 5.63807 12.0951 5.6354 12.0463C5.63273 11.9676 5.65677 11.8835 5.70217 11.7912C5.74758 11.699 5.76895 11.6149 5.76895 11.5362C5.76628 11.3842 5.77963 11.235 5.81436 11.0912C5.84908 10.9474 5.86778 10.7982 5.87579 10.6435C5.87312 10.5404 5.88648 10.4319 5.91586 10.3179C5.94524 10.204 5.96394 10.0954 5.97195 9.98961C5.98263 9.80782 5.99866 9.62332 6.01469 9.43611C6.03071 9.24889 6.04674 9.06168 6.05742 8.87718C6.07078 8.77407 6.08413 8.66825 6.09749 8.55701C6.11085 8.44577 6.1242 8.33724 6.13756 8.23142C6.14557 8.1256 6.15625 8.01436 6.16961 7.89769C6.18296 7.78102 6.20166 7.66435 6.2257 7.54768C6.23906 7.46899 6.26043 7.39302 6.28981 7.31434C6.31652 7.23565 6.33521 7.16239 6.3459 7.08914C6.35925 7.02402 6.36727 6.95619 6.36994 6.88835C6.36994 6.82052 6.37795 6.75269 6.39398 6.68757C6.40733 6.60889 6.41268 6.53292 6.40466 6.45423C6.39665 6.37555 6.40199 6.29415 6.41535 6.21004C6.43137 6.15849 6.45808 6.0988 6.49815 6.03368C6.53822 5.96856 6.56493 5.90887 6.57294 5.85189C6.58362 5.80034 6.59431 5.74607 6.61033 5.68909C6.62636 5.63211 6.63705 5.57785 6.64773 5.5263C6.64773 5.51816 6.66108 5.49917 6.68512 5.46932C6.71183 5.43947 6.74122 5.39877 6.77861 5.34722C6.80532 5.30381 6.84806 5.25226 6.91216 5.18714C6.9736 5.12202 7.02969 5.06504 7.0751 5.01349C7.15256 4.92938 7.1953 4.87511 7.20331 4.85341C7.21132 4.8317 7.25406 4.78286 7.33152 4.70689C7.34755 4.69061 7.38761 4.66348 7.44905 4.62278C7.51315 4.58208 7.55055 4.55495 7.56657 4.53867C7.5826 4.52239 7.57993 4.5034 7.56123 4.48169C7.54254 4.45727 7.53719 4.44099 7.54788 4.43014C7.49446 4.43828 7.45172 4.44371 7.41967 4.44371C7.38761 4.44371 7.33953 4.45185 7.27543 4.46541C7.18461 4.48983 7.11517 4.50882 7.06174 4.5251C7.00832 4.54138 6.9362 4.56038 6.84806 4.5848C6.73587 4.61735 6.62903 4.6472 6.52219 4.67433C6.41535 4.70147 6.31652 4.73131 6.22036 4.75844C6.19899 4.76116 6.17495 4.75844 6.14824 4.7503C6.12153 4.73945 6.09749 4.73945 6.07612 4.74759C6.04407 4.75844 6.01469 4.78015 5.98531 4.81271C5.95592 4.84798 5.93188 4.86697 5.91052 4.86969C5.89449 4.87783 5.87846 4.89953 5.85977 4.93752C5.84107 4.9755 5.82504 4.99992 5.80902 5.00535C5.78765 5.01349 5.76361 5.01078 5.73423 4.9945C5.70484 4.97822 5.68348 4.97279 5.67279 4.97279C5.64074 4.98636 5.62471 4.98907 5.62204 4.97551C5.61937 4.96465 5.6167 4.94295 5.6167 4.9131C5.6167 4.88325 5.62471 4.84798 5.64608 4.80728C5.66745 4.76658 5.69416 4.71232 5.73155 4.64991C5.75827 4.60379 5.78765 4.55495 5.82504 4.50611C5.85977 4.45727 5.89449 4.40843 5.92654 4.36773C5.96394 4.3189 6.00133 4.27548 6.03873 4.2375C6.07612 4.19951 6.10817 4.17509 6.12954 4.16695C6.15625 4.15881 6.18029 4.13982 6.19899 4.10997C6.22036 4.08013 6.24173 4.06114 6.26844 4.04757C6.29515 4.03943 6.32453 4.03672 6.35658 4.03672C6.38864 4.03943 6.41535 4.03672 6.43672 4.02858C6.54089 3.98516 6.64773 3.93904 6.74923 3.88749C6.85073 3.83865 6.9549 3.78981 7.06174 3.7464C7.1766 3.70027 7.30214 3.64872 7.43836 3.59174C7.57192 3.53476 7.71615 3.47778 7.87108 3.42081C7.91916 3.40453 7.96723 3.37468 8.01798 3.3367C8.06873 3.296 8.12216 3.26615 8.18092 3.24716C8.20763 3.23902 8.23701 3.2363 8.26906 3.23902C8.30112 3.24173 8.3305 3.24173 8.35721 3.2363C8.66972 3.12777 9.01696 3.01653 9.40427 2.90257C9.79157 2.78862 10.2136 2.67737 10.6757 2.56613C10.7772 2.54442 10.8814 2.51186 10.9935 2.46845C11.1057 2.42504 11.2152 2.39519 11.3274 2.37349C11.3702 2.36535 11.4129 2.36263 11.4556 2.36535C11.4984 2.36806 11.5411 2.36535 11.5839 2.35721C11.6426 2.34635 11.7041 2.3355 11.7655 2.32194C11.8296 2.30837 11.8937 2.29752 11.9551 2.28395C12.0192 2.2731 12.0807 2.26496 12.1394 2.26224C12.1982 2.25953 12.2489 2.26224 12.2917 2.26496C12.3184 2.26767 12.3344 2.28938 12.3398 2.32465C12.3451 2.35992 12.3585 2.38434 12.3825 2.39248C12.4146 2.40333 12.4546 2.40333 12.5027 2.39519C12.5508 2.38705 12.5828 2.39248 12.5989 2.41419C12.6576 2.4793 12.7004 2.5607 12.7191 2.65838C12.7404 2.76148 12.7484 2.85645 12.7378 2.9487ZM9.22263 9.09424C9.26003 9.05354 9.29742 9.0047 9.33482 8.94229C9.37221 8.87989 9.41762 8.81206 9.47104 8.73609L10.0747 8.2477C10.1468 8.15273 10.259 8.03064 10.4086 7.87598C10.5608 7.72133 10.7478 7.53411 10.9722 7.31434C10.9962 7.25736 11.039 7.18953 11.1004 7.10813C11.1592 7.02944 11.2313 6.94805 11.3141 6.86665C11.3862 6.79068 11.461 6.72013 11.5331 6.6523C11.6052 6.58447 11.6747 6.51935 11.7361 6.45423C11.8136 6.36741 11.8884 6.2833 11.9578 6.19919C12.0272 6.11508 12.0994 6.03368 12.1715 5.95228C12.2543 5.87088 12.3424 5.80305 12.4306 5.74878C12.5187 5.69452 12.6176 5.65925 12.7244 5.64025C12.8419 5.61855 12.9301 5.61584 12.9915 5.63211C13.0529 5.64839 13.0877 5.67824 13.093 5.72437C13.0423 5.84375 12.9888 5.96313 12.9327 6.08252L12.9808 6.13949C13.2132 6.0174 13.3948 5.92515 13.5257 5.86274C13.6566 5.80034 13.7421 5.76778 13.7795 5.75964C14.1668 5.68909 14.4606 5.74336 14.6582 5.91972C14.8559 6.09608 14.9601 6.39997 14.9708 6.82595C14.9734 6.90735 14.9627 7.00231 14.944 7.11627C14.9254 7.23023 14.8933 7.35504 14.8479 7.4907C14.7971 7.64264 14.7437 7.77288 14.685 7.8787C14.6262 7.98451 14.5701 8.0632 14.5194 8.11475C14.5407 8.17173 14.5674 8.21243 14.5941 8.23413C14.6209 8.25584 14.6556 8.26127 14.6983 8.25584C14.741 8.2477 14.7838 8.22871 14.8292 8.19615C14.8746 8.16359 14.928 8.12018 14.9895 8.06048C15.0455 8.15545 15.099 8.25313 15.1524 8.35623C15.2058 8.45933 15.2592 8.55972 15.3153 8.66011C15.2218 8.75237 15.131 8.84462 15.0429 8.93144C14.9547 9.01826 14.8612 9.10509 14.7597 9.1892C14.6395 9.30044 14.5247 9.38727 14.4178 9.44696C14.311 9.50665 14.2042 9.54735 14.0973 9.56634C13.9745 9.58805 13.873 9.57991 13.7928 9.54192C13.7127 9.50394 13.6459 9.44153 13.5978 9.35471C13.4696 9.53378 13.312 9.70743 13.1251 9.87294C12.9408 10.0385 12.7351 10.1823 12.508 10.3098C12.3772 10.3912 12.257 10.4563 12.1501 10.5051C12.0433 10.5567 11.9418 10.5892 11.8536 10.6055C11.8269 10.6109 11.7762 10.6299 11.6987 10.6625C11.6212 10.6951 11.5598 10.7168 11.5117 10.7249C11.2099 10.7792 10.9348 10.7141 10.6837 10.5296C10.4353 10.3451 10.3071 10.1117 10.3017 9.83224C10.2991 9.71829 10.3258 9.56092 10.3792 9.36285C10.4326 9.16478 10.4593 9.04811 10.4593 9.01555C10.4593 8.98299 10.446 8.95586 10.4219 8.93958C10.3979 8.9233 10.3632 8.91787 10.3204 8.92601C10.2937 8.93144 10.2323 8.97757 10.1308 9.0671C10.032 9.15664 9.8904 9.28416 9.70877 9.44967C9.69274 9.47138 9.67404 9.50394 9.65535 9.54464C9.63398 9.58534 9.60192 9.63418 9.55385 9.69115C9.50844 9.58805 9.45769 9.48766 9.40427 9.38456C9.35084 9.28416 9.28941 9.18649 9.22263 9.09424ZM13.0209 7.10542C12.9942 7.11627 12.9568 7.14611 12.906 7.20038C12.8553 7.25464 12.8099 7.31976 12.7618 7.39302C12.6897 7.51512 12.6069 7.65078 12.5161 7.79458C12.46 7.86242 12.3985 7.91668 12.3317 7.96009C12.265 8.00351 12.1902 8.03878 12.1074 8.06862C12.054 8.08219 12.0005 8.13917 11.9444 8.23685C11.8884 8.33452 11.8323 8.4729 11.7788 8.64926C11.7227 8.80663 11.6854 8.93958 11.6613 9.05082C11.6373 9.15935 11.6266 9.24889 11.6266 9.32215C11.6293 9.4551 11.6693 9.54735 11.7441 9.60162C11.8189 9.65588 11.9338 9.66673 12.0887 9.6396C12.3317 9.59619 12.5561 9.4958 12.7564 9.33843C12.9568 9.18106 13.1464 8.964 13.32 8.68996C13.4028 8.58414 13.4803 8.48375 13.5524 8.3915C13.5952 8.35623 13.6272 8.30196 13.6539 8.23413C13.678 8.1663 13.7047 8.08219 13.7287 7.9818L13.8623 7.55039C13.8115 7.41744 13.7634 7.31162 13.7207 7.23565C13.6753 7.15968 13.6326 7.11627 13.5898 7.10542C13.5631 7.09456 13.5043 7.09185 13.4135 7.08914C13.3227 7.08914 13.1918 7.09456 13.0209 7.10542ZM21.3519 7.47442C21.3065 7.5314 21.2531 7.58838 21.197 7.64807C21.1409 7.70776 21.0848 7.76474 21.0341 7.81629C20.9299 7.91939 20.8204 8.02521 20.7055 8.12831C20.5907 8.23142 20.4785 8.3291 20.369 8.42135C20.2595 8.5136 20.1473 8.59771 20.0351 8.67368C19.9229 8.75237 19.8187 8.81477 19.7226 8.86632C19.6024 8.93144 19.4822 8.98299 19.3673 9.01826C19.2498 9.05625 19.143 9.07524 19.0415 9.08067C18.9293 9.0861 18.8251 9.0671 18.7289 9.02098C18.6328 8.97757 18.5446 8.90702 18.4699 8.80934C18.4218 8.74151 18.3897 8.6574 18.3764 8.5543C18.363 8.45119 18.363 8.34266 18.3764 8.22599C18.379 8.13917 18.3924 8.0442 18.4191 7.94381C18.4431 7.84071 18.4699 7.74303 18.4992 7.64535C18.5286 7.55039 18.558 7.45271 18.5874 7.35775C18.6168 7.26278 18.6381 7.17596 18.6542 7.1027C18.6702 7.04301 18.6916 6.98332 18.7263 6.92634C18.7583 6.86936 18.7824 6.80967 18.7984 6.74998C18.8091 6.70657 18.8091 6.65501 18.8037 6.59804C18.7984 6.54106 18.793 6.49222 18.793 6.44881C18.7957 6.35656 18.7904 6.26973 18.7797 6.18562C18.7663 6.10151 18.7396 6.03368 18.6942 5.97941C18.6675 5.94143 18.6274 5.91158 18.5714 5.88987C18.5179 5.86817 18.4565 5.85732 18.387 5.8546C18.371 5.91429 18.355 5.9767 18.331 6.04453C18.3096 6.10965 18.2882 6.17477 18.2669 6.23446C18.2268 6.3457 18.1814 6.46509 18.1306 6.58718C18.0799 6.70928 18.0318 6.83138 17.9864 6.94805C17.9704 6.9996 17.9383 7.05386 17.8876 7.11627C17.8368 7.17867 17.7994 7.23565 17.7807 7.28449C17.7086 7.44457 17.6472 7.60737 17.5911 7.77016C17.535 7.93296 17.4709 8.09033 17.3934 8.24227C17.2919 8.44034 17.1851 8.6357 17.0756 8.8202C16.966 9.00741 16.8592 9.18106 16.755 9.34114C16.6562 9.4958 16.5574 9.6396 16.4559 9.76984C16.3544 9.90007 16.2582 10.0086 16.1647 10.0981C16.0926 10.1687 16.0178 10.2284 15.9457 10.2772C15.8709 10.3261 15.8041 10.3559 15.74 10.3668C15.6599 10.3803 15.5851 10.3803 15.513 10.364C15.4409 10.3478 15.3741 10.3233 15.3153 10.2935C15.2512 10.2474 15.1898 10.1877 15.1364 10.1144C15.0803 10.0412 15.0375 9.95705 15.0028 9.86209C14.9734 9.78612 14.9494 9.70472 14.9307 9.6179C14.9093 9.53107 14.8986 9.43882 14.896 9.34386C14.888 9.22176 14.8853 9.09152 14.888 8.95586C14.8906 8.8202 14.8986 8.68453 14.912 8.5543C14.92 8.48104 14.9334 8.40778 14.9467 8.33452C14.9601 8.26126 14.9761 8.18529 14.9895 8.11204C15.0001 8.06862 15.0375 8.01707 15.107 7.96281C15.1738 7.90854 15.2432 7.87327 15.3127 7.86242C15.3768 7.85156 15.4329 7.8597 15.4836 7.88412C15.5344 7.91125 15.5611 7.93839 15.5611 7.96552C15.5611 8.00893 15.5664 8.06591 15.5771 8.14188C15.5878 8.21514 15.5985 8.29654 15.6091 8.37793C15.6332 8.54073 15.6759 8.69539 15.732 8.8419C15.7881 8.98842 15.8576 9.05625 15.935 9.04268C16.0953 9.01555 16.2823 8.8419 16.5013 8.52174C16.7203 8.20429 16.91 7.88141 17.0675 7.55853C17.0916 7.50155 17.1263 7.44186 17.1717 7.37945C17.2145 7.31705 17.2518 7.25193 17.2839 7.1841C17.3053 7.13255 17.3186 7.07557 17.3266 7.01045C17.3346 6.94805 17.3533 6.89107 17.3801 6.84494C17.4068 6.79882 17.4388 6.74727 17.4816 6.69571C17.5216 6.64416 17.551 6.59261 17.567 6.5492C17.5964 6.47323 17.6231 6.39725 17.6472 6.32671C17.6685 6.25616 17.6926 6.19105 17.7193 6.12864C17.7487 6.05267 17.778 5.97941 17.8021 5.91429C17.8261 5.84918 17.8475 5.79762 17.8635 5.75964C17.7567 5.72165 17.6685 5.68367 17.5964 5.64297C17.527 5.60227 17.4735 5.56428 17.4415 5.5263C17.4094 5.48017 17.3881 5.43133 17.3774 5.38249C17.3694 5.33366 17.3694 5.28753 17.3774 5.24412C17.3934 5.18985 17.4201 5.13559 17.4575 5.08675C17.4976 5.03791 17.535 4.98636 17.5697 4.93752C17.6071 4.89682 17.6418 4.85612 17.6792 4.81C17.7166 4.76658 17.7433 4.72588 17.7647 4.69333C17.8128 4.68519 17.8715 4.66619 17.9437 4.63906C18.0158 4.61193 18.0825 4.57937 18.144 4.53867C18.1707 4.51968 18.184 4.48983 18.1867 4.44642C18.1894 4.40301 18.2027 4.37045 18.2295 4.34603C18.2615 4.31618 18.3042 4.29719 18.3603 4.29176C18.4164 4.28362 18.4565 4.27277 18.4832 4.2592C18.5927 4.1968 18.6835 4.18052 18.753 4.21037C18.8224 4.24021 18.8385 4.38944 18.8037 4.65805C18.8518 4.67433 18.9026 4.69061 18.9533 4.70689C19.0041 4.72317 19.0521 4.73945 19.0949 4.75573C19.1857 4.791 19.2738 4.83442 19.362 4.88054C19.4475 4.92667 19.5249 4.97279 19.589 5.01892C19.6638 5.0759 19.7253 5.14101 19.7733 5.20885C19.8187 5.27668 19.8588 5.34451 19.8855 5.40963C19.9122 5.47746 19.9363 5.548 19.9496 5.62397C19.9656 5.69995 19.9737 5.7732 19.9737 5.84375C19.9763 5.93871 19.971 6.03639 19.9576 6.13949C19.9443 6.2426 19.9256 6.33756 19.8989 6.42981C19.8882 6.47865 19.8615 6.53563 19.8187 6.59804C19.776 6.66044 19.7466 6.72285 19.7306 6.78254C19.7199 6.81238 19.7199 6.84766 19.7279 6.88293C19.7359 6.9182 19.7359 6.95347 19.7253 6.98332C19.6959 7.08914 19.6611 7.19495 19.6238 7.3062C19.5864 7.41473 19.5623 7.5124 19.5543 7.60194C19.5463 7.68877 19.5543 7.75931 19.5837 7.81358C19.6104 7.86784 19.6531 7.90583 19.7066 7.92482C19.7439 7.93839 19.792 7.93296 19.8535 7.90854C19.9149 7.88684 19.979 7.85428 20.0458 7.81358C20.1232 7.76202 20.2141 7.69148 20.3129 7.60466C20.4117 7.51783 20.5052 7.43101 20.5933 7.34418C20.6761 7.26278 20.7536 7.18139 20.8284 7.09728C20.9005 7.01588 20.962 6.94533 21.0074 6.89107L21.3519 7.47442ZM21.0127 6.98332C21.0501 6.94262 21.0875 6.89378 21.1249 6.83138C21.1623 6.76897 21.2077 6.70114 21.2611 6.62517L21.8648 6.13678C21.9369 6.04182 22.0491 5.91972 22.1987 5.76506C22.3509 5.61041 22.5379 5.42319 22.7622 5.20342C22.7863 5.14644 22.829 5.07861 22.8905 4.99721C22.9492 4.91853 23.0213 4.83713 23.1041 4.75573C23.1763 4.67976 23.2511 4.60922 23.3232 4.54138C23.3953 4.47355 23.4647 4.40843 23.5262 4.34332C23.6036 4.25649 23.6784 4.17238 23.7479 4.08827C23.8173 4.00416 23.8894 3.92276 23.9616 3.84136C24.0444 3.75996 24.1325 3.69213 24.2206 3.63787C24.3088 3.5836 24.4076 3.54833 24.5145 3.52934C24.632 3.50763 24.7201 3.50492 24.7816 3.5212C24.843 3.53748 24.8777 3.56732 24.8831 3.61345C24.8323 3.73283 24.7789 3.85222 24.7228 3.9716L24.7709 4.02858C25.0033 3.90648 25.1849 3.81423 25.3158 3.75182C25.4467 3.68942 25.5321 3.65686 25.5695 3.64872C25.9568 3.57818 26.2507 3.63244 26.4483 3.8088C26.646 3.98516 26.7501 4.28905 26.7608 4.71503C26.7635 4.79643 26.7528 4.89139 26.7341 5.00535C26.7154 5.11931 26.6834 5.24412 26.638 5.37978C26.5872 5.53172 26.5338 5.66196 26.475 5.76778C26.4163 5.8736 26.3602 5.95228 26.3094 6.00383C26.3308 6.06081 26.3575 6.10151 26.3842 6.12321C26.4109 6.14492 26.4456 6.15035 26.4884 6.14492C26.5311 6.13678 26.5739 6.11779 26.6193 6.08523C26.6647 6.05267 26.7181 6.00926 26.7795 5.94957C26.8356 6.04453 26.889 6.14221 26.9425 6.24531C26.9959 6.34842 27.0493 6.44881 27.1054 6.5492C27.0119 6.64145 26.9211 6.7337 26.8329 6.82052C26.7448 6.90735 26.6513 6.99417 26.5498 7.07828C26.4296 7.18953 26.3148 7.27635 26.2079 7.33604C26.1011 7.39573 25.9942 7.43643 25.8874 7.45543C25.7645 7.47713 25.663 7.46899 25.5829 7.43101C25.5028 7.39302 25.436 7.33062 25.3879 7.24379C25.2597 7.42287 25.1021 7.59652 24.9151 7.76202C24.7281 7.92753 24.5252 8.07134 24.2981 8.19886C24.1672 8.28026 24.047 8.34538 23.9402 8.39421C23.8333 8.44577 23.7318 8.47833 23.6437 8.49461C23.617 8.50003 23.5662 8.51902 23.4888 8.55158C23.4113 8.58414 23.3499 8.60585 23.3018 8.61399C23 8.66825 22.7249 8.60314 22.4738 8.41863C22.2254 8.23413 22.0972 8.00079 22.0918 7.72133C22.0891 7.60737 22.1159 7.45 22.1693 7.25193C22.2227 7.05386 22.2494 6.93719 22.2494 6.90463C22.2494 6.87208 22.236 6.84494 22.212 6.82866C22.188 6.81238 22.1532 6.80696 22.1105 6.8151C22.0838 6.82052 22.0224 6.86665 21.9209 6.95619C21.822 7.04572 21.6805 7.17325 21.4988 7.33876C21.4828 7.36046 21.4641 7.39302 21.4454 7.43372C21.424 7.47442 21.392 7.52326 21.3439 7.58024C21.2985 7.47713 21.2478 7.37674 21.1943 7.27364C21.1409 7.17596 21.0795 7.07828 21.0127 6.98332ZM24.811 4.9945C24.7842 5.00535 24.7468 5.0352 24.6961 5.08946C24.6453 5.14373 24.5999 5.20885 24.5519 5.2821C24.4797 5.4042 24.3969 5.53986 24.3061 5.68367C24.25 5.7515 24.1886 5.80576 24.1218 5.84918C24.055 5.89259 23.9803 5.92786 23.8975 5.95771C23.844 5.97127 23.7906 6.02825 23.7345 6.12593C23.6784 6.22361 23.6223 6.36198 23.5689 6.53834C23.5128 6.69571 23.4754 6.82866 23.4514 6.93991C23.4273 7.04844 23.4167 7.13797 23.4167 7.21123C23.4193 7.34418 23.4594 7.43643 23.5342 7.4907C23.609 7.54496 23.7238 7.55582 23.8788 7.52868C24.1218 7.48527 24.3462 7.38488 24.5465 7.22751C24.7468 7.07014 24.9365 6.85308 25.1101 6.57904C25.1929 6.47323 25.2704 6.37284 25.3425 6.28058C25.3852 6.24531 25.4173 6.19105 25.444 6.12321C25.468 6.05538 25.4947 5.97127 25.5188 5.87088L25.6523 5.43947C25.6016 5.30652 25.5535 5.20071 25.5108 5.12473C25.4654 5.04876 25.4226 5.00535 25.3799 4.9945C25.3532 4.98364 25.2944 4.98093 25.2036 4.97822C25.1128 4.97822 24.9819 4.98364 24.811 4.9945ZM26.7662 5.95499L26.8356 5.88445C26.841 5.83018 26.8757 5.76235 26.9425 5.67824C27.0092 5.59413 27.1054 5.49374 27.2309 5.37707C27.3084 5.31195 27.3912 5.24683 27.4793 5.18171C27.5648 5.11931 27.6476 5.05148 27.7278 4.98093C28.0563 4.66348 28.3741 4.3596 28.6813 4.06656C28.8576 3.89291 29.0366 3.73826 29.2129 3.6026C29.3918 3.46693 29.5601 3.35569 29.7177 3.26615C29.8272 3.11692 30.0302 2.95141 30.3347 2.76148C30.6365 2.57427 30.8823 2.46303 31.0746 2.42775C31.1494 2.41419 31.2081 2.42233 31.2536 2.45217C31.299 2.48202 31.3283 2.52543 31.339 2.5797L31.347 2.97041C31.3497 3.10878 31.3096 3.23902 31.2242 3.36111C31.1387 3.48321 31.0105 3.60531 30.8369 3.72741C30.722 3.79524 30.6045 3.86849 30.4896 3.94718C30.3748 4.02586 30.2599 4.09912 30.1424 4.16695C30.0997 4.22122 29.9901 4.33246 29.8112 4.49526C29.6322 4.65805 29.3865 4.87783 29.0793 5.15187C28.9377 5.27668 28.8202 5.38792 28.7267 5.48288C28.6332 5.57785 28.5691 5.65382 28.5317 5.70809C28.481 5.80848 28.4409 5.91429 28.4142 6.02825C28.3875 6.14221 28.3768 6.27244 28.3795 6.41353C28.3822 6.52206 28.4035 6.61432 28.4409 6.68486C28.481 6.7554 28.5371 6.80967 28.6119 6.84494C28.6653 6.86936 28.7401 6.88835 28.8336 6.90463C28.9271 6.92091 29.0419 6.93448 29.1808 6.94262C29.2609 6.89921 29.3651 6.85308 29.4933 6.80424C29.6215 6.7554 29.7658 6.69571 29.9234 6.62246C30.1023 6.49493 30.284 6.36198 30.4683 6.22361C30.6552 6.08523 30.8395 5.94414 31.0212 5.80305C31.0479 5.78406 31.0799 5.76235 31.12 5.73793C31.1601 5.71351 31.2001 5.68095 31.2429 5.64025C31.2936 5.56971 31.3657 5.4856 31.4566 5.38792C31.5474 5.29024 31.6569 5.179 31.7878 5.04876C32.0095 5.42319 32.119 5.62397 32.1217 5.64839C31.9293 5.82476 31.7317 6.00654 31.534 6.19376C31.3364 6.37826 31.1066 6.54377 30.8502 6.68486C30.7674 6.76083 30.6953 6.83138 30.6392 6.89378C30.3801 7.17867 30.0756 7.41201 29.723 7.59652C29.3731 7.78102 28.9725 7.91397 28.5211 7.99265C28.4196 8.01164 28.3287 8.01978 28.2513 8.01978C28.1711 8.01978 28.1044 8.01164 28.051 7.99808C27.8907 7.93025 27.7518 7.87327 27.6396 7.82172C27.5221 7.76745 27.4206 7.71047 27.3405 7.65621C27.2603 7.60194 27.1989 7.54768 27.1615 7.4907C27.1134 7.43372 27.0787 7.35775 27.0573 7.2655C27.0359 7.17325 27.0253 7.05929 27.0226 6.92091C27.0226 6.88293 27.0333 6.81781 27.0573 6.72827C27.0814 6.63873 27.0947 6.57633 27.092 6.54377C27.052 6.44609 27.0039 6.34842 26.9505 6.24802C26.8997 6.15849 26.8383 6.05538 26.7662 5.95499ZM38.8314 4.33246C38.794 4.37587 38.7539 4.422 38.7112 4.46813C38.6658 4.51425 38.623 4.55766 38.583 4.59836C38.4734 4.70961 38.3586 4.81542 38.2357 4.92124C38.1128 5.02706 37.9953 5.11659 37.8858 5.19528C37.803 5.25226 37.7175 5.30924 37.6294 5.3635C37.5439 5.41777 37.4611 5.46389 37.381 5.50188C37.3008 5.54529 37.2261 5.58056 37.1513 5.6077C37.0765 5.63483 37.0124 5.65382 36.9536 5.66467C36.8574 5.68095 36.764 5.68909 36.6705 5.68367C36.577 5.67824 36.4915 5.66739 36.4114 5.64839C36.3045 5.62397 36.2004 5.58599 36.1015 5.53172C36.0027 5.47746 35.9065 5.41777 35.8157 5.34722C35.757 5.3011 35.6902 5.24954 35.6181 5.19257C35.546 5.13559 35.4658 5.06504 35.3777 4.98093C35.3456 5.02434 35.3136 5.07047 35.2762 5.11659C35.2388 5.16272 35.2067 5.20885 35.1747 5.25226C35.1132 5.33908 35.0545 5.42319 34.9957 5.50188C34.9396 5.58056 34.8782 5.66196 34.8168 5.74607C34.734 5.85732 34.6725 5.93057 34.6351 5.96856C34.5951 6.00654 34.5336 6.07438 34.4508 6.16934C34.3787 6.25345 34.3146 6.34299 34.2612 6.43524C34.2078 6.52749 34.149 6.6116 34.0876 6.68486C33.9166 6.87208 33.7617 7.0213 33.6228 7.13255C33.4839 7.24379 33.3957 7.30077 33.3584 7.30891C33.1634 7.3062 33.0218 7.2655 32.931 7.1841C32.8402 7.10542 32.7761 6.99146 32.736 6.84766C32.6959 6.70657 32.6879 6.54648 32.7146 6.3647C32.7387 6.18291 32.7707 6.00926 32.8108 5.84104C32.8402 5.71623 32.8776 5.57785 32.9256 5.42591C32.9737 5.27396 33.0191 5.13016 33.0645 4.9945C33.1126 4.81814 33.1554 4.66619 33.1901 4.53596C33.2248 4.40572 33.2275 4.33518 33.2008 4.32704C33.174 4.31618 33.1206 4.36502 33.0432 4.46813C32.9657 4.57394 32.8829 4.6879 32.7948 4.81271C32.6852 4.96465 32.5757 5.11931 32.4609 5.27668C32.346 5.43405 32.1991 5.59142 32.0175 5.75421L31.6916 5.16272C31.8893 4.97008 32.1163 4.71775 32.3727 4.40843C32.6292 4.09912 32.947 3.70299 33.3236 3.22545C33.7056 2.73706 33.97 2.39248 34.1116 2.19441C34.2532 1.99363 34.4294 1.93123 34.6378 2.00448C34.6752 2.01805 34.7153 2.03704 34.758 2.0696C34.8007 2.09945 34.8274 2.14286 34.8408 2.19713C34.8461 2.23782 34.8541 2.2948 34.8648 2.35992C34.8755 2.42775 34.8782 2.49016 34.8728 2.54714C34.8675 2.6014 34.8435 2.65838 34.8007 2.72078C34.758 2.78319 34.7259 2.84288 34.7046 2.89986C34.6885 2.95955 34.6832 3.02196 34.6805 3.08979C34.6779 3.15762 34.6725 3.22545 34.6565 3.29328C34.6378 3.37739 34.6138 3.47236 34.5844 3.57546C34.555 3.67857 34.5256 3.78167 34.4962 3.88749C34.4668 3.99873 34.4348 4.11269 34.3974 4.22936C34.36 4.34874 34.3279 4.46541 34.2986 4.57937C34.2799 4.65534 34.2558 4.73403 34.2318 4.82085C34.2078 4.90767 34.1864 4.98636 34.173 5.05962C34.1597 5.14373 34.1463 5.22513 34.1356 5.30652C34.1249 5.38792 34.1169 5.46118 34.1116 5.52901C34.0876 5.67553 34.1009 5.74064 34.1517 5.72708C34.2024 5.7108 34.2719 5.62397 34.3653 5.46389C34.4214 5.36893 34.4882 5.25497 34.5603 5.12745C34.6351 4.99992 34.7072 4.88868 34.7794 4.79372C34.8248 4.73403 34.8675 4.67976 34.9076 4.63906C34.9476 4.59565 34.9824 4.54952 35.0117 4.49526C35.0011 4.4627 34.969 4.42743 34.9209 4.38673C34.8728 4.34603 34.8461 4.31076 34.8461 4.28091C34.8461 4.2375 34.8541 4.18323 34.8755 4.11811C34.8942 4.053 34.9102 3.99873 34.9209 3.96075C34.9343 3.89563 34.9637 3.8278 35.0091 3.75182C35.0518 3.67857 35.1106 3.59988 35.1827 3.5212C35.2762 3.41809 35.3643 3.34212 35.4498 3.29057C35.5326 3.23902 35.6074 3.21189 35.6715 3.20375C36 2.63125 36.2752 2.14286 36.4969 1.73858C36.7185 1.33702 36.8601 1.06841 36.9215 0.932746C36.967 0.835068 37.0444 0.75367 37.1566 0.691265C37.2661 0.62886 37.3703 0.596301 37.4664 0.593588C37.5733 0.588161 37.6641 0.626147 37.7362 0.707545C37.8083 0.788943 37.8324 0.919179 37.8057 1.10639C37.8003 1.14438 37.7843 1.19865 37.7576 1.26648C37.7309 1.33431 37.6935 1.41028 37.6454 1.49439C37.6053 1.5785 37.5412 1.67618 37.4558 1.79014C37.3703 1.90409 37.2928 2.02076 37.2207 2.14286C37.194 2.18899 37.1726 2.24325 37.1513 2.29752C37.1299 2.35449 37.1059 2.40605 37.0738 2.45489C37.0337 2.52543 36.9723 2.63396 36.8922 2.78048C36.812 2.92699 36.7506 3.03824 36.7052 3.11421C36.6277 3.24173 36.5583 3.33941 36.4969 3.40181C36.4354 3.46422 36.358 3.56461 36.2645 3.70027C36.3019 3.77082 36.3446 3.83594 36.3847 3.89563C36.4247 3.95803 36.4701 4.02044 36.5209 4.08284C36.569 4.15067 36.6251 4.21308 36.6838 4.26734C36.7426 4.32432 36.8014 4.36773 36.8548 4.40029C36.9135 4.44099 36.9776 4.47355 37.0444 4.49254C37.1112 4.51154 37.1806 4.51968 37.2474 4.51696C37.3276 4.51696 37.413 4.50068 37.5038 4.46813C37.5947 4.43557 37.6881 4.38944 37.7843 4.32975C37.8484 4.29448 37.9152 4.24835 37.9846 4.19409C38.0541 4.13982 38.1289 4.07742 38.2063 4.0123C38.2544 3.9716 38.3025 3.92547 38.3506 3.87935C38.3986 3.83322 38.4467 3.78438 38.4948 3.73826L38.8314 4.33246ZM38.412 3.87121C38.4494 3.83051 38.4868 3.78167 38.5242 3.71926C38.5616 3.65686 38.607 3.58903 38.6604 3.51306L39.2641 3.02467C39.3362 2.92971 39.4484 2.80761 39.598 2.65295C39.7502 2.4983 39.9372 2.31108 40.1615 2.09131C40.1856 2.03433 40.2283 1.9665 40.2898 1.8851C40.3485 1.80642 40.4206 1.72502 40.5034 1.64362C40.5756 1.56765 40.6504 1.4971 40.7225 1.42927C40.7946 1.36144 40.864 1.29632 40.9255 1.2312C41.0029 1.14438 41.0777 1.06027 41.1472 0.976158C41.2166 0.892047 41.2887 0.810649 41.3609 0.729251C41.4437 0.647853 41.5318 0.580022 41.6199 0.525756C41.7081 0.471491 41.8069 0.436219 41.9138 0.417226C42.0313 0.39552 42.1194 0.392806 42.1809 0.409086C42.2423 0.425366 42.277 0.455211 42.2824 0.501337C42.2316 0.62072 42.1782 0.740104 42.1221 0.859487L42.1702 0.916466C42.4026 0.794369 42.5842 0.702118 42.7151 0.639713C42.846 0.577308 42.9314 0.544749 42.9688 0.536609C43.3561 0.466065 43.65 0.52033 43.8476 0.696692C44.0453 0.873054 44.1494 1.17694 44.1601 1.60292C44.1628 1.68432 44.1521 1.77928 44.1334 1.89324C44.1147 2.0072 44.0827 2.13201 44.0373 2.26767C43.9865 2.41961 43.9331 2.54985 43.8743 2.65567C43.8156 2.76148 43.7595 2.84017 43.7087 2.89172C43.7301 2.9487 43.7568 2.9894 43.7835 3.0111C43.8102 3.03281 43.8449 3.03824 43.8877 3.03281C43.9304 3.02467 43.9732 3.00568 44.0186 2.97312C44.064 2.94056 44.1174 2.89715 44.1788 2.83746C44.2349 2.93242 44.2883 3.0301 44.3418 3.1332C44.3952 3.2363 44.4486 3.3367 44.5047 3.43709C44.4112 3.52934 44.3204 3.62159 44.2323 3.70841C44.1441 3.79524 44.0506 3.88206 43.9491 3.96617C43.8289 4.07742 43.7141 4.16424 43.6072 4.22393C43.5004 4.28362 43.3935 4.32432 43.2867 4.34332C43.1638 4.36502 43.0623 4.35688 42.9822 4.3189C42.9021 4.28091 42.8353 4.21851 42.7872 4.13168C42.659 4.31076 42.5014 4.48441 42.3144 4.64991C42.1301 4.81542 41.9244 4.95923 41.6974 5.08675C41.5665 5.16815 41.4463 5.23326 41.3395 5.2821C41.2326 5.33366 41.1311 5.36622 41.043 5.38249C41.0163 5.38792 40.9655 5.40691 40.8881 5.43947C40.8106 5.47203 40.7492 5.49374 40.7011 5.50188C40.3993 5.55614 40.1242 5.49102 39.8731 5.30652C39.6247 5.12202 39.4965 4.88868 39.4911 4.60922C39.4884 4.49526 39.5152 4.33789 39.5686 4.13982C39.622 3.94175 39.6487 3.82508 39.6487 3.79252C39.6487 3.75996 39.6353 3.73283 39.6113 3.71655C39.5873 3.70027 39.5525 3.69485 39.5098 3.70299C39.4831 3.70841 39.4217 3.75454 39.3202 3.84408C39.2213 3.93361 39.0798 4.06114 38.8981 4.22665C38.8821 4.24835 38.8634 4.28091 38.8447 4.32161C38.8233 4.36231 38.7913 4.41115 38.7432 4.46813C38.6978 4.36502 38.6471 4.26463 38.5936 4.16153C38.5402 4.06114 38.4788 3.96346 38.412 3.87121ZM42.2103 1.88239C42.1835 1.89324 42.1461 1.92309 42.0954 1.97735C42.0447 2.03162 41.9992 2.09673 41.9512 2.16999C41.879 2.29209 41.7962 2.42775 41.7054 2.57156C41.6493 2.63939 41.5879 2.69365 41.5211 2.73706C41.4543 2.78048 41.3796 2.81575 41.2967 2.8456C41.2433 2.85916 41.1899 2.91614 41.1338 3.01382C41.0777 3.11149 41.0216 3.24987 40.9682 3.42623C40.9121 3.5836 40.8747 3.71655 40.848 3.8278C40.824 3.93633 40.8133 4.02586 40.8133 4.09912C40.816 4.23207 40.856 4.32432 40.9308 4.37859C41.0056 4.43285 41.1205 4.44371 41.2754 4.41657C41.5184 4.37316 41.7428 4.27277 41.9431 4.1154C42.1435 3.95803 42.3331 3.74097 42.5067 3.46693C42.5895 3.36111 42.667 3.26072 42.7391 3.16847C42.7819 3.1332 42.8139 3.07894 42.8406 3.0111C42.8647 2.94327 42.8914 2.85916 42.9154 2.75877L43.049 2.32736C42.9982 2.19441 42.9501 2.0886 42.9074 2.01262C42.862 1.93665 42.8193 1.89324 42.7765 1.88239C42.7498 1.87153 42.691 1.86882 42.6002 1.86611C42.5121 1.86611 42.3812 1.87153 42.2103 1.88239Z"/></g><defs><clipPath id="clip0_606_2846"><rect width="49.3044" height="12.4997" transform="translate(0.755859 0.398621)"/></clipPath></defs></svg>