<svg width="10" height="20" viewBox="0 0 10 20" xmlns="http://www.w3.org/2000/svg"><mask id="path-1-inside-1_612_1297"><path fill-rule="evenodd" clip-rule="evenodd" d="M0.000301033 10.8771L0.000162274 10.8773H6.59052L2.63161 20L9.47104 9.12709L9.47396 9.12292L9.47366 9.12293L9.4738 9.12271H2.88344L6.84235 0L0.00292012 10.8729L0 10.8771L0.000301033 10.8771Z"/></mask><path fill-rule="evenodd" clip-rule="evenodd" d="M0.000301033 10.8771L0.000162274 10.8773H6.59052L2.63161 20L9.47104 9.12709L9.47396 9.12292L9.47366 9.12293L9.4738 9.12271H2.88344L6.84235 0L0.00292012 10.8729L0 10.8771L0.000301033 10.8771Z"/><path d="M0.000162274 10.8773L-0.422908 10.6108L-0.905691 11.3773H0.000162274V10.8773ZM0.000301033 10.8771L0.423372 11.1436L0.920952 10.3536L-0.0123669 10.3773L0.000301033 10.8771ZM6.59052 10.8773L7.04919 11.0764L7.35255 10.3773H6.59052V10.8773ZM2.63161 20L2.17294 19.801L3.05484 20.2663L2.63161 20ZM9.47104 9.12709L9.06141 8.84038L9.05436 8.85046L9.04781 8.86086L9.47104 9.12709ZM9.47396 9.12292L9.8836 9.40963L10.4517 8.59793L9.46127 8.62308L9.47396 9.12292ZM9.47366 9.12293L9.05018 8.8571L8.55472 9.64643L9.48636 9.62277L9.47366 9.12293ZM9.4738 9.12271L9.89728 9.38853L10.378 8.62271H9.4738V9.12271ZM2.88344 9.12271L2.42477 8.92366L2.12141 9.62271H2.88344V9.12271ZM6.84235 0L7.30102 0.199047L6.41912 -0.266226L6.84235 0ZM0.00292012 10.8729L0.412529 11.1597L0.419592 11.1496L0.426151 11.1392L0.00292012 10.8729ZM0 10.8771L-0.409609 10.5904L-0.977819 11.4021L0.0126679 11.377L0 10.8771ZM0.423233 11.1438L0.423372 11.1436L-0.42277 10.6106L-0.422908 10.6108L0.423233 11.1438ZM6.59052 10.3773H0.000162274V11.3773H6.59052V10.3773ZM3.09028 20.1991L7.04919 11.0764L6.13185 10.6783L2.17294 19.801L3.09028 20.1991ZM9.04781 8.86086L2.20838 19.7338L3.05484 20.2663L9.89427 9.39331L9.04781 8.86086ZM9.06433 8.83621L9.06141 8.84038L9.88068 9.41379L9.8836 9.40963L9.06433 8.83621ZM9.48636 9.62277L9.48666 9.62276L9.46127 8.62308L9.46097 8.62309L9.48636 9.62277ZM9.05032 8.85688L9.05018 8.8571L9.89715 9.38875L9.89728 9.38853L9.05032 8.85688ZM2.88344 9.62271H9.4738V8.62271H2.88344V9.62271ZM6.38368 -0.199047L2.42477 8.92366L3.34211 9.32175L7.30102 0.199047L6.38368 -0.199047ZM0.426151 11.1392L7.26558 0.266226L6.41912 -0.266226L-0.42031 10.6067L0.426151 11.1392ZM0.409609 11.1639L0.412529 11.1597L-0.406688 10.5862L-0.409609 10.5904L0.409609 11.1639ZM-0.0123669 10.3773L-0.0126679 10.3773L0.0126679 11.377L0.012969 11.3769L-0.0123669 10.3773Z" mask="url(#path-1-inside-1_612_1297)"/></svg>