<svg width="49" height="53" viewBox="0 0 49 53" fill="none" xmlns="http://www.w3.org/2000/svg">
<path d="M23.1875 26.0755C21.1629 31.6462 18.4339 36.3393 15.6766 39.4259C14.297 40.9703 12.928 42.0926 11.6563 42.7301C10.3858 43.367 9.25656 43.5006 8.30438 43.1545C7.3522 42.8085 6.57218 41.981 6.00713 40.677C5.4415 39.3717 5.11257 37.6323 5.04649 35.5625C4.91444 31.4258 5.83545 26.0756 7.86002 20.505C9.8846 14.9343 12.6137 10.2412 15.3709 7.15466C16.7505 5.61025 18.1195 4.48791 19.3913 3.85037C20.6617 3.21349 21.791 3.07994 22.7432 3.426C23.6953 3.77205 24.4754 4.59951 25.0404 5.90347C25.606 7.20877 25.935 8.9482 26.001 11.018C26.1331 15.1547 25.2121 20.5049 23.1875 26.0755Z" stroke="black"/>
<path d="M34.8799 30.3248C32.8553 35.8955 30.1262 40.5885 27.369 43.6751C25.9894 45.2195 24.6204 46.3419 23.3486 46.9794C22.0782 47.6163 20.9489 47.7498 19.9968 47.4038C19.0446 47.0577 18.2646 46.2303 17.6995 44.9263C17.1339 43.621 16.805 41.8816 16.7389 39.8118C16.6068 35.6751 17.5278 30.3249 19.5524 24.7542C21.577 19.1836 24.3061 14.4905 27.0633 11.4039C28.4429 9.85952 29.8119 8.73718 31.0837 8.09964C32.3541 7.46275 33.4834 7.32921 34.4355 7.67527C35.3877 8.02132 36.1677 8.84877 36.7328 10.1527C37.2984 11.458 37.6274 13.1975 37.6934 15.2673C37.8255 19.404 36.9045 24.7542 34.8799 30.3248Z" stroke="black"/>
<path d="M29.0342 28.2003C27.0096 33.771 24.2805 38.464 21.5233 41.5506C20.1437 43.095 18.7747 44.2174 17.5029 44.8549C16.2325 45.4918 15.1032 45.6253 14.1511 45.2793C13.1989 44.9332 12.4189 44.1058 11.8538 42.8018C11.2882 41.4965 10.9592 39.7571 10.8932 37.6872C10.7611 33.5506 11.6821 28.2004 13.7067 22.6297C15.7313 17.0591 18.4604 12.366 21.2176 9.27941C22.5972 7.73501 23.9662 6.61267 25.238 5.97513C26.5084 5.33824 27.6377 5.2047 28.5898 5.55075C29.542 5.89681 30.322 6.72426 30.8871 8.02823C31.4527 9.33353 31.7817 11.073 31.8477 13.1428C31.9798 17.2794 31.0588 22.6296 29.0342 28.2003Z" stroke="black"/>
<path d="M40.7256 32.4497C38.701 38.0203 35.9719 42.7134 33.2147 45.8C31.8351 47.3444 30.4661 48.4668 29.1944 49.1043C27.9239 49.7412 26.7946 49.8747 25.8425 49.5287C24.8903 49.1826 24.1103 48.3552 23.5452 47.0512C22.9796 45.7459 22.6507 44.0065 22.5846 41.9366C22.4525 37.8 23.3735 32.4498 25.3981 26.8791C27.4227 21.3085 30.1518 16.6154 32.909 13.5288C34.2886 11.9844 35.6576 10.8621 36.9294 10.2245C38.1998 9.58763 39.3291 9.45409 40.2812 9.80014C41.2334 10.1462 42.0134 10.9737 42.5785 12.2776C43.1441 13.5829 43.4731 15.3223 43.5391 17.3922C43.6712 21.5288 42.7502 26.879 40.7256 32.4497Z" stroke="black"/>
</svg>
