<?xml version="1.0" encoding="utf-8"?>
<!-- Generator: Adobe Illustrator 27.0.0, SVG Export Plug-In . SVG Version: 6.00 Build 0)  -->
<svg version="1.1" id="Layer_1" xmlns="http://www.w3.org/2000/svg" xmlns:xlink="http://www.w3.org/1999/xlink" x="0px" y="0px"
	 viewBox="0 0 21.5 22.4" style="enable-background:new 0 0 21.5 22.4;" xml:space="preserve">
<style type="text/css">
	
		.st0{clip-path:url(#SVGID_00000144315321504453556930000000222162628234843539_);fill:none;stroke:#000000;stroke-width:0.4;stroke-miterlimit:20;stroke-opacity:0.5;}
</style>
<g>
	<g>
		<g>
			<defs>
				<path id="SVGID_1_" d="M9.7,0.7c0.4-0.5,1.1-0.7,1.6-0.3c0.1,0.1,0.3,0.2,0.3,0.3l1.1,1.7c0.3,0.5,0.9,0.7,1.4,0.5l1.9-0.7
					c0.8-0.3,1.7,0.3,1.6,1.2l-0.1,2c0,0.6,0.3,1.1,0.9,1.2L20.4,7c0.6,0.2,1,0.8,0.8,1.4c0,0.2-0.1,0.3-0.2,0.4l-1.3,1.5
					c-0.4,0.4-0.4,1.1,0,1.5l1.3,1.5c0.5,0.7,0.2,1.7-0.6,1.9l-1.9,0.5c-0.5,0.1-0.9,0.6-0.9,1.2l0.1,2c0,0.7-0.5,1.2-1.1,1.2
					c-0.2,0-0.3,0-0.5-0.1l-1.9-0.7c-0.5-0.2-1.1,0-1.4,0.5l-1.1,1.7c-0.5,0.7-1.5,0.7-2,0L8.7,20c-0.3-0.5-0.9-0.7-1.4-0.5
					l-1.9,0.7c-0.8,0.3-1.7-0.3-1.6-1.2l0.1-2c0-0.6-0.3-1.1-0.9-1.2l-1.9-0.5c-0.6-0.2-1-0.8-0.8-1.4c0-0.2,0.1-0.3,0.2-0.4L1.7,12
					c0.4-0.4,0.4-1.1,0-1.5L0.5,8.9C0.1,8.4,0.1,7.7,0.6,7.3C0.8,7.1,0.9,7.1,1.1,7L3,6.5c0.5-0.1,0.9-0.6,0.9-1.2l-0.1-2
					c0-0.7,0.5-1.2,1.1-1.2c0.2,0,0.3,0,0.5,0.1l1.9,0.7c0.5,0.2,1.1,0,1.4-0.5L9.7,0.7z"/>
			</defs>
			<clipPath id="SVGID_00000102522722944557010790000003201626665727267250_">
				<use xlink:href="#SVGID_1_"  style="overflow:visible;"/>
			</clipPath>
			
				<path style="clip-path:url(#SVGID_00000102522722944557010790000003201626665727267250_);fill:none;stroke:#000000;stroke-width:0.4;stroke-miterlimit:20;stroke-opacity:0.5;" d="
				M9.7,0.7c0.4-0.5,1.1-0.7,1.6-0.3c0.1,0.1,0.3,0.2,0.3,0.3l1.1,1.7c0.3,0.5,0.9,0.7,1.4,0.5l1.9-0.7c0.8-0.3,1.7,0.3,1.6,1.2
				l-0.1,2c0,0.6,0.3,1.1,0.9,1.2L20.4,7c0.6,0.2,1,0.8,0.8,1.4c0,0.2-0.1,0.3-0.2,0.4l-1.3,1.5c-0.4,0.4-0.4,1.1,0,1.5l1.3,1.5
				c0.5,0.7,0.2,1.7-0.6,1.9l-1.9,0.5c-0.5,0.1-0.9,0.6-0.9,1.2l0.1,2c0,0.7-0.5,1.2-1.1,1.2c-0.2,0-0.3,0-0.5-0.1l-1.9-0.7
				c-0.5-0.2-1.1,0-1.4,0.5l-1.1,1.7c-0.5,0.7-1.5,0.7-2,0L8.7,20c-0.3-0.5-0.9-0.7-1.4-0.5l-1.9,0.7c-0.8,0.3-1.7-0.3-1.6-1.2
				l0.1-2c0-0.6-0.3-1.1-0.9-1.2l-1.9-0.5c-0.6-0.2-1-0.8-0.8-1.4c0-0.2,0.1-0.3,0.2-0.4L1.7,12c0.4-0.4,0.4-1.1,0-1.5L0.5,8.9
				C0.1,8.4,0.1,7.7,0.6,7.3C0.8,7.1,0.9,7.1,1.1,7L3,6.5c0.5-0.1,0.9-0.6,0.9-1.2l-0.1-2c0-0.7,0.5-1.2,1.1-1.2
				c0.2,0,0.3,0,0.5,0.1l1.9,0.7c0.5,0.2,1.1,0,1.4-0.5L9.7,0.7z"/>
		</g>
	</g>
	<g>
		<g>
			<path d="M15.2,7.2h-8c-0.3,0-0.5,0.2-0.5,0.5v0v8c0,0.3,0.2,0.5,0.5,0.5h4.3v-3.5h-1.2v-1.4h1.2v-1c0-1.2,0.7-1.8,1.7-1.8
				c0.5,0,0.9,0,1,0.1v1.2h-0.7c-0.6,0-0.7,0.3-0.7,0.7v0.9h1.3l-0.2,1.4h-1.2v3.5h2.3c0.3,0,0.5-0.2,0.5-0.5v-8
				C15.7,7.4,15.5,7.2,15.2,7.2z"/>
		</g>
	</g>
</g>
</svg>
