<svg width="67" height="56" viewBox="0 0 67 56" fill="none" xmlns="http://www.w3.org/2000/svg">
<path d="M15.0176 27.5771L63 27.5771" stroke="black" stroke-width="0.3" stroke-miterlimit="10"/>
<path d="M15.8744 25.3149C15.2561 26.2592 14.2902 27.0021 13.2622 27.5772C14.3001 28.1455 15.2239 28.9153 15.8744 29.8394L16.4952 29.8394C15.8446 28.9421 15.0625 28.1634 14.0965 27.5772C15.0625 26.9819 15.8744 26.1943 16.5051 25.3149L15.8744 25.3149Z" fill="black"/>
<path d="M17.3695 25.315C16.7488 26.2593 15.7828 27.0022 14.7573 27.5773C15.7953 28.1456 16.719 28.9154 17.3695 29.8396L17.9903 29.8396C17.3397 28.9423 16.5576 28.1636 15.5916 27.5773C16.5576 26.9821 17.3695 26.1944 18.0002 25.315L17.3695 25.315Z" fill="black"/>
</svg>
