<svg xmlns="http://www.w3.org/2000/svg" width="131" height="64" viewBox="0 0 131 64"><defs><clipPath id="zwp2a"><path fill="#fff" d="M65.5 0l6.627.164 6.558.491 6.423.813 6.222 1.125 5.957 1.428 5.631 1.715 5.247 1.984 4.809 2.233 4.322 2.46 3.79 2.66 3.22 2.834 2.147 2.445c.313.356.598.734.854 1.133l1.159 1.804c.295.46.55.943.761 1.446l.662 1.574c.237.562.418 1.146.543 1.743l.285 1.372c.132.635.199 1.282.199 1.931v1.29c0 .649-.067 1.296-.199 1.931l-.285 1.372a9.498 9.498 0 0 1-.543 1.743l-.662 1.573a9.416 9.416 0 0 1-.761 1.447l-1.159 1.804a9.446 9.446 0 0 1-.854 1.133l-2.147 2.445-3.22 2.834-3.79 2.66-4.322 2.46-4.809 2.233-5.247 1.984-5.63 1.715-5.958 1.428-6.222 1.126-6.423.812-6.559.49L65.5 64l-6.627-.164-6.558-.491-6.423-.812-6.222-1.126-5.957-1.428-5.631-1.715-5.247-1.984-4.809-2.233-4.322-2.46-3.79-2.66-3.22-2.834-2.147-2.445a9.485 9.485 0 0 1-.854-1.133l-1.159-1.804a9.48 9.48 0 0 1-.761-1.446L1.11 37.69a9.48 9.48 0 0 1-.543-1.743l-.285-1.372a9.48 9.48 0 0 1-.199-1.931v-1.29c0-.649.067-1.296.199-1.931l.285-1.372a9.48 9.48 0 0 1 .543-1.743l.662-1.574a9.48 9.48 0 0 1 .761-1.446l1.159-1.804c.256-.399.541-.777.854-1.133l2.147-2.445 3.22-2.834 3.79-2.66 4.322-2.46 4.81-2.233 5.246-1.984 5.63-1.715 5.958-1.428 6.222-1.125 6.423-.813 6.558-.49z"/></clipPath></defs><g><g><path fill="none" stroke="#000" stroke-miterlimit="20" stroke-opacity=".5" d="M65.5 0v0l6.627.164v0l6.558.491v0l6.423.813v0l6.222 1.125v0l5.957 1.428v0l5.631 1.715v0l5.247 1.984v0l4.809 2.233v0l4.322 2.46v0l3.79 2.66v0l3.22 2.834v0l2.147 2.445c.313.356.598.734.854 1.133l1.159 1.804c.295.46.55.943.761 1.446l.662 1.574c.237.562.418 1.146.543 1.743l.285 1.372c.132.635.199 1.282.199 1.931v1.29c0 .649-.067 1.296-.199 1.931l-.285 1.372a9.498 9.498 0 0 1-.543 1.743l-.662 1.573a9.416 9.416 0 0 1-.761 1.447l-1.159 1.804a9.446 9.446 0 0 1-.854 1.133l-2.147 2.445v0l-3.22 2.834v0l-3.79 2.66v0l-4.322 2.46v0l-4.809 2.233v0l-5.247 1.984v0l-5.63 1.715v0l-5.958 1.428v0l-6.222 1.126v0l-6.423.812v0l-6.559.49v0L65.5 64v0l-6.627-.164v0l-6.558-.491v0l-6.423-.812v0l-6.222-1.126v0l-5.957-1.428v0l-5.631-1.715v0l-5.247-1.984v0l-4.809-2.233v0l-4.322-2.46v0l-3.79-2.66v0l-3.22-2.834v0l-2.147-2.445a9.485 9.485 0 0 1-.854-1.133l-1.159-1.804a9.48 9.48 0 0 1-.761-1.446L1.11 37.69a9.48 9.48 0 0 1-.543-1.743l-.285-1.372a9.48 9.48 0 0 1-.199-1.931v-1.29c0-.649.067-1.296.199-1.931l.285-1.372a9.48 9.48 0 0 1 .543-1.743l.662-1.574a9.48 9.48 0 0 1 .761-1.446l1.159-1.804c.256-.399.541-.777.854-1.133l2.147-2.445v0l3.22-2.834v0l3.79-2.66v0l4.322-2.46v0l4.81-2.233v0l5.246-1.984v0l5.63-1.715v0l5.958-1.428v0l6.222-1.125v0l6.423-.813v0l6.558-.49v0z" clip-path="url(&quot;#zwp2a&quot;)"/></g></g></svg>