<svg xmlns="http://www.w3.org/2000/svg" width="85" height="55" viewBox="0 0 85 55"><defs><clipPath id="vc7ma"><path fill="#fff" d="M42.22.15l5.511.232 5.417.69 5.23 1.14 4.953 1.567 4.591 1.968 4.153 2.336 3.641 2.664 2.88 2.764c.125.12.242.25.348.39l2.104 2.736c.119.155.225.32.316.493l1.486 2.808c.101.19.184.39.248.597l.879 2.833c.068.22.114.447.138.677l.29 2.836c.024.235.024.472 0 .707l-.29 2.837c-.024.23-.07.456-.138.677l-.879 2.833a3.493 3.493 0 0 1-.248.597l-1.486 2.808a3.47 3.47 0 0 1-.316.493l-2.104 2.736a3.482 3.482 0 0 1-.349.39l-2.879 2.764-3.641 2.664-4.152 2.336-4.593 1.968-4.953 1.567-5.23 1.139-5.416.69-5.51.233-5.511-.232-5.417-.691-5.23-1.14-4.953-1.566-4.592-1.968-4.152-2.336-3.641-2.664-2.88-2.764a3.47 3.47 0 0 1-.348-.39l-2.104-2.736a3.475 3.475 0 0 1-.317-.493L1.59 34.532a3.482 3.482 0 0 1-.247-.597l-.879-2.833a3.479 3.479 0 0 1-.138-.677l-.29-2.837a3.479 3.479 0 0 1 0-.707l.29-2.836c.023-.23.07-.457.138-.677l.879-2.833c.063-.207.146-.406.247-.597l1.486-2.808a3.47 3.47 0 0 1 .317-.493L5.497 13.9c.106-.138.223-.268.349-.39l2.879-2.763 3.641-2.664 4.152-2.336 4.592-1.968 4.953-1.567 5.23-1.14 5.417-.69z"/></clipPath></defs><g><g><path fill="none" stroke="#000" stroke-miterlimit="20" stroke-opacity=".5" d="M42.22.15v0l5.511.232v0l5.417.69v0l5.23 1.14v0l4.953 1.567v0l4.591 1.968v0l4.153 2.336v0l3.641 2.664v0l2.88 2.764c.125.12.242.25.348.39l2.104 2.736c.119.155.225.32.316.493l1.486 2.808c.101.19.184.39.248.597l.879 2.833c.068.22.114.447.138.677l.29 2.836c.024.235.024.472 0 .707l-.29 2.837c-.024.23-.07.456-.138.677l-.879 2.833a3.493 3.493 0 0 1-.248.597l-1.486 2.808a3.47 3.47 0 0 1-.316.493l-2.104 2.736a3.482 3.482 0 0 1-.349.39l-2.879 2.764v0l-3.641 2.664v0l-4.152 2.336v0L63.33 50.69v0l-4.953 1.567v0l-5.23 1.139v0l-5.416.69v0l-5.51.233v0l-5.511-.232v0l-5.417-.691v0l-5.23-1.14v0l-4.953-1.566v0l-4.592-1.968v0l-4.152-2.336v0l-3.641-2.664v0l-2.88-2.764a3.47 3.47 0 0 1-.348-.39l-2.104-2.736a3.475 3.475 0 0 1-.317-.493L1.59 34.532a3.482 3.482 0 0 1-.247-.597l-.879-2.833a3.479 3.479 0 0 1-.138-.677l-.29-2.837a3.479 3.479 0 0 1 0-.707l.29-2.836c.023-.23.07-.457.138-.677l.879-2.833c.063-.207.146-.406.247-.597l1.486-2.808a3.47 3.47 0 0 1 .317-.493L5.497 13.9c.106-.138.223-.268.349-.39l2.879-2.763v0l3.641-2.664v0l4.152-2.336v0l4.592-1.968v0l4.953-1.567v0l5.23-1.14v0l5.417-.69v0z" clip-path="url(&quot;#vc7ma&quot;)"/></g></g></svg>