<?xml version="1.0" encoding="utf-8"?>
<!-- Generator: Adobe Illustrator 24.1.2, SVG Export Plug-In . SVG Version: 6.00 Build 0)  -->
<svg version="1.1" id="Layer_1" xmlns="http://www.w3.org/2000/svg" xmlns:xlink="http://www.w3.org/1999/xlink" x="0px" y="0px"
	 viewBox="0 0 9.8 9.2" style="enable-background:new 0 0 9.8 9.2;" xml:space="preserve">
<style type="text/css">
	.st0{opacity:0.8;}
	.st1{fill:#FFFFFF;}
</style>
<g class="st0">
	<path class="st1" d="M0,4.2c2,1.2,3.7,3.1,4.9,5.1c1.2-2,2.9-3.8,4.9-5.1l0-1.2C7.8,4.2,6.2,5.7,4.9,7.6C3.6,5.7,1.9,4.2,0,2.9
		L0,4.2z"/>
	<path class="st1" d="M0,1.3c2,1.2,3.7,3.1,4.9,5.1c1.2-2,2.9-3.8,4.9-5.1l0-1.2C7.8,1.3,6.2,2.8,4.9,4.7C3.6,2.8,1.9,1.2,0,0L0,1.3
		z"/>
</g>
</svg>
