<svg width="44" height="23" viewBox="0 0 44 23" fill="none" xmlns="http://www.w3.org/2000/svg">
<g clip-path="url(#clip0_1401_374)">
<path d="M43.4778 22.972C42.1129 22.9216 40.2004 22.8936 37.3202 22.9972C35.9865 23.0477 35.6716 22.5041 35.2261 20.1982C35.0303 19.198 34.2556 19.7303 33.1574 19.4221C32.1614 19.0355 31.977 16.6764 31.977 16.6764C31.9656 16.1468 31.6762 16.1328 31.506 16.2113C27.6042 17.8419 23.4784 15.3707 23.3847 15.7966C22.6668 17.7438 20.7003 17.5953 20.4506 17.091C20.5045 17.968 19.1425 18.6937 18.7225 18.4863C17.2157 17.699 17.1902 17.1274 16.1431 16.766C14.2306 15.9507 14.6364 15.0653 12.8033 14.9673C11.4667 14.8972 11.0212 14.6787 10.7063 14.3985C9.31867 13.0564 10.5218 11.2689 11.3618 10.6721C11.0496 9.2768 13.0927 7.5761 13.5637 6.41055C12.9338 6.39934 11.9775 6.25365 10.4991 5.75773C9.72729 5.49716 9.91174 5.87821 8.56103 5.74372C6.73928 5.58402 6.04407 5.3963 5.46804 5.13853C5.13036 4.98444 3.37104 5.02366 2.45733 4.70986C-0.451218 4.29519 0.00563049 1.70913 0.0737343 1.46257C0.0992737 1.3589 0.127651 1.3589 0.669636 1.3589C1.40458 1.41214 2.71839 1.03389 3.79384 1.2048C4.21097 1.25524 4.8693 1.07312 5.888 1.2048C7.16209 0.983461 8.09283 1.31688 9.57406 0.798542C9.79539 0.734101 9.74999 0.941434 10.2409 0.896605C10.502 0.868587 10.4707 0.664056 11.2426 0.753713C12.1279 0.854578 13.2544 0.76492 14.3271 0.76492C15.4025 0.76492 16.2396 0.549182 18.8587 0.330641C19.9313 0.238181 20.7741 -0.240927 21.5573 0.145722C22.7519 0.734101 26.9033 2.52445 31.3556 4.69865C31.4492 4.74348 31.8408 4.96202 32.0905 4.38765C32.5899 3.47426 32.8765 3.74043 34.633 3.79367C35.8872 3.74324 34.9565 2.79343 36.3356 2.82144C38.4581 2.86627 39.2895 3.03998 42.3882 2.97834C43.6367 2.95593 43.9773 2.9111 44 3.78807V22.4004C44.0028 22.6862 43.8694 22.972 43.4778 22.972Z" fill="white"/>
<path d="M0.695353 1.98929C0.618737 2.81302 2.16239 2.61129 2.77815 2.48801C3.1442 2.41797 3.41945 1.8436 3.0534 1.71191L0.774805 1.91925C0.740754 1.91645 0.689677 1.97248 0.695353 1.98929Z" fill="#2A4D85"/>
<path d="M12.9764 11.5911C13.8674 11.7256 13.788 12.087 14.2647 12.0226C14.8975 11.9358 14.33 11.6976 16.4951 11.7508C17.1222 11.7508 17.4627 11.7088 17.8826 11.9694C18.0926 11.7985 18.5892 11.5659 18.9297 11.8629C19.7157 11.706 19.4377 11.6163 20.7657 11.9161C22.5562 12.3196 22.9109 11.5967 23.7423 11.1933C23.9636 11.0924 24.1112 11.014 24.5454 11.0812C27.8483 11.4763 26.4182 11.465 30.9952 11.1933C32.5786 10.8963 33.1944 10.0529 33.1263 7.93198C32.9958 5.52803 32.4736 5.86144 31.1371 5.29268C25.7145 2.91675 22.0738 0.874236 20.6578 0.977903C16.6483 1.03114 17.3832 1.754 12.0911 1.5971C10.4141 1.38977 10.4651 2.24152 9.83801 2.14065C9.36413 1.88008 9.75289 1.63352 8.13261 1.77922C4.84382 2.07621 4.18833 1.52145 3.88754 2.03698C3.4846 2.72623 3.49595 3.15771 1.35923 2.98119C1.1833 2.96998 1.12939 2.96438 1.02439 2.94477C0.763332 2.88313 0.749142 3.03723 1.00453 3.22775C1.21451 3.38745 2.95113 4.21959 4.9857 3.90018C6.14061 3.71807 5.5362 4.16075 7.44875 4.16075C8.28584 4.10471 8.80796 4.10471 9.07186 4.05148C9.90896 4.36528 11.5349 4.3877 12.0627 4.26162C12.704 4.10191 13.0048 3.89738 13.5808 4.20558C14.154 4.51658 15.4168 4.94526 17.2981 4.72391C19.5001 4.46615 19.3809 4.04588 19.6051 4.20558C20.1158 4.58943 19.0688 5.30108 20.1556 6.11921C20.7146 6.54228 21.3105 4.8528 21.861 4.87801C22.1901 4.92284 22.2526 5.21983 22.0965 5.57846C22.0227 5.74657 21.3672 6.70479 21.9121 7.10264C22.8031 7.75266 24.4006 5.81101 25.635 6.61233C25.9216 6.83087 25.6151 7.14187 25.2689 7.10264C24.673 7.0326 23.6685 7.59856 23.2514 7.95719C22.7009 8.44751 21.1289 9.19839 20.55 9.43094C18.5069 10.2575 17.8287 9.63827 17.4598 10.1566C17.1477 10.5433 16.5092 9.96048 15.7828 9.84561C14.4122 9.62426 11.2625 10.7394 11.5633 11.4258C11.6768 11.6528 11.8924 11.636 12.1734 11.5827C12.4713 11.5379 12.582 11.5323 12.9764 11.5911Z" fill="#2A4D85"/>
<path d="M13.7426 13.2637C13.4276 12.5885 13.3935 12.4988 12.7324 12.3588C12.1535 12.2327 10.4765 12.7202 10.7006 13.4206C10.8737 13.6392 11.5775 13.6532 12.023 13.7541C12.4968 13.8633 13.9639 14.0258 13.7426 13.2637Z" fill="#2A4D85"/>
<path d="M34.3522 18.7385C33.6797 18.7049 33.6002 18.3015 33.4924 17.8672C33.342 17.2452 33.8074 14.6591 33.8613 11.4006C33.9124 8.14212 33.8074 7.20912 33.6485 5.45239C33.6116 5.02091 33.2569 4.47736 33.8613 4.44654C35.8221 4.33727 36.4265 4.18598 36.7443 5.71016C37.1103 7.4949 37.1614 14.435 36.6904 18.0773C36.5286 18.3631 36.9287 18.9319 34.3522 18.7385Z" fill="#2A4D85"/>
</g>
<defs>
<clipPath id="clip0_1401_374">
<rect width="44" height="23" fill="white" transform="matrix(-1 0 0 1 44 0)"/>
</clipPath>
</defs>
</svg>
