<svg xmlns="http://www.w3.org/2000/svg" width="25" height="13" viewBox="0 0 25 13"><g><g><g><path d="M.297 12.986A47.17 47.17 0 0 1 3.795 13c.758.029.937-.279 1.19-1.582.111-.565.552-.264 1.176-.439.565-.218.67-1.552.67-1.552.007-.299.171-.307.268-.262 2.217.921 4.561-.476 4.614-.235.408 1.1 1.525 1.017 1.667.732-.03.495.744.906.982.788.856-.445.87-.768 1.466-.972 1.086-.46.856-.961 1.897-1.017.76-.04 1.013-.163 1.192-.321.788-.759.105-1.769-.373-2.106.178-.789-.983-1.75-1.25-2.409.357-.006.9-.089 1.74-.369.44-.147.334.068 1.102-.008 1.035-.09 1.43-.196 1.757-.342.192-.087 1.192-.065 1.71-.242 1.653-.235 1.394-1.696 1.355-1.836-.014-.058-.03-.058-.339-.058-.417.03-1.164-.184-1.775-.087-.237.028-.61-.075-1.19 0-.723-.125-1.252.063-2.094-.23-.126-.036-.1.08-.379.055-.148-.015-.13-.131-.569-.08-.503.057-1.143.006-1.752.006-.611 0-1.087-.122-2.575-.245-.61-.053-1.089-.324-1.534-.105-.678.333-3.037 1.345-5.567 2.573-.053.026-.275.15-.417-.175-.284-.517-.447-.366-1.445-.336-.712-.029-.184-.565-.967-.55-1.206.026-1.679.124-3.44.09-.709-.014-.902-.039-.915.457v10.52c-.002.161.074.323.297.323z"/></g><g><path fill="#fff" d="M24.608 1.127c.043.465-.834.351-1.184.282-.207-.04-.364-.365-.156-.439l1.295.117c.02-.001.048.03.045.04z"/></g><g><path fill="#fff" d="M17.632 6.55c-.507.077-.461.281-.732.245-.36-.05-.037-.184-1.268-.154-.356 0-.55-.024-.788.124-.12-.097-.401-.228-.595-.06-.447-.09-.288-.14-1.043.03-1.017.228-1.219-.18-1.691-.409-.126-.057-.21-.101-.457-.063-1.876.223-1.064.217-3.664.063-.9-.168-1.25-.644-1.211-1.843.074-1.359.37-1.17 1.13-1.492 3.081-1.343 5.15-2.497 5.954-2.439 2.278.03 1.86.439 4.868.35.953-.117.924.364 1.28.307.27-.147.048-.286.969-.204 1.869.168 2.24-.146 2.412.146.229.39.222.633 1.436.533.1-.006.13-.01.19-.02.149-.035.157.052.012.16-.12.09-1.106.56-2.262.38-.656-.103-.313.147-1.4.147-.475-.032-.772-.032-.922-.062-.476.178-1.4.19-1.7.12-.364-.091-.534-.207-.862-.033-.325.176-1.043.419-2.112.293-1.251-.145-1.183-.383-1.31-.293-.29.217.304.62-.313 1.082-.318.24-.657-.716-.97-.701-.186.025-.222.193-.133.395.042.095.414.637.105.862-.507.367-1.414-.73-2.116-.277-.163.123.012.3.208.277.339-.04.91.28 1.147.483.312.277 1.206.701 1.534.833 1.161.467 1.547.117 1.756.41.178.219.54-.11.953-.176.779-.125 2.569.505 2.398.893-.065.129-.187.12-.347.09a1.197 1.197 0 0 0-.456.004z"/></g><g><path fill="#fff" d="M17.193 7.503c.179-.382.198-.433.574-.512.329-.071 1.282.205 1.154.6-.098.124-.498.132-.751.189-.27.062-1.103.153-.977-.277z"/></g><g><path fill="#fff" d="M5.482 10.594c.382-.019.427-.247.489-.492.085-.352-.18-1.814-.21-3.655-.029-1.842.03-2.37.121-3.362.021-.244.223-.551-.12-.569-1.115-.062-1.458-.147-1.639.714-.208 1.01-.237 4.932.03 6.99.093.162-.135.484 1.33.374z"/></g></g></g></svg>