<svg xmlns="http://www.w3.org/2000/svg" width="38" height="30" viewBox="0 0 38 30"><g><g><g/><g><g/><g><path d="M22.542 7.5c1.395 0 2.471.826 2.471 1.916v11.01c0 1.09-1.076 2.074-2.471 2.074H6.14c-1.396 0-2.65-.984-2.65-2.074V9.416c0-1.09 1.254-1.916 2.65-1.916zm1.21 1.916c0-.545-.535-.902-1.232-.902L6.117 8.508c-.697 0-1.365.363-1.365.908v11.01c0 .545.69 1.078 1.388 1.078h16.402c.698 0 1.21-.533 1.21-1.078zm10.761-.041v11.25l-7.273-3.129V12.48zm-1.254 1.734l-4.757 1.97v3.843l4.75 1.963v-7.752z"/></g></g></g></g></svg>