<svg width="139" height="75" viewBox="0 0 139 75" fill="none" xmlns="http://www.w3.org/2000/svg">
<g clip-path="url(#clip0_1236_5168)">
<path d="M3.92919 32.3877L11.4492 32.4176L11.4009 41.9245C11.3864 44.6506 13.0538 46.3725 16.432 46.3853C19.6072 46.3981 21.4631 44.6634 21.4776 41.963L21.5259 32.4561L29.0459 32.486L28.9928 42.7962C28.9638 48.1201 24.5127 51.534 16.403 51.4998C8.29332 51.4699 3.84703 47.9705 3.87119 42.621L3.91952 32.3877H3.92919Z" fill="black"/>
<path d="M48.1409 51.0042L43.7623 44.9582L39.3836 44.9411L39.3546 50.97L31.8346 50.9401L31.9264 32.4988L46.5267 32.5543C53.7229 32.5842 55.7963 35.6564 55.7818 38.643C55.7721 40.7196 54.6702 43.0824 51.4031 44.2105L56.4246 51.0341L48.1409 50.9999V51.0042ZM39.4271 36.763L39.4078 40.9717L44.695 40.9931C47.1018 41.0016 47.8461 40.0189 47.8509 38.8481C47.8558 37.7329 47.097 36.7929 44.7482 36.7844L39.432 36.763H39.4271Z" fill="black"/>
<path d="M83.5324 45.7914C83.5179 48.3892 81.4494 51.1323 75.3986 51.111L58.4156 51.0426L58.5075 32.6013L75.3744 32.6697C80.6036 32.691 83.0926 34.5198 83.0781 37.2971C83.0684 39.1686 81.7104 40.7965 78.7091 41.3306C81.9085 41.7579 83.5469 43.3217 83.5324 45.7914ZM73.3011 46.9963C74.9733 47.0048 75.6837 46.1246 75.6886 45.2145C75.6886 44.2532 74.8718 43.5482 73.3156 43.5439L65.9695 43.514L65.9502 46.9707L73.2963 47.0006L73.3011 46.9963ZM66.0082 36.7331L65.9937 39.8266L73.0449 39.8522C74.78 39.8608 75.2246 39.0062 75.2294 38.2243C75.2294 37.4723 74.7655 36.7673 73.0643 36.7587L66.013 36.7331H66.0082Z" fill="black"/>
<path d="M83.2086 51.141L92.9953 32.7339L102.719 32.7723L112.322 51.2521L104.271 51.2179L102.671 47.7057L92.8842 47.6672L91.2506 51.1666L83.199 51.1367L83.2086 51.141ZM94.7352 43.6765L100.878 43.7021L99.4231 40.5018C99.0752 39.7199 98.2632 37.7159 97.8863 36.5238H97.7993C97.4416 37.7159 96.5765 39.7113 96.2237 40.4932L94.74 43.6807L94.7352 43.6765Z" fill="black"/>
<path d="M113.874 51.2606L113.965 32.8193L121.751 32.8492L130.257 41.4803C130.813 42.0528 131.543 42.9672 132.007 43.7747H132.157L132.171 40.9162L132.21 32.8877L138.995 32.9133L138.903 51.3546L131.557 51.3247L122.67 42.6894C122.085 42.1169 121.176 40.9974 120.891 40.348H120.741L120.727 43.1765L120.688 51.282L113.874 51.2564V51.2606Z" fill="black"/>
<path d="M2.76929 65.2025C2.79828 59.383 8.63647 55.2769 16.867 55.3068C23.7732 55.3324 28.901 58.0029 30.288 62.2714L22.5263 63.5404C21.8932 61.4083 19.9552 60.2589 16.8428 60.2461C13.0538 60.2333 10.7243 62.1176 10.705 65.1342C10.6905 68.1721 12.9716 70.0265 16.8235 70.0436C19.9069 70.0564 21.9415 68.9199 22.5408 66.8177L30.23 68.3516C28.5047 72.5774 23.4977 75.0257 16.5335 75C8.10001 74.9658 2.74512 71.1545 2.77412 65.2068L2.76929 65.2025Z" fill="black"/>
<path d="M28.9251 74.4232L38.7118 56.0161L48.4356 56.0546L58.0387 74.5343L49.987 74.5001L48.3873 70.9879L38.6006 70.9495L36.9671 74.4489L28.9154 74.4189L28.9251 74.4232ZM40.4516 66.9587L46.5943 66.9843L45.1396 63.784C44.7916 63.0021 43.9797 60.9982 43.6027 59.8061H43.5157C43.1581 60.9982 42.293 62.9935 41.9402 63.7755L40.4564 66.963L40.4516 66.9587Z" fill="black"/>
<path d="M59.59 74.5429L59.6819 56.1016L70.8169 56.1443L74.4996 65.5358C74.8476 66.4203 75.1666 67.151 75.2487 67.8517H75.3067C75.3986 67.151 75.7272 66.3989 76.0848 65.4888L79.7144 56.1785L91.1443 56.2212L91.0524 74.6625L84.1752 74.6369L84.2283 64.5061C84.2332 63.3354 84.3878 61.9595 84.6585 60.6093H84.5135C84.3347 61.2588 83.6484 63.0192 83.0878 64.2668L78.511 74.6155L71.5177 74.5856L67.3082 64.254C66.7283 62.8226 66.2643 61.4169 66.0033 60.5324H65.8874C66.1483 61.7544 66.1677 63.1858 66.1628 64.4292L66.1097 74.5599L59.5852 74.5343L59.59 74.5429Z" fill="black"/>
<path d="M109.476 56.2939C115.294 56.3153 118.721 58.6696 118.702 62.6433C118.682 66.7751 115.111 69.3815 109.558 69.3601L102.299 69.3302L102.27 74.7053L94.7496 74.6754L94.8415 56.2341L109.476 56.2897V56.2939ZM107.494 65.1172C109.582 65.1258 110.761 64.3225 110.766 62.8185C110.776 61.3145 109.659 60.5283 107.547 60.5197L102.347 60.4984L102.323 65.0959L107.494 65.1172Z" fill="black"/>
<path d="M1.47888 19.6505L0 17.0612L38.2382 0L76.4328 17.0612L74.954 19.6505L38.2382 3.25158L1.47888 19.6505Z" fill="black"/>
</g>
<defs>
<clipPath id="clip0_1236_5168">
<rect width="139" height="75" fill="black"/>
</clipPath>
</defs>
</svg>
