<svg width="563" height="605" viewBox="0 0 563 605" fill="none" xmlns="http://www.w3.org/2000/svg">
<path d="M301.404 439.004L306.647 418.824L326.345 423.938L334.058 394.236L353.756 399.349L371.973 329.137L391.386 334.175L386.36 353.562L407.213 358.969L412.239 339.582L417.331 319.97L377.065 309.525L387.587 269.007L468.589 290.021L473.681 270.409L412.806 254.615L417.945 234.786L498.887 255.79L519.027 261.016L542.427 170.835L522.287 165.609L527.608 145.067L498.6 137.543L446.678 124.069L426.538 118.843L367.445 103.503L362.106 124.053L341.253 118.645L307.472 248.835L287.774 243.722L282.388 264.489L252.257 256.669L247.277 275.839L236.844 273.132L215.991 267.725L210.899 287.337L190.046 281.93L184.741 302.399L165.044 297.286L145.346 292.173L150.651 271.703L130.953 266.589L136.045 246.978L116.348 241.864L126.714 201.927L107.003 196.808L76.1055 315.898L95.8032 321.011L90.4984 341.481L110.196 346.594L105.104 366.206L124.802 371.32L119.497 391.789L139.194 396.903L133.952 417.083L153.649 422.196L132.993 501.786L153.845 507.193L153.905 506.981L174.758 512.388L179.785 493.001L158.932 487.594L164.318 466.827L185.171 472.234L190.263 452.622L211.116 458.03L216.208 438.418L235.906 443.531L230.813 463.143L250.511 468.256L235.006 528.022L254.704 533.136L255.859 533.429L275.557 538.543L280.583 519.156L260.886 514.043L281.693 433.885L301.404 439.004ZM394.875 165.639L373.771 160.155L379.228 139.149L400.333 144.634L394.875 165.639Z" fill="#5A2E85"/>
</svg>
