<svg width="120" height="43" viewBox="0 0 120 43" fill="none" xmlns="http://www.w3.org/2000/svg">
<path d="M6.70093 34.9304C6.05114 34.7679 6.45288 31.0505 6.45288 30.6033C6.45288 27.0387 6.45288 23.4741 6.45288 19.9095C6.45288 17.9759 6.63217 16.4057 7.32106 14.604C7.43439 14.3076 7.95721 12.8238 8.43729 12.8538C8.73831 12.8727 9.06174 15.0351 9.18144 15.3344C10.4776 18.5747 12.4573 21.5836 13.9909 24.7189C15.0225 26.8281 16.1416 28.9659 16.9675 31.1683C17.1494 31.6534 17.1416 32.2131 17.6152 32.4499" stroke="black" stroke-width="2" stroke-linecap="round"/>
<path d="M11.4134 41.1317C7.93198 41.1317 2.81095 41.0119 1.13305 37.1767C0.565208 35.8788 1.94013 36.0904 2.89697 35.9227C6.13589 35.355 9.39594 34.8729 12.6674 34.5584C14.9216 34.3416 17.3208 34.1863 19.5853 34.1863C20.217 34.1863 23.1176 33.7625 23.5128 34.4344C24.9187 36.8245 19.5731 40.283 18.1108 41.3798" stroke="black" stroke-width="2" stroke-linecap="round"/>
<path d="M22.1338 19.2059C22.1338 23.5563 23.9027 27.9495 25.2617 32.0263C25.9174 33.9935 27.1024 36.2423 27.3469 38.3207C27.4583 39.2672 28.4728 35.6398 28.5633 35.328C29.6908 31.4443 31.2172 27.853 32.8303 24.1487C33.3279 23.0062 33.9686 22.2768 34.7997 21.4456C35.79 20.4554 35.3404 22.6447 35.3404 23.4537C35.3404 26.2728 35.6258 28.7787 36.0354 31.5436C36.2323 32.8726 36.3248 34.4105 37.0781 35.5404" stroke="black" stroke-width="2" stroke-linecap="round"/>
<path d="M40.9146 17.9204C40.3835 17.8445 42.4992 16.459 42.6938 16.3192C43.9849 15.3912 45.2604 14.817 46.8056 14.4412C48.5011 14.0287 48.1454 16.003 48.0114 17.2088C47.8723 18.4614 46.586 19.3331 45.8172 20.2135C43.9873 22.309 42.1037 24.3615 40.282 26.4603C38.7601 28.2138 38.6541 27.6534 40.0448 26.2627C42.8355 23.4719 50.0111 23.2347 52.3012 26.7371C55.3735 31.436 44.034 33.5769 41.2704 33.5769" stroke="black" stroke-width="2" stroke-linecap="round"/>
<path d="M56.9268 34.6445C56.9268 29.5442 56.9268 24.444 56.9268 19.3438C56.9268 19.023 57.2741 12.5477 58.9827 14.0854C59.6311 14.669 59.7767 16.477 60.149 17.2681C61.4015 19.9296 62.5222 22.6169 63.6875 25.3138C64.5102 27.2176 65.0277 29.3601 66.1783 31.0862" stroke="black" stroke-width="2" stroke-linecap="round"/>
<path d="M54.2656 24.7581H63.5328" stroke="black" stroke-width="2" stroke-linecap="round"/>
<path d="M70.8287 30.6733C70.7407 29.0009 69.6815 27.393 69.3609 25.7439C68.9926 23.85 68.6297 21.9386 68.364 20.0259C68.1508 18.4908 67.8711 16.8529 67.8711 15.3046C67.8711 13.521 68.3479 12.33 69.2513 10.7696C71.3594 7.12829 75.0248 9.57682 76.503 12.5332C76.8285 13.1844 77.2763 14.157 76.9083 14.8446C75.7841 16.945 73.7209 20.0039 71.2669 20.6174C70.1661 20.8926 69.1943 21.0117 68.0683 21.0117" stroke="black" stroke-width="2" stroke-linecap="round"/>
<path d="M80.418 10.3857C80.418 15.5114 80.6209 20.4669 82.3366 25.369C82.7389 26.5183 83.1445 28.0423 83.1445 29.2442" stroke="black" stroke-width="2" stroke-linecap="round"/>
<path d="M85.2539 10.8055C85.3724 11.4574 86.0821 12.0675 86.4612 12.5686C87.5525 14.0111 88.3481 15.5863 89.259 17.139C90.0599 18.5041 90.9103 19.8805 91.9036 21.1154C92.1468 21.4178 92.3452 21.6711 92.7563 21.6711C93.6645 21.6711 93.8444 19.9762 94.0498 19.314C94.7831 16.9513 95.4298 14.4372 96.4644 12.1853C96.6062 11.8766 97.0214 10.8246 96.7327 11.7733C96.4419 12.7287 96.3867 13.8488 96.2536 14.8298C95.7931 18.2237 95.5153 21.6372 95.0847 25.0343C94.7603 27.5928 94.3666 33.3509 91.1179 34.4339" stroke="black" stroke-width="2" stroke-linecap="round"/>
<path d="M102.39 32.8749C102.39 27.0483 102.39 21.2216 102.39 15.3949C102.39 13.3315 102.156 10.6416 103.767 9.02993C104.606 8.19112 104.667 14.0561 104.789 14.5162C105.581 17.5098 107.328 22.186 109.562 24.4199C110.383 25.2402 111.081 18.1481 111.177 17.5799C112.067 12.3205 114.902 -3.23011 115.215 2.09492C115.514 7.18675 117.058 12.076 117.566 17.1524C118.192 23.4084 118.635 29.585 118.635 35.8674" stroke="black" stroke-width="2" stroke-linecap="round"/>
</svg>
