<svg width="191" height="94" viewBox="0 0 191 94" fill="none" xmlns="http://www.w3.org/2000/svg">
<path d="M85.851 0.490907L95.5 0.250078L105.149 0.490907L114.699 1.2109L124.051 2.4026L133.109 4.05366L141.78 6.14695L149.975 8.66069L157.608 11.5687L164.602 14.8406L170.884 18.442L176.39 22.3349L181.062 26.4779L184.4 30.3057C184.703 30.6527 184.979 31.0217 185.226 31.4098L187.301 34.6647C187.586 35.1111 187.832 35.5812 188.035 36.0696L189.317 39.1379C189.544 39.6827 189.719 40.2482 189.838 40.8264L190.437 43.7211C190.563 44.3355 190.627 44.9612 190.627 45.5885V48.4115C190.627 49.0388 190.563 49.6645 190.437 50.2789L189.838 53.1736C189.719 53.7518 189.544 54.3173 189.317 54.8621L188.035 57.9304C187.832 58.4188 187.586 58.8889 187.301 59.3353L185.226 62.5902C184.979 62.9783 184.703 63.3473 184.4 63.6943L181.062 67.5221L176.39 71.6652L170.884 75.558L164.602 79.1594L157.608 82.4313L149.975 85.3393L141.78 87.8531L133.109 89.9463L124.051 91.5974L114.699 92.7891L105.149 93.5091L95.5 93.7499L85.8509 93.5091L76.3012 92.7891L66.9491 91.5974L57.8908 89.9463L49.2197 87.8531L41.0251 85.3393L33.3916 82.4313L26.3976 79.1594L20.1155 75.558L14.6101 71.6651L9.93753 67.5221L6.59978 63.6942C6.29729 63.3473 6.02118 62.9783 5.77375 62.5902L3.69868 59.3353C3.41411 58.8889 3.16847 58.4188 2.96449 57.9303L1.68329 54.8621C1.45578 54.3173 1.28108 53.7518 1.1616 53.1736L0.563476 50.2789C0.436539 49.6645 0.372574 49.0388 0.372574 48.4115V45.5885C0.372574 44.9612 0.436539 44.3355 0.563475 43.7211L1.1616 40.8264C1.28108 40.2482 1.45578 39.6827 1.68329 39.1379L2.96449 36.0697C3.16847 35.5812 3.41411 35.1111 3.69868 34.6647L5.77376 31.4098C6.02118 31.0217 6.29729 30.6527 6.59978 30.3058L9.93753 26.4779L14.61 22.3349L20.1156 18.442L26.3976 14.8406L33.3915 11.5687L41.0251 8.6607L49.2197 6.14694L57.8908 4.05366L66.9491 2.4026L76.3012 1.2109L85.851 0.490907Z" stroke="black" stroke-opacity="0.5" stroke-width="0.5"/>
</svg>
