<svg xmlns="http://www.w3.org/2000/svg" width="24" height="19" viewBox="0 0 24 19"><defs><clipPath id="nfdna"><path fill="#fff" d="M10.364 9.5c0 5.247-2.32 9.5-5.182 9.5C2.32 19 0 14.747 0 9.5S2.32 0 5.182 0c2.862 0 5.182 4.253 5.182 9.5z"/></clipPath><clipPath id="nfdnb"><path fill="#fff" d="M23.754 9.5c0 5.247-2.32 9.5-5.182 9.5-2.862 0-5.182-4.253-5.182-9.5S15.71 0 18.572 0c2.862 0 5.182 4.253 5.182 9.5z"/></clipPath></defs><g><g><g><path fill="none" stroke="#000" stroke-miterlimit="20" stroke-width="2" d="M10.364 9.5c0 5.247-2.32 9.5-5.182 9.5C2.32 19 0 14.747 0 9.5S2.32 0 5.182 0c2.862 0 5.182 4.253 5.182 9.5z" clip-path="url(&quot;#nfdna&quot;)"/></g><g><path d="M5.182 9.5c0 2.623-1.16 4.75-2.591 4.75C1.16 14.25 0 12.123 0 9.5s1.16-4.75 2.59-4.75c1.432 0 2.592 2.127 2.592 4.75z"/></g><g><path d="M18.572 9.5c0 2.623-1.16 4.75-2.591 4.75-1.431 0-2.591-2.127-2.591-4.75s1.16-4.75 2.59-4.75c1.432 0 2.592 2.127 2.592 4.75z"/></g><g><path fill="none" stroke="#000" stroke-miterlimit="20" stroke-width="2" d="M23.754 9.5c0 5.247-2.32 9.5-5.182 9.5-2.862 0-5.182-4.253-5.182-9.5S15.71 0 18.572 0c2.862 0 5.182 4.253 5.182 9.5z" clip-path="url(&quot;#nfdnb&quot;)"/></g></g></g></svg>