<svg width="23" height="23" viewBox="0 0 23 23" fill="none" xmlns="http://www.w3.org/2000/svg">
<path d="M14.6135 8H8.38646C8.17296 8 8 8.17296 8 8.38646V14.6138C8 14.827 8.17296 15 8.38646 15H11.7392V12.2892H10.8268V11.2328H11.7392V10.4538C11.7392 9.54963 12.2913 9.05729 13.098 9.05729C13.4845 9.05729 13.8164 9.08617 13.9132 9.099V10.044L13.3538 10.0443C12.9152 10.0443 12.8303 10.2528 12.8303 10.5585V11.2331H13.8765L13.7403 12.2895H12.8303V15H14.6141C14.827 15 15 14.827 15 14.6135V8.38646C15 8.17296 14.827 8 14.6135 8Z" fill="black"/>
<path d="M10.7176 1.66937C11.0849 1.10179 11.9154 1.10179 12.2827 1.66937L13.2561 3.17355C13.6244 3.74267 14.3412 3.97559 14.9737 3.73165L16.6454 3.0869C17.2761 2.84361 17.948 3.33173 17.9115 4.00681L17.8149 5.79587C17.7783 6.47277 18.2214 7.08259 18.8765 7.25699L20.6078 7.71794C21.2611 7.89187 21.5177 8.68168 21.0914 9.2064L19.9617 10.597C19.5342 11.1231 19.5342 11.8769 19.9617 12.403L21.0914 13.7936C21.5177 14.3183 21.2611 15.1081 20.6078 15.2821L18.8765 15.743C18.2214 15.9174 17.7783 16.5272 17.8149 17.2041L17.9115 18.9932C17.948 19.6683 17.2761 20.1564 16.6454 19.9131L14.9737 19.2684C14.3412 19.0244 13.6244 19.2573 13.2561 19.8265L12.2827 21.3306C11.9154 21.8982 11.0849 21.8982 10.7176 21.3306L9.74421 19.8265C9.37591 19.2573 8.65903 19.0244 8.02655 19.2684L6.35492 19.9131C5.72414 20.1564 5.0523 19.6683 5.08876 18.9932L5.18539 17.2041C5.22195 16.5272 4.7789 15.9174 4.12382 15.743L2.39247 15.2821C1.73916 15.1081 1.48254 14.3183 1.90884 13.7936L3.0386 12.403C3.46605 11.8769 3.46605 11.1231 3.0386 10.597L1.90884 9.2064C1.48254 8.68168 1.73916 7.89187 2.39247 7.71794L4.12382 7.25699C4.7789 7.08259 5.22195 6.47277 5.18539 5.79587L5.08876 4.00681C5.0523 3.33173 5.72415 2.84361 6.35492 3.0869L8.02655 3.73165C8.65903 3.97559 9.37591 3.74266 9.74421 3.17355L10.7176 1.66937Z" stroke="black" stroke-width="0.5"/>
</svg>
