<svg width="23" height="23" viewBox="0 0 23 23" fill="none" xmlns="http://www.w3.org/2000/svg">
<path d="M14.6135 8H8.38646C8.17296 8 8 8.17296 8 8.38646V14.6138C8 14.827 8.17296 15 8.38646 15H11.7392V12.2892H10.8268V11.2328H11.7392V10.4538C11.7392 9.54963 12.2913 9.05729 13.098 9.05729C13.4845 9.05729 13.8164 9.08617 13.9132 9.099V10.044L13.3538 10.0443C12.9152 10.0443 12.8303 10.2528 12.8303 10.5585V11.2331H13.8765L13.7403 12.2895H12.8303V15H14.6141C14.827 15 15 14.827 15 14.6135V8.38646C15 8.17296 14.827 8 14.6135 8Z" fill="black"/>
<path d="M10.6756 1.64221C11.0626 1.04418 11.9376 1.04418 12.3246 1.64221L13.298 3.14638C13.6535 3.69563 14.3453 3.92043 14.9557 3.685L16.6274 3.04025C17.292 2.78391 17.9999 3.29822 17.9614 4.00951L17.8648 5.79857C17.8295 6.45184 18.2571 7.04036 18.8893 7.20868L20.6207 7.66962C21.309 7.85289 21.5794 8.68506 21.1302 9.23793L20.0005 10.6285C19.588 11.1363 19.588 11.8637 20.0005 12.3715L21.1302 13.7621C21.5794 14.3149 21.309 15.1471 20.6207 15.3304L18.8893 15.7913C18.2571 15.9596 17.8295 16.5482 17.8648 17.2014L17.9614 18.9905C17.9999 19.7018 17.292 20.2161 16.6274 19.9598L14.9557 19.315C14.3453 19.0796 13.6535 19.3044 13.298 19.8536L12.3246 21.3578C11.9376 21.9558 11.0626 21.9558 10.6756 21.3578L9.70223 19.8536C9.34679 19.3044 8.65494 19.0796 8.04454 19.315L6.37291 19.9598C5.7083 20.2161 5.00042 19.7018 5.03883 18.9905L5.13546 17.2014C5.17075 16.5482 4.74316 15.9596 4.11096 15.7913L2.37961 15.3304C1.69125 15.1471 1.42086 14.3149 1.87004 13.7621L2.99979 12.3715C3.41232 11.8637 3.41232 11.1363 2.99979 10.6285L1.87003 9.23793C1.42086 8.68506 1.69125 7.85289 2.37961 7.66962L4.11096 7.20868C4.74316 7.04036 5.17075 6.45184 5.13546 5.79856L5.03883 4.00951C5.00042 3.29821 5.7083 2.78391 6.37291 3.04025L8.04454 3.685C8.65494 3.92043 9.34679 3.69563 9.70223 3.14638L10.6756 1.64221Z" stroke="black" stroke-width="0.4"/>
</svg>
