<svg width="23" height="23" viewBox="0 0 23 23" fill="none" xmlns="http://www.w3.org/2000/svg">
<path d="M14.6135 8H8.38646C8.17296 8 8 8.17296 8 8.38646V14.6138C8 14.827 8.17296 15 8.38646 15H11.7392V12.2892H10.8268V11.2328H11.7392V10.4538C11.7392 9.54963 12.2913 9.05729 13.098 9.05729C13.4845 9.05729 13.8164 9.08617 13.9132 9.099V10.044L13.3538 10.0443C12.9152 10.0443 12.8303 10.2528 12.8303 10.5585V11.2331H13.8765L13.7403 12.2895H12.8303V15H14.6141C14.827 15 15 14.827 15 14.6135V8.38646C15 8.17296 14.827 8 14.6135 8Z" fill="white"/>
<path d="M10.6755 1.64221C11.0625 1.04418 11.9375 1.04418 12.3245 1.64221L13.2979 3.14638C13.6533 3.69563 14.3452 3.92043 14.9556 3.685L16.6272 3.04025C17.2918 2.78391 17.9997 3.29822 17.9613 4.00951L17.8647 5.79857C17.8294 6.45184 18.257 7.04036 18.8892 7.20868L20.6205 7.66962C21.3089 7.85289 21.5793 8.68506 21.1301 9.23793L20.0003 10.6285C19.5878 11.1363 19.5878 11.8637 20.0003 12.3715L21.1301 13.7621C21.5793 14.3149 21.3089 15.1471 20.6205 15.3304L18.8892 15.7913C18.257 15.9596 17.8294 16.5482 17.8647 17.2014L17.9613 18.9905C17.9997 19.7018 17.2918 20.2161 16.6272 19.9598L14.9556 19.315C14.3452 19.0796 13.6533 19.3044 13.2979 19.8536L12.3245 21.3578C11.9375 21.9558 11.0625 21.9558 10.6755 21.3578L9.70208 19.8536C9.34664 19.3044 8.65479 19.0796 8.04439 19.315L6.37276 19.9598C5.70815 20.2161 5.00026 19.7018 5.03868 18.9905L5.13531 17.2014C5.1706 16.5482 4.74301 15.9596 4.11081 15.7913L2.37946 15.3304C1.6911 15.1471 1.42071 14.3149 1.86988 13.7621L2.99964 12.3715C3.41217 11.8637 3.41217 11.1363 2.99964 10.6285L1.86988 9.23793C1.42071 8.68506 1.6911 7.85289 2.37946 7.66962L4.11081 7.20868C4.74301 7.04036 5.1706 6.45184 5.13531 5.79856L5.03868 4.00951C5.00026 3.29821 5.70815 2.78391 6.37276 3.04025L8.04439 3.685C8.65479 3.92043 9.34664 3.69563 9.70208 3.14638L10.6755 1.64221Z" stroke="white" stroke-width="0.4"/>
</svg>
