<svg width="230" height="85" viewBox="0 0 230 85" fill="none" xmlns="http://www.w3.org/2000/svg">
<g clip-path="url(#clip0_1302_2095)">
<path d="M165.741 0.00180741L1.65589 15.4848C0.64968 15.5798 -0.0886224 16.468 0.00684686 17.4687L3.63266 55.4739C3.72813 56.4746 4.62122 57.2089 5.62743 57.1139L169.712 41.6309C170.718 41.536 171.457 40.6478 171.361 39.6471L167.735 1.64181C167.64 0.641116 166.747 -0.0931386 165.741 0.00180741Z" fill="#020202"/>
<path d="M21.8707 21.5694C22.2572 31.3818 22.3595 41.2169 22.189 51.0407C22.1776 51.9451 23.5985 51.9451 23.6099 51.0407C23.7804 41.2169 23.6781 31.3931 23.2916 21.5694C23.2575 20.665 21.8366 20.6537 21.8707 21.5694Z" fill="white"/>
<path d="M18.5627 22.7451C23.1891 21.3886 27.9632 20.6425 32.7829 20.552C33.6922 20.5294 33.7036 19.1163 32.7829 19.1389C27.8382 19.2294 22.9277 19.9868 18.1876 21.3773C17.3124 21.6373 17.6875 22.9938 18.5627 22.7451Z" fill="white"/>
<path d="M22.7802 34.8298C26.2244 33.2923 29.8391 32.1166 33.522 31.3027C34.4086 31.1105 34.0335 29.7427 33.1469 29.9348C29.3276 30.7714 25.6219 32.0149 22.0641 33.6089C21.2343 33.9819 21.9504 35.2028 22.7802 34.8298Z" fill="white"/>
<path d="M38.7507 43.2066C38.3415 38.5265 38.3983 33.8124 38.9781 29.1549C39.2622 26.8939 39.6714 24.633 40.1943 22.4173C40.4217 21.4677 40.524 19.5007 41.5925 19.2746C42.5246 19.0824 43.7749 19.2859 44.707 19.3763C46.9122 19.5798 49.2879 20.2694 50.6406 22.1573C51.8455 23.8304 51.5386 25.8652 50.4587 27.5044C48.0603 31.1332 43.1043 32.8063 38.9667 33.1454L39.1599 34.5359C42.5814 33.4168 45.9574 35.022 48.8674 36.7516C51.9251 38.5604 54.9032 40.5274 57.9155 42.4153C58.6884 42.9014 59.4046 41.6805 58.6316 41.1944C55.2556 39.0691 51.9364 36.7856 48.4354 34.8751C45.48 33.2585 42.1267 32.0828 38.7848 33.1794C38.0687 33.4168 38.1369 34.6377 38.9781 34.5698C42.8428 34.242 46.8781 32.9533 49.8222 30.3645C52.2888 28.194 53.9711 24.6443 51.9819 21.6034C49.7881 18.2459 45.4914 17.8728 41.8312 17.8728C39.8874 17.8728 39.6146 18.9807 39.1713 20.6764C38.5802 22.9486 38.1142 25.2548 37.7732 27.5722C37.0116 32.7498 36.8638 37.9952 37.3298 43.2066C37.4094 44.111 38.8303 44.111 38.7507 43.2066Z" fill="white"/>
<path d="M70.3845 16.1431C68.5089 15.3857 66.4856 15.8379 64.6328 16.471C63.2346 16.9458 62.5185 17.6806 62.4162 19.1954C62.0752 23.9208 62.2457 28.7253 62.1661 33.4619C62.132 35.7229 61.9729 38.0064 62.0638 40.256C62.1207 41.6804 62.439 43.2066 63.7575 43.9866C65.2466 44.8797 67.2472 44.4388 68.8613 44.1562C70.9756 43.7831 73.0103 43.1387 74.9768 42.2909C75.8179 41.9291 75.0904 40.7195 74.2606 41.07C72.7034 41.737 71.0892 42.257 69.4297 42.6074C68.0656 42.9013 65.3148 43.6814 64.1667 42.517C63.1551 41.4996 63.4847 39.4534 63.5074 38.1647C63.5415 36.4124 63.5643 34.6715 63.5984 32.9193C63.6552 29.5053 63.7121 26.1026 63.7803 22.6886C63.7916 21.8181 63.8144 20.9363 63.8257 20.0659C63.8485 18.9919 63.9167 18.3023 65.0193 17.8162C66.5311 17.1493 68.4748 16.8666 70.0207 17.4884C70.8733 17.8275 71.237 16.4597 70.3959 16.1205L70.3845 16.1431Z" fill="white"/>
<path d="M62.9285 31.4271C65.6225 31.2801 68.2937 30.8619 70.8967 30.1949C71.7834 29.9688 71.4083 28.6009 70.5216 28.827C68.0323 29.4714 65.4974 29.867 62.9285 30.014C62.0191 30.0592 62.0077 31.4836 62.9285 31.4271Z" fill="white"/>
<path d="M89.1858 15.1144C86.776 15.3065 84.3662 15.5326 81.9791 15.8379C80.5696 16.0187 79.0919 16.5161 79.001 18.1779C78.9555 19.1614 79.251 20.1676 79.342 21.1511C79.4443 22.2702 79.4784 23.4007 79.467 24.5312C79.4557 26.9617 79.2397 29.3922 79.0464 31.8227C78.8532 34.2532 78.6259 36.6272 78.7964 39.0125C78.8987 40.4708 79.5352 41.703 81.0584 42.0195C82.8885 42.4039 85.196 41.6691 86.9465 41.2169C89.1631 40.6517 91.3001 39.8603 93.3802 38.922C94.21 38.549 93.4939 37.3281 92.6641 37.7011C89.4927 39.1368 85.6734 40.5612 82.1383 40.6743C80.9902 40.7082 80.3195 40.1769 80.2172 39.0012C80.1377 38.0742 80.1831 37.1246 80.2172 36.1976C80.2627 34.4115 80.4105 32.6253 80.5469 30.8392C80.8197 27.3008 81.0925 23.7285 80.6606 20.1789C80.5355 19.2067 79.9785 17.9744 81.1266 17.4205C81.7745 17.1153 82.718 17.1492 83.4114 17.0701C85.3324 16.8553 87.2534 16.6744 89.1858 16.5161C90.0952 16.437 90.0952 15.0239 89.1858 15.1031V15.1144Z" fill="white"/>
<path d="M81.3197 27.7078C83.9114 26.4643 86.7418 25.7521 89.6063 25.6164C90.5156 25.5712 90.527 24.1581 89.6063 24.2033C86.469 24.3503 83.4226 25.1303 80.6036 26.4869C79.7852 26.8825 80.5013 28.1035 81.3197 27.7078Z" fill="white"/>
<path d="M97.1318 13.6222C97.1546 19.3424 97.3478 25.0512 97.7457 30.7601C97.9275 33.3941 97.9503 36.1864 98.4618 38.7864C98.8028 40.55 100.019 41.2848 101.781 40.9683C105.987 40.2108 108.635 35.655 109.852 31.9584C111.216 27.8435 111.113 23.1634 109.022 19.3085C106.93 15.4536 102.986 12.5935 98.4959 12.1187C98.1321 12.0848 97.757 12.4691 97.7911 12.8196C97.8252 13.2944 97.8593 13.7579 97.8934 14.2326C97.9616 15.137 99.3825 15.137 99.3143 14.2326C99.2802 13.7579 99.2461 13.2944 99.212 12.8196L98.5073 13.5205C103.077 14.0066 106.987 17.398 108.533 21.6372C110.227 26.2835 109.181 31.6193 106.498 35.6777C105.794 36.7516 104.93 37.7803 103.872 38.5377C102.918 39.216 100.735 40.4369 99.9395 38.9221C99.4734 38.0403 99.6212 36.3672 99.5303 35.3611C99.4052 33.9141 99.2916 32.4671 99.1893 31.0201C98.7801 25.2321 98.5754 19.4215 98.5527 13.6109C98.5527 12.7065 97.1318 12.6952 97.1318 13.6109V13.6222Z" fill="white"/>
<path d="M122.298 9.00991C118.536 12.3222 116.126 16.8328 115.012 21.6712C114.444 24.1243 114.194 26.6565 114.228 29.1775C114.262 31.6984 114.387 34.3211 115.342 36.5708C117.217 41.0135 122.889 40.4935 125.663 37.2038C127.322 35.2368 128.073 32.7159 128.675 30.2627C129.403 27.2896 130.085 24.2826 130.267 21.219C130.448 18.1554 130.016 14.7301 128.573 11.8474C127.504 9.6995 125.367 7.26899 122.742 8.46729C121.912 8.85165 122.628 10.0612 123.458 9.68819C126.049 8.5125 127.834 13.4187 128.289 15.0805C128.925 17.4206 128.993 19.885 128.766 22.2816C128.516 24.8478 127.925 27.38 127.311 29.8897C126.822 31.8906 126.265 33.9368 125.072 35.6551C123.878 37.3734 121.798 38.696 119.582 38.3908C117.138 38.063 116.353 35.7003 116.012 33.5863C115.364 29.5731 115.524 25.3791 116.524 21.4338C117.638 17.0362 119.877 13.0231 123.299 10.0047C123.981 9.40558 122.98 8.39946 122.298 9.00991Z" fill="white"/>
<path d="M154.683 33.8124C155.49 28.6914 155.717 23.4912 155.285 18.3249C155.092 16.064 154.887 13.6787 154.308 11.4856C153.864 9.80121 152.785 8.0942 150.898 7.8568C148.829 7.6081 147.772 9.45077 147.033 11.056C146.112 13.0344 145.464 15.1257 144.975 17.251C143.827 22.1799 143.27 27.267 142.497 32.2749H143.873C142.861 27.2896 143.316 22.2138 143.123 17.1606C143.009 14.1422 141.815 9.46207 137.769 10.0838C133.722 10.7056 134.268 16.584 134.029 19.365C133.597 24.4295 133.336 29.5166 133.222 34.5924C133.199 35.4968 134.62 35.4968 134.643 34.5924C134.734 30.4436 134.927 26.2948 135.234 22.1459C135.393 20.032 135.575 17.918 135.791 15.8153C135.939 14.3344 136.132 11.6326 138.11 11.4517C140.088 11.2708 141.179 13.2831 141.508 14.9109C141.872 16.7649 141.759 18.7432 141.759 20.6198C141.759 24.6443 141.713 28.6687 142.52 32.6367C142.657 33.2924 143.782 33.3263 143.896 32.6367C144.509 28.6009 145.066 24.5425 145.782 20.5181C146.112 18.6528 146.51 16.7875 147.078 14.9788C147.397 13.95 147.76 12.9439 148.192 11.9717C148.556 11.1578 149.022 9.89165 149.852 9.42816C153.569 7.32548 153.944 18.5963 154.035 20.292C154.274 24.6782 154.035 29.087 153.353 33.428C153.217 34.3211 154.581 34.7055 154.728 33.8011L154.683 33.8124Z" fill="white"/>
<path d="M69.02 49.1641L219.906 12.6386C220.849 12.4125 221.793 12.989 222.02 13.916L229.954 46.3266C230.181 47.2649 229.602 48.2032 228.67 48.4293L77.7726 84.9434C76.8292 85.1695 75.8857 84.593 75.6584 83.666L71.6913 67.4664L67.7242 51.2667C67.4968 50.3284 68.0766 49.3902 69.0087 49.1641H69.02Z" fill="#020202"/>
<path d="M85.8775 52.2051C93.3911 50.385 97.3582 53.8782 98.3926 58.0948L93.2547 59.3384C92.675 56.9757 90.6403 55.4722 86.9346 56.3765C83.5814 57.1905 80.9897 60.0958 82.4106 65.8725C83.8201 71.6492 87.5598 73.4353 91.2655 72.5309C94.6187 71.717 96.608 69.3995 96.608 66.076L89.3331 67.8395L88.31 63.6681L100.552 60.7062L101.143 63.1367C102.678 69.3995 99.7566 74.8936 92.243 76.7137C84.7294 78.5337 78.8868 75.1197 76.943 67.1951C74.9993 59.2705 78.7049 53.946 85.8661 52.2164L85.8775 52.2051Z" fill="white"/>
<path d="M100.894 46.711L105.963 45.4788L109.51 59.9827C110.578 64.3689 113.386 64.7872 115.625 64.2445C117.864 63.7019 120.161 62.0401 119.092 57.6652L115.546 43.1613L120.615 41.9291L124.162 56.433C125.844 63.3176 122.025 67.082 116.603 68.3934C111.215 69.6934 106.122 68.0881 104.44 61.2036L100.894 46.6997V46.711Z" fill="white"/>
<path d="M131.335 39.3404L136.893 37.9951L151.466 59.4062L146.044 60.7176L143.259 56.3087L134.063 58.5357L133.631 63.7246L128.391 64.9907L131.335 39.3404ZM140.849 52.4764L135.279 43.6249L134.449 54.0252L140.849 52.4764Z" fill="white"/>
<path d="M149.521 37.3507L158.262 35.2367C165.151 33.5749 169.482 35.6889 170.732 40.7986C171.55 44.1335 170.493 46.9371 167.561 48.8928L174.506 56.2408L168.765 57.6313L162.525 51.0407L162.139 51.1311L158.467 52.0242L160.343 59.6775L155.273 60.9097L149.51 37.362L149.521 37.3507ZM161.093 46.9597C164.207 46.2023 166.094 44.7214 165.458 42.0761C164.764 39.2273 162.366 38.662 159.251 39.4195L155.614 40.3012L157.455 47.8528L161.093 46.971V46.9597Z" fill="white"/>
<path d="M173.085 31.6418L183.577 29.0983C190.749 27.3687 196.456 30.2514 198.308 37.8368C200.161 45.4223 196.228 50.9729 189.34 52.646L178.848 55.1895L173.085 31.6418ZM188.283 48.4858C191.397 47.7284 194.353 44.5518 193.034 39.1256C191.704 33.6993 187.93 32.4784 184.566 33.2923L179.178 34.5924L182.895 49.7859L188.283 48.4858Z" fill="white"/>
<path d="M207.459 40.4143C208.005 42.6413 210.369 43.6926 213.87 42.8448C216.53 42.2004 217.985 40.5951 217.599 39.0012C216.36 33.9254 203.106 41.703 200.639 31.6079C199.809 28.2052 202.367 24.0112 208.664 22.485C215.905 20.7328 219.406 24.452 220.247 27.9L214.962 29.1774C214.507 27.3347 212.961 25.8651 209.676 26.6565C207.232 27.2443 205.55 28.7252 205.948 30.3192C207.357 36.0959 220.52 27.9678 222.907 37.7124C223.828 41.4656 221.395 45.4449 214.893 47.0162C207.027 48.9154 203.106 45.4901 202.185 41.6917L207.471 40.4143H207.459Z" fill="white"/>
</g>
<defs>
<clipPath id="clip0_1302_2095">
<rect width="230" height="85" fill="white"/>
</clipPath>
</defs>
</svg>
