<?xml version="1.0" encoding="utf-8"?>
<!-- Generator: Adobe Illustrator 24.1.2, SVG Export Plug-In . SVG Version: 6.00 Build 0)  -->
<svg version="1.1" id="Layer_1" xmlns="http://www.w3.org/2000/svg" xmlns:xlink="http://www.w3.org/1999/xlink" x="0px" y="0px"
	 viewBox="0 0 142 53" style="enable-background:new 0 0 142 53;" xml:space="preserve">
<style type="text/css">
	.st0{clip-path:url(#SVGID_2_);}
	.st1{fill:#FFFFFF;}
	.st2{fill:#2FA341;}
	.st3{opacity:0;fill:#2FA341;}
</style>
<g>
	<defs>
		<rect id="SVGID_1_" width="142" height="53"/>
	</defs>
	<clipPath id="SVGID_2_">
		<use xlink:href="#SVGID_1_"  style="overflow:visible;"/>
	</clipPath>
	<g class="st0">
		<path class="st1" d="M102.3,0L1,9.7c-0.6,0.1-1.1,0.6-1,1.2l2.2,23.7c0.1,0.6,0.6,1.1,1.2,1L104.8,26c0.6-0.1,1.1-0.6,1-1.2
			L103.6,1C103.5,0.4,102.9-0.1,102.3,0z"/>
		<path class="st2" d="M13.5,13.4c0.2,6.1,0.3,12.3,0.2,18.4c0,0.6,0.9,0.6,0.9,0c0.1-6.1,0-12.3-0.2-18.4
			C14.4,12.9,13.5,12.9,13.5,13.4z"/>
		<path class="st2" d="M11.5,14.2c2.9-0.8,5.8-1.3,8.8-1.4c0.6,0,0.6-0.9,0-0.9c-3.1,0.1-6.1,0.5-9,1.4
			C10.7,13.5,10.9,14.3,11.5,14.2z"/>
		<path class="st2" d="M14.1,21.7c2.1-1,4.4-1.7,6.6-2.2c0.5-0.1,0.3-1-0.2-0.9c-2.4,0.5-4.6,1.3-6.8,2.3
			C13.1,21.2,13.6,22,14.1,21.7z"/>
		<path class="st2" d="M23.9,26.9c-0.3-2.9-0.2-5.9,0.1-8.8c0.2-1.4,0.4-2.8,0.8-4.2c0.1-0.6,0.2-1.8,0.9-2c0.6-0.1,1.3,0,1.9,0.1
			c1.4,0.1,2.8,0.6,3.7,1.7c0.7,1,0.6,2.3-0.1,3.3c-1.5,2.3-4.5,3.3-7.1,3.5l0.1,0.9c2.1-0.7,4.2,0.3,6,1.4c1.9,1.1,3.7,2.4,5.6,3.5
			c0.5,0.3,0.9-0.5,0.4-0.8c-2.1-1.3-4.1-2.7-6.3-3.9c-1.8-1-3.9-1.7-6-1.1c-0.4,0.1-0.4,0.9,0.1,0.9c2.4-0.2,4.9-1,6.7-2.6
			c1.5-1.4,2.6-3.6,1.3-5.5c-1.4-2.1-4-2.3-6.3-2.3c-1.2,0-1.4,0.7-1.6,1.7c-0.4,1.4-0.7,2.9-0.9,4.3c-0.5,3.2-0.6,6.5-0.3,9.7
			C23.1,27.5,24,27.5,23.9,26.9z"/>
		<path class="st2" d="M43.5,10.1c-1.2-0.5-2.4-0.2-3.6,0.2C39,10.6,38.6,11,38.5,12c-0.2,2.9-0.1,5.9-0.2,8.9
			c0,1.4-0.1,2.8-0.1,4.2c0,0.9,0.2,1.8,1,2.3c0.9,0.6,2.2,0.3,3.2,0.1c1.3-0.2,2.6-0.6,3.8-1.2c0.5-0.2,0.1-1-0.4-0.8
			c-1,0.4-2,0.7-3,1c-0.8,0.2-2.5,0.7-3.2-0.1c-0.6-0.6-0.4-1.9-0.4-2.7c0-1.1,0-2.2,0.1-3.3c0-2.1,0.1-4.3,0.1-6.4
			c0-0.5,0-1.1,0-1.6c0-0.7,0.1-1.1,0.7-1.4c0.9-0.4,2.1-0.6,3.1-0.2C43.8,11.1,44,10.3,43.5,10.1L43.5,10.1z"/>
		<path class="st2" d="M38.9,19.6c1.7-0.1,3.3-0.4,4.9-0.8c0.5-0.1,0.3-1-0.2-0.9c-1.5,0.4-3.1,0.6-4.7,0.7
			C38.3,18.7,38.3,19.6,38.9,19.6z"/>
		<path class="st2" d="M55.1,9.4c-1.5,0.1-3,0.3-4.4,0.5c-0.9,0.1-1.8,0.4-1.8,1.5c0,0.6,0.2,1.2,0.2,1.9c0.1,0.7,0.1,1.4,0.1,2.1
			c0,1.5-0.1,3-0.3,4.5c-0.1,1.5-0.3,3-0.2,4.5c0.1,0.9,0.5,1.7,1.4,1.9c1.1,0.2,2.6-0.2,3.6-0.5c1.4-0.4,2.7-0.8,4-1.4
			c0.5-0.2,0.1-1-0.4-0.8c-2,0.9-4.3,1.8-6.5,1.9c-0.7,0-1.1-0.3-1.2-1c0-0.6,0-1.2,0-1.7c0-1.1,0.1-2.2,0.2-3.3
			c0.2-2.2,0.3-4.4,0.1-6.6c-0.1-0.6-0.4-1.4,0.3-1.7c0.4-0.2,1-0.2,1.4-0.2c1.2-0.1,2.4-0.2,3.6-0.3C55.6,10.2,55.6,9.4,55.1,9.4
			L55.1,9.4z"/>
		<path class="st2" d="M50.2,17.3c1.6-0.8,3.3-1.2,5.1-1.3c0.6,0,0.6-0.9,0-0.9c-1.9,0.1-3.8,0.6-5.6,1.4
			C49.3,16.8,49.7,17.5,50.2,17.3z"/>
		<path class="st2" d="M60,8.5c0,3.6,0.1,7.1,0.4,10.7c0.1,1.6,0.1,3.4,0.4,5c0.2,1.1,1,1.6,2,1.4c2.6-0.5,4.2-3.3,5-5.6
			c0.8-2.6,0.8-5.5-0.5-7.9c-1.3-2.4-3.7-4.2-6.5-4.5c-0.2,0-0.5,0.2-0.4,0.4c0,0.3,0,0.6,0.1,0.9c0,0.6,0.9,0.6,0.9,0
			c0-0.3,0-0.6-0.1-0.9l-0.4,0.4c2.8,0.3,5.2,2.4,6.2,5.1c1,2.9,0.4,6.2-1.3,8.8c-0.4,0.7-1,1.3-1.6,1.8c-0.6,0.4-1.9,1.2-2.4,0.2
			c-0.3-0.5-0.2-1.6-0.3-2.2c-0.1-0.9-0.1-1.8-0.2-2.7c-0.3-3.6-0.4-7.2-0.4-10.9C60.8,7.9,60,7.9,60,8.5L60,8.5z"/>
		<path class="st2" d="M75.5,5.6c-2.3,2.1-3.8,4.9-4.5,7.9c-0.4,1.5-0.5,3.1-0.5,4.7c0,1.6,0.1,3.2,0.7,4.6c1.2,2.8,4.7,2.4,6.4,0.4
			c1-1.2,1.5-2.8,1.9-4.3c0.4-1.9,0.9-3.7,1-5.6c0.1-1.9-0.2-4-1-5.8c-0.7-1.3-2-2.9-3.6-2.1c-0.5,0.2-0.1,1,0.4,0.8
			c1.6-0.7,2.7,2.3,3,3.4c0.4,1.5,0.4,3,0.3,4.5c-0.2,1.6-0.5,3.2-0.9,4.7c-0.3,1.2-0.6,2.5-1.4,3.6c-0.7,1.1-2,1.9-3.4,1.7
			c-1.5-0.2-2-1.7-2.2-3c-0.4-2.5-0.3-5.1,0.3-7.6c0.7-2.7,2.1-5.2,4.2-7.1C76.5,5.9,75.9,5.2,75.5,5.6z"/>
		<path class="st2" d="M95.5,21.1c0.5-3.2,0.6-6.4,0.4-9.7c-0.1-1.4-0.2-2.9-0.6-4.3C95,6.1,94.3,5,93.2,4.9c-1.3-0.2-1.9,1-2.4,2
			c-0.6,1.2-1,2.5-1.3,3.9c-0.7,3.1-1.1,6.2-1.5,9.4h0.8c-0.6-3.1-0.3-6.3-0.5-9.4c-0.1-1.9-0.8-4.8-3.3-4.4
			c-2.5,0.4-2.2,4.1-2.3,5.8c-0.3,3.2-0.4,6.3-0.5,9.5c0,0.6,0.9,0.6,0.9,0c0.1-2.6,0.2-5.2,0.4-7.8c0.1-1.3,0.2-2.6,0.3-3.9
			c0.1-0.9,0.2-2.6,1.4-2.7s1.9,1.1,2.1,2.2c0.2,1.2,0.2,2.4,0.2,3.6c0,2.5,0,5,0.5,7.5c0.1,0.4,0.8,0.4,0.8,0
			c0.4-2.5,0.7-5,1.2-7.6c0.2-1.2,0.4-2.3,0.8-3.5c0.2-0.6,0.4-1.3,0.7-1.9c0.2-0.5,0.5-1.3,1-1.6c2.3-1.3,2.5,5.7,2.6,6.8
			c0.1,2.7,0,5.5-0.4,8.2C94.6,21.4,95.4,21.6,95.5,21.1L95.5,21.1z"/>
		<path class="st1" d="M42.6,30.7l93.2-22.8c0.6-0.1,1.2,0.2,1.3,0.8l4.9,20.2c0.1,0.6-0.2,1.2-0.8,1.3L48,53
			c-0.6,0.1-1.2-0.2-1.3-0.8l-2.4-10.1L41.8,32C41.7,31.4,42,30.8,42.6,30.7L42.6,30.7z"/>
		<path class="st3" d="M53,32.6c4.6-1.1,7.1,1,7.7,3.7L57.6,37c-0.4-1.5-1.6-2.4-3.9-1.8c-2.1,0.5-3.7,2.3-2.8,5.9
			c0.9,3.6,3.2,4.7,5.5,4.2c2.1-0.5,3.3-2,3.3-4l-4.5,1.1l-0.6-2.6l7.6-1.8l0.4,1.5c0.9,3.9-0.9,7.3-5.5,8.5c-4.6,1.1-8.2-1-9.4-5.9
			C46.3,37,48.6,33.6,53,32.6L53,32.6z"/>
		<path class="st3" d="M62.3,29.1l3.1-0.8l2.2,9c0.7,2.7,2.4,3,3.8,2.7c1.4-0.3,2.8-1.4,2.1-4.1l-2.2-9l3.1-0.8l2.2,9
			c1,4.3-1.3,6.6-4.7,7.5c-3.3,0.8-6.5-0.2-7.5-4.5L62.3,29.1L62.3,29.1z"/>
		<path class="st2" d="M81.1,24.5l3.4-0.8l9,13.4l-3.3,0.8l-1.7-2.7l-5.7,1.4l-0.3,3.2l-3.2,0.8L81.1,24.5z M87,32.7l-3.4-5.5
			L83,33.7L87,32.7z"/>
		<path class="st2" d="M92.3,23.3l5.4-1.3c4.3-1,6.9,0.3,7.7,3.5c0.5,2.1-0.1,3.8-2,5l4.3,4.6l-3.5,0.9l-3.9-4.1l-0.2,0.1l-2.3,0.6
			l1.2,4.8L95.9,38L92.3,23.3L92.3,23.3z M99.5,29.3c1.9-0.5,3.1-1.4,2.7-3c-0.4-1.8-1.9-2.1-3.8-1.7l-2.2,0.5l1.1,4.7L99.5,29.3
			L99.5,29.3z"/>
		<path class="st2" d="M106.9,19.7l6.5-1.6c4.4-1.1,8,0.7,9.1,5.4c1.1,4.7-1.3,8.2-5.5,9.2l-6.5,1.6L106.9,19.7z M116.2,30.2
			c1.9-0.5,3.7-2.5,2.9-5.8c-0.8-3.4-3.2-4.1-5.2-3.6l-3.3,0.8l2.3,9.5L116.2,30.2z"/>
		<path class="st2" d="M128.1,25.2c0.3,1.4,1.8,2,4,1.5c1.6-0.4,2.5-1.4,2.3-2.4c-0.8-3.2-8.9,1.7-10.5-4.6c-0.5-2.1,1.1-4.7,5-5.7
			c4.5-1.1,6.6,1.2,7.2,3.4l-3.3,0.8c-0.3-1.1-1.2-2.1-3.3-1.6c-1.5,0.4-2.5,1.3-2.3,2.3c0.9,3.6,9-1.5,10.5,4.6
			c0.6,2.3-0.9,4.8-4.9,5.8c-4.9,1.2-7.3-1-7.8-3.3L128.1,25.2L128.1,25.2z"/>
	</g>
</g>
</svg>
