<svg width="142" height="53" viewBox="0 0 142 53" fill="none" xmlns="http://www.w3.org/2000/svg">
<g clip-path="url(#clip0_1501_1203)">
<path d="M102.327 0.000897384L1.02229 9.65501C0.401064 9.71421 -0.0547572 10.268 0.00418473 10.892L2.24273 34.5894C2.30167 35.2134 2.85306 35.6712 3.47429 35.612L104.779 25.9579C105.4 25.8987 105.856 25.3449 105.797 24.7209L103.558 1.02349C103.499 0.399525 102.948 -0.0583048 102.327 0.000897384Z" fill="white"/>
<path d="M13.5023 13.449C13.7409 19.5674 13.8041 25.6998 13.6988 31.8253C13.6918 32.3892 14.569 32.3892 14.5761 31.8253C14.6813 25.6998 14.6182 19.5744 14.3796 13.449C14.3585 12.8851 13.4813 12.8781 13.5023 13.449Z" fill="#2B286F"/>
<path d="M11.4601 14.1823C14.3163 13.3365 17.2638 12.8713 20.2394 12.8149C20.8009 12.8008 20.8079 11.9197 20.2394 11.9338C17.1867 11.9902 14.1549 12.4624 11.2285 13.3294C10.6881 13.4915 10.9197 14.3374 11.4601 14.1823Z" fill="#2B286F"/>
<path d="M14.0633 21.7174C16.1898 20.7588 18.4215 20.0257 20.6952 19.5182C21.2426 19.3984 21.0111 18.5455 20.4637 18.6653C18.1056 19.1869 15.8178 19.9623 13.6212 20.9562C13.1089 21.1888 13.551 21.9501 14.0633 21.7174Z" fill="#2B286F"/>
<path d="M23.9239 26.9404C23.6713 24.0222 23.7063 21.0829 24.0643 18.1788C24.2397 16.769 24.4923 15.3592 24.8152 13.9777C24.9555 13.3856 25.0187 12.1591 25.6784 12.0181C26.2538 11.8983 27.0258 12.0251 27.6013 12.0815C28.9627 12.2084 30.4295 12.6384 31.2646 13.8155C32.0085 14.8588 31.819 16.1276 31.1523 17.1496C29.6715 19.4123 26.6117 20.4555 24.0572 20.667L24.1765 21.534C26.2889 20.8362 28.3732 21.8371 30.1698 22.9156C32.0576 24.0434 33.8963 25.2699 35.7561 26.447C36.2333 26.7501 36.6754 25.9888 36.1982 25.6857C34.1139 24.3606 32.0647 22.9367 29.9031 21.7455C28.0785 20.7375 26.0082 20.0044 23.945 20.6881C23.5028 20.8362 23.5449 21.5974 24.0643 21.5551C26.4503 21.3507 28.9417 20.5472 30.7593 18.933C32.2822 17.5796 33.3209 15.3663 32.0927 13.4702C30.7383 11.3767 28.0855 11.144 25.8257 11.144C24.6257 11.144 24.4573 11.8348 24.1836 12.8921C23.8186 14.309 23.5309 15.7469 23.3204 17.1919C22.8502 20.4203 22.7589 23.6909 23.0467 26.9404C23.0958 27.5043 23.973 27.5043 23.9239 26.9404Z" fill="#2B286F"/>
<path d="M43.455 10.0658C42.297 9.59353 41.0478 9.87549 39.9039 10.2702C39.0407 10.5663 38.5986 11.0244 38.5354 11.969C38.3249 14.9154 38.4302 17.9111 38.381 20.8646C38.36 22.2743 38.2617 23.6982 38.3179 25.1009C38.353 25.9891 38.5495 26.9407 39.3636 27.427C40.2829 27.9839 41.518 27.709 42.5146 27.5328C43.8199 27.3001 45.0761 26.8984 46.2902 26.3697C46.8095 26.1441 46.3604 25.3899 45.8481 25.6084C44.8866 26.0243 43.8901 26.3486 42.8655 26.5671C42.0233 26.7503 40.325 27.2367 39.6162 26.5107C38.9916 25.8763 39.1951 24.6004 39.2092 23.7969C39.2302 22.7043 39.2442 21.6188 39.2653 20.5262C39.3004 18.3975 39.3355 16.2758 39.3776 14.1471C39.3846 13.6043 39.3986 13.0545 39.4057 12.5117C39.4197 11.8421 39.4618 11.4121 40.1425 11.109C41.0759 10.6931 42.276 10.5169 43.2304 10.9046C43.7568 11.1161 43.9813 10.2632 43.462 10.0517L43.455 10.0658Z" fill="#2B286F"/>
<path d="M38.8505 19.5959C40.5137 19.5042 42.1629 19.2434 43.77 18.8276C44.3174 18.6866 44.0858 17.8337 43.5384 17.9747C42.0015 18.3764 40.4365 18.6231 38.8505 18.7148C38.289 18.743 38.282 19.6311 38.8505 19.5959Z" fill="#2B286F"/>
<path d="M55.0618 9.42408C53.574 9.54391 52.0862 9.68489 50.6124 9.87521C49.7422 9.98799 48.8299 10.2981 48.7737 11.3343C48.7457 11.9476 48.9281 12.5749 48.9843 13.1881C49.0474 13.886 49.0685 14.5909 49.0615 15.2957C49.0545 16.8112 48.9211 18.3267 48.8018 19.8422C48.6825 21.3577 48.5421 22.838 48.6474 24.3253C48.7106 25.2346 49.1036 26.0029 50.044 26.2003C51.1739 26.4399 52.5985 25.9817 53.6792 25.6998C55.0477 25.3473 56.3671 24.8539 57.6514 24.2689C58.1637 24.0363 57.7215 23.275 57.2092 23.5076C55.2513 24.4028 52.8932 25.291 50.7107 25.3614C50.0019 25.3826 49.5878 25.0513 49.5247 24.3182C49.4755 23.7402 49.5036 23.1481 49.5247 22.5701C49.5527 21.4564 49.644 20.3427 49.7282 19.229C49.8966 17.0227 50.065 14.7953 49.7984 12.582C49.7212 11.9758 49.3773 11.2074 50.0861 10.862C50.4861 10.6717 51.0686 10.6929 51.4967 10.6435C52.6827 10.5096 53.8687 10.3968 55.0618 10.2981C55.6232 10.2488 55.6232 9.36769 55.0618 9.41704V9.42408Z" fill="#2B286F"/>
<path d="M50.2063 17.2766C51.8064 16.5012 53.5538 16.0572 55.3223 15.9726C55.8837 15.9444 55.8908 15.0633 55.3223 15.0915C53.3854 15.1831 51.5046 15.6695 49.7641 16.5153C49.2589 16.7621 49.701 17.5233 50.2063 17.2766Z" fill="#2B286F"/>
<path d="M59.9678 8.49397C59.9818 12.0607 60.1011 15.6203 60.3467 19.18C60.459 20.8223 60.4731 22.5634 60.7889 24.1846C60.9994 25.2842 61.7503 25.7424 62.8381 25.545C65.4347 25.0728 67.0699 22.2321 67.8208 19.9271C68.6629 17.3614 68.5998 14.4432 67.3085 12.0395C66.0172 9.63588 63.582 7.85253 60.8099 7.55648C60.5854 7.53533 60.3538 7.77499 60.3748 7.99351C60.3959 8.28956 60.4169 8.57856 60.438 8.87461C60.4801 9.43851 61.3573 9.43851 61.3152 8.87461C61.2942 8.57856 61.2731 8.28956 61.252 7.99351L60.8169 8.43053C63.6381 8.73363 66.0523 10.8483 67.0067 13.4916C68.0524 16.3886 67.4067 19.7157 65.7505 22.2462C65.3154 22.9158 64.782 23.5573 64.1294 24.0295C63.5399 24.4525 62.1924 25.2137 61.7012 24.2692C61.4135 23.7194 61.5047 22.6762 61.4485 22.0488C61.3714 21.1466 61.3012 20.2443 61.238 19.3421C60.9854 15.7331 60.859 12.11 60.845 8.48692C60.845 7.92302 59.9678 7.91597 59.9678 8.48692V8.49397Z" fill="#2B286F"/>
<path d="M75.5051 5.61771C73.1822 7.68301 71.6944 10.4955 71.0066 13.5124C70.6557 15.042 70.5013 16.6209 70.5224 18.1928C70.5435 19.7647 70.6207 21.4 71.2102 22.8027C72.3681 25.5729 75.87 25.2486 77.5824 23.1974C78.607 21.9709 79.0702 20.3991 79.4421 18.8695C79.8913 17.0156 80.3124 15.1406 80.4246 13.2304C80.5369 11.3202 80.2703 9.18441 79.379 7.38696C78.7193 6.04768 77.3999 4.53219 75.7788 5.27936C75.2665 5.51902 75.7086 6.27325 76.2209 6.04064C77.821 5.30756 78.9228 8.36674 79.2035 9.40292C79.5965 10.862 79.6386 12.3987 79.4983 13.893C79.3439 15.4931 78.979 17.072 78.6 18.6369C78.2982 19.8845 77.9543 21.1603 77.2175 22.2318C76.4806 23.3032 75.1963 24.1279 73.8278 23.9376C72.319 23.7331 71.8347 22.2599 71.6242 20.9418C71.2242 18.4395 71.3224 15.8244 71.94 13.3643C72.6278 10.6224 74.0103 8.12004 76.1227 6.238C76.5438 5.86442 75.9262 5.23707 75.5051 5.61771Z" fill="#2B286F"/>
<path d="M95.499 21.083C95.9972 17.8899 96.1376 14.6474 95.8709 11.4261C95.7516 10.0164 95.6253 8.52905 95.2674 7.16159C94.9937 6.11131 94.327 5.04694 93.162 4.89892C91.8848 4.74384 91.2321 5.8928 90.7759 6.89373C90.2075 8.12727 89.8075 9.4313 89.5057 10.7565C88.7969 13.8298 88.453 17.0017 87.9758 20.1243H88.825C88.2004 17.0158 88.4811 13.8509 88.3618 10.7001C88.2916 8.81806 87.5547 5.89985 85.0563 6.28753C82.558 6.67522 82.8948 10.3406 82.7475 12.0746C82.4808 15.2325 82.3194 18.4044 82.2492 21.5694C82.2352 22.1333 83.1124 22.1333 83.1264 21.5694C83.1826 18.9824 83.3019 16.3955 83.4914 13.8086C83.5896 12.4905 83.7019 11.1724 83.8352 9.86128C83.9265 8.93789 84.0458 7.25322 85.2669 7.14044C86.488 7.02766 87.1617 8.28235 87.3652 9.29737C87.5898 10.4534 87.5196 11.6869 87.5196 12.857C87.5196 15.3664 87.4916 17.8758 87.9898 20.3499C88.074 20.7587 88.7688 20.7799 88.839 20.3499C89.218 17.8335 89.5618 15.303 90.004 12.7936C90.2075 11.6305 90.4531 10.4675 90.804 9.33967C91.0005 8.69823 91.2251 8.07088 91.4918 7.46468C91.7163 6.95717 92.0041 6.1677 92.5164 5.8787C94.8112 4.56762 95.0428 11.5953 95.0989 12.6526C95.2463 15.3875 95.099 18.1366 94.6779 20.8433C94.5937 21.4002 95.4358 21.6398 95.527 21.0759L95.499 21.083Z" fill="#2B286F"/>
<path d="M42.6128 30.6554L135.768 7.88072C136.351 7.73974 136.933 8.09923 137.074 8.67724L141.972 28.8862C142.112 29.4712 141.754 30.0563 141.179 30.1973L48.0165 52.9649C47.434 53.1059 46.8516 52.7464 46.7112 52.1684L44.262 42.0674L41.8127 31.9665C41.6724 31.3814 42.0303 30.7964 42.6057 30.6554H42.6128Z" fill="white"/>
<path d="M53.0205 32.5515C57.6593 31.4166 60.1086 33.5947 60.7472 36.2239L57.5751 36.9993C57.2172 35.5261 55.961 34.5886 53.6732 35.1525C51.6029 35.66 50.0028 37.4715 50.88 41.0735C51.7503 44.6754 54.0591 45.7891 56.347 45.2252C58.4173 44.7177 59.6454 43.2727 59.6454 41.2004L55.1539 42.3L54.5223 39.699L62.0806 37.8522L62.4455 39.3677C63.3929 43.2727 61.5893 46.6984 56.9505 47.8333C52.3117 48.9682 48.7045 46.8394 47.5044 41.8982C46.3044 36.957 48.5922 33.637 53.0135 32.5585L53.0205 32.5515Z" fill="#2B286F"/>
<path d="M62.291 29.1257L65.421 28.3574L67.6106 37.401C68.2703 40.1359 70.0037 40.3967 71.3862 40.0584C72.7687 39.7201 74.1863 38.6839 73.5267 35.956L71.3371 26.9124L74.4671 26.144L76.6566 35.1877C77.6953 39.4804 75.3373 41.8276 71.9897 42.6453C68.6633 43.4559 65.5192 42.455 64.4806 38.1623L62.291 29.1186V29.1257Z" fill="#2B286F"/>
<path d="M81.0842 24.5297L84.516 23.6909L93.5129 37.0414L90.1654 37.859L88.446 35.11L82.7685 36.4986L82.5018 39.734L79.2666 40.5235L81.0842 24.5297ZM86.9582 32.7204L83.5194 27.2012L83.0071 33.6861L86.9582 32.7204Z" fill="#2B286F"/>
<path d="M92.3137 23.2891L97.7104 21.9709C101.963 20.9348 104.637 22.2529 105.409 25.4389C105.914 27.5183 105.262 29.2665 103.451 30.4859L107.739 35.0676L104.195 35.9346L100.342 31.8252L100.104 31.8816L97.8367 32.4384L98.9947 37.2105L95.8647 37.9788L92.3066 23.2961L92.3137 23.2891ZM99.4579 29.2806C101.381 28.8083 102.546 27.8849 102.153 26.2355C101.725 24.4592 100.244 24.1067 98.321 24.579L96.0752 25.1288L97.2122 29.8374L99.4579 29.2876V29.2806Z" fill="#2B286F"/>
<path d="M106.861 19.7298L113.339 18.1438C117.767 17.0653 121.29 18.8627 122.434 23.5925C123.578 28.3222 121.15 31.7832 116.897 32.8264L110.419 34.4124L106.861 19.7298ZM116.244 30.2325C118.167 29.7602 119.992 27.7795 119.178 24.3961C118.357 21.0126 116.027 20.2514 113.949 20.7589L110.623 21.5695L112.918 31.0431L116.244 30.2325Z" fill="#2B286F"/>
<path d="M128.084 25.1995C128.421 26.5881 129.88 27.2437 132.042 26.715C133.684 26.3132 134.582 25.3123 134.344 24.3184C133.579 21.1535 125.396 26.0031 123.873 19.7085C123.361 17.5868 124.94 14.9717 128.828 14.0201C133.298 12.9275 135.46 15.2466 135.979 17.3965L132.716 18.193C132.435 17.044 131.48 16.1277 129.452 16.6211C127.943 16.9876 126.905 17.911 127.15 18.9049C128.021 22.5069 136.147 17.4388 137.621 23.5148C138.19 25.855 136.688 28.3362 132.673 29.316C127.817 30.5002 125.396 28.3644 124.827 25.996L128.091 25.1995H128.084Z" fill="#2B286F"/>
</g>
<defs>
<clipPath id="clip0_1501_1203">
<rect width="142" height="53" fill="white"/>
</clipPath>
</defs>
</svg>
