<svg width="49" height="31" viewBox="0 0 49 31" fill="none" xmlns="http://www.w3.org/2000/svg">
<g clip-path="url(#clip0_268_622)">
<path d="M37.549 24.9758C36.3703 24.9319 34.7185 24.9075 32.2311 24.9977C31.0793 25.0415 30.8073 24.5689 30.4225 22.5638C30.2534 21.694 29.5844 22.1569 28.636 21.8889C27.7758 21.5527 27.6165 19.5013 27.6165 19.5013C27.6067 19.0408 27.3567 19.0286 27.2097 19.0969C23.84 20.5148 20.2768 18.3659 20.1959 18.7363C19.5759 20.4295 17.8776 20.3004 17.6619 19.8619C17.7085 20.6244 16.5321 21.2555 16.1694 21.0752C14.8681 20.3906 14.8461 19.8935 13.9418 19.5792C12.29 18.8703 12.6405 18.1004 11.0574 18.0151C9.9031 17.9542 9.51834 17.7642 9.24632 17.5205C8.04794 16.3535 9.08702 14.7991 9.81242 14.2802C9.54285 13.0669 11.3073 11.588 11.7141 10.5745C11.1701 10.5648 10.3442 10.4381 9.06742 10.0068C8.40084 9.78025 8.56013 10.1116 7.39362 9.99465C5.82029 9.85578 5.21988 9.69254 4.72239 9.4684C4.43076 9.3344 2.91135 9.36851 2.12224 9.09563C-0.389694 8.73505 0.00486374 6.4863 0.0636787 6.27191C0.0857353 6.18176 0.110241 6.18176 0.57832 6.18176C1.21304 6.22805 2.3477 5.89914 3.2765 6.04776C3.63675 6.09162 4.2053 5.93325 5.08509 6.04776C6.18544 5.85529 6.98926 6.14522 8.2685 5.69449C8.45965 5.63845 8.42044 5.81874 8.84441 5.77976C9.06987 5.7554 9.04291 5.57755 9.70949 5.65551C10.4741 5.74322 11.447 5.66525 12.3734 5.66525C13.3022 5.66525 14.0251 5.47766 16.2871 5.28762C17.2134 5.20722 17.9413 4.7906 18.6177 5.12682C19.6494 5.63845 23.2347 7.19528 27.0798 9.08589C27.1607 9.12487 27.4989 9.31491 27.7145 8.81545C28.1458 8.0212 28.3934 8.25266 29.9103 8.29895C30.9935 8.25509 30.1897 7.42917 31.3807 7.45354C33.2138 7.49252 33.9319 7.64357 36.608 7.58997C37.6863 7.57048 37.9804 7.5315 38 8.29408V24.4787C38.0024 24.7273 37.8872 24.9758 37.549 24.9758Z" fill="black"/>
<path d="M0.60051 6.72997C0.534342 7.44626 1.8675 7.27084 2.39929 7.16364C2.71543 7.10273 2.95314 6.60328 2.63701 6.48877L0.669128 6.66906C0.63972 6.66662 0.595608 6.71535 0.60051 6.72997Z" fill="white"/>
<path d="M11.2067 15.0793C11.9763 15.1963 11.9076 15.5106 12.3193 15.4545C12.8658 15.379 12.3757 15.1719 14.2456 15.2182C14.7872 15.2182 15.0813 15.1817 15.4439 15.4083C15.6253 15.2596 16.0542 15.0574 16.3482 15.3157C17.0271 15.1792 16.7869 15.1013 17.9338 15.362C19.4802 15.7128 19.7865 15.0842 20.5046 14.7334C20.6957 14.6457 20.8232 14.5775 21.1981 14.6359C24.0507 14.9795 22.8155 14.9697 26.7685 14.7334C28.1359 14.4751 28.6677 13.7418 28.6089 11.8975C28.4962 9.80709 28.0453 10.097 26.891 9.60244C22.2078 7.53641 19.0636 5.76031 17.8407 5.85046C14.3779 5.89675 15.0126 6.52533 10.4421 6.38889C8.9938 6.2086 9.03791 6.94925 8.49631 6.86154C8.08705 6.63496 8.42279 6.42056 7.02346 6.54725C4.18314 6.80551 3.61704 6.32311 3.35727 6.7714C3.00928 7.37074 3.01908 7.74594 1.17373 7.59245C1.02179 7.5827 0.975225 7.57783 0.88455 7.56077C0.65909 7.50717 0.646835 7.64117 0.867393 7.80685C1.04874 7.94572 2.54855 8.66931 4.30568 8.39157C5.3031 8.23321 4.78111 8.61815 6.43286 8.61815C7.1558 8.56942 7.60672 8.56942 7.83463 8.52313C8.55758 8.796 9.96181 8.81549 10.4176 8.70586C10.9715 8.56699 11.2313 8.38913 11.7287 8.65713C12.2238 8.92757 13.3143 9.30033 14.9391 9.10786C16.8408 8.88371 16.7379 8.51826 16.9315 8.65713C17.3726 8.99091 16.4683 9.60974 17.4069 10.3212C17.8897 10.689 18.4044 9.21993 18.8798 9.24186C19.1641 9.28084 19.218 9.53909 19.0832 9.85094C19.0195 9.99712 18.4534 10.8304 18.9239 11.1763C19.6934 11.7416 21.0731 10.0532 22.1392 10.75C22.3867 10.94 22.122 11.2104 21.823 11.1763C21.3084 11.1154 20.4409 11.6076 20.0806 11.9194C19.6052 12.3458 18.2475 12.9987 17.7476 13.2009C15.9831 13.9196 15.3974 13.3812 15.0788 13.8319C14.8092 14.1682 14.2578 13.6614 13.6305 13.5615C12.4468 13.369 9.72655 14.3387 9.98632 14.9356C10.0843 15.1329 10.2706 15.1183 10.5132 15.072C10.7705 15.0331 10.8661 15.0282 11.2067 15.0793Z" fill="white"/>
<path d="M11.8687 16.5337C11.5967 15.9466 11.5672 15.8686 10.9962 15.7468C10.4963 15.6372 9.04797 16.0611 9.24157 16.6702C9.39106 16.8602 9.99883 16.8724 10.3836 16.9601C10.7928 17.0551 12.0598 17.1964 11.8687 16.5337Z" fill="white"/>
<path d="M29.6677 21.2945C29.0869 21.2653 29.0183 20.9144 28.9252 20.5368C28.7953 19.9959 29.1972 17.7472 29.2437 14.9137C29.2879 12.0802 29.1972 11.2689 29.0599 9.74132C29.0281 9.36612 28.7218 8.89347 29.2437 8.86667C30.9372 8.77165 31.4591 8.64008 31.7336 9.96546C32.0498 11.5174 32.0939 17.5523 31.6871 20.7195C31.5474 20.968 31.8929 21.4626 29.6677 21.2945Z" fill="white"/>
</g>
<defs>
<clipPath id="clip0_268_622">
<rect width="38" height="20" fill="white" transform="matrix(-1 0 0 1 38 5)"/>
</clipPath>
</defs>
</svg>
