<svg width="93" height="76" viewBox="0 0 93 76" fill="none" xmlns="http://www.w3.org/2000/svg">
<path d="M25.3955 44.8562H28.9704C29.2793 44.8562 29.529 45.102 29.529 45.406C29.529 45.71 29.2793 45.9558 28.9704 45.9558H26.0133V52.1005C26.0133 52.4368 25.7373 52.7085 25.3955 52.7085C25.0538 52.7085 24.7778 52.4368 24.7778 52.1005V45.4642C24.7844 45.1279 25.0538 44.8562 25.3955 44.8562Z" fill="black"/>
<path d="M67.0454 48.0321V52.1328C67.0454 52.4562 66.7759 52.7214 66.4474 52.7214C66.1188 52.7214 65.8494 52.4562 65.8494 52.1328V51.8482C65.4879 52.3204 64.9425 52.7473 64.0882 52.7473C62.8462 52.7473 61.6699 51.79 61.6699 50.0954C61.6699 48.3813 62.8594 47.4241 64.0882 47.4241C64.9228 47.4241 65.4682 47.851 65.8494 48.3814V48.0321C65.8494 47.7087 66.1188 47.4435 66.4474 47.4435C66.7825 47.4435 67.0454 47.7087 67.0454 48.0321ZM64.3708 51.7318C65.1791 51.7318 65.8888 51.085 65.8888 50.0954C65.8888 49.0993 65.1791 48.4396 64.3708 48.4396C63.5625 48.4396 62.8856 49.0864 62.8856 50.076C62.8856 51.1044 63.5559 51.7318 64.3708 51.7318Z" fill="black"/>
<path d="M54.0336 48.0321V52.1328C54.0336 52.4562 53.7642 52.7214 53.4356 52.7214C53.1071 52.7214 52.8376 52.4562 52.8376 52.1328V51.8482C52.4762 52.3204 51.9308 52.7473 51.0765 52.7473C49.8345 52.7473 48.6582 51.79 48.6582 50.0954C48.6582 48.3813 49.8476 47.4241 51.0765 47.4241C51.9111 47.4241 52.4565 47.851 52.8376 48.3814V48.0321C52.8376 47.7087 53.1071 47.4435 53.4356 47.4435C53.7708 47.4435 54.0336 47.7087 54.0336 48.0321ZM51.3591 51.7318C52.1673 51.7318 52.8771 51.085 52.8771 50.0954C52.8771 49.0993 52.1673 48.4396 51.3591 48.4396C50.5508 48.4396 49.8739 49.0864 49.8739 50.076C49.8739 51.1044 50.5442 51.7318 51.3591 51.7318Z" fill="black"/>
<path d="M29.5028 47.4435C29.8314 47.4435 30.1008 47.7087 30.1008 48.0321V48.3814C30.4819 47.851 31.0274 47.4241 31.8619 47.4241C33.0908 47.4241 34.2802 48.3813 34.2802 50.0954C34.2802 51.79 33.0974 52.7473 31.8619 52.7473C31.0076 52.7473 30.4688 52.3204 30.1008 51.8482V54.6166C30.1008 54.94 29.8314 55.2052 29.5028 55.2052C29.1742 55.2052 28.9048 54.94 28.9048 54.6166V48.0321C28.9048 47.7087 29.1742 47.4435 29.5028 47.4435ZM33.0645 50.076C33.0645 49.0864 32.3876 48.4396 31.5794 48.4396C30.7711 48.4396 30.0679 49.0993 30.0679 50.0954C30.0679 51.085 30.7776 51.7318 31.5794 51.7318C32.4008 51.7318 33.0645 51.0979 33.0645 50.076Z" fill="black"/>
<path d="M35.2529 50.0825C35.2529 48.6271 36.4292 47.4241 38.0129 47.4241C39.5966 47.4241 40.7598 48.6077 40.7598 50.0825C40.7598 51.5248 39.5835 52.7279 37.9932 52.7279C36.4161 52.7279 35.2529 51.5507 35.2529 50.0825ZM39.5769 50.0825C39.5769 49.1899 38.9198 48.446 37.9932 48.446C37.0469 48.446 36.4358 49.1769 36.4358 50.0825C36.4358 50.9686 37.0929 51.7189 38.0129 51.7189C38.9724 51.7189 39.5769 50.9815 39.5769 50.0825Z" fill="black"/>
<path d="M42.4747 47.4564C42.8427 47.4564 43.0201 47.6375 43.2304 47.9415L44.6761 50.1148L46.1284 47.9351C46.3387 47.6311 46.549 47.45 46.8775 47.45C47.193 47.45 47.4492 47.7022 47.4492 48.0127V52.1264C47.4492 52.4368 47.193 52.6891 46.8775 52.6891H46.8381C46.5227 52.6891 46.2664 52.4368 46.2664 52.1264V49.3128L45.0901 50.9686C44.8798 51.2661 44.4264 51.2661 44.2161 50.9686L43.0464 49.3322V52.1264C43.0464 52.4368 42.7901 52.6891 42.4747 52.6891C42.1592 52.6891 41.903 52.4368 41.903 52.1264V48.0127C41.8964 47.7087 42.1527 47.4564 42.4747 47.4564Z" fill="black"/>
<path d="M55.394 51.6218H55.716C56.1497 50.7744 56.3797 50.1794 56.3797 48.4589V48.019C56.3797 47.7474 56.6031 47.5339 56.8725 47.5339H59.8034C60.0794 47.5339 60.2962 47.7539 60.2962 48.019V51.6218H60.638C60.914 51.6218 61.1308 51.8417 61.1308 52.1069V53.4975C61.1308 53.7692 60.9074 53.9826 60.638 53.9826C60.362 53.9826 60.1451 53.7627 60.1451 53.4975V52.6243H55.8802V53.4975C55.8802 53.7692 55.6568 53.9826 55.3874 53.9826C55.1114 53.9826 54.8945 53.7627 54.8945 53.4975V52.1069C54.9011 51.8417 55.1245 51.6218 55.394 51.6218ZM59.12 51.6218V48.53H57.4837V49.2027C57.4837 50.1276 57.2602 50.9879 56.958 51.6153H59.12V51.6218Z" fill="black"/>
<path d="M68.0377 53.5364C68.5897 53.4329 68.8459 53.1677 68.7999 52.715C68.7999 52.715 68.7999 52.715 68.7934 52.7085H68.7211C68.3137 52.7085 67.9785 52.3786 67.9785 51.9776C67.9785 51.5766 68.3137 51.2467 68.7211 51.2467H68.7802C69.1877 51.2467 69.5228 51.5766 69.5228 51.9776V52.5209C69.5228 53.4976 69.0497 53.9116 68.1428 53.9827L68.0377 53.5364Z" fill="black"/>
<path d="M24.8632 60.6966L23.6606 59.3189C23.3715 58.989 23.608 58.478 24.0549 58.478C24.2126 58.478 24.3572 58.5492 24.4558 58.6656L26.4338 61.0653V59.0537C26.4338 58.7368 26.6966 58.4716 27.0252 58.4716C27.3472 58.4716 27.6166 58.7303 27.6166 59.0537V61.0653L29.6012 58.6656C29.6998 58.5492 29.8443 58.478 30.002 58.478C30.4423 58.478 30.6789 58.989 30.3963 59.3189L29.1938 60.6966L30.646 62.9151C30.8826 63.2773 30.6198 63.756 30.1795 63.756C29.9889 63.756 29.818 63.659 29.7129 63.5037L28.4052 61.5051L27.6166 62.4236V63.1739C27.6166 63.4908 27.3538 63.756 27.0252 63.756C26.7032 63.756 26.4338 63.4973 26.4338 63.1739V62.4236L25.6452 61.5051L24.3375 63.5037C24.2323 63.659 24.0615 63.756 23.8709 63.756C23.4306 63.756 23.1678 63.2773 23.4043 62.9151L24.8632 60.6966Z" fill="black"/>
<path d="M32.6705 58.478C32.9925 58.478 33.262 58.7367 33.262 59.0602V60.6384H35.5291V59.0537C35.5291 58.7368 35.792 58.4716 36.1205 58.4716C36.4425 58.4716 36.712 58.7303 36.712 59.0537V63.1674C36.712 63.4843 36.4491 63.7495 36.1205 63.7495C35.7985 63.7495 35.5291 63.4908 35.5291 63.1674V61.5956H33.262V63.1674C33.262 63.4843 32.9991 63.7495 32.6705 63.7495C32.3485 63.7495 32.0791 63.4908 32.0791 63.1674V59.0537C32.0791 58.7368 32.342 58.478 32.6705 58.478Z" fill="black"/>
<path d="M39.176 61.6345C38.4728 61.421 37.98 60.9165 37.98 60.1209C37.98 59.1442 38.7094 58.4716 40.004 58.4716H41.9951C42.3171 58.4716 42.5866 58.7303 42.5866 59.0537V63.1739C42.5866 63.4908 42.3237 63.756 41.9951 63.756C41.6731 63.756 41.4037 63.4973 41.4037 63.1739V61.8285H40.3523L39.3008 63.4908C39.1957 63.659 39.0117 63.756 38.8146 63.756C38.3611 63.756 38.0851 63.2579 38.3348 62.8828L39.176 61.6345ZM41.4037 60.9488V59.4094H40.1551C39.5308 59.4094 39.1497 59.694 39.1497 60.1727C39.1497 60.6642 39.5571 60.9488 40.1617 60.9488H41.4037Z" fill="black"/>
<path d="M12.3055 58.4716C12.6341 58.4716 12.9035 58.7367 12.9035 59.0601V59.4094C13.2847 58.879 13.8301 58.4521 14.6647 58.4521C15.8935 58.4521 17.0829 59.4094 17.0829 61.1235C17.0829 62.8181 15.9001 63.7754 14.6647 63.7754C13.8104 63.7754 13.2715 63.3485 12.9035 62.8763V65.6447C12.9035 65.9681 12.6341 66.2333 12.3055 66.2333C11.9769 66.2333 11.7075 65.9681 11.7075 65.6447V59.0537C11.7141 58.7303 11.9769 58.4716 12.3055 58.4716ZM15.8672 61.1041C15.8672 60.1144 15.1904 59.4676 14.3821 59.4676C13.5738 59.4676 12.8707 60.1274 12.8707 61.1235C12.8707 62.1131 13.5804 62.7599 14.3821 62.7599C15.2035 62.7534 15.8672 62.126 15.8672 61.1041Z" fill="black"/>
<path d="M4.68915 62.65H5.01115C5.44486 61.8026 5.67486 61.2076 5.67486 59.4871V59.0472C5.67486 58.7756 5.89829 58.5621 6.16772 58.5621H9.09858C9.37458 58.5621 9.59143 58.782 9.59143 59.0472V62.65H9.93315C10.2091 62.65 10.426 62.8699 10.426 63.1351V64.5257C10.426 64.7974 10.2026 65.0108 9.93315 65.0108C9.65715 65.0108 9.44029 64.7909 9.44029 64.5257V63.6525H5.182V64.5257C5.182 64.7974 4.95857 65.0108 4.68915 65.0108C4.41315 65.0108 4.19629 64.7909 4.19629 64.5257V63.1351C4.19629 62.8699 4.41315 62.65 4.68915 62.65ZM8.41515 62.65V59.5582H6.77886V60.2309C6.77886 61.1558 6.55543 62.0161 6.25315 62.6435H8.41515V62.65Z" fill="black"/>
<path d="M21.926 58.4845C21.7091 58.5168 21.5251 58.6785 21.4528 58.879L20.2042 62.2877L18.8242 58.8467C18.7322 58.6268 18.5154 58.478 18.2722 58.478H18.2525C17.8254 58.478 17.5428 58.9049 17.7137 59.2865L19.6062 63.6072C19.5997 63.6137 19.2777 64.4222 19.2711 64.4351C19.1528 64.6939 19.0214 64.8426 18.8702 64.9267C18.7848 64.972 18.6797 64.9914 18.568 64.9914C18.3314 64.9979 18.1342 65.166 18.0882 65.3924C18.0225 65.6964 18.2591 65.9875 18.5745 65.9939C18.6008 65.9939 18.6271 65.9939 18.6468 65.9939C19.5142 65.9939 19.994 65.6059 20.4211 64.558L22.5634 59.2801C22.7277 58.8661 22.3925 58.4198 21.926 58.4845Z" fill="black"/>
<path d="M73.7024 59.5453H72.5524C72.2698 59.5453 72.0464 59.3254 72.0464 59.0472C72.0464 58.7691 72.2698 58.5492 72.5524 58.5492H76.0352C76.3178 58.5492 76.5412 58.7691 76.5412 59.0472C76.5412 59.3254 76.3178 59.5453 76.0352 59.5453H74.8852V63.1415C74.8852 63.4649 74.6224 63.7237 74.2938 63.7237C73.9652 63.7237 73.7024 63.4649 73.7024 63.1415V59.5453Z" fill="black"/>
<path d="M76.8301 61.0782C76.8301 59.6229 77.9209 58.4327 79.4586 58.4327C80.6152 58.4327 81.3775 59.0149 81.7652 59.8363C81.8967 60.1144 81.9624 60.4184 82.0018 60.6901C82.0544 61.117 81.7192 61.4986 81.2789 61.4986H78.0721C78.2035 62.3265 78.8278 62.7922 79.6229 62.7922C80.0895 62.7922 80.4509 62.6629 80.7926 62.4236C80.9701 62.2942 81.2066 62.2942 81.3775 62.4365L81.4169 62.4688C81.6404 62.6564 81.6338 62.9992 81.4038 63.1738C80.9438 63.5296 80.3589 63.7495 79.6098 63.7495C78.0327 63.7366 76.8301 62.6629 76.8301 61.0782ZM80.8781 60.7224C80.7992 59.9721 80.2669 59.3318 79.4521 59.3318C78.6964 59.3318 78.1707 59.9269 78.0589 60.7224H80.8781Z" fill="black"/>
<path d="M53.8301 61.0847C53.8301 59.6293 55.0064 58.4263 56.5901 58.4263C58.1738 58.4263 59.3369 59.6099 59.3369 61.0847C59.3369 62.527 58.1606 63.7301 56.5704 63.7301C54.9932 63.7301 53.8301 62.5464 53.8301 61.0847ZM58.1541 61.0847C58.1541 60.1921 57.4969 59.4482 56.5704 59.4482C55.6241 59.4482 55.0129 60.1791 55.0129 61.0847C55.0129 61.9708 55.6701 62.7211 56.5901 62.7211C57.5495 62.7211 58.1541 61.9837 58.1541 61.0847Z" fill="black"/>
<path d="M70.5411 58.4457C70.8631 58.4457 71.1326 58.7044 71.1326 59.0278V63.148C71.1326 63.4649 70.8697 63.7301 70.5411 63.7301C70.2191 63.7301 69.9497 63.4714 69.9497 63.148V59.0278C69.9497 58.7044 70.2126 58.4457 70.5411 58.4457Z" fill="black"/>
<path d="M70.5412 57.3849C70.9477 57.3849 71.2772 57.0605 71.2772 56.6605C71.2772 56.2604 70.9477 55.936 70.5412 55.936C70.1347 55.936 69.8052 56.2604 69.8052 56.6605C69.8052 57.0605 70.1347 57.3849 70.5412 57.3849Z" fill="black"/>
<path d="M47.3573 62.637H47.6793C48.1131 61.7897 48.3431 61.1946 48.3431 59.4741V59.0343C48.3431 58.7626 48.5665 58.5492 48.8359 58.5492H51.7668C52.0428 58.5492 52.2596 58.7691 52.2596 59.0343V62.637H52.6013C52.8773 62.637 53.0942 62.8569 53.0942 63.1221V64.5128C53.0942 64.7844 52.8708 64.9979 52.6013 64.9979C52.3253 64.9979 52.1085 64.778 52.1085 64.5128V63.6396H47.8436V64.5128C47.8436 64.7844 47.6202 64.9979 47.3508 64.9979C47.0748 64.9979 46.8579 64.778 46.8579 64.5128V63.1221C46.8579 62.8569 47.0813 62.637 47.3573 62.637ZM51.0833 62.637V59.5453H49.4471V60.218C49.4471 61.1429 49.2236 62.0032 48.9213 62.6306H51.0833V62.637Z" fill="black"/>
<path d="M63.0107 62.637H63.3327C63.7664 61.7897 63.9964 61.1946 63.9964 59.4741V59.0343C63.9964 58.7626 64.2198 58.5492 64.4892 58.5492H67.4201C67.6961 58.5492 67.9129 58.7691 67.9129 59.0343V62.637H68.2547C68.5307 62.637 68.7475 62.8569 68.7475 63.1221V64.5128C68.7475 64.7844 68.5241 64.9979 68.2547 64.9979C67.9787 64.9979 67.7618 64.778 67.7618 64.5128V63.6396H63.4969V64.5128C63.4969 64.7844 63.2735 64.9979 63.0041 64.9979C62.7281 64.9979 62.5112 64.778 62.5112 64.5128V63.1221C62.5178 62.8569 62.7412 62.637 63.0107 62.637ZM66.7367 62.637V59.5453H65.1004V60.218C65.1004 61.1429 64.8769 62.0032 64.5747 62.6306H66.7367V62.637Z" fill="black"/>
<path d="M83.7104 58.4521H83.7236C84.039 58.4521 84.2953 58.7044 84.2953 59.0149V61.9384L86.615 58.7367C86.7398 58.5621 86.9436 58.4586 87.167 58.4586C87.5416 58.4586 87.8438 58.7561 87.8438 59.1248V63.1738C87.8438 63.4843 87.5876 63.7366 87.2721 63.7366C86.9567 63.7366 86.7004 63.4843 86.7004 63.1738V60.2697L84.3741 63.4584C84.2493 63.6331 84.0456 63.7366 83.8287 63.7366C83.4541 63.7366 83.1519 63.439 83.1519 63.0704V59.0213C83.1387 58.7044 83.395 58.4521 83.7104 58.4521Z" fill="black"/>
<path d="M84.3349 56.3436L84.4072 56.3306C84.5649 56.2983 84.7161 56.3824 84.7884 56.5247C84.9329 56.7834 85.1498 56.9322 85.4915 56.9322C85.8332 56.9322 86.0566 56.7834 86.1946 56.5247C86.2735 56.3888 86.4181 56.3048 86.5758 56.3306L86.6349 56.3436C86.8518 56.3824 86.9766 56.6088 86.8978 56.8093C86.6744 57.3914 86.1684 57.7407 85.4849 57.7407C84.8015 57.7407 84.2889 57.3914 84.0655 56.8093C83.9932 56.6088 84.1181 56.3824 84.3349 56.3436Z" fill="black"/>
<path d="M23.5164 70.5281H22.3664C22.0838 70.5281 21.8604 70.3082 21.8604 70.03C21.8604 69.7519 22.0838 69.532 22.3664 69.532H25.8492C26.1318 69.532 26.3552 69.7519 26.3552 70.03C26.3552 70.3082 26.1318 70.5281 25.8492 70.5281H24.6992V74.1243C24.6992 74.4477 24.4364 74.7065 24.1078 74.7065C23.7792 74.7065 23.5164 74.4477 23.5164 74.1243V70.5281Z" fill="black"/>
<path d="M32.0068 70.0429V74.1437C32.0068 74.4671 31.7373 74.7323 31.4088 74.7323C31.0802 74.7323 30.8108 74.4671 30.8108 74.1437V73.8591C30.4493 74.3313 29.9039 74.7582 29.0496 74.7582C27.8076 74.7582 26.6313 73.8009 26.6313 72.1063C26.6313 70.3922 27.8208 69.4349 29.0496 69.4349C29.8842 69.4349 30.4296 69.8618 30.8108 70.3922V70.0429C30.8108 69.7195 31.0802 69.4543 31.4088 69.4543C31.7373 69.4543 32.0068 69.7195 32.0068 70.0429ZM29.3322 73.7427C30.1405 73.7427 30.8502 73.0959 30.8502 72.1063C30.8502 71.1102 30.1405 70.4504 29.3322 70.4504C28.5239 70.4504 27.8471 71.0972 27.8471 72.0869C27.8405 73.1153 28.5108 73.7427 29.3322 73.7427Z" fill="black"/>
<path d="M48.5927 74.1825C48.619 73.9174 48.8556 73.7233 49.125 73.7556C49.1579 73.7621 49.1841 73.7621 49.1973 73.7621C49.769 73.7621 50.1633 73.4193 50.1961 70.0171C50.1961 69.7584 50.413 69.5449 50.6759 69.5449H53.5804C53.8564 69.5449 54.0799 69.7648 54.0799 70.0365V74.1502C54.0799 74.4671 53.817 74.7323 53.4884 74.7323C53.1664 74.7323 52.897 74.4736 52.897 74.1502V70.541H51.2936C51.2936 74.2084 50.5904 74.7323 49.4536 74.7323C49.3616 74.7323 49.1907 74.7129 49.0133 74.6935C48.7636 74.6676 48.573 74.4413 48.5927 74.1825Z" fill="black"/>
<path d="M42.8496 72.0998C42.8496 70.6445 44.0259 69.4414 45.6096 69.4414C47.1933 69.4414 48.3565 70.6251 48.3565 72.0998C48.3565 73.5422 47.1802 74.7452 45.5899 74.7452C44.0128 74.7452 42.8496 73.5616 42.8496 72.0998ZM47.1736 72.0998C47.1736 71.2072 46.5165 70.4634 45.5899 70.4634C44.6436 70.4634 44.0325 71.1943 44.0325 72.0998C44.0325 72.9859 44.6896 73.7362 45.6096 73.7362C46.569 73.7362 47.1736 72.9924 47.1736 72.0998Z" fill="black"/>
<path d="M55.3154 72.0998C55.3154 70.6445 56.4917 69.4414 58.0754 69.4414C59.6591 69.4414 60.8223 70.6251 60.8223 72.0998C60.8223 73.5422 59.646 74.7452 58.0557 74.7452C56.4786 74.7452 55.3154 73.5616 55.3154 72.0998ZM59.6394 72.0998C59.6394 71.2072 58.9823 70.4634 58.0557 70.4634C57.1094 70.4634 56.4983 71.1943 56.4983 72.0998C56.4983 72.9859 57.1554 73.7362 58.0754 73.7362C59.0349 73.7362 59.6394 72.9924 59.6394 72.0998Z" fill="black"/>
<path d="M36.6724 69.4543C37.0404 69.4543 37.2178 69.6354 37.4281 69.9394L38.8739 72.1127L40.3261 69.933C40.5364 69.629 40.7467 69.4479 41.0753 69.4479C41.3907 69.4479 41.647 69.7001 41.647 70.0106V74.1437C41.647 74.4671 41.3841 74.7258 41.0556 74.7258C40.727 74.7258 40.4641 74.4671 40.4641 74.1437V71.3107L39.2879 72.9665C39.0776 73.264 38.6241 73.264 38.4138 72.9665L37.2441 71.3301V74.1631C37.2441 74.4736 36.9879 74.7258 36.6724 74.7258C36.357 74.7258 36.1007 74.4736 36.1007 74.1631V70.0106C36.0941 69.7066 36.357 69.4543 36.6724 69.4543Z" fill="black"/>
<path d="M69.3654 69.4479C69.6874 69.4479 69.9568 69.7066 69.9568 70.03V74.1502C69.9568 74.4671 69.6939 74.7323 69.3654 74.7323C69.0434 74.7323 68.7739 74.4736 68.7739 74.1502V70.03C68.7739 69.7066 69.0368 69.4479 69.3654 69.4479Z" fill="black"/>
<path d="M69.3654 68.3871C69.7719 68.3871 70.1014 68.0627 70.1014 67.6627C70.1014 67.2626 69.7719 66.9382 69.3654 66.9382C68.9589 66.9382 68.6294 67.2626 68.6294 67.6627C68.6294 68.0627 68.9589 68.3871 69.3654 68.3871Z" fill="black"/>
<path d="M61.8344 73.6328H62.1564C62.5901 72.7854 62.8201 72.1904 62.8201 70.4699V70.03C62.8201 69.7584 63.0435 69.5449 63.313 69.5449H66.2438C66.5198 69.5449 66.7367 69.7648 66.7367 70.03V73.6328H67.0784C67.3544 73.6328 67.5713 73.8527 67.5713 74.1179V75.5085C67.5713 75.7802 67.3478 75.9936 67.0784 75.9936C66.8024 75.9936 66.5855 75.7737 66.5855 75.5085V74.6353H62.3207V75.5085C62.3207 75.7802 62.0972 75.9936 61.8278 75.9936C61.5518 75.9936 61.335 75.7737 61.335 75.5085V74.1179C61.3415 73.8527 61.5584 73.6328 61.8344 73.6328ZM65.5604 73.6328V70.541H63.9241V71.2137C63.9241 72.1386 63.7007 72.9989 63.3984 73.6263H65.5604V73.6328Z" fill="black"/>
<path d="M89.0533 41.5445C88.1793 41.4022 87.3184 41.5768 86.6021 42.0167C85.7347 41.2858 84.6241 40.8718 83.461 40.8718C80.8587 40.8718 78.7361 42.9028 78.6376 45.4383L75.5096 45.8522C75.3058 44.6233 75.0233 43.4138 74.675 42.2366L85.0973 36.6223C85.4718 36.4218 85.6098 35.9561 85.4061 35.5809L82.7381 30.7493C82.6395 30.5681 82.4753 30.4388 82.2715 30.3806C82.0744 30.3224 81.8576 30.3482 81.6801 30.4453L77.0867 32.9031L75.0167 29.1646C74.9181 28.9835 74.7538 28.8541 74.5501 28.7959C74.353 28.7377 74.1361 28.7636 73.9587 28.8606L68.8593 31.6095C67.9393 30.5358 66.9404 29.5203 65.8758 28.5889C66.303 28.7765 66.763 28.8735 67.2361 28.8735C67.3084 28.8735 67.3807 28.8735 67.453 28.867C69.3193 28.7506 70.7387 27.1659 70.6204 25.3355C70.535 24.0289 69.6938 22.9487 68.5438 22.4701L68.3401 19.1714C68.5438 19.0938 68.7738 18.9838 69.0038 18.848C69.2535 18.6992 69.523 18.4987 69.8055 18.2529C70.1144 17.9877 70.2064 17.522 69.9633 17.1922C69.6873 16.8235 69.1616 16.7717 68.8198 17.0693C68.5898 17.2698 68.373 17.4315 68.189 17.5479C67.8078 17.7807 67.3676 17.8778 67.361 17.8842L66.7104 18.0265L66.9667 22.2308C66.1321 22.2955 65.3698 22.6577 64.7915 23.2527L62.8464 22.1467L64.3513 19.8117L64.8441 20.2192C64.9887 20.3421 65.1661 20.4003 65.3436 20.4003C65.6064 20.4003 65.8693 20.271 66.0204 20.0187C66.2176 19.6953 66.1124 19.2684 65.8233 19.0291L63.4181 17.0499C63.1027 16.7911 62.6361 16.7782 62.3404 17.0563C62.0053 17.3797 62.0316 17.9036 62.3798 18.1947L63.1487 18.8286L61.4993 21.3899L60.5661 20.8596C60.6581 20.5232 60.6976 20.1739 60.6713 19.8117C60.6121 18.9256 60.2113 18.1106 59.5344 17.522C58.8575 16.9334 57.9836 16.6424 57.0833 16.6941C55.217 16.8105 53.7976 18.3952 53.9158 20.2257C53.975 21.1571 54.4218 21.9721 55.0856 22.5348C53.7121 22.1014 52.2993 21.7716 50.8535 21.5322L49.7233 11.8495L53.0353 8.7513C53.6793 8.14977 53.837 7.17309 53.3441 6.44866C52.7724 5.60781 51.629 5.4267 50.8207 5.98943C49.7233 6.75913 47.9753 7.68406 45.9644 7.68406C43.947 7.68406 42.2056 6.75266 41.1081 5.98296C40.3656 5.46551 39.347 5.57547 38.7424 6.24168C38.105 6.96611 38.1641 8.05921 38.8673 8.71896L42.2056 11.8366L41.0753 21.5387C40.4181 21.6487 39.761 21.778 39.117 21.9268L30.3178 6.34517C30.1076 5.97649 29.6344 5.84066 29.2598 6.04764L24.1473 8.84185C23.9698 8.93887 23.8318 9.10704 23.7793 9.30109C23.7267 9.49513 23.7464 9.70857 23.845 9.88321L27.9061 17.0951L26.7956 17.7031L25.1987 14.8701C25.1001 14.6955 24.9293 14.5596 24.7321 14.5079C24.535 14.4497 24.3181 14.4756 24.1407 14.5726L19.0281 17.3668C18.6536 17.5738 18.5156 18.0395 18.7258 18.4081L25.041 29.6173C24.3313 30.303 23.661 31.0209 23.0236 31.7712L17.405 28.563L17.773 28.4596C18.1673 28.3561 18.4498 27.9809 18.3841 27.5864C18.3118 27.1336 17.8518 26.849 17.4181 26.9654L8.98041 29.1775C8.56641 29.2875 8.3167 29.7079 8.42841 30.1154L10.6758 38.4204C10.7678 38.7632 11.0833 38.9896 11.425 38.9896C11.5301 38.9896 11.6353 38.9702 11.7404 38.9249C12.1018 38.7697 12.2661 38.3622 12.1676 37.987L12.069 37.6184L17.773 40.8718C17.2013 42.4759 16.7676 44.1447 16.485 45.8587L13.3636 45.4447C13.2584 42.9093 11.1358 40.8783 8.54012 40.8783C7.38355 40.8783 6.27298 41.2858 5.39898 42.0231C4.6827 41.5833 3.81527 41.4087 2.94127 41.551C1.38384 41.8032 0.168125 43.0968 0.0169817 44.6427C-0.186733 46.7125 1.46927 48.4653 3.53927 48.4653C3.88098 48.4653 4.21612 48.4136 4.5447 48.3166C5.43841 49.6037 6.9367 50.4058 8.54012 50.4058C10.735 50.4058 12.5947 48.9569 13.1796 46.9777L16.2813 47.3852C16.1696 48.4201 16.1038 49.4744 16.1038 50.5416C16.1038 50.9426 16.3996 51.3048 16.8004 51.3436C17.267 51.3889 17.6547 51.0332 17.6547 50.5804C17.6547 47.1782 18.279 43.9118 19.4158 40.8977C19.567 40.4902 19.3961 40.0374 19.015 39.8175L11.4973 35.5292L10.1304 30.4647L15.2758 29.1193L22.7081 33.3688C23.0958 33.5887 23.5887 33.5047 23.8713 33.1619C24.6664 32.1787 25.5338 31.2538 26.4538 30.387C26.7561 30.1024 26.835 29.6561 26.6313 29.2939L20.4607 18.337L24.213 16.2866L25.8098 19.1196C26.0201 19.4883 26.4933 19.6242 26.8678 19.4172L29.3387 18.0718C29.5161 17.9748 29.6541 17.8066 29.7067 17.6126C29.7593 17.4185 29.7396 17.2051 29.641 17.0304L25.5798 9.81853L29.3321 7.76815L37.9801 23.0975C38.1838 23.4597 38.6044 23.6279 39.0118 23.5309C41.2461 22.9682 43.5856 22.6706 45.9973 22.6706C54.8621 22.6706 62.7873 26.7002 67.9918 32.9872C68.2744 33.3236 68.7541 33.427 69.1484 33.2201L74.031 30.5876L76.101 34.3261C76.1995 34.5072 76.3638 34.6366 76.561 34.6948C76.7581 34.753 76.975 34.7271 77.1524 34.6301L81.7458 32.1722L83.6713 35.6585L73.479 41.1499C73.0913 41.3569 72.9204 41.8032 73.0518 42.2172C73.893 44.8432 74.3464 47.631 74.353 50.5287C74.353 50.9297 74.6421 51.2984 75.0495 51.3372C75.5161 51.3825 75.9104 51.0267 75.9104 50.5739C75.9104 49.4938 75.8447 48.4265 75.7264 47.3787L78.8281 46.9712C79.413 48.9504 81.2727 50.3993 83.4675 50.3993C85.071 50.3993 86.5693 49.5973 87.463 48.3101C87.7915 48.4071 88.1267 48.4589 88.4684 48.4589C90.5384 48.4589 92.1944 46.706 91.9907 44.6298C91.8264 43.0839 90.6107 41.7967 89.0533 41.5445ZM8.53355 48.8664C7.27184 48.8664 6.11527 48.1419 5.56984 47.0165C5.47784 46.8224 5.30698 46.6801 5.10327 46.6155C5.02441 46.5896 4.94555 46.5767 4.8667 46.5767C4.73527 46.5767 4.60384 46.609 4.48555 46.6737C4.1767 46.8419 3.8547 46.9324 3.5327 46.9324C2.44184 46.9324 1.5547 46.0592 1.5547 44.9855C1.5547 43.9118 2.44184 43.0386 3.5327 43.0386C4.05184 43.0386 4.53812 43.2391 4.9127 43.5949C5.06384 43.7436 5.27412 43.8213 5.49098 43.8148C5.70784 43.8083 5.90498 43.7113 6.04955 43.5496C6.67384 42.8316 7.5807 42.4241 8.53355 42.4241C10.2027 42.4241 11.5827 43.6596 11.7864 45.2507L9.08555 44.895C8.65841 44.8367 8.2707 45.1343 8.21155 45.5547C8.15241 45.9751 8.4547 46.3567 8.88184 46.415L11.609 46.7772C11.1358 47.9867 9.93984 48.8664 8.53355 48.8664ZM65.8693 24.3653C66.1913 24.003 66.6381 23.7896 67.1244 23.7573C67.1638 23.7573 67.2033 23.7508 67.2427 23.7508C68.2021 23.7508 69.0038 24.4882 69.0695 25.439C69.1353 26.4286 68.3664 27.2888 67.361 27.347C66.8747 27.3794 66.4016 27.2177 66.0335 26.9007C65.6656 26.5838 65.4487 26.144 65.4158 25.6653C65.383 25.1867 65.5473 24.721 65.8693 24.3653ZM57.1687 18.2141C57.2081 18.2141 57.2476 18.2076 57.287 18.2076C57.7338 18.2076 58.1544 18.3629 58.4961 18.6604C58.8641 18.9773 59.081 19.4172 59.1138 19.8958C59.1796 20.8854 58.4107 21.7457 57.4053 21.8039C56.3933 21.8621 55.5258 21.1118 55.4667 20.1222C55.3944 19.1326 56.1633 18.2723 57.1687 18.2141ZM57.4973 23.3368C58.4304 23.2786 59.2584 22.8517 59.8301 22.2049L64.0096 24.5787C63.8913 24.9539 63.8387 25.3549 63.865 25.7559C63.9044 26.3574 64.1015 26.9266 64.4367 27.4117C62.2878 25.7494 59.9024 24.3717 57.3461 23.3368C57.3921 23.3368 57.4447 23.3368 57.4973 23.3368ZM39.7347 7.43181L40.0173 7.12134C41.049 7.86517 43.2833 9.217 45.9513 9.217C48.6193 9.217 50.8535 7.87164 51.8853 7.12134L52.1678 7.43181L48.0738 11.2544L49.2436 21.3123C49.007 21.2864 48.777 21.2606 48.5404 21.2412L46.9304 16.8105C46.6018 15.8985 45.2941 15.8985 44.9655 16.8105L43.349 21.2541C43.1124 21.2735 42.8824 21.2929 42.6458 21.3188L43.8156 11.2544L39.7347 7.43181ZM45.0444 21.1571L45.9513 18.6604L46.8581 21.1571C46.5756 21.1506 46.2864 21.1441 45.9973 21.1441C45.6818 21.1377 45.3598 21.1441 45.0444 21.1571ZM88.4618 46.9259C88.1398 46.9259 87.8178 46.8419 87.509 46.6672C87.3184 46.5637 87.095 46.5443 86.8913 46.609C86.6875 46.6737 86.5167 46.8224 86.4247 47.01C85.8858 48.1355 84.7227 48.8599 83.461 48.8599C82.0547 48.8599 80.8587 47.9802 80.3921 46.7578L83.1193 46.3956C83.5464 46.3373 83.8421 45.9557 83.7896 45.5353C83.7304 45.1149 83.3427 44.8238 82.9156 44.8755L80.2147 45.2313C80.4184 43.6401 81.7984 42.4047 83.4675 42.4047C84.4204 42.4047 85.3273 42.8187 85.9515 43.5302C86.0895 43.6919 86.2933 43.7889 86.5101 43.7954C86.7204 43.8018 86.9373 43.7242 87.0884 43.5755C87.463 43.2197 87.9493 43.0192 88.4684 43.0192C89.5593 43.0192 90.4464 43.8924 90.4464 44.9661C90.4464 46.0527 89.5527 46.9259 88.4618 46.9259Z" fill="black"/>
<path d="M45.9513 7.23132C47.9753 7.23132 49.6247 5.60783 49.6247 3.61566C49.6247 1.62349 47.9753 0 45.9513 0C43.9273 0 42.2778 1.62349 42.2778 3.61566C42.2778 5.60783 43.9273 7.23132 45.9513 7.23132ZM45.9513 1.53294C47.121 1.53294 48.0673 2.47081 48.0673 3.61566C48.0673 4.76698 47.1144 5.69838 45.9513 5.69838C44.7881 5.69838 43.8353 4.76051 43.8353 3.61566C43.8353 2.46434 44.7881 1.53294 45.9513 1.53294Z" fill="black"/>
<path d="M80.3264 22.4572C80.471 22.5736 80.6484 22.6319 80.8258 22.6319C81.023 22.6319 81.2201 22.5607 81.3712 22.4119C82.1598 21.6487 82.633 20.6397 82.7052 19.5595C82.7972 18.1689 82.2058 16.83 81.1412 15.9374C81.2595 15.5493 81.3318 15.1483 81.3581 14.7537C81.5487 11.8043 79.2487 9.24939 76.239 9.06182C74.905 8.97773 73.6235 9.36582 72.5787 10.1549C72.1252 9.95441 71.6324 9.83799 71.1264 9.80565C69.8712 9.72803 68.649 10.2002 67.7815 11.1057C67.637 11.261 67.5581 11.4679 67.5712 11.6749C67.5844 11.8884 67.683 12.0824 67.8472 12.2182L80.3264 22.4572ZM71.0212 11.3321C71.4681 11.358 71.8821 11.4874 72.2632 11.7202C72.5655 11.9013 72.9467 11.8625 73.203 11.6296C74.0047 10.8923 75.0364 10.5236 76.1338 10.5948C78.2892 10.7306 79.9321 12.5546 79.8007 14.6632C79.7744 15.0901 79.6692 15.5105 79.4918 15.918C79.3407 16.2608 79.4655 16.6683 79.7941 16.8688C80.701 17.4315 81.2201 18.4276 81.1544 19.469C81.1215 19.9411 80.977 20.3939 80.7272 20.7885L69.5755 11.6426C70.0158 11.4097 70.5152 11.2998 71.0212 11.3321Z" fill="black"/>
</svg>
