<svg width="93" height="76" viewBox="0 0 93 76" fill="none" xmlns="http://www.w3.org/2000/svg">
<path d="M25.3985 44.8562H28.9733C29.2822 44.8562 29.5319 45.102 29.5319 45.406C29.5319 45.71 29.2822 45.9558 28.9733 45.9558H26.0162V52.1005C26.0162 52.4368 25.7402 52.7085 25.3985 52.7085C25.0568 52.7085 24.7808 52.4368 24.7808 52.1005V45.4642C24.7873 45.1279 25.0568 44.8562 25.3985 44.8562Z" fill="white"/>
<path d="M67.0483 48.0321V52.1328C67.0483 52.4562 66.7789 52.7214 66.4503 52.7214C66.1217 52.7214 65.8523 52.4562 65.8523 52.1328V51.8482C65.4909 52.3204 64.9454 52.7473 64.0911 52.7473C62.8491 52.7473 61.6729 51.79 61.6729 50.0954C61.6729 48.3813 62.8623 47.4241 64.0911 47.4241C64.9257 47.4241 65.4711 47.851 65.8523 48.3814V48.0321C65.8523 47.7087 66.1217 47.4435 66.4503 47.4435C66.7854 47.4435 67.0483 47.7087 67.0483 48.0321ZM64.3737 51.7318C65.182 51.7318 65.8917 51.085 65.8917 50.0954C65.8917 49.0993 65.182 48.4396 64.3737 48.4396C63.5654 48.4396 62.8886 49.0864 62.8886 50.076C62.8886 51.1044 63.5589 51.7318 64.3737 51.7318Z" fill="white"/>
<path d="M54.0366 48.0321V52.1328C54.0366 52.4562 53.7671 52.7214 53.4386 52.7214C53.11 52.7214 52.8406 52.4562 52.8406 52.1328V51.8482C52.4791 52.3204 51.9337 52.7473 51.0794 52.7473C49.8374 52.7473 48.6611 51.79 48.6611 50.0954C48.6611 48.3813 49.8506 47.4241 51.0794 47.4241C51.914 47.4241 52.4594 47.851 52.8406 48.3814V48.0321C52.8406 47.7087 53.11 47.4435 53.4386 47.4435C53.7737 47.4435 54.0366 47.7087 54.0366 48.0321ZM51.362 51.7318C52.1703 51.7318 52.88 51.085 52.88 50.0954C52.88 49.0993 52.1703 48.4396 51.362 48.4396C50.5537 48.4396 49.8768 49.0864 49.8768 50.076C49.8768 51.1044 50.5471 51.7318 51.362 51.7318Z" fill="white"/>
<path d="M29.5057 47.4435C29.8343 47.4435 30.1037 47.7087 30.1037 48.0321V48.3814C30.4849 47.851 31.0303 47.4241 31.8649 47.4241C33.0937 47.4241 34.2831 48.3813 34.2831 50.0954C34.2831 51.79 33.1003 52.7473 31.8649 52.7473C31.0106 52.7473 30.4717 52.3204 30.1037 51.8482V54.6166C30.1037 54.94 29.8343 55.2052 29.5057 55.2052C29.1771 55.2052 28.9077 54.94 28.9077 54.6166V48.0321C28.9077 47.7087 29.1771 47.4435 29.5057 47.4435ZM33.0674 50.076C33.0674 49.0864 32.3906 48.4396 31.5823 48.4396C30.774 48.4396 30.0709 49.0993 30.0709 50.0954C30.0709 51.085 30.7806 51.7318 31.5823 51.7318C32.4037 51.7318 33.0674 51.0979 33.0674 50.076Z" fill="white"/>
<path d="M35.2559 50.0825C35.2559 48.6271 36.4321 47.4241 38.0159 47.4241C39.5996 47.4241 40.7627 48.6077 40.7627 50.0825C40.7627 51.5248 39.5864 52.7279 37.9961 52.7279C36.419 52.7279 35.2559 51.5507 35.2559 50.0825ZM39.5799 50.0825C39.5799 49.1899 38.9227 48.446 37.9961 48.446C37.0499 48.446 36.4387 49.1769 36.4387 50.0825C36.4387 50.9686 37.0959 51.7189 38.0159 51.7189C38.9753 51.7189 39.5799 50.9815 39.5799 50.0825Z" fill="white"/>
<path d="M42.4776 47.4564C42.8456 47.4564 43.023 47.6375 43.2333 47.9415L44.679 50.1148L46.1313 47.9351C46.3416 47.6311 46.5519 47.45 46.8805 47.45C47.1959 47.45 47.4522 47.7022 47.4522 48.0127V52.1264C47.4522 52.4368 47.1959 52.6891 46.8805 52.6891H46.841C46.5256 52.6891 46.2693 52.4368 46.2693 52.1264V49.3128L45.093 50.9686C44.8827 51.2661 44.4293 51.2661 44.219 50.9686L43.0493 49.3322V52.1264C43.0493 52.4368 42.793 52.6891 42.4776 52.6891C42.1622 52.6891 41.9059 52.4368 41.9059 52.1264V48.0127C41.8993 47.7087 42.1556 47.4564 42.4776 47.4564Z" fill="white"/>
<path d="M55.3969 51.6218H55.7189C56.1526 50.7744 56.3826 50.1794 56.3826 48.4589V48.019C56.3826 47.7474 56.606 47.5339 56.8755 47.5339H59.8063C60.0823 47.5339 60.2992 47.7539 60.2992 48.019V51.6218H60.6409C60.9169 51.6218 61.1337 51.8417 61.1337 52.1069V53.4975C61.1337 53.7692 60.9103 53.9826 60.6409 53.9826C60.3649 53.9826 60.148 53.7627 60.148 53.4975V52.6243H55.8832V53.4975C55.8832 53.7692 55.6597 53.9826 55.3903 53.9826C55.1143 53.9826 54.8975 53.7627 54.8975 53.4975V52.1069C54.904 51.8417 55.1275 51.6218 55.3969 51.6218ZM59.1229 51.6218V48.53H57.4866V49.2027C57.4866 50.1276 57.2632 50.9879 56.9609 51.6153H59.1229V51.6218Z" fill="white"/>
<path d="M68.0406 53.5363C68.5926 53.4328 68.8489 53.1676 68.8029 52.7148C68.8029 52.7148 68.8029 52.7148 68.7963 52.7084H68.724C68.3166 52.7084 67.9814 52.3785 67.9814 51.9775C67.9814 51.5765 68.3166 51.2466 68.724 51.2466H68.7832C69.1906 51.2466 69.5257 51.5765 69.5257 51.9775V52.5208C69.5257 53.4975 69.0526 53.9114 68.1457 53.9826L68.0406 53.5363Z" fill="white"/>
<path d="M24.8661 60.6965L23.6635 59.3188C23.3744 58.9889 23.611 58.4779 24.0578 58.4779C24.2156 58.4779 24.3601 58.549 24.4587 58.6655L26.4367 61.0651V59.0536C26.4367 58.7366 26.6996 58.4714 27.0281 58.4714C27.3501 58.4714 27.6195 58.7302 27.6195 59.0536V61.0651L29.6041 58.6655C29.7027 58.549 29.8473 58.4779 30.005 58.4779C30.4453 58.4779 30.6818 58.9889 30.3993 59.3188L29.1967 60.6965L30.649 62.915C30.8856 63.2772 30.6227 63.7559 30.1824 63.7559C29.9918 63.7559 29.821 63.6588 29.7158 63.5036L28.4081 61.505L27.6195 62.4234V63.1737C27.6195 63.4907 27.3567 63.7559 27.0281 63.7559C26.7061 63.7559 26.4367 63.4971 26.4367 63.1737V62.4234L25.6481 61.505L24.3404 63.5036C24.2353 63.6588 24.0644 63.7559 23.8738 63.7559C23.4336 63.7559 23.1707 63.2772 23.4073 62.915L24.8661 60.6965Z" fill="white"/>
<path d="M32.6735 58.4779C32.9955 58.4779 33.2649 58.7366 33.2649 59.06V60.6382H35.532V59.0536C35.532 58.7366 35.7949 58.4714 36.1235 58.4714C36.4455 58.4714 36.7149 58.7302 36.7149 59.0536V63.1673C36.7149 63.4842 36.452 63.7494 36.1235 63.7494C35.8015 63.7494 35.532 63.4907 35.532 63.1673V61.5955H33.2649V63.1673C33.2649 63.4842 33.002 63.7494 32.6735 63.7494C32.3515 63.7494 32.082 63.4907 32.082 63.1673V59.0536C32.082 58.7366 32.3449 58.4779 32.6735 58.4779Z" fill="white"/>
<path d="M39.1789 61.6343C38.4758 61.4209 37.9829 60.9164 37.9829 60.1208C37.9829 59.1441 38.7123 58.4714 40.0069 58.4714H41.9981C42.3201 58.4714 42.5895 58.7302 42.5895 59.0536V63.1737C42.5895 63.4907 42.3266 63.7559 41.9981 63.7559C41.6761 63.7559 41.4066 63.4971 41.4066 63.1737V61.8284H40.3552L39.3038 63.4907C39.1986 63.6588 39.0146 63.7559 38.8175 63.7559C38.3641 63.7559 38.0881 63.2578 38.3378 62.8827L39.1789 61.6343ZM41.4066 60.9487V59.4093H40.1581C39.5338 59.4093 39.1526 59.6939 39.1526 60.1725C39.1526 60.6641 39.5601 60.9487 40.1646 60.9487H41.4066Z" fill="white"/>
<path d="M12.3084 58.4716C12.637 58.4716 12.9064 58.7367 12.9064 59.0601V59.4094C13.2876 58.879 13.833 58.4521 14.6676 58.4521C15.8964 58.4521 17.0859 59.4094 17.0859 61.1235C17.0859 62.8181 15.903 63.7754 14.6676 63.7754C13.8133 63.7754 13.2744 63.3485 12.9064 62.8763V65.6447C12.9064 65.9681 12.637 66.2333 12.3084 66.2333C11.9799 66.2333 11.7104 65.9681 11.7104 65.6447V59.0537C11.717 58.7303 11.9799 58.4716 12.3084 58.4716ZM15.8702 61.1041C15.8702 60.1144 15.1933 59.4676 14.385 59.4676C13.5767 59.4676 12.8736 60.1274 12.8736 61.1235C12.8736 62.1131 13.5833 62.7599 14.385 62.7599C15.2064 62.7534 15.8702 62.126 15.8702 61.1041Z" fill="white"/>
<path d="M4.69208 62.6498H5.01408C5.44779 61.8025 5.67779 61.2075 5.67779 59.4869V59.0471C5.67779 58.7755 5.90122 58.562 6.17065 58.562H9.1015C9.3775 58.562 9.59436 58.7819 9.59436 59.0471V62.6498H9.93608C10.2121 62.6498 10.4289 62.8698 10.4289 63.1349V64.5256C10.4289 64.7972 10.2055 65.0107 9.93608 65.0107C9.66008 65.0107 9.44322 64.7908 9.44322 64.5256V63.6524H5.18493V64.5256C5.18493 64.7972 4.9615 65.0107 4.69208 65.0107C4.41608 65.0107 4.19922 64.7908 4.19922 64.5256V63.1349C4.19922 62.8698 4.41608 62.6498 4.69208 62.6498ZM8.41808 62.6498V59.5581H6.78179V60.2308C6.78179 61.1557 6.55836 62.016 6.25608 62.6434H8.41808V62.6498Z" fill="white"/>
<path d="M21.9289 58.4845C21.712 58.5168 21.528 58.6785 21.4557 58.879L20.2072 62.2877L18.8272 58.8467C18.7352 58.6268 18.5183 58.478 18.2752 58.478H18.2555C17.8283 58.478 17.5457 58.9049 17.7166 59.2865L19.6092 63.6072C19.6026 63.6137 19.2806 64.4222 19.274 64.4351C19.1557 64.6939 19.0243 64.8426 18.8732 64.9267C18.7877 64.972 18.6826 64.9914 18.5709 64.9914C18.3343 64.9979 18.1372 65.166 18.0912 65.3924C18.0255 65.6964 18.262 65.9875 18.5775 65.9939C18.6037 65.9939 18.63 65.9939 18.6497 65.9939C19.5172 65.9939 19.9969 65.6059 20.424 64.558L22.5663 59.2801C22.7306 58.8661 22.3955 58.4198 21.9289 58.4845Z" fill="white"/>
<path d="M73.7053 59.5452H72.5553C72.2727 59.5452 72.0493 59.3252 72.0493 59.0471C72.0493 58.769 72.2727 58.5491 72.5553 58.5491H76.0382C76.3207 58.5491 76.5442 58.769 76.5442 59.0471C76.5442 59.3252 76.3207 59.5452 76.0382 59.5452H74.8882V63.1414C74.8882 63.4648 74.6253 63.7235 74.2967 63.7235C73.9682 63.7235 73.7053 63.4648 73.7053 63.1414V59.5452Z" fill="white"/>
<path d="M76.833 61.0781C76.833 59.6227 77.9239 58.4326 79.4616 58.4326C80.6182 58.4326 81.3804 59.0147 81.7682 59.8362C81.8996 60.1143 81.9653 60.4183 82.0047 60.69C82.0573 61.1169 81.7222 61.4985 81.2819 61.4985H78.075C78.2064 62.3264 78.8307 62.7921 79.6259 62.7921C80.0924 62.7921 80.4539 62.6627 80.7956 62.4234C80.973 62.2941 81.2096 62.2941 81.3804 62.4364L81.4199 62.4687C81.6433 62.6563 81.6367 62.9991 81.4067 63.1737C80.9467 63.5295 80.3619 63.7494 79.6127 63.7494C78.0356 63.7364 76.833 62.6627 76.833 61.0781ZM80.881 60.7223C80.8022 59.972 80.2699 59.3317 79.455 59.3317C78.6993 59.3317 78.1736 59.9267 78.0619 60.7223H80.881Z" fill="white"/>
<path d="M53.833 61.0847C53.833 59.6293 55.0093 58.4263 56.593 58.4263C58.1767 58.4263 59.3399 59.6099 59.3399 61.0847C59.3399 62.527 58.1636 63.7301 56.5733 63.7301C54.9961 63.7301 53.833 62.5464 53.833 61.0847ZM58.157 61.0847C58.157 60.1921 57.4999 59.4482 56.5733 59.4482C55.627 59.4482 55.0159 60.1791 55.0159 61.0847C55.0159 61.9708 55.673 62.7211 56.593 62.7211C57.5524 62.7211 58.157 61.9837 58.157 61.0847Z" fill="white"/>
<path d="M70.5441 58.4456C70.8661 58.4456 71.1355 58.7043 71.1355 59.0277V63.1479C71.1355 63.4648 70.8726 63.73 70.5441 63.73C70.2221 63.73 69.9526 63.4713 69.9526 63.1479V59.0277C69.9526 58.7043 70.2155 58.4456 70.5441 58.4456Z" fill="white"/>
<path d="M70.5441 57.3849C70.9506 57.3849 71.2801 57.0605 71.2801 56.6605C71.2801 56.2604 70.9506 55.936 70.5441 55.936C70.1376 55.936 69.8081 56.2604 69.8081 56.6605C69.8081 57.0605 70.1376 57.3849 70.5441 57.3849Z" fill="white"/>
<path d="M47.3603 62.6369H47.6823C48.116 61.7896 48.346 61.1945 48.346 59.474V59.0342C48.346 58.7625 48.5694 58.5491 48.8388 58.5491H51.7697C52.0457 58.5491 52.2626 58.769 52.2626 59.0342V62.6369H52.6043C52.8803 62.6369 53.0971 62.8568 53.0971 63.122V64.5126C53.0971 64.7843 52.8737 64.9978 52.6043 64.9978C52.3283 64.9978 52.1114 64.7778 52.1114 64.5126V63.6395H47.8466V64.5126C47.8466 64.7843 47.6231 64.9978 47.3537 64.9978C47.0777 64.9978 46.8608 64.7778 46.8608 64.5126V63.122C46.8608 62.8568 47.0843 62.6369 47.3603 62.6369ZM51.0863 62.6369V59.5452H49.45V60.2178C49.45 61.1428 49.2266 62.003 48.9243 62.6304H51.0863V62.6369Z" fill="white"/>
<path d="M63.0136 62.6369H63.3356C63.7693 61.7896 63.9993 61.1945 63.9993 59.474V59.0342C63.9993 58.7625 64.2227 58.5491 64.4922 58.5491H67.423C67.699 58.5491 67.9159 58.769 67.9159 59.0342V62.6369H68.2576C68.5336 62.6369 68.7504 62.8568 68.7504 63.122V64.5126C68.7504 64.7843 68.527 64.9978 68.2576 64.9978C67.9816 64.9978 67.7647 64.7778 67.7647 64.5126V63.6395H63.4999V64.5126C63.4999 64.7843 63.2764 64.9978 63.007 64.9978C62.731 64.9978 62.5142 64.7778 62.5142 64.5126V63.122C62.5207 62.8568 62.7442 62.6369 63.0136 62.6369ZM66.7396 62.6369V59.5452H65.1033V60.2178C65.1033 61.1428 64.8799 62.003 64.5776 62.6304H66.7396V62.6369Z" fill="white"/>
<path d="M83.7134 58.4521H83.7265C84.0419 58.4521 84.2982 58.7044 84.2982 59.0149V61.9384L86.6179 58.7367C86.7428 58.5621 86.9465 58.4586 87.1699 58.4586C87.5445 58.4586 87.8468 58.7561 87.8468 59.1248V63.1738C87.8468 63.4843 87.5905 63.7366 87.2751 63.7366C86.9596 63.7366 86.7034 63.4843 86.7034 63.1738V60.2697L84.3771 63.4584C84.2522 63.6331 84.0485 63.7366 83.8316 63.7366C83.4571 63.7366 83.1548 63.439 83.1548 63.0704V59.0213C83.1416 58.7044 83.3979 58.4521 83.7134 58.4521Z" fill="white"/>
<path d="M84.3379 56.3436L84.4101 56.3306C84.5679 56.2983 84.719 56.3824 84.7913 56.5247C84.9359 56.7834 85.1527 56.9322 85.4944 56.9322C85.8361 56.9322 86.0596 56.7834 86.1976 56.5247C86.2764 56.3888 86.421 56.3048 86.5787 56.3306L86.6379 56.3436C86.8547 56.3824 86.9796 56.6088 86.9007 56.8093C86.6773 57.3914 86.1713 57.7407 85.4879 57.7407C84.8044 57.7407 84.2919 57.3914 84.0684 56.8093C83.9961 56.6088 84.121 56.3824 84.3379 56.3436Z" fill="white"/>
<path d="M23.5193 70.5281H22.3693C22.0867 70.5281 21.8633 70.3082 21.8633 70.03C21.8633 69.7519 22.0867 69.532 22.3693 69.532H25.8521C26.1347 69.532 26.3581 69.7519 26.3581 70.03C26.3581 70.3082 26.1347 70.5281 25.8521 70.5281H24.7021V74.1243C24.7021 74.4477 24.4393 74.7065 24.1107 74.7065C23.7821 74.7065 23.5193 74.4477 23.5193 74.1243V70.5281Z" fill="white"/>
<path d="M32.0097 70.0428V74.1436C32.0097 74.467 31.7403 74.7322 31.4117 74.7322C31.0831 74.7322 30.8137 74.467 30.8137 74.1436V73.859C30.4523 74.3312 29.9068 74.7581 29.0526 74.7581C27.8106 74.7581 26.6343 73.8008 26.6343 72.1061C26.6343 70.3921 27.8237 69.4348 29.0526 69.4348C29.8871 69.4348 30.4326 69.8617 30.8137 70.3921V70.0428C30.8137 69.7194 31.0831 69.4542 31.4117 69.4542C31.7403 69.4542 32.0097 69.7194 32.0097 70.0428ZM29.3351 73.7426C30.1434 73.7426 30.8531 73.0958 30.8531 72.1061C30.8531 71.1101 30.1434 70.4503 29.3351 70.4503C28.5268 70.4503 27.85 71.0971 27.85 72.0867C27.8434 73.1152 28.5137 73.7426 29.3351 73.7426Z" fill="white"/>
<path d="M48.5956 74.1825C48.6219 73.9174 48.8585 73.7233 49.1279 73.7556C49.1608 73.7621 49.1871 73.7621 49.2002 73.7621C49.7719 73.7621 50.1662 73.4193 50.1991 70.0171C50.1991 69.7584 50.4159 69.5449 50.6788 69.5449H53.5834C53.8594 69.5449 54.0828 69.7648 54.0828 70.0365V74.1502C54.0828 74.4671 53.8199 74.7323 53.4914 74.7323C53.1694 74.7323 52.8999 74.4736 52.8999 74.1502V70.541H51.2965C51.2965 74.2084 50.5934 74.7323 49.4565 74.7323C49.3645 74.7323 49.1936 74.7129 49.0162 74.6935C48.7665 74.6676 48.5759 74.4413 48.5956 74.1825Z" fill="white"/>
<path d="M42.8525 72.0998C42.8525 70.6445 44.0288 69.4414 45.6125 69.4414C47.1963 69.4414 48.3594 70.6251 48.3594 72.0998C48.3594 73.5422 47.1831 74.7452 45.5928 74.7452C44.0157 74.7452 42.8525 73.5616 42.8525 72.0998ZM47.1765 72.0998C47.1765 71.2072 46.5194 70.4634 45.5928 70.4634C44.6465 70.4634 44.0354 71.1943 44.0354 72.0998C44.0354 72.9859 44.6925 73.7362 45.6125 73.7362C46.572 73.7362 47.1765 72.9924 47.1765 72.0998Z" fill="white"/>
<path d="M55.3184 72.0998C55.3184 70.6445 56.4946 69.4414 58.0784 69.4414C59.6621 69.4414 60.8252 70.6251 60.8252 72.0998C60.8252 73.5422 59.6489 74.7452 58.0586 74.7452C56.4815 74.7452 55.3184 73.5616 55.3184 72.0998ZM59.6424 72.0998C59.6424 71.2072 58.9852 70.4634 58.0586 70.4634C57.1124 70.4634 56.5012 71.1943 56.5012 72.0998C56.5012 72.9859 57.1584 73.7362 58.0784 73.7362C59.0378 73.7362 59.6424 72.9924 59.6424 72.0998Z" fill="white"/>
<path d="M36.6754 69.4542C37.0434 69.4542 37.2208 69.6353 37.4311 69.9393L38.8768 72.1126L40.3291 69.9329C40.5394 69.6289 40.7496 69.4478 41.0782 69.4478C41.3936 69.4478 41.6499 69.7 41.6499 70.0105V74.1436C41.6499 74.467 41.3871 74.7257 41.0585 74.7257C40.7299 74.7257 40.4671 74.467 40.4671 74.1436V71.3106L39.2908 72.9664C39.0805 73.2639 38.6271 73.2639 38.4168 72.9664L37.2471 71.33V74.163C37.2471 74.4735 36.9908 74.7257 36.6754 74.7257C36.3599 74.7257 36.1036 74.4735 36.1036 74.163V70.0105C36.0971 69.7065 36.3599 69.4542 36.6754 69.4542Z" fill="white"/>
<path d="M69.3683 69.4478C69.6903 69.4478 69.9597 69.7065 69.9597 70.0299V74.15C69.9597 74.467 69.6969 74.7322 69.3683 74.7322C69.0463 74.7322 68.7769 74.4735 68.7769 74.15V70.0299C68.7769 69.7065 69.0397 69.4478 69.3683 69.4478Z" fill="white"/>
<path d="M69.3683 68.3871C69.7748 68.3871 70.1043 68.0627 70.1043 67.6627C70.1043 67.2626 69.7748 66.9382 69.3683 66.9382C68.9618 66.9382 68.6323 67.2626 68.6323 67.6627C68.6323 68.0627 68.9618 68.3871 69.3683 68.3871Z" fill="white"/>
<path d="M61.8373 73.6328H62.1593C62.593 72.7854 62.823 72.1904 62.823 70.4699V70.03C62.823 69.7584 63.0465 69.5449 63.3159 69.5449H66.2467C66.5227 69.5449 66.7396 69.7648 66.7396 70.03V73.6328H67.0813C67.3573 73.6328 67.5742 73.8527 67.5742 74.1179V75.5085C67.5742 75.7802 67.3508 75.9936 67.0813 75.9936C66.8053 75.9936 66.5885 75.7737 66.5885 75.5085V74.6353H62.3236V75.5085C62.3236 75.7802 62.1002 75.9936 61.8307 75.9936C61.5547 75.9936 61.3379 75.7737 61.3379 75.5085V74.1179C61.3445 73.8527 61.5613 73.6328 61.8373 73.6328ZM65.5633 73.6328V70.541H63.927V71.2137C63.927 72.1386 63.7036 72.9989 63.4013 73.6263H65.5633V73.6328Z" fill="white"/>
<path d="M89.0562 41.5445C88.1822 41.4022 87.3213 41.5768 86.605 42.0167C85.7376 41.2858 84.6271 40.8718 83.4639 40.8718C80.8616 40.8718 78.7391 42.9028 78.6405 45.4383L75.5125 45.8522C75.3088 44.6233 75.0262 43.4138 74.6779 42.2366L85.1002 36.6223C85.4748 36.4218 85.6128 35.9561 85.409 35.5809L82.7411 30.7493C82.6425 30.5681 82.4782 30.4388 82.2745 30.3806C82.0773 30.3224 81.8605 30.3482 81.6831 30.4453L77.0896 32.9031L75.0196 29.1646C74.9211 28.9835 74.7568 28.8541 74.553 28.7959C74.3559 28.7377 74.1391 28.7636 73.9616 28.8606L68.8622 31.6095C67.9422 30.5358 66.9433 29.5203 65.8788 28.5889C66.3059 28.7765 66.7659 28.8735 67.2391 28.8735C67.3113 28.8735 67.3836 28.8735 67.4559 28.867C69.3222 28.7506 70.7416 27.1659 70.6233 25.3355C70.5379 24.0289 69.6968 22.9487 68.5468 22.4701L68.343 19.1714C68.5468 19.0938 68.7768 18.9838 69.0068 18.848C69.2565 18.6992 69.5259 18.4987 69.8085 18.2529C70.1173 17.9877 70.2093 17.522 69.9662 17.1922C69.6902 16.8235 69.1645 16.7717 68.8228 17.0693C68.5928 17.2698 68.3759 17.4315 68.1919 17.5479C67.8108 17.7807 67.3705 17.8778 67.3639 17.8842L66.7133 18.0265L66.9696 22.2308C66.1351 22.2955 65.3728 22.6577 64.7945 23.2527L62.8493 22.1467L64.3542 19.8117L64.8471 20.2192C64.9916 20.3421 65.1691 20.4003 65.3465 20.4003C65.6093 20.4003 65.8722 20.271 66.0233 20.0187C66.2205 19.6953 66.1153 19.2684 65.8262 19.0291L63.4211 17.0499C63.1056 16.7911 62.6391 16.7782 62.3433 17.0563C62.0082 17.3797 62.0345 17.9036 62.3828 18.1947L63.1516 18.8286L61.5022 21.3899L60.569 20.8596C60.661 20.5232 60.7005 20.1739 60.6742 19.8117C60.6151 18.9256 60.2142 18.1106 59.5373 17.522C58.8605 16.9334 57.9865 16.6424 57.0862 16.6941C55.2199 16.8105 53.8005 18.3952 53.9188 20.2257C53.9779 21.1571 54.4248 21.9721 55.0885 22.5348C53.7151 22.1014 52.3022 21.7716 50.8565 21.5322L49.7262 11.8495L53.0382 8.7513C53.6822 8.14977 53.8399 7.17309 53.347 6.44866C52.7753 5.60781 51.6319 5.4267 50.8236 5.98943C49.7262 6.75913 47.9782 7.68406 45.9673 7.68406C43.9499 7.68406 42.2085 6.75266 41.1111 5.98296C40.3685 5.46551 39.3499 5.57547 38.7453 6.24168C38.1079 6.96611 38.1671 8.05921 38.8702 8.71896L42.2085 11.8366L41.0782 21.5387C40.4211 21.6487 39.7639 21.778 39.1199 21.9268L30.3208 6.34517C30.1105 5.97649 29.6373 5.84066 29.2628 6.04764L24.1502 8.84185C23.9728 8.93887 23.8348 9.10704 23.7822 9.30109C23.7296 9.49513 23.7493 9.70857 23.8479 9.88321L27.9091 17.0951L26.7985 17.7031L25.2016 14.8701C25.1031 14.6955 24.9322 14.5596 24.7351 14.5079C24.5379 14.4497 24.3211 14.4756 24.1436 14.5726L19.0311 17.3668C18.6565 17.5738 18.5185 18.0395 18.7288 18.4081L25.0439 29.6173C24.3342 30.303 23.6639 31.0209 23.0265 31.7712L17.4079 28.563L17.7759 28.4596C18.1702 28.3561 18.4528 27.9809 18.3871 27.5864C18.3148 27.1336 17.8548 26.849 17.4211 26.9654L8.98334 29.1775C8.56934 29.2875 8.31962 29.7079 8.43134 30.1154L10.6788 38.4204C10.7708 38.7632 11.0862 38.9896 11.4279 38.9896C11.5331 38.9896 11.6382 38.9702 11.7433 38.9249C12.1048 38.7697 12.2691 38.3622 12.1705 37.987L12.0719 37.6184L17.7759 40.8718C17.2042 42.4759 16.7705 44.1447 16.4879 45.8587L13.3665 45.4447C13.2613 42.9093 11.1388 40.8783 8.54305 40.8783C7.38648 40.8783 6.27591 41.2858 5.40191 42.0231C4.68563 41.5833 3.8182 41.4087 2.9442 41.551C1.38677 41.8032 0.171054 43.0968 0.0199114 44.6427C-0.183803 46.7125 1.4722 48.4653 3.5422 48.4653C3.88391 48.4653 4.21905 48.4136 4.54763 48.3166C5.44134 49.6037 6.93963 50.4058 8.54305 50.4058C10.7379 50.4058 12.5976 48.9569 13.1825 46.9777L16.2842 47.3852C16.1725 48.4201 16.1068 49.4744 16.1068 50.5416C16.1068 50.9426 16.4025 51.3048 16.8033 51.3436C17.2699 51.3889 17.6576 51.0332 17.6576 50.5804C17.6576 47.1782 18.2819 43.9118 19.4188 40.8977C19.5699 40.4902 19.3991 40.0374 19.0179 39.8175L11.5002 35.5292L10.1333 30.4647L15.2788 29.1193L22.7111 33.3688C23.0988 33.5887 23.5916 33.5047 23.8742 33.1619C24.6693 32.1787 25.5368 31.2538 26.4568 30.387C26.7591 30.1024 26.8379 29.6561 26.6342 29.2939L20.4636 18.337L24.2159 16.2866L25.8128 19.1196C26.0231 19.4883 26.4962 19.6242 26.8708 19.4172L29.3416 18.0718C29.5191 17.9748 29.6571 17.8066 29.7096 17.6126C29.7622 17.4185 29.7425 17.2051 29.6439 17.0304L25.5828 9.81853L29.3351 7.76815L37.9831 23.0975C38.1868 23.4597 38.6073 23.6279 39.0148 23.5309C41.2491 22.9682 43.5885 22.6706 46.0002 22.6706C54.8651 22.6706 62.7902 26.7002 67.9948 32.9872C68.2773 33.3236 68.757 33.427 69.1513 33.2201L74.0339 30.5876L76.1039 34.3261C76.2025 34.5072 76.3668 34.6366 76.5639 34.6948C76.7611 34.753 76.9779 34.7271 77.1553 34.6301L81.7488 32.1722L83.6742 35.6585L73.4819 41.1499C73.0942 41.3569 72.9233 41.8032 73.0548 42.2172C73.8959 44.8432 74.3493 47.631 74.3559 50.5287C74.3559 50.9297 74.6451 51.2984 75.0525 51.3372C75.5191 51.3825 75.9133 51.0267 75.9133 50.5739C75.9133 49.4938 75.8476 48.4265 75.7293 47.3787L78.831 46.9712C79.4159 48.9504 81.2756 50.3993 83.4705 50.3993C85.0739 50.3993 86.5722 49.5973 87.4659 48.3101C87.7945 48.4071 88.1296 48.4589 88.4713 48.4589C90.5413 48.4589 92.1973 46.706 91.9936 44.6298C91.8293 43.0839 90.6136 41.7967 89.0562 41.5445ZM8.53648 48.8664C7.27477 48.8664 6.1182 48.1419 5.57277 47.0165C5.48077 46.8224 5.30991 46.6801 5.1062 46.6155C5.02734 46.5896 4.94848 46.5767 4.86963 46.5767C4.7382 46.5767 4.60677 46.609 4.48848 46.6737C4.17963 46.8419 3.85763 46.9324 3.53563 46.9324C2.44477 46.9324 1.55763 46.0592 1.55763 44.9855C1.55763 43.9118 2.44477 43.0386 3.53563 43.0386C4.05477 43.0386 4.54105 43.2391 4.91563 43.5949C5.06677 43.7436 5.27705 43.8213 5.49391 43.8148C5.71077 43.8083 5.90791 43.7113 6.05248 43.5496C6.67677 42.8316 7.58363 42.4241 8.53648 42.4241C10.2056 42.4241 11.5856 43.6596 11.7893 45.2507L9.08848 44.895C8.66134 44.8367 8.27363 45.1343 8.21448 45.5547C8.15534 45.9751 8.45763 46.3567 8.88477 46.415L11.6119 46.7772C11.1388 47.9867 9.94277 48.8664 8.53648 48.8664ZM65.8722 24.3653C66.1942 24.003 66.6411 23.7896 67.1273 23.7573C67.1668 23.7573 67.2062 23.7508 67.2456 23.7508C68.2051 23.7508 69.0068 24.4882 69.0725 25.439C69.1382 26.4286 68.3693 27.2888 67.3639 27.347C66.8776 27.3794 66.4045 27.2177 66.0365 26.9007C65.6685 26.5838 65.4516 26.144 65.4188 25.6653C65.3859 25.1867 65.5502 24.721 65.8722 24.3653ZM57.1716 18.2141C57.2111 18.2141 57.2505 18.2076 57.2899 18.2076C57.7368 18.2076 58.1573 18.3629 58.4991 18.6604C58.8671 18.9773 59.0839 19.4172 59.1168 19.8958C59.1825 20.8854 58.4136 21.7457 57.4082 21.8039C56.3962 21.8621 55.5288 21.1118 55.4696 20.1222C55.3973 19.1326 56.1662 18.2723 57.1716 18.2141ZM57.5002 23.3368C58.4333 23.2786 59.2613 22.8517 59.8331 22.2049L64.0125 24.5787C63.8942 24.9539 63.8416 25.3549 63.8679 25.7559C63.9073 26.3574 64.1045 26.9266 64.4396 27.4117C62.2908 25.7494 59.9053 24.3717 57.349 23.3368C57.3951 23.3368 57.4476 23.3368 57.5002 23.3368ZM39.7376 7.43181L40.0202 7.12134C41.0519 7.86517 43.2862 9.217 45.9542 9.217C48.6222 9.217 50.8565 7.87164 51.8882 7.12134L52.1708 7.43181L48.0768 11.2544L49.2465 21.3123C49.0099 21.2864 48.7799 21.2606 48.5433 21.2412L46.9333 16.8105C46.6048 15.8985 45.2971 15.8985 44.9685 16.8105L43.3519 21.2541C43.1153 21.2735 42.8853 21.2929 42.6488 21.3188L43.8185 11.2544L39.7376 7.43181ZM45.0473 21.1571L45.9542 18.6604L46.861 21.1571C46.5785 21.1506 46.2893 21.1441 46.0002 21.1441C45.6848 21.1377 45.3628 21.1441 45.0473 21.1571ZM88.4648 46.9259C88.1428 46.9259 87.8208 46.8419 87.5119 46.6672C87.3213 46.5637 87.0979 46.5443 86.8942 46.609C86.6905 46.6737 86.5196 46.8224 86.4276 47.01C85.8888 48.1355 84.7256 48.8599 83.4639 48.8599C82.0576 48.8599 80.8616 47.9802 80.3951 46.7578L83.1222 46.3956C83.5493 46.3373 83.8451 45.9557 83.7925 45.5353C83.7333 45.1149 83.3456 44.8238 82.9185 44.8755L80.2176 45.2313C80.4213 43.6401 81.8013 42.4047 83.4705 42.4047C84.4233 42.4047 85.3302 42.8187 85.9545 43.5302C86.0925 43.6919 86.2962 43.7889 86.513 43.7954C86.7233 43.8018 86.9402 43.7242 87.0913 43.5755C87.4659 43.2197 87.9522 43.0192 88.4713 43.0192C89.5622 43.0192 90.4493 43.8924 90.4493 44.9661C90.4493 46.0527 89.5556 46.9259 88.4648 46.9259Z" fill="white"/>
<path d="M45.9542 7.23132C47.9782 7.23132 49.6276 5.60783 49.6276 3.61566C49.6276 1.62349 47.9782 0 45.9542 0C43.9302 0 42.2808 1.62349 42.2808 3.61566C42.2808 5.60783 43.9302 7.23132 45.9542 7.23132ZM45.9542 1.53294C47.1239 1.53294 48.0702 2.47081 48.0702 3.61566C48.0702 4.76698 47.1173 5.69838 45.9542 5.69838C44.791 5.69838 43.8382 4.76051 43.8382 3.61566C43.8382 2.46434 44.791 1.53294 45.9542 1.53294Z" fill="white"/>
<path d="M80.3293 22.4572C80.4739 22.5736 80.6513 22.6319 80.8287 22.6319C81.0259 22.6319 81.223 22.5607 81.3742 22.4119C82.1627 21.6487 82.6359 20.6397 82.7082 19.5595C82.8002 18.1689 82.2087 16.83 81.1442 15.9374C81.2625 15.5493 81.3347 15.1483 81.361 14.7537C81.5516 11.8043 79.2516 9.24939 76.2419 9.06182C74.9079 8.97773 73.6265 9.36582 72.5816 10.1549C72.1282 9.95441 71.6353 9.83799 71.1293 9.80565C69.8742 9.72803 68.6519 10.2002 67.7845 11.1057C67.6399 11.261 67.561 11.4679 67.5742 11.6749C67.5873 11.8884 67.6859 12.0824 67.8502 12.2182L80.3293 22.4572ZM71.0242 11.3321C71.471 11.358 71.885 11.4874 72.2662 11.7202C72.5685 11.9013 72.9496 11.8625 73.2059 11.6296C74.0076 10.8923 75.0393 10.5236 76.1367 10.5948C78.2922 10.7306 79.935 12.5546 79.8036 14.6632C79.7773 15.0901 79.6722 15.5105 79.4947 15.918C79.3436 16.2608 79.4685 16.6683 79.797 16.8688C80.7039 17.4315 81.223 18.4276 81.1573 19.469C81.1245 19.9411 80.9799 20.3939 80.7302 20.7885L69.5785 11.6426C70.0187 11.4097 70.5182 11.2998 71.0242 11.3321Z" fill="white"/>
</svg>
