<svg width="23" height="23" viewBox="0 0 23 23" fill="none" xmlns="http://www.w3.org/2000/svg">
<path d="M10.6755 1.64221C11.0625 1.04418 11.9375 1.04418 12.3245 1.64221L13.2979 3.14638C13.6533 3.69563 14.3452 3.92043 14.9556 3.685L16.6272 3.04025C17.2918 2.78391 17.9997 3.29822 17.9613 4.00951L17.8647 5.79857C17.8294 6.45184 18.257 7.04036 18.8892 7.20868L20.6205 7.66962C21.3089 7.85289 21.5793 8.68506 21.1301 9.23793L20.0003 10.6285C19.5878 11.1363 19.5878 11.8637 20.0003 12.3715L21.1301 13.7621C21.5793 14.3149 21.3089 15.1471 20.6205 15.3304L18.8892 15.7913C18.257 15.9596 17.8294 16.5482 17.8647 17.2014L17.9613 18.9905C17.9997 19.7018 17.2918 20.2161 16.6272 19.9598L14.9556 19.315C14.3452 19.0796 13.6533 19.3044 13.2979 19.8536L12.3245 21.3578C11.9375 21.9558 11.0625 21.9558 10.6755 21.3578L9.70209 19.8536C9.34665 19.3044 8.6548 19.0796 8.04441 19.315L6.37277 19.9598C5.70816 20.2161 5.00028 19.7018 5.0387 18.9905L5.13533 17.2014C5.17061 16.5482 4.74302 15.9596 4.11082 15.7913L2.37947 15.3304C1.69111 15.1471 1.42073 14.3149 1.8699 13.7621L2.99965 12.3715C3.41218 11.8637 3.41218 11.1363 2.99965 10.6285L1.8699 9.23793C1.42073 8.68506 1.69111 7.85289 2.37947 7.66962L4.11082 7.20868C4.74302 7.04036 5.17061 6.45184 5.13533 5.79856L5.0387 4.00951C5.00028 3.29821 5.70816 2.78391 6.37278 3.04025L8.04441 3.685C8.6548 3.92043 9.34665 3.69563 9.70209 3.14638L10.6755 1.64221Z" stroke="black" stroke-width="0.4"/>
<g clip-path="url(#clip0_685_5460)">
<path d="M12.6932 10.3067C13.3522 10.9657 13.3522 12.0342 12.6932 12.6932C12.0342 13.3522 10.9658 13.3522 10.3068 12.6932C9.64775 12.0342 9.64775 10.9657 10.3068 10.3067C10.9658 9.64769 12.0342 9.64769 12.6932 10.3067Z" fill="black"/>
<path d="M13.4688 7H9.53125C8.13543 7 7 8.13543 7 9.53125V13.4688C7 14.8646 8.13543 16 9.53125 16H13.4688C14.8646 16 16 14.8646 16 13.4688V9.53125C16 8.13543 14.8646 7 13.4688 7ZM11.5 13.75C10.2594 13.75 9.25 12.7409 9.25 11.5C9.25 10.2591 10.2594 9.25 11.5 9.25C12.7406 9.25 13.75 10.2591 13.75 11.5C13.75 12.7409 12.7406 13.75 11.5 13.75ZM14.0312 9.25C13.8759 9.25 13.75 9.12407 13.75 8.96875C13.75 8.8134 13.8759 8.6875 14.0312 8.6875C14.1866 8.6875 14.3125 8.8134 14.3125 8.96875C14.3125 9.12407 14.1866 9.25 14.0312 9.25Z" fill="black"/>
</g>
<defs>
<clipPath id="clip0_685_5460">
<rect width="9" height="9" fill="white" transform="translate(7 7)"/>
</clipPath>
</defs>
</svg>
