<svg xmlns="http://www.w3.org/2000/svg" width="90" height="43" viewBox="0 0 90 43"><g><g><g/><g><g><path fill-opacity=".1" d="M20.735 4.805l-4.077 2.147c8.547-.806 19.619-.072 31.435 2.41 24.827 5.214 43.54 16.17 41.798 24.47-1.744 8.3-23.284 10.8-48.11 5.585-24.828-5.215-43.542-16.17-41.798-24.47.84-3.997 6.27-6.65 14.45-7.742L12.218 1.67l2.846 5.405zm-5.856 3.35c-.372.048-.738.098-1.097.152l-4.699 1.88 3.043-1.602c-2.781.52-5.12 1.246-6.937 2.15-2.522 1.255-3.882 2.77-4.228 4.418-.346 1.647.29 3.582 2.094 5.745 1.795 2.153 4.639 4.395 8.368 6.578 7.448 4.36 18.225 8.371 30.563 10.963 12.337 2.59 23.817 3.255 32.39 2.26 4.292-.498 7.798-1.406 10.308-2.655 2.522-1.255 3.882-2.77 4.228-4.418.346-1.648-.29-3.582-2.094-5.746-1.795-2.153-4.639-4.394-8.367-6.577-7.449-4.36-18.226-8.371-30.564-10.963-12.335-2.59-23.813-3.255-32.385-2.26l2.098 5.242z"/></g><g><g><g><g><g><path fill-opacity=".5" d="M33.463 24.54h2.04c.176 0 .319.132.319.295 0 .163-.143.294-.319.294h-1.688v3.294c0 .18-.157.326-.352.326-.195 0-.353-.145-.353-.326v-3.557a.342.342 0 0 1 .353-.326z"/></g><g><path fill-opacity=".5" d="M57.238 28.434c0 .173-.153.316-.341.316-.188 0-.341-.143-.341-.316v-.152a1.24 1.24 0 0 1-1.006.482c-.709 0-1.38-.514-1.38-1.422 0-.919.679-1.432 1.38-1.432.477 0 .788.229 1.006.513v-.187c0-.173.153-.316.341-.316.191 0 .341.143.341.316zm-1.526-.215a.854.854 0 0 0 .866-.877.86.86 0 0 0-.866-.888c-.462 0-.848.347-.848.878 0 .55.383.887.848.887z"/></g><g><path fill-opacity=".5" d="M49.818 28.434c0 .173-.153.316-.341.316-.188 0-.341-.143-.341-.316v-.152a1.24 1.24 0 0 1-1.006.482c-.709 0-1.38-.514-1.38-1.422 0-.919.679-1.432 1.38-1.432.477 0 .788.229 1.006.513v-.187c0-.173.153-.316.341-.316.191 0 .341.143.341.316zm-1.526-.215a.854.854 0 0 0 .866-.877.86.86 0 0 0-.866-.888c-.462 0-.848.347-.848.878 0 .55.383.887.848.887z"/></g><g><path fill-opacity=".5" d="M35.811 25.92c.188 0 .342.143.342.316v.187c.217-.284.529-.513 1.005-.513.701 0 1.38.513 1.38 1.432 0 .908-.675 1.422-1.38 1.422-.488 0-.795-.23-1.005-.482v1.484c0 .173-.154.315-.342.315-.187 0-.341-.142-.341-.315v-3.53c0-.173.154-.316.341-.316zm2.033 1.412c0-.53-.386-.878-.847-.878-.462 0-.863.354-.863.888 0 .53.405.877.863.877.469 0 .847-.34.847-.887z"/></g><g><path fill-opacity=".5" d="M39.09 27.335c0-.78.671-1.425 1.575-1.425.904 0 1.568.634 1.568 1.425 0 .773-.671 1.418-1.579 1.418-.9 0-1.564-.63-1.564-1.418zm2.468 0c0-.478-.375-.877-.904-.877-.54 0-.889.392-.889.877 0 .475.375.877.9.877.548 0 .893-.395.893-.877z"/></g><g><path fill-opacity=".5" d="M43.216 25.933c.21 0 .312.098.432.26l.825 1.165.829-1.168c.12-.163.24-.26.428-.26.18 0 .326.135.326.302v2.205c0 .166-.146.301-.326.301h-.023c-.18 0-.326-.135-.326-.301v-1.508l-.672.887a.32.32 0 0 1-.499 0l-.667-.877v1.498c0 .166-.147.301-.327.301-.18 0-.326-.135-.326-.301v-2.205c-.004-.163.143-.299.326-.299z"/></g><g><path fill-opacity=".5" d="M50.779 28.161c.247-.454.379-.773.379-1.695v-.236c0-.146.127-.26.281-.26h1.673c.158 0 .281.118.281.26v1.931h.195c.158 0 .282.118.282.26v.746c0 .145-.128.26-.282.26-.157 0-.28-.118-.28-.26v-.468h-2.435v.468c0 .145-.128.26-.282.26-.157 0-.281-.118-.281-.26v-.746c.004-.142.131-.26.285-.26zm1.943-1.657h-.934v.36c0 .496-.128.957-.3 1.294h1.234z"/></g><g><path fill-opacity=".5" d="M57.804 29.187c.315-.055.461-.197.435-.44l-.004-.003h-.041c-.233 0-.424-.177-.424-.392 0-.215.191-.392.424-.392h.034c.232 0 .424.177.424.392v.291c0 .524-.27.745-.788.784z"/></g></g><g><g><path fill-opacity=".5" d="M33.163 33.033l-.686-.739c-.165-.177-.03-.45.225-.45.09 0 .173.038.229.1l1.129 1.286v-1.078c0-.17.15-.312.338-.312.183 0 .337.139.337.312v1.078l1.133-1.286a.308.308 0 0 1 .229-.1c.251 0 .386.273.225.45l-.687.739.83 1.189c.135.194-.016.45-.267.45a.327.327 0 0 1-.266-.134l-.747-1.072-.45.492v.403c0 .17-.15.312-.337.312-.184 0-.338-.139-.338-.312v-.403l-.45-.492-.747 1.072a.327.327 0 0 1-.266.135c-.251 0-.401-.257-.266-.451z"/></g><g><path fill-opacity=".5" d="M37.618 31.843c.183 0 .337.14.337.313v.846h1.294v-.85c0-.17.15-.312.338-.312.184 0 .338.139.338.312v2.205c0 .17-.15.312-.338.312-.184 0-.338-.138-.338-.312v-.842h-1.294v.842c0 .17-.15.312-.337.312-.184 0-.338-.138-.338-.312v-2.205c0-.17.15-.309.338-.309z"/></g><g><path fill-opacity=".5" d="M41.333 33.535c-.402-.114-.683-.384-.683-.81 0-.524.416-.885 1.155-.885h1.137c.184 0 .338.139.338.312v2.209c0 .17-.15.312-.338.312-.184 0-.338-.139-.338-.312v-.722h-.6l-.6.892a.33.33 0 0 1-.278.142c-.258 0-.416-.267-.273-.468zm1.271-.367v-.825h-.712c-.357 0-.574.152-.574.409 0 .263.232.416.577.416z"/></g><g><path fill-opacity=".5" d="M25.991 31.84c.188 0 .342.143.342.316v.187c.217-.284.529-.513 1.005-.513.701 0 1.38.513 1.38 1.432 0 .908-.675 1.422-1.38 1.422-.488 0-.795-.23-1.005-.482v1.484c0 .173-.154.315-.342.315-.187 0-.341-.142-.341-.315v-3.534c.004-.173.154-.312.341-.312zm2.033 1.412c0-.53-.386-.878-.847-.878-.462 0-.863.354-.863.888 0 .53.405.877.863.877.469-.003.847-.34.847-.887z"/></g><g><path fill-opacity=".5" d="M21.835 34.071c.248-.454.379-.773.379-1.695v-.236c0-.146.128-.26.281-.26h1.673c.158 0 .282.118.282.26v1.931h.195c.157 0 .281.118.281.26v.746c0 .145-.128.26-.281.26-.158 0-.282-.118-.282-.26v-.468h-2.43v.468c0 .145-.128.26-.282.26-.157 0-.281-.118-.281-.26v-.746c0-.142.124-.26.281-.26zm1.943-1.657h-.934v.36c0 .496-.127.957-.3 1.294h1.234z"/></g><g><path fill-opacity=".5" d="M31.483 31.843a.345.345 0 0 0-.27.212l-.712 1.827-.788-1.844a.344.344 0 0 0-.315-.198h-.012c-.243 0-.405.229-.307.433l1.08 2.316c-.004.004-.187.437-.191.444a.544.544 0 0 1-.229.264.39.39 0 0 1-.172.034.282.282 0 0 0-.274.215c-.038.163.097.32.277.323h.042c.495 0 .768-.208 1.012-.77l1.223-2.83c.094-.221-.097-.46-.364-.426z"/></g></g><g><g><path fill-opacity=".5" d="M61.045 32.414h-.656c-.161 0-.289-.118-.289-.267 0-.15.128-.267.289-.267h1.988c.161 0 .289.118.289.267 0 .15-.128.267-.29.267h-.656v1.928c0 .173-.15.312-.337.312-.188 0-.338-.139-.338-.312z"/></g><g><path fill-opacity=".5" d="M62.83 33.228c0-.78.623-1.418 1.5-1.418.66 0 1.096.312 1.317.752.075.15.113.312.135.458.03.229-.161.433-.413.433h-1.83c.075.444.431.694.885.694.267 0 .473-.07.668-.198a.282.282 0 0 1 .334.007l.022.018c.128.1.124.284-.007.377-.263.191-.597.31-1.024.31-.9-.008-1.587-.583-1.587-1.433zm2.31-.19c-.044-.403-.348-.746-.813-.746-.432 0-.732.319-.796.745z"/></g><g><path fill-opacity=".5" d="M49.7 33.235c0-.78.671-1.425 1.575-1.425.904 0 1.568.635 1.568 1.425 0 .773-.671 1.418-1.579 1.418-.9 0-1.564-.634-1.564-1.418zm2.468 0c0-.478-.375-.877-.904-.877-.54 0-.889.392-.889.877 0 .475.375.877.9.877.548 0 .893-.395.893-.877z"/></g><g><g><path fill-opacity=".5" d="M59.238 31.82c.183 0 .337.139.337.312v2.209c0 .17-.15.312-.337.312-.184 0-.338-.139-.338-.312v-2.209c0-.173.15-.312.338-.312z"/></g><g><path fill-opacity=".5" d="M59.24 31.257c.232 0 .42-.174.42-.389 0-.214-.188-.388-.42-.388-.232 0-.42.174-.42.388 0 .215.188.389.42.389z"/></g></g><g><path fill-opacity=".5" d="M46.189 34.071c.247-.454.379-.773.379-1.695v-.236c0-.146.127-.26.281-.26h1.673c.158 0 .281.118.281.26v1.931h.195c.158 0 .282.118.282.26v.746c0 .145-.128.26-.282.26-.157 0-.28-.118-.28-.26v-.468h-2.435v.468c0 .145-.128.26-.282.26-.157 0-.281-.118-.281-.26v-.746c0-.142.128-.26.285-.26zm1.943-1.657h-.934v.36c0 .496-.128.958-.3 1.294h1.234z"/></g><g><path fill-opacity=".5" d="M55.119 34.071c.247-.454.379-.773.379-1.695v-.236c0-.146.127-.26.281-.26h1.673c.158 0 .281.118.281.26v1.931h.195c.158 0 .282.118.282.26v.746c0 .145-.128.26-.282.26-.157 0-.28-.118-.28-.26v-.468h-2.435v.468c0 .145-.128.26-.282.26-.157 0-.281-.118-.281-.26v-.746c.004-.142.131-.26.285-.26zm1.943-1.657h-.934v.36c0 .496-.128.958-.3 1.294h1.234z"/></g><g><g><path fill-opacity=".5" d="M66.75 31.83h.007c.18 0 .326.135.326.302v1.567l1.324-1.716a.393.393 0 0 1 .315-.15c.214 0 .387.16.387.358v2.17c0 .167-.147.302-.327.302-.18 0-.326-.135-.326-.302v-1.557l-1.328 1.71a.39.39 0 0 1-.311.149c-.214 0-.387-.16-.387-.357v-2.17c-.007-.17.14-.306.32-.306z"/></g><g><path fill-opacity=".5" d="M67.116 30.69l.04-.006a.203.203 0 0 1 .218.104c.083.138.207.218.402.218.195 0 .322-.08.401-.218a.217.217 0 0 1 .218-.104l.033.007c.124.02.195.142.15.25-.127.311-.416.499-.806.499-.39 0-.683-.188-.81-.5-.042-.107.03-.229.154-.25z"/></g></g></g><g><g><path fill-opacity=".5" d="M32.395 38.294h-.656c-.161 0-.289-.118-.289-.267 0-.15.128-.267.289-.267h1.988c.161 0 .289.118.289.267 0 .15-.128.267-.29.267h-.656v1.928c0 .173-.15.312-.337.312-.188 0-.338-.139-.338-.312z"/></g><g><path fill-opacity=".5" d="M37.238 40.234c0 .173-.153.316-.341.316-.188 0-.341-.142-.341-.316v-.152a1.24 1.24 0 0 1-1.006.482c-.709 0-1.38-.514-1.38-1.422 0-.919.679-1.432 1.38-1.432.477 0 .788.229 1.006.513v-.187c0-.173.153-.316.341-.316.188 0 .341.143.341.316zm-1.526-.215a.854.854 0 0 0 .866-.877.86.86 0 0 0-.866-.888c-.462 0-.848.347-.848.878-.004.55.379.887.848.887z"/></g><g><g><g><path fill-opacity=".5" d="M46.71 40.256c.016-.142.15-.246.305-.229a.218.218 0 0 0 .04.004c.327 0 .552-.184.571-2.008 0-.139.124-.253.274-.253h1.658c.157 0 .285.118.285.264v2.205c0 .17-.15.312-.338.312-.183 0-.337-.139-.337-.312v-1.935h-.916c0 1.966-.4 2.247-1.05 2.247-.052 0-.15-.01-.251-.021a.26.26 0 0 1-.24-.274z"/></g></g></g><g><path fill-opacity=".5" d="M43.43 39.145c0-.78.671-1.425 1.575-1.425.904 0 1.568.634 1.568 1.425 0 .773-.671 1.418-1.579 1.418-.9 0-1.564-.634-1.564-1.418zm2.468 0c0-.478-.375-.877-.904-.877-.54 0-.889.392-.889.877 0 .475.375.877.9.877.548 0 .893-.398.893-.877z"/></g><g><path fill-opacity=".5" d="M50.55 39.145c0-.78.671-1.425 1.575-1.425.904 0 1.568.634 1.568 1.425 0 .773-.671 1.418-1.579 1.418-.9 0-1.564-.634-1.564-1.418zm2.468 0c0-.478-.375-.877-.904-.877-.54 0-.889.392-.889.877 0 .475.375.877.9.877.548 0 .893-.398.893-.877z"/></g><g><path fill-opacity=".5" d="M39.906 37.723c.21 0 .312.098.432.26l.825 1.165.829-1.168c.12-.163.24-.26.428-.26.18 0 .326.135.326.302v2.215c0 .174-.15.312-.338.312-.187 0-.337-.138-.337-.312V38.72l-.672.887a.32.32 0 0 1-.499 0l-.667-.877v1.519c0 .166-.147.301-.327.301-.18 0-.326-.135-.326-.301v-2.226c-.004-.163.146-.299.326-.299z"/></g><g><g><path fill-opacity=".5" d="M58.568 37.72c.183 0 .337.139.337.312v2.209c0 .17-.15.312-.337.312-.184 0-.338-.139-.338-.312v-2.209c0-.173.15-.312.338-.312z"/></g><g><path fill-opacity=".5" d="M58.57 37.147c.232 0 .42-.174.42-.389 0-.214-.188-.388-.42-.388-.232 0-.42.174-.42.388 0 .215.188.389.42.389z"/></g></g><g><path fill-opacity=".5" d="M54.449 39.961c.247-.454.379-.773.379-1.695v-.236c0-.146.127-.26.281-.26h1.673c.158 0 .281.118.281.26v1.931h.195c.158 0 .282.118.282.26v.746c0 .145-.128.26-.282.26-.157 0-.28-.118-.28-.26v-.468h-2.435v.468c0 .145-.128.26-.282.26-.157 0-.281-.118-.281-.26v-.746c.004-.142.128-.26.285-.26zm1.943-1.657h-.934v.36c0 .496-.128.958-.3 1.294h1.234z"/></g></g></g><g><g><path fill-opacity=".5" d="M69.803 22.757c.715.325 1.747.872 1.677 1.654-.086.954-1.25 1.471-2.01 2.053-.154.117-.393-.146-.575-.08-.795.29-1.442 1.242-2.28 1.12-.385-.056-3.105-3.143-4.419-1.62-.373.434.208 1.15.105 1.713-.038.21-.278.415-.491.41-.196-.006-.353-.243-.398-.434a34.743 34.743 0 0 1-.743-4.455c-.02-.207.065-.468.244-.572 1.88-1.09 4.296-1.392 5.818-2.944.506-.516-.384-1.763-1.099-1.869-.967-.143-1.732.911-2.622 1.318a.514.514 0 0 1-.338.034.478.478 0 0 1-.262-.197c-.425-.649-.415-1.89-1.182-2.004-1.03-.154-1.811 1.047-2.787 1.41-.21.08-.454-.036-.66-.124-4.204-1.8-8.183-4.19-12.555-5.53-1.28-.392-2.651.394-3.987.46-.211.011-.474-.055-.59-.231-1.748-2.675-2.683-5.952-4.936-8.218-.566-.569-2.17.297-2.142 1.1.054 1.501 1.58 2.557 2.319 3.865a.413.413 0 0 1 .037.312.466.466 0 0 1-.21.247c-.117.07-1.483 1.15-2.014.561-.396-.438-.327-1.438-.912-1.518-.795-.11-2.297.312-2.142 1.099.444 2.24 2.454 3.856 3.523 5.873.092.175.018.428-.102.586a7.564 7.564 0 0 1-1.474 1.488c-.18.134-.459.201-.664.11-1.468-.648-2.674-1.937-4.242-2.277-.985-.214-2.401-.133-2.937.72-1.701 2.71 4.998 4.968 5.071 5.014.175.112.257.374.229.58-.235 1.746-.551 3.487-1.005 5.19-.14.522-.802.577-.886-.021-.152-1.095.967-2.876-1.669-1.91-1.009.37-1.585 1.682-2.648 1.837-.838.122-1.485-.83-2.28-1.12-.182-.066-.421.197-.575.08-.76-.58-1.923-1.096-2.01-2.05-.257-2.788 2.269-1.313 3.072-1.403.628-.071 1.207-.85 1.793-.614 1.139.46 1.695 1.825 2.753 2.448.516.304 1.353.64 1.782.222.662-.645 1.193-1.87.735-2.673-.61-1.07-2.147-1.209-3.256-1.744-.061-.03.074.131.056.197a1.4 1.4 0 0 1-.243.503c-.038.048-.125.06-.18.035-.16-.072-.369-.14-.428-.305-.523-1.454-.987-2.937-1.283-4.452-.038-.195.127-.441.315-.503a31.024 31.024 0 0 1 4.817-1.186c.212-.034.498.125.551.333.048.189-.207.335-.349.468-.053.05-.272.018-.21.055 1.044.619 2.004 1.564 3.207 1.72.54.07 1.328-.64 1.152-1.154-.757-2.21-2.523-3.94-3.605-6.01-.09-.172.01-.45.173-.557.91-.606 1.929-1.033 2.918-1.498a.51.51 0 0 1 .338-.035.488.488 0 0 1 .266.194c.334.487.444 1.158.911 1.519.188.145.723-.105.634-.326-.56-1.394-1.58-2.557-2.318-3.866a.413.413 0 0 1-.037-.312.45.45 0 0 1 .21-.246c.955-.533 1.896-1.11 2.918-1.498.195-.074.49-.014.604.16 1.791 2.71 3.067 5.758 5.023 8.352.228.303 1 .152 1.117-.208.542-1.66.96-3.483.646-5.2-.021-.114-3.024-1.8-1.977-3 .297-.341.906-.222 1.35-.139.956.18 1.8.912 2.772.912.05 0 3.41-1.603 4.213-.662.27.316.065.896-.176 1.234-.488.683-1.741.836-1.891 1.661-.312 1.715-.177 3.653.645 5.19.389.728 1.65.845 2.416.538.435-.174-.828-.797-.668-1.238.566-1.552 1.863-2.546 3.207-1.45.359.293.505.789.65 1.228.058.18-.153.398-.06.562.097.176.37.404.532.284.446-.33.785-.84.941-1.373.142-.481-1.247-.136-.46-.95.142-.147.433-.1.614-.003.51.271.979.638 1.373 1.06.362.389.096.677-.274.736-.099.016-.197-.048-.285-.097-.103-.058-.193-.298-.281-.219-.705.639-1.63 1.809.251 1.845 2.107.04.978-1.581 1.096-2.802.012-.125.25-.04.37-.076.162-.049.324-.102.474-.18.264-.14.619-.635 1.012-.191.358.403-.394.797-.547.888-.12.07-.36.035-.38.173-.078.585-.1 1.219.117 1.768.237.602 1.301.9 1.186 1.536-.156.859-1.186 1.282-1.809 1.893-.174.171-1.446-1.014-.9-.149.419.663.92 1.595 1.703 1.62 1.087.034 1.925-1.016 2.911-1.474a.51.51 0 0 1 .338-.035.482.482 0 0 1 .266.198c.426.648.418 1.866 1.182 2.004.962.174 1.732-.911 2.622-1.318.22-.1.468-.048.604.163.54.843 1.129 1.67 1.522 2.59.077.18-.007.46-.176.559-1.92 1.118-4.3 1.519-5.95 3.01-.493.445-.053 1.535.477 1.937.478.363 1.269.082 1.786-.222 1.058-.622 1.614-1.988 2.753-2.448.586-.236 1.165.543 1.793.614.471.053.968-.45 1.4-.253zm-44.206 2.805l-1.557-.194c-.244-.031-.416-.236-.383-.461.034-.226.255-.385.5-.354l1.54.19c-.115-.852-.903-1.514-1.856-1.514a1.93 1.93 0 0 0-1.418.603.467.467 0 0 1-.649.024 1.178 1.178 0 0 0-.787-.298c-.623 0-1.13.468-1.13 1.044 0 .575.507 1.043 1.13 1.043.183 0 .367-.048.543-.138a.478.478 0 0 1 .353-.032.433.433 0 0 1 .266.215c.312.604.972.992 1.692.992.803 0 1.486-.471 1.756-1.12zM56.31 14.245a.934.934 0 0 0 .352.662c.21.17.48.257.758.24.574-.032 1.013-.493.975-1.023-.037-.51-.495-.905-1.043-.905l-.067.003a1.071 1.071 0 0 0-.717.326.905.905 0 0 0-.258.697zm-5.68-2.971c.034.53.53.932 1.107.901.574-.031 1.013-.492.975-1.023a.934.934 0 0 0-.352-.662 1.08 1.08 0 0 0-.69-.243c-.023 0-.046.004-.068.004-.574.031-1.013.492-.972 1.023zm1.073 1.723a17.43 17.43 0 0 1 4.048 2.184 1.69 1.69 0 0 1-.327-.887c-.015-.215.015-.43.083-.631l-2.386-1.273a1.984 1.984 0 0 1-1.332.607h-.086zM43.981 6.52l-.668 5.395c.135-.014.266-.024.401-.035l.923-2.382c.188-.488.934-.488 1.122 0l.919 2.376c.135.01.266.024.401.038l-.668-5.392 2.337-2.049-.16-.166c-.59.402-1.865 1.123-3.388 1.123s-2.798-.725-3.387-1.123l-.162.166zm.701 5.308c.18-.006.364-.01.544-.006.165 0 .33.003.492.006L45.2 10.49zm25.916 12.763c0-.575-.506-1.043-1.129-1.043-.296 0-.573.107-.787.298a.473.473 0 0 1-.65-.024 1.944 1.944 0 0 0-1.417-.604c-.953 0-1.74.662-1.857 1.515l1.542-.19c.244-.028.465.128.499.353.03.226-.14.43-.383.461l-1.557.195c.267.655.95 1.127 1.752 1.127.72 0 1.384-.389 1.692-.992.052-.1.15-.18.266-.215a.478.478 0 0 1 .353.031c.176.094.36.139.544.139.622 0 1.133-.468 1.133-1.05z"/></g><g><path fill-opacity=".5" d="M43.1 2.428c0-1.068.942-1.938 2.097-1.938s2.097.87 2.097 1.938-.942 1.938-2.097 1.938-2.097-.87-2.097-1.938zm2.097-1.116c-.664 0-1.208.499-1.208 1.116 0 .614.544 1.117 1.208 1.117.664 0 1.208-.5 1.208-1.117 0-.614-.54-1.116-1.208-1.116z"/></g><g><path fill-opacity=".5" d="M57.698 7.038a.4.4 0 0 1-.157-.291.399.399 0 0 1 .12-.305 2.519 2.519 0 0 1 1.91-.697c.288.017.57.08.828.187a3.262 3.262 0 0 1 2.09-.586c1.717.1 3.03 1.47 2.922 3.051a2.678 2.678 0 0 1-.124.635c.607.478.945 1.196.893 1.941a2.284 2.284 0 0 1-.762 1.53.473.473 0 0 1-.596.024zm.987-.309l6.366 4.903c.142-.211.225-.454.243-.707.038-.558-.258-1.092-.776-1.394a.393.393 0 0 1-.173-.51c.102-.218.162-.443.177-.672.075-1.13-.863-2.108-2.094-2.181a2.316 2.316 0 0 0-1.673.555.475.475 0 0 1-.536.048 1.577 1.577 0 0 0-.709-.208 1.637 1.637 0 0 0-.825.166z"/></g></g></g></g></g></g></g></svg>