<svg width="272" height="273" viewBox="0 0 272 273" fill="none" xmlns="http://www.w3.org/2000/svg">
<path d="M9 136.998H272" stroke="black" stroke-width="0.3" stroke-miterlimit="10"/>
<path d="M10.5611 132.134C9.20795 134.158 7.10907 135.741 4.87976 136.96C7.10687 138.207 9.08343 139.887 10.4676 141.894L11.8067 141.906C10.4219 139.958 8.75082 138.262 6.67941 136.977C8.77523 135.713 10.543 134.031 11.9216 132.147L10.5611 132.134Z" fill="black"/>
<path d="M13.7855 132.165C12.427 134.189 10.3281 135.772 8.10413 136.991C10.3312 138.238 12.3078 139.918 13.692 141.925L15.031 141.937C13.6463 139.989 11.9752 138.293 9.90378 137.008C11.9996 135.744 13.7673 134.062 15.1459 132.178L13.7855 132.165Z" fill="black"/>
</svg>
