<svg width="272" height="273" viewBox="0 0 272 273" fill="none" xmlns="http://www.w3.org/2000/svg">
<path d="M9 137H272" stroke="black" stroke-width="0.3" stroke-miterlimit="10"/>
<path d="M10.5611 132.136C9.20795 134.16 7.10907 135.742 4.87976 136.962C7.10687 138.209 9.08343 139.888 10.4676 141.895L11.8067 141.908C10.4219 139.959 8.75082 138.263 6.67941 136.979C8.77523 135.715 10.543 134.033 11.9216 132.149L10.5611 132.136Z" fill="black"/>
<path d="M13.7855 132.167C12.427 134.191 10.3281 135.773 8.10413 136.993C10.3312 138.24 12.3078 139.919 13.692 141.926L15.031 141.939C13.6463 139.99 11.9752 138.294 9.90378 137.01C11.9996 135.746 13.7673 134.064 15.1459 132.18L13.7855 132.167Z" fill="black"/>
</svg>
