<svg width="125" height="126" viewBox="0 0 125 126" fill="none" xmlns="http://www.w3.org/2000/svg">
<path d="M80.8184 2.88164L62.2526 62.4012L103.618 15.7521L62.4488 62.5745L119.212 36.7833L62.5576 62.8126L124.904 62.339L62.5602 63.0744L119.709 88.0002L62.456 63.3146L104.526 109.33L62.2632 63.4917L81.9796 122.64L62.0149 63.575L55.9691 125.629L61.7543 63.5502L30.9914 117.78L61.5263 63.4215L11.3656 100.451L61.3704 63.2112L0.485118 76.637L61.3135 62.9556L0.231247 50.4564L61.3654 62.699L10.6479 26.436L61.5172 62.4857L29.934 8.72918L61.7427 62.3526L54.7547 0.397508L62.0028 62.3227L80.8184 2.88164Z" stroke="black" stroke-opacity="0.8" stroke-width="0.1"/>
</svg>
