<svg xmlns="http://www.w3.org/2000/svg" width="97" height="39" viewBox="0 0 97 39"><g><g><g/><g><g><path fill-opacity=".4" d="M72.852 2.934c13.363-.387 22.737 1.97 23.845 6.818 1.777 7.78-18.404 19.026-45.075 25.121-26.672 6.095-49.735 4.73-51.513-3.05-1.778-7.78 18.403-19.027 45.075-25.121 9.161-2.094 17.897-3.307 25.49-3.683l-4.41-1.297 5.968 1.099L73.945-3zm1.58.967c-.604.007-1.217.021-1.839.041l-1.607 5.46 1.002-5.439c-7.807.294-16.948 1.512-26.581 3.713-13.27 3.033-24.889 7.34-32.942 11.828-4.033 2.247-7.12 4.512-9.077 6.645C1.406 28.309.75 30.14 1.084 31.6c.333 1.46 1.719 2.824 4.443 3.91 2.69 1.07 6.453 1.77 11.062 2.042 9.203.545 21.54-.621 34.81-3.654 13.27-3.032 24.889-7.34 32.942-11.827 4.033-2.248 7.12-4.512 9.077-6.645 1.982-2.16 2.637-3.992 2.304-5.451-.334-1.46-1.72-2.825-4.443-3.91-2.69-1.07-6.454-1.77-11.062-2.043a77.028 77.028 0 0 0-4.225-.129l2.675.788z"/></g><g><g/><g><g><g><path d="M30.478 12.93l1.976 15.818-5.796.019-1.026-11.287-2.428 11.299-6.463.022-2.553-11.197-.925 11.209-5.793.018 1.871-15.833 8.387-.028 2.179 10.303 1.84-10.318z"/></g><g><path d="M36.307 26.787c-1.616-1.44-2.428-3.468-2.437-6.086-.01-2.586.787-4.608 2.385-6.067 1.598-1.458 4.115-2.192 7.544-2.204 3.448-.012 5.974.706 7.585 2.155 1.607 1.449 2.418 3.465 2.424 6.052.01 2.63-.783 4.667-2.375 6.11-1.592 1.443-4.118 2.17-7.582 2.183-3.414.012-5.928-.7-7.544-2.143zm12.2-6.132c-.003-1.28-.372-2.229-1.106-2.851-.735-.623-1.927-.931-3.583-.925-1.641.006-2.828.32-3.556.95-.728.628-1.09 1.58-1.088 2.857.003 1.295.372 2.25 1.106 2.873.735.623 1.921.931 3.562.925 1.654-.006 2.846-.317 3.577-.937.729-.62 1.091-1.585 1.088-2.892z"/></g><g><path d="M61.138 24.255c4.327-.043 7.483-.126 10.316-.253-.098.817-.126 3.641.015 4.621l-15.777.053c.11-2.82.16-5.457.154-7.914-.01-2.457-.077-5.093-.206-7.914l5.46-.018z"/></g><g><path d="M75.397 26.657c-1.616-1.44-2.428-3.468-2.437-6.086-.01-2.586.787-4.608 2.385-6.067 1.598-1.458 4.115-2.192 7.547-2.204 3.445-.012 5.974.706 7.582 2.155 1.607 1.449 2.418 3.465 2.424 6.052.01 2.63-.783 4.667-2.375 6.11-1.592 1.443-4.118 2.17-7.579 2.183-3.414.012-5.93-.7-7.547-2.143zm11.112-3.24c.729-.62 1.091-1.585 1.088-2.892-.003-1.28-.375-2.229-1.106-2.851-.735-.623-1.927-.931-3.583-.925-1.641.006-2.828.32-3.556.95-.728.628-1.09 1.58-1.088 2.857.003 1.295.372 2.25 1.106 2.873.732.623 1.921.931 3.562.925 1.657-.003 2.849-.317 3.577-.937z"/></g></g><g><g><path fill="#fff" d="M11.4 17.09a.727.727 0 0 1 .224-.225.608.608 0 0 1 .29-.055c.165 0 .322.046.472.142.151.092.237.228.259.407.04.293.064.585.07.881.006.296.006.592 0 .891-.006.296-.009.592-.015.891-.006.296.003.592.024.882.04.71.108 1.44.194 2.201.09.759.132 1.492.132 2.201 0 .21-.04.364-.123.469-.083.105-.242.157-.482.157-.197 0-.347-.068-.452-.203a1.277 1.277 0 0 1-.224-.484 2.973 2.973 0 0 1-.086-.57 10.44 10.44 0 0 1-.016-.46c0-.083-.009-.259-.024-.524a62.28 62.28 0 0 1-.046-.937c-.016-.358-.034-.74-.056-1.14-.021-.402-.043-.78-.061-1.142l-.055-.937a12.29 12.29 0 0 1-.025-.524v-.968z"/></g><g><path fill="#fff" d="M15.843 25.37c.166-.228.35-.4.553-.514.203-.114.409-.207.621-.28.212-.075.424-.143.64-.21a2.09 2.09 0 0 0 .63-.336c.113-.062.273-.158.482-.281a7.39 7.39 0 0 0 .614-.413c.203-.151.378-.3.529-.444.15-.145.224-.271.224-.373 0-.01-.006-.015-.015-.015-.022 0-.03-.007-.03-.016l-.032-.03a2.349 2.349 0 0 0-.249-.078 2.159 2.159 0 0 1-.202-.061 115.703 115.703 0 0 1-3.227-.413c-.814-.12-1.441-.247-1.884-.383-.44-.135-.734-.29-.879-.468-.144-.176-.218-.401-.218-.672 0-.105.022-.22.061-.343a3.906 3.906 0 0 1 .326-.715c.062-.105.12-.188.172-.25a2.53 2.53 0 0 1 .655-.56c.27-.167.56-.312.87-.438.31-.124.623-.235.94-.327.316-.093.605-.176.863-.25.29-.021.584-.09.88-.21.294-.12.59-.2.878-.24a.44.44 0 0 1 .357.173.568.568 0 0 1 .141.357c0 .176-.034.309-.101.398a.644.644 0 0 1-.265.203c-.107.047-.23.084-.365.108-.136.025-.27.056-.406.087l-.341.086c-.145.037-.292.077-.436.117-.145.043-.274.077-.39.108-.114.03-.182.052-.204.062l-.91.382a6.05 6.05 0 0 0-.746.367 1.884 1.884 0 0 0-.498.397.62.62 0 0 0-.163.46v.015c.105.145.338.256.701.327.363.074.79.136 1.285.188.491.052 1.01.105 1.555.157.543.053 1.044.13 1.5.235.454.104.835.243 1.136.422.301.176.455.416.467.718 0 .114-.024.25-.07.407a.821.821 0 0 1-.194.358 10.45 10.45 0 0 1-.925.906 9.38 9.38 0 0 1-1.159.866c-.414.266-.842.49-1.284.673-.44.181-.873.29-1.3.32a.615.615 0 0 1-.406-.163.583.583 0 0 1-.18-.413z"/></g><g><path fill="#fff" d="M28.433 23.977c0-.636.012-1.274.04-1.912.025-.641.055-1.28.086-1.92.03-.642.055-1.28.07-1.921a33.01 33.01 0 0 0-.008-1.911.43.43 0 0 1 .172-.256.497.497 0 0 1 .295-.087c.218 0 .384.04.497.117a.666.666 0 0 1 .25.321c.052.136.082.287.092.453.009.167.021.333.03.5.123.228.274.45.443.663.169.212.323.428.458.647 0 .01.009.034.024.07.016.038.028.056.04.056l.24.367c.098.151.194.296.289.438.092.142.206.314.34.524l.062.077.904 1.31c.04.043.077.062.107.062h.031a68.061 68.061 0 0 1-.326-3.379 47.395 47.395 0 0 1-.126-3.41v-.783c.083-.135.225-.203.421-.203.197 0 .342.046.437.142.092.092.157.21.187.351.031.142.046.293.046.453 0 .16.007.309.016.444 0 .01.006.028.015.056.01.025.025.083.04.173.015.089.03.225.046.406.015.182.037.435.062.759.024.324.052.727.076 1.218.025.49.059 1.088.102 1.794v.28l.528 3.48c.01.084.056.21.133.383.076.173.116.305.116.398a.746.746 0 0 1-.187.53c-.123.136-.301.203-.529.203a.289.289 0 0 1-.126-.04 1.969 1.969 0 0 1-.304-.188 1.371 1.371 0 0 1-.101-.086l-2.505-3.573c-.01 0-.021-.018-.03-.055-.01-.037-.022-.065-.031-.087a9.248 9.248 0 0 0-.25-.351 8.782 8.782 0 0 1-.294-.423 11.853 11.853 0 0 0-.25-.366.822.822 0 0 1-.107-.173l-.077-.062c-.052.99-.092 1.986-.126 2.988a49.013 49.013 0 0 0 0 3.005.543.543 0 0 1-.193.327.519.519 0 0 1-.335.142c-.21 0-.372-.056-.489-.163a1.387 1.387 0 0 1-.304-.429v-1.36z"/></g><g><path fill="#fff" d="M35.777 25.586a11.366 11.366 0 0 1-.34-2.355c-.01-.24-.01-.444 0-.617.008-.172-.01-.36-.062-.57a.135.135 0 0 0-.07-.093.495.495 0 0 1-.108-.077.545.545 0 0 1-.102-.117.424.424 0 0 1-.046-.225c0-.083.018-.157.055-.219l.108-.179c.034-.055.074-.12.107-.188a.537.537 0 0 0 .056-.243v-.238c0-.104-.01-.28-.03-.53-.022-.25-.04-.515-.062-.795s-.04-.546-.056-.796a9.27 9.27 0 0 0-.04-.514.986.986 0 0 0-.141-.469.876.876 0 0 1-.126-.469c0-.333.068-.567.203-.702.135-.136.372-.204.716-.204.074 0 .132.03.178.093.046.061.102.092.163.092h.061c.031-.01.077-.025.142-.04a.693.693 0 0 1 .126-.025c.87-.373 1.549-.666 2.037-.872a39.84 39.84 0 0 1 1.103-.453c.25-.093.418-.145.508-.158a.4.4 0 0 1 .224.031c.126.022.209.059.258.117.046.059.07.142.07.256 0 .105-.015.21-.045.312a.372.372 0 0 1-.219.234l-2.037.983-.062.062-1.711.734c-.062.021-.099.074-.108.157-.009.083-.015.151-.015.203 0 .084.01.235.03.454.022.219.04.444.062.678.022.234.043.444.07.626.025.182.044.274.056.274h.015l.016-.015c.113-.084.295-.225.544-.429.249-.203.504-.407.762-.616.258-.207.488-.392.685-.555.197-.16.301-.244.31-.244.114 0 .219.059.31.173a.57.57 0 0 1 .142.36c0 .124-.024.266-.077.423a.72.72 0 0 1-.248.36l-2.428 2.17c0 .106-.003.189-.01.25-.006.062-.009.127-.009.195v.163c0 .373.025.746.077 1.116.052.37.077.74.077 1.116h.061c.01 0 .059-.04.142-.126a2.95 2.95 0 0 0 .187-.204 14.37 14.37 0 0 1 .544-.718c.188-.24.437-.555.747-.953.31-.394.71-.894 1.198-1.498.04-.04.102-.105.179-.188s.126-.126.147-.126c.03-.031.095-.044.194-.04a.561.561 0 0 1 .209.04.63.63 0 0 1 .203.172c.083.093.126.182.126.265 0 .127-.065.29-.194.49-.13.204-.283.414-.458.633a30.04 30.04 0 0 1-.528.632c-.176.203-.31.366-.406.49-.145.228-.32.508-.523.835a9.656 9.656 0 0 1-.66.937c-.237.296-.501.552-.787.765-.286.213-.59.32-.91.32-.156 0-.267-.024-.335-.077a1.34 1.34 0 0 1-.255-.274z"/></g><g><path fill="#fff" d="M44.375 20.592l-.062-.061c-.061.25-.098.499-.107.749-.01.25-.022.505-.031.764 0 .083-.003.225-.01.423-.005.197-.012.41-.024.632-.009.225-.018.437-.024.64-.007.204-.01.343-.01.414a.627.627 0 0 1-.202.327.528.528 0 0 1-.357.141c-.052 0-.117-.009-.193-.024a2.174 2.174 0 0 1-.234-.062.939.939 0 0 1-.218-.102c-.068-.04-.108-.089-.117-.141l-.98-3.45-.716-2.824a.63.63 0 0 1-.062-.108 2.811 2.811 0 0 1-.092-.21l-.086-.225a.605.605 0 0 1-.04-.172c0-.145.07-.262.209-.352a.727.727 0 0 1 .381-.132c.384 0 .627.16.731.484l.855 3.104c.052-.021.086-.077.101-.172.016-.093.025-.152.025-.173 0-.01.009-.062.024-.157.016-.093.043-.256.086-.49.04-.235.102-.555.179-.96.076-.403.184-.924.32-1.56a.61.61 0 0 1 .294-.209c.114-.037.243-.055.39-.055.136 0 .243.021.32.061.077.044.132.136.163.28l1.057 4.465c.022.052.04.108.062.173.021.061.04.12.061.172l.108-.912c.03-.266.061-.524.092-.78.03-.256.061-.524.092-.811.03-.287.074-.617.126-.99.052-.373.114-.817.187-1.325.074-.509.16-1.12.265-1.825.03-.207.123-.34.273-.392.15-.052.32-.077.507-.077.01 0 .034.01.07.025a.224.224 0 0 1 .072.04c.021.009.061.021.123.03.061.01.104.022.126.031.04.093.076.176.107.24.03.069.046.143.046.226-.021-.105-.058-.059-.107.142-.053.197-.117.52-.194.968-.077.447-.16 1.002-.249 1.661-.089.66-.175 1.406-.255 2.232-.083.827-.16 1.724-.224 2.686a94.97 94.97 0 0 0-.163 2.99c-.03 0-.083-.006-.157-.016a1.52 1.52 0 0 1-.433-.123.258.258 0 0 1-.126-.123z"/></g><g><path fill="#fff" d="M58.533 26.026a4.48 4.48 0 0 0 .04-.296c.016-.145.037-.3.062-.46l.07-.453.047-.305c.052-.469.116-.934.193-1.397.077-.462.117-.927.117-1.396v-.234l-.249-.124a5 5 0 0 1-.31-.203c-.166-.114-.35-.244-.553-.392-.203-.148-.403-.293-.6-.444a8.755 8.755 0 0 1-.451-.366 3.819 3.819 0 0 1-.305-.244 11.56 11.56 0 0 1-.436-.392c-.15-.141-.292-.274-.427-.406-.135-.13-.228-.222-.28-.275a1.88 1.88 0 0 1-.233-.29.588.588 0 0 1-.108-.336c0-.175.068-.305.203-.382a.866.866 0 0 1 .436-.117c.105 0 .212.012.326.04.114.025.212.08.295.163.393.438.836.873 1.321 1.31.489.438.987.811 1.494 1.126l.061-.204.655-4.214a.26.26 0 0 1 .194-.219c.107-.03.208-.046.304-.046.27 0 .473.065.614.194.142.13.21.346.21.648v.03a.24.24 0 0 1-.025.078c-.019.04-.031.089-.046.141-.016.053-.028.102-.04.148a.883.883 0 0 0-.016.087c-.03.126-.073.367-.126.724-.052.358-.107.786-.172 1.28l-.203 1.63c-.073.592-.144 1.19-.218 1.788-.074.598-.144 1.175-.218 1.733-.074.558-.141 1.048-.203 1.474.01.104.019.225.025.357.006.136-.012.265-.056.392a.765.765 0 0 1-.193.311.512.512 0 0 1-.366.126.894.894 0 0 1-.522-.157.805.805 0 0 1-.31-.428z"/></g><g><path fill="#fff" d="M61.62 23.165c.009-.061.009-.228 0-.499-.01-.271-.013-.607-.007-1.005.006-.4.016-.842.03-1.32.016-.477.053-.961.108-1.451a12.5 12.5 0 0 1 .25-1.412c.107-.454.251-.845.427-1.178.061-.28.212-.475.451-.586.24-.108.575-.172 1.011-.194.28 0 .52.074.716.219.197.145.366.327.507.54.142.212.262.443.366.693l.28.672v.077c.074.21.126.518.163.928.037.41.061.842.076 1.295.016.453.025.888.025 1.304v.953c0 .31-.04.684-.123 1.116a5.093 5.093 0 0 1-.396 1.223 3.205 3.205 0 0 1-.707.984c-.292.271-.64.407-1.042.407-.341 0-.645-.09-.91-.265a2.384 2.384 0 0 1-.67-.679 3.258 3.258 0 0 1-.411-.897 3.395 3.395 0 0 1-.145-.925zm1.511 1.046c.022.114.08.23.179.351.098.12.215.179.35.179h.123c.436-.395.722-.851.857-1.366a6.39 6.39 0 0 0 .203-1.63 22.657 22.657 0 0 0-.07-1.57 34.163 34.163 0 0 0-.102-1.1c-.04-.386-.092-.747-.157-1.086a6.959 6.959 0 0 0-.218-.881c-.083-.25-.181-.423-.295-.515a.262.262 0 0 0-.04.061.215.215 0 0 0-.025.062c-.218.271-.414.641-.59 1.107a7.897 7.897 0 0 0-.396 1.662c-.09.64-.126 1.356-.108 2.154.019.799.111 1.656.29 2.572z"/></g><g><path fill="#fff" d="M70.78 23.733c-.113.22-.252.463-.411.734a5.36 5.36 0 0 1-.56.774 3.65 3.65 0 0 1-.685.616c-.243.167-.507.25-.787.25-.353 0-.633-.105-.839-.311a2.026 2.026 0 0 1-.473-.774 4.02 4.02 0 0 1-.209-.968c-.03-.34-.046-.641-.046-.913v-.406c.01-.084.025-.207.04-.377.015-.166.037-.357.061-.57.025-.213.05-.438.071-.672a18.9 18.9 0 0 1 .07-.672c.025-.213.047-.404.062-.57.016-.167.028-.29.04-.373a.636.636 0 0 1-.04-.321.694.694 0 0 1 .332-.515.595.595 0 0 1 .31-.086c.031 0 .087.01.163.03.077.022.157.053.243.093.083.04.157.086.218.133.062.046.093.092.093.132v.592a42.17 42.17 0 0 0-.28 2.685 16.97 16.97 0 0 0-.046 1.554c.009.37.04.623.092.759a.832.832 0 0 0 .157.28.605.605 0 0 0 .365.04c.12-.025.262-.123.428-.29.166-.166.365-.425.599-.773.233-.349.516-.814.848-1.397a.787.787 0 0 0 .07-.173c.025-.083.044-.141.056-.172a38.881 38.881 0 0 1-.01-2.075c.016-.697.04-1.39.071-2.075a.505.505 0 0 1 .203-.25.521.521 0 0 1 .295-.092c.04 0 .105.015.188.046s.166.077.249.133c.083.058.156.117.218.179.061.061.092.123.092.188v4.602c.074.469.13.94.172 1.412.04.475.098.944.172 1.412 0 .053.012.157.04.32.025.161.055.337.086.525.03.188.059.36.086.515.028.154.043.256.056.296v.188c0 .373-.203.576-.606.607-.175.022-.326-.055-.442-.225a2.132 2.132 0 0 1-.29-.672 7.438 7.438 0 0 1-.177-.928 25.695 25.695 0 0 1-.117-.999c-.031-.323-.062-.616-.092-.881-.04-.26-.083-.45-.136-.565z"/></g><g><path fill="#fff" d="M75.886 19.075c-.01-.083-.025-.191-.04-.32a31.12 31.12 0 0 0-.046-.374l-.055-.428h-.126l-1.774.53c-.052.083-.138.126-.255.126h-.273c-.145 0-.292-.064-.443-.194-.15-.13-.224-.274-.224-.428 0-.114.04-.225.117-.336a.6.6 0 0 1 .289-.225l2.504-.796c.03-.114.09-.231.178-.351a.415.415 0 0 1 .35-.18c.145 0 .268.038.366.109.099.074.21.13.335.172.093-.009.25-.04.468-.092.218-.052.448-.108.691-.163.243-.056.473-.111.691-.164.219-.052.37-.09.452-.108.126-.021.218-.046.28-.077a.697.697 0 0 1 .295-.046c.175 0 .356.052.544.157.187.105.28.26.28.469a.487.487 0 0 1-.142.351.667.667 0 0 1-.341.194l-2.956.75v.141c0 .324.027.642.086.953.058.311.077.626.055.937l.529 4.822v.342c0 .126-.004.253-.01.382-.006.13-.024.247-.061.352a.545.545 0 0 1-.178.256c-.083.067-.21.101-.372.101a.665.665 0 0 1-.397-.157c-.141-.105-.215-.228-.224-.376l-.59-6.197v-.132z"/></g><g><path fill="#fff" d="M82.06 21.915h-.046c0 .425.01.844.025 1.257.015.41.024.836.024 1.274 0 .126-.003.246-.009.366a1.32 1.32 0 0 1-.055.327.459.459 0 0 1-.163.235c-.077.058-.194.086-.35.086-.292 0-.492-.151-.606-.453a16.69 16.69 0 0 1-.092-1.443c-.01-.475-.04-.959-.092-1.458a.955.955 0 0 0-.178-.423.67.67 0 0 1-.148-.391c0-.093.034-.173.101-.234.068-.062.102-.151.102-.266 0-.81-.025-1.615-.07-2.41a41.388 41.388 0 0 1-.072-2.396v-.265c.074-.105.145-.166.219-.188.073-.021.172-.03.295-.03.3 0 .491.092.574.274.083.182.13.404.142.662l.141 4.153c.01.03.028.08.055.148.025.068.065.102.117.102.074 0 .206-.019.406-.056.196-.037.405-.077.624-.123.218-.046.414-.099.59-.157.175-.056.28-.111.31-.164 0-.074.003-.203.01-.391.005-.188.008-.318.008-.392 0-.437-.006-.869-.015-1.294-.01-.426-.03-.858-.061-1.295a6.6 6.6 0 0 0-.046-.524c-.031-.275-.062-.574-.093-.897-.03-.324-.058-.623-.086-.898a9.096 9.096 0 0 1-.04-.524c-.009-.009-.015-.043-.015-.101v-.118c0-.135.05-.234.147-.296a.593.593 0 0 1 .32-.092c.249 0 .433.077.553.234.12.158.206.349.258.577l.046.576c.022.272.047.561.077.873l.086.881c.025.278.043.466.056.57v.25c0 .053.009.155.024.306.016.15.028.252.04.305v6.4c.052.176.086.324.102.438.015.114.024.25.024.407a.919.919 0 0 1-.101.397c-.068.142-.185.21-.35.21a.765.765 0 0 1-.397-.108 1.124 1.124 0 0 1-.31-.28 1.441 1.441 0 0 1-.21-.383 1.225 1.225 0 0 1-.076-.428v-3.222z"/></g></g></g></g></g></g></g></svg>