<svg width="146" height="28" viewBox="0 0 146 28" fill="none" xmlns="http://www.w3.org/2000/svg">
<path d="M39.3216 1.06421L42.6987 27.694L32.7934 27.7252L31.0392 8.72463L26.8902 27.7459L15.8452 27.7823L11.4808 8.93223L9.9 27.803L0 27.8342L3.19846 1.17839L17.5311 1.13168L21.2548 18.4766L24.4007 1.10573L39.3216 1.06421Z" fill="black"/>
<path d="M49.2792 24.3881C46.5167 21.9643 45.1301 18.5493 45.1144 14.143C45.0986 9.78862 46.4589 6.38399 49.1899 3.92912C51.921 1.47426 56.2223 0.23904 62.0836 0.21828C67.9763 0.19752 72.2934 1.40679 75.0455 3.84608C77.7923 6.28538 79.1788 9.67964 79.1893 14.034C79.205 18.4611 77.85 21.8917 75.1295 24.3206C72.409 26.7495 68.0918 27.9744 62.1728 27.9951C56.3379 28.0159 52.0418 26.817 49.2792 24.3881ZM68.2704 18.9334C69.5151 17.8902 70.1349 16.2657 70.1296 14.0652C70.1244 11.9113 69.4941 10.3128 68.2389 9.26444C66.9837 8.21606 64.9459 7.69706 62.1151 7.70744C59.3105 7.71782 57.2832 8.2472 56.0385 9.30595C54.7938 10.3647 54.1741 11.9684 54.1793 14.1171C54.1846 16.2969 54.8148 17.9058 56.07 18.9541C57.3253 20.0025 59.3525 20.5215 62.1571 20.5111C64.9827 20.5008 67.0204 19.9766 68.2704 18.9334Z" fill="black"/>
<path d="M91.7103 20.1218C99.1051 20.0491 104.499 19.909 109.341 19.6962C109.173 21.0716 109.126 25.8256 109.367 27.476L82.4037 27.5642C82.5928 22.8154 82.6768 18.378 82.6663 14.2415C82.6506 10.1051 82.535 5.66768 82.3145 0.918835L91.6472 0.887695L91.7103 20.1218Z" fill="black"/>
<path d="M116.085 24.17C113.322 21.7463 111.936 18.3313 111.92 13.925C111.904 9.5706 113.265 6.16597 115.996 3.71111C118.727 1.25624 123.028 0.0210227 128.894 0.000262784C134.782 -0.0204972 139.104 1.18877 141.851 3.62807C144.598 6.06736 145.984 9.46161 145.995 13.816C146.011 18.2431 144.656 21.6737 141.935 24.1026C139.215 26.5315 134.898 27.7563 128.984 27.7771C123.149 27.7979 118.847 26.599 116.085 24.17ZM135.076 18.7154C136.321 17.6722 136.941 16.0477 136.935 13.8472C136.93 11.6933 136.295 10.0948 135.045 9.04642C133.789 7.99804 131.752 7.47904 128.921 7.48942C126.116 7.4998 124.089 8.02918 122.844 9.08794C121.599 10.1467 120.98 11.7504 120.985 13.8991C120.99 16.0789 121.62 17.6877 122.876 18.7361C124.126 19.7845 126.158 20.3035 128.963 20.2931C131.794 20.2879 133.831 19.7586 135.076 18.7154Z" fill="black"/>
<path d="M6.71191 8.07593C6.85372 7.8839 6.97977 7.75415 7.09531 7.69706C7.21085 7.63478 7.37366 7.60364 7.589 7.60364C7.8726 7.60364 8.14045 7.68149 8.3978 7.84238C8.65515 7.99808 8.80221 8.22644 8.83897 8.52746C8.90724 9.02051 8.94926 9.51355 8.95976 10.0118C8.97027 10.51 8.97027 11.0083 8.95976 11.5117C8.94926 12.0099 8.94401 12.5082 8.93351 13.0116C8.923 13.5098 8.93876 14.0081 8.97552 14.4959C9.0438 15.6896 9.15934 16.9197 9.3064 18.2016C9.4587 19.4783 9.53223 20.7136 9.53223 21.9073C9.53223 22.2602 9.46396 22.5197 9.32215 22.6961C9.18035 22.8726 8.90725 22.9608 8.49759 22.9608C8.16146 22.9608 7.90412 22.8466 7.72555 22.6183C7.54698 22.3899 7.42093 22.12 7.34215 21.8035C7.26337 21.4869 7.21085 21.1703 7.1951 20.8433C7.17934 20.5215 7.16884 20.262 7.16884 20.07C7.16884 19.9299 7.15308 19.634 7.12682 19.1877C7.10056 18.7414 7.0743 18.2172 7.04804 17.6099C7.02178 17.0079 6.99027 16.3643 6.95351 15.6896C6.91674 15.0149 6.87998 14.3766 6.84847 13.7693C6.8117 13.1621 6.78019 12.6379 6.75393 12.1916C6.72767 11.7453 6.71191 11.4546 6.71191 11.3093V9.67963V8.07593Z" fill="white"/>
<path d="M14.3008 22.0058C14.5844 21.6218 14.8995 21.3311 15.2462 21.1391C15.5928 20.9471 15.9447 20.7914 16.3071 20.6668C16.6695 20.5423 17.0319 20.4281 17.3995 20.3139C17.7619 20.1997 18.1243 20.0129 18.4761 19.7482C18.6705 19.6444 18.9436 19.4835 19.3007 19.2759C19.6526 19.0683 20.0045 18.8347 20.3511 18.5804C20.6977 18.3261 20.9971 18.077 21.2544 17.8331C21.5118 17.5891 21.6378 17.3764 21.6378 17.2051C21.6378 17.1895 21.6273 17.1791 21.6116 17.1791C21.5748 17.1791 21.5591 17.1688 21.5591 17.1532L21.5065 17.1013C21.4173 17.065 21.2755 17.0234 21.0811 16.9715C20.8868 16.9196 20.7713 16.8833 20.7345 16.8677C18.4499 16.6031 16.6064 16.3747 15.2199 16.1723C13.8281 15.9699 12.7567 15.7571 12.0004 15.5287C11.2494 15.3004 10.7452 15.0409 10.4984 14.7398C10.2515 14.444 10.1255 14.0651 10.1255 13.6084C10.1255 13.432 10.1623 13.2399 10.2305 13.0323C10.2988 12.8195 10.3828 12.6119 10.4826 12.4043C10.5824 12.1967 10.6822 11.9995 10.7872 11.8283C10.8923 11.6518 10.9921 11.5117 11.0813 11.4079C11.365 11.0601 11.7378 10.7436 12.2 10.4633C12.6622 10.183 13.1559 9.9391 13.6863 9.72631C14.2168 9.51871 14.7525 9.33187 15.2934 9.17617C15.8344 9.02048 16.3281 8.88035 16.7693 8.75579C17.2629 8.71946 17.7671 8.60528 18.2713 8.40287C18.7755 8.20046 19.2797 8.06552 19.7734 7.99805C20.0202 7.99805 20.2251 8.09666 20.3826 8.28869C20.5402 8.48072 20.6242 8.68313 20.6242 8.89072C20.6242 9.18655 20.5664 9.40972 20.4509 9.56023C20.3354 9.71074 20.183 9.82492 19.9992 9.90277C19.8154 9.98062 19.6053 10.0429 19.3742 10.0844C19.1432 10.1259 18.9121 10.1778 18.681 10.2297C18.5392 10.2661 18.3448 10.3128 18.098 10.3751C17.8512 10.4373 17.5991 10.5048 17.3522 10.5723C17.1054 10.6449 16.8848 10.702 16.6852 10.7539C16.4909 10.8058 16.3754 10.8422 16.3386 10.8577C15.7871 11.0861 15.2724 11.2989 14.784 11.5013C14.2956 11.7037 13.8702 11.9061 13.5078 12.1189C13.1454 12.3265 12.8618 12.5497 12.6569 12.7884C12.4521 13.0271 12.3576 13.2815 12.3786 13.5617V13.5877C12.5572 13.8316 12.9563 14.0184 13.576 14.1378C14.1958 14.2624 14.9258 14.3662 15.7714 14.4544C16.6117 14.5426 17.4993 14.6309 18.4289 14.7191C19.3585 14.8073 20.2146 14.9371 20.9919 15.1135C21.7691 15.29 22.4204 15.5235 22.9351 15.8246C23.4498 16.1204 23.7124 16.5252 23.7334 17.0338C23.7334 17.2259 23.6914 17.4542 23.6126 17.7189C23.5338 17.9836 23.4235 18.1808 23.2817 18.3209C22.8406 18.814 22.3101 19.3174 21.7009 19.8468C21.0916 20.3762 20.4299 20.8588 19.7209 21.3052C19.0119 21.7515 18.2818 22.1304 17.5255 22.4366C16.7745 22.7428 16.034 22.9245 15.3039 22.9764C15.0571 22.9764 14.826 22.8829 14.6107 22.7013C14.4059 22.4885 14.3008 22.2653 14.3008 22.0058Z" fill="white"/>
<path d="M35.8134 19.6651C35.8134 18.596 35.8344 17.5217 35.8816 16.4473C35.9236 15.3678 35.9762 14.2935 36.0287 13.214C36.0812 12.1344 36.1232 11.0601 36.1495 9.9806C36.1757 8.90108 36.1705 7.83194 36.1337 6.7628C36.1863 6.57077 36.286 6.42545 36.4278 6.33203C36.5696 6.23342 36.7377 6.18671 36.932 6.18671C37.3049 6.18671 37.5885 6.25418 37.7829 6.38393C37.9772 6.51368 38.119 6.69533 38.2083 6.92369C38.2975 7.15205 38.3501 7.40636 38.3658 7.68662C38.3816 7.96688 38.4026 8.24714 38.4183 8.5274C38.6284 8.91146 38.8858 9.28514 39.1746 9.64325C39.4635 10.0014 39.7261 10.3647 39.9572 10.7331C39.9572 10.7487 39.9729 10.7902 39.9992 10.8525C40.0255 10.9148 40.0465 10.9459 40.0675 10.9459C40.1725 11.1016 40.3091 11.3092 40.4771 11.5635C40.6452 11.8179 40.808 12.0618 40.9708 12.3005C41.1284 12.5393 41.3227 12.8299 41.5538 13.1828L41.6588 13.3126L43.2029 15.5183C43.2712 15.591 43.3342 15.6221 43.3867 15.6221H43.4392C43.2082 13.7641 43.0243 11.8698 42.8825 9.93389C42.7407 7.99802 42.6672 6.08291 42.6672 4.19376V2.8755C42.809 2.64714 43.0506 2.53296 43.3867 2.53296C43.7229 2.53296 43.9697 2.61081 44.1325 2.7717C44.2901 2.9274 44.4004 3.12462 44.4529 3.36336C44.5054 3.6021 44.5317 3.85641 44.5317 4.12629C44.5317 4.39617 44.5422 4.64529 44.5579 4.87365C44.5579 4.88921 44.5684 4.92035 44.5842 4.96706C44.5999 5.00858 44.6262 5.10719 44.6525 5.2577C44.6787 5.40821 44.705 5.63657 44.7312 5.94278C44.7575 6.24899 44.7943 6.67457 44.8363 7.21952C44.8783 7.76447 44.9256 8.44436 44.9676 9.26957C45.0096 10.0948 45.0674 11.1016 45.1409 12.2901V12.7624L46.0442 18.6219C46.06 18.7621 46.1388 18.9748 46.2701 19.2655C46.4014 19.5561 46.4696 19.7793 46.4696 19.935C46.4696 20.3035 46.3646 20.5993 46.1493 20.8277C45.9392 21.056 45.6346 21.1702 45.2459 21.1702C45.1934 21.1702 45.1199 21.1495 45.0306 21.1027C44.9413 21.0612 44.852 21.0093 44.7627 20.9574C44.6735 20.9055 44.5894 20.8484 44.5106 20.7862C44.4319 20.7239 44.3741 20.6772 44.3373 20.6408L40.057 14.6256C40.0412 14.6256 40.0202 14.5945 40.0044 14.5322C39.9887 14.4699 39.9677 14.4232 39.9519 14.3869C39.8469 14.2312 39.7051 14.034 39.5265 13.7952C39.3479 13.5565 39.1799 13.3229 39.0223 13.0842C38.8648 12.8455 38.723 12.6431 38.5969 12.4666C38.4709 12.2901 38.4131 12.1967 38.4131 12.176L38.2818 12.0722C38.1925 13.7382 38.1242 15.4145 38.0665 17.1013C38.0139 18.7932 38.0139 20.4799 38.0665 22.1615C38.0297 22.3743 37.9194 22.5559 37.7356 22.7116C37.5518 22.8673 37.3574 22.9504 37.1631 22.9504C36.806 22.9504 36.5276 22.857 36.3281 22.6753C36.1285 22.4937 35.9499 22.2497 35.8081 21.9539V19.6651H35.8134Z" fill="white"/>
<path d="M48.3652 22.3743C48.1866 21.6737 48.0553 21.0146 47.9661 20.3918C47.8768 19.769 47.8137 19.1098 47.7822 18.4092C47.7665 18.0044 47.7665 17.6618 47.7822 17.3712C47.798 17.0805 47.7665 16.764 47.6772 16.411C47.6614 16.3436 47.6194 16.2865 47.5564 16.2553C47.4934 16.2242 47.4303 16.1775 47.3726 16.1256C47.3096 16.0737 47.2518 16.0062 47.1993 15.9284C47.1467 15.8505 47.1205 15.7208 47.1205 15.5495C47.1205 15.4094 47.152 15.2848 47.215 15.181C47.278 15.0772 47.3411 14.9734 47.3988 14.88C47.4566 14.7866 47.5249 14.6776 47.5827 14.5634C47.6404 14.4492 47.6772 14.3143 47.6772 14.1534V13.7538C47.6772 13.5773 47.6614 13.2815 47.6247 12.8611C47.5879 12.4407 47.5564 11.9944 47.5196 11.5221C47.4829 11.0498 47.4514 10.6034 47.4251 10.183C47.3988 9.76265 47.3778 9.47201 47.3568 9.31632C47.3411 9.02049 47.257 8.7558 47.1152 8.52744C46.9734 8.29908 46.8999 8.03958 46.8999 7.73856C46.8999 7.17804 47.0154 6.7836 47.2465 6.55524C47.4776 6.32688 47.882 6.2127 48.4702 6.2127C48.5963 6.2127 48.6961 6.2646 48.7749 6.3684C48.8536 6.4722 48.9482 6.5241 49.0532 6.5241H49.1583C49.2108 6.50853 49.2896 6.48258 49.3998 6.45663C49.5049 6.43068 49.5784 6.41511 49.6152 6.41511C51.1015 5.78712 52.2622 5.29407 53.0972 4.94634C53.9323 4.59861 54.5573 4.3443 54.9827 4.18341C55.4081 4.02771 55.697 3.93948 55.8493 3.91872C56.0016 3.90315 56.1276 3.91872 56.2327 3.97062C56.448 4.00695 56.5898 4.06923 56.6739 4.16784C56.7526 4.26645 56.7946 4.40658 56.7946 4.59861C56.7946 4.77507 56.7684 4.95153 56.7159 5.1228C56.6633 5.29926 56.5373 5.42901 56.343 5.51724L52.8609 7.17285L52.7559 7.27665L49.8305 8.51187C49.7255 8.5482 49.6624 8.63643 49.6467 8.77656C49.6309 8.91669 49.6204 9.03087 49.6204 9.11909C49.6204 9.25922 49.6362 9.51354 49.673 9.88202C49.7097 10.2505 49.7412 10.6294 49.778 11.0238C49.8148 11.4183 49.8515 11.7712 49.8988 12.0774C49.9408 12.3836 49.9723 12.5393 49.9933 12.5393H50.0196L50.0458 12.5133C50.2402 12.3732 50.55 12.1345 50.9754 11.7919C51.4009 11.4494 51.8368 11.1069 52.2779 10.7539C52.7191 10.4062 53.113 10.0948 53.4491 9.81974C53.7853 9.54986 53.9638 9.40973 53.9796 9.40973C54.1739 9.40973 54.3525 9.50834 54.51 9.70037C54.6676 9.8924 54.7516 10.0948 54.7516 10.3076C54.7516 10.5152 54.7096 10.7539 54.6203 11.0186C54.531 11.2833 54.3892 11.4805 54.1949 11.6259L50.0458 15.2796C50.0458 15.4561 50.0406 15.5962 50.0301 15.7C50.0196 15.8038 50.0143 15.9128 50.0143 16.027C50.0143 16.1412 50.0143 16.2346 50.0143 16.302C50.0143 16.93 50.0563 17.558 50.1456 18.1808C50.2349 18.8036 50.2769 19.4264 50.2769 20.0596H50.382C50.3977 20.0596 50.4818 19.9921 50.6236 19.8468C50.7654 19.7067 50.8704 19.5925 50.9439 19.5043C50.9807 19.4524 51.0647 19.3382 51.196 19.1617C51.3273 18.9853 51.5532 18.6998 51.8735 18.295C52.1939 17.8902 52.6193 17.3608 53.1498 16.6913C53.6802 16.027 54.363 15.1862 55.198 14.169C55.2663 14.1015 55.3714 13.9925 55.5027 13.8524C55.634 13.7122 55.718 13.6396 55.7548 13.6396C55.8073 13.5877 55.9176 13.5669 56.0856 13.5721C56.2537 13.5825 56.3745 13.6032 56.4428 13.6396C56.532 13.6759 56.6476 13.7693 56.7894 13.9302C56.9312 14.0859 57.0047 14.2364 57.0047 14.3766C57.0047 14.5893 56.8944 14.8644 56.6739 15.2018C56.4533 15.5443 56.1907 15.8972 55.8913 16.2657C55.5867 16.6342 55.2873 16.9871 54.988 17.3297C54.6886 17.6722 54.4575 17.9473 54.2947 18.1549C54.0479 18.5389 53.7485 19.0112 53.4019 19.5614C53.0552 20.1115 52.6771 20.6409 52.2727 21.1391C51.8683 21.6374 51.4166 22.0681 50.9282 22.4262C50.4397 22.7843 49.9198 22.966 49.3736 22.966C49.1057 22.966 48.9167 22.9245 48.8011 22.8362C48.6856 22.7584 48.5385 22.5975 48.3652 22.3743Z" fill="white"/>
<path d="M63.0606 13.9614L62.9555 13.8576C62.8505 14.278 62.7875 14.6984 62.7717 15.1188C62.7559 15.5392 62.7349 15.97 62.7192 16.4059C62.7192 16.546 62.7139 16.7848 62.7034 17.1169C62.6929 17.4491 62.6824 17.8072 62.6614 18.1809C62.6457 18.5598 62.6299 18.9179 62.6194 19.2604C62.6089 19.6029 62.6036 19.8365 62.6036 19.9559C62.5511 20.1687 62.4356 20.3503 62.257 20.506C62.0784 20.6617 61.8736 20.7447 61.6478 20.7447C61.5585 20.7447 61.4482 20.7292 61.3169 20.7032C61.1856 20.6773 61.0491 20.6409 60.9178 20.5994C60.7865 20.5579 60.6604 20.5008 60.5449 20.4282C60.4293 20.3607 60.361 20.2776 60.3453 20.1894L58.6699 14.3818L57.4462 9.62778C57.4304 9.61221 57.3937 9.54993 57.3412 9.44614C57.2886 9.34234 57.2361 9.22297 57.1836 9.09322C57.1311 8.96347 57.0838 8.83372 57.0365 8.71435C56.9945 8.58979 56.9683 8.49637 56.9683 8.42371C56.9683 8.17978 57.0891 7.98256 57.3254 7.83205C57.567 7.68154 57.7823 7.60888 57.9766 7.60888C58.6331 7.60888 59.048 7.87876 59.2266 8.42371L60.6867 13.65C60.776 13.6137 60.8337 13.5203 60.86 13.3594C60.8862 13.2037 60.902 13.1051 60.902 13.0687C60.902 13.0532 60.9178 12.9649 60.944 12.8041C60.9703 12.6484 61.0175 12.3733 61.0911 11.9788C61.1593 11.5844 61.2644 11.0447 61.3957 10.3648C61.527 9.68487 61.7108 8.80777 61.9419 7.73863C62.0837 7.56217 62.2518 7.44799 62.4461 7.38571C62.6404 7.32343 62.861 7.29229 63.1131 7.29229C63.3442 7.29229 63.528 7.32862 63.6593 7.39609C63.7906 7.46875 63.8851 7.62445 63.9376 7.86838L65.7443 15.3835C65.7811 15.4717 65.8126 15.5651 65.8494 15.6741C65.8861 15.7779 65.9176 15.8765 65.9544 15.9648C66.0227 15.3887 66.0857 14.8749 66.1382 14.4285C66.1908 13.9822 66.2433 13.5462 66.2958 13.1155C66.3483 12.6847 66.4008 12.2332 66.4534 11.7505C66.5059 11.2678 66.5794 10.7125 66.6687 10.0845C66.758 9.45651 66.863 8.70916 66.9891 7.85281C67.1151 6.99646 67.2622 5.96884 67.4407 4.78033C67.4932 4.4326 67.6508 4.20943 67.9082 4.1212C68.1655 4.03297 68.4544 3.99146 68.7747 3.99146C68.7905 3.99146 68.8325 4.00703 68.8955 4.03297C68.9585 4.05892 68.9953 4.07968 69.0163 4.10044C69.0531 4.11601 69.1214 4.13677 69.2264 4.15234C69.3314 4.16791 69.405 4.18867 69.4417 4.20424C69.51 4.35994 69.573 4.50007 69.6256 4.60906C69.6781 4.72324 69.7043 4.8478 69.7043 4.98793C69.6676 4.81147 69.6045 4.88932 69.5205 5.22667C69.4312 5.55883 69.3209 6.10378 69.1896 6.85633C69.0583 7.60888 68.9165 8.54308 68.7642 9.65373C68.6119 10.7644 68.4649 12.0204 68.3283 13.4113C68.1865 14.8022 68.0552 16.3125 67.9449 17.9318C67.8294 19.551 67.7348 21.2274 67.6666 22.9661C67.614 22.9661 67.5248 22.9557 67.3987 22.9401C67.2727 22.9245 67.1466 22.8986 67.0153 22.8623C66.884 22.8259 66.7632 22.7844 66.6582 22.7325C66.5531 22.6806 66.4796 22.608 66.4428 22.5249L63.0606 13.9614Z" fill="white"/>
<path d="M87.2565 23.1061C87.2722 23.0179 87.2985 22.8518 87.3248 22.6079C87.351 22.3639 87.3878 22.1044 87.4298 21.8346C87.4718 21.5647 87.5138 21.3104 87.5506 21.0716C87.5873 20.8329 87.6136 20.6668 87.6294 20.5578C87.7187 19.7689 87.8289 18.9852 87.9602 18.2067C88.0915 17.4283 88.1598 16.6446 88.1598 15.8557V15.4612L87.7344 15.2536C87.6661 15.2173 87.4876 15.1031 87.204 14.9111C86.9203 14.7191 86.6052 14.5011 86.2586 14.252C85.912 14.0029 85.5706 13.7589 85.2345 13.5046C84.8983 13.2503 84.641 13.0427 84.4624 12.887C84.3574 12.8195 84.1841 12.6794 83.9425 12.477C83.7009 12.2746 83.454 12.0566 83.1967 11.8179C82.9393 11.5791 82.6978 11.356 82.4667 11.1328C82.2356 10.9148 82.078 10.7591 81.9887 10.6709C81.8469 10.5308 81.7156 10.3699 81.5896 10.183C81.4635 10.0014 81.4058 9.80934 81.4058 9.61731C81.4058 9.32148 81.5213 9.1035 81.7524 8.97376C81.9835 8.84401 82.2303 8.77654 82.4982 8.77654C82.6767 8.77654 82.8606 8.7973 83.0549 8.84401C83.2492 8.88553 83.4173 8.97894 83.5591 9.11907C84.2313 9.85605 84.9876 10.5878 85.8174 11.3248C86.6525 12.0618 87.5033 12.6898 88.3699 13.2192L88.4749 12.8766L89.5936 5.78191C89.6304 5.58988 89.7407 5.46532 89.9245 5.41342C90.1083 5.36152 90.2816 5.33557 90.4444 5.33557C90.9066 5.33557 91.2532 5.44456 91.4948 5.66254C91.7364 5.88052 91.852 6.24382 91.852 6.75244V6.80434C91.852 6.81991 91.8415 6.86662 91.8099 6.93409C91.7784 7.00156 91.7574 7.0846 91.7312 7.17283C91.7049 7.26106 91.6839 7.3441 91.6629 7.42195C91.6471 7.4998 91.6366 7.5517 91.6366 7.56727C91.5841 7.78006 91.5106 8.18488 91.4213 8.78692C91.332 9.38895 91.2375 10.1104 91.1272 10.9408C91.0221 11.7712 90.9066 12.6898 90.7806 13.6863C90.6545 14.6827 90.5337 15.6896 90.4077 16.6965C90.2816 17.7033 90.1608 18.6738 90.0348 19.6132C89.9087 20.5526 89.7932 21.3778 89.6881 22.0941C89.7039 22.2705 89.7197 22.4729 89.7302 22.6961C89.7407 22.9244 89.7092 23.1424 89.6356 23.3552C89.5621 23.568 89.4518 23.7393 89.3047 23.8794C89.1524 24.0195 88.9476 24.0922 88.6798 24.0922C88.3436 24.0922 88.0443 24.004 87.7869 23.8275C87.5453 23.6666 87.3615 23.4227 87.2565 23.1061Z" fill="white"/>
<path d="M92.5345 18.3003C92.5503 18.1965 92.5503 17.9162 92.5345 17.4595C92.5188 17.0028 92.5135 16.437 92.524 15.7675C92.5345 15.0928 92.5503 14.3507 92.5765 13.5462C92.6028 12.7418 92.6658 11.9269 92.7604 11.1017C92.8601 10.2765 93.0019 9.48765 93.1858 8.72472C93.3696 7.96179 93.6164 7.30266 93.9158 6.74214C94.0208 6.26986 94.2782 5.94289 94.6878 5.75605C95.0975 5.5744 95.67 5.46541 96.4157 5.42908C96.8937 5.42908 97.3033 5.55364 97.6395 5.79757C97.9756 6.0415 98.2644 6.34771 98.506 6.70581C98.7476 7.06392 98.9525 7.45317 99.131 7.87356C99.3096 8.29395 99.4671 8.67282 99.609 9.00498V9.13473C99.735 9.48765 99.8243 10.0066 99.8873 10.6969C99.9503 11.3872 99.9923 12.1138 100.019 12.8767C100.045 13.6396 100.061 14.3714 100.061 15.0721C100.061 15.7727 100.061 16.3073 100.061 16.6758C100.061 17.2 99.9923 17.828 99.8505 18.5546C99.7087 19.2812 99.4829 19.9714 99.173 20.615C98.8632 21.2637 98.4588 21.8139 97.9651 22.2706C97.4661 22.7273 96.8727 22.9557 96.1847 22.9557C95.6017 22.9557 95.0817 22.8052 94.6301 22.5093C94.1784 22.2135 93.795 21.8294 93.4851 21.3675C93.1753 20.9056 92.9389 20.397 92.7814 19.8573C92.6238 19.3175 92.5345 18.7881 92.5345 18.3003ZM95.1185 20.0597C95.1553 20.2517 95.2551 20.4489 95.4231 20.6513C95.5912 20.8537 95.7908 20.9523 96.0218 20.9523H96.2319C96.9777 20.288 97.4661 19.5199 97.6972 18.6532C97.9283 17.7864 98.0439 16.873 98.0439 15.9077C98.0439 15.6793 98.0334 15.3316 98.0176 14.8541C98.0018 14.3818 97.9703 13.8524 97.9231 13.266C97.8758 12.6795 97.8233 12.0619 97.7497 11.4131C97.6815 10.7644 97.5922 10.1572 97.4819 9.58626C97.3716 9.01536 97.2508 8.52231 97.109 8.10192C96.9672 7.68153 96.7991 7.39089 96.6048 7.23519C96.5891 7.25076 96.5628 7.28709 96.5365 7.33899C96.5103 7.39089 96.4945 7.42722 96.4945 7.44279C96.1216 7.89951 95.7855 8.52231 95.4861 9.306C95.1868 10.0949 94.9609 11.0291 94.8086 12.1034C94.6563 13.1829 94.5933 14.387 94.6248 15.7312C94.6563 17.0754 94.8139 18.5182 95.1185 20.0597Z" fill="white"/>
<path d="M108.185 19.2448C107.991 19.6133 107.755 20.0233 107.482 20.4801C107.209 20.9368 106.888 21.3675 106.526 21.7827C106.163 22.1928 105.769 22.5405 105.355 22.8207C104.94 23.101 104.488 23.2411 104.01 23.2411C103.406 23.2411 102.928 23.0647 102.576 22.7169C102.224 22.3692 101.951 21.9333 101.767 21.4143C101.584 20.8953 101.463 20.3555 101.41 19.7846C101.358 19.2137 101.332 18.7051 101.332 18.2484V17.5633C101.347 17.4232 101.374 17.2156 101.4 16.9301C101.426 16.6498 101.463 16.3281 101.505 15.97C101.547 15.6118 101.589 15.233 101.626 14.8385C101.662 14.4441 101.699 14.0704 101.746 13.7071C101.788 13.349 101.825 13.0272 101.851 12.747C101.878 12.4667 101.899 12.2591 101.92 12.119C101.851 11.9425 101.825 11.7661 101.851 11.5792C101.878 11.3924 101.941 11.2315 102.035 11.081C102.13 10.9305 102.261 10.8111 102.419 10.7125C102.576 10.6191 102.755 10.5672 102.949 10.5672C103.002 10.5672 103.096 10.5827 103.228 10.6191C103.359 10.6554 103.495 10.7073 103.642 10.7748C103.784 10.8422 103.91 10.9201 104.015 10.9979C104.12 11.0758 104.173 11.1536 104.173 11.2211V12.2176C103.926 14.1068 103.763 15.617 103.695 16.7381C103.621 17.8591 103.595 18.731 103.616 19.3538C103.632 19.9766 103.684 20.4022 103.774 20.6306C103.863 20.8589 103.952 21.0146 104.042 21.1029C104.252 21.1911 104.462 21.2118 104.667 21.1703C104.871 21.1288 105.113 20.9627 105.397 20.6825C105.68 20.4022 106.022 19.9663 106.421 19.3798C106.82 18.7933 107.303 18.0096 107.87 17.0287C107.907 16.9768 107.944 16.8782 107.991 16.7381C108.033 16.5979 108.065 16.4993 108.086 16.4474C108.049 15.2901 108.044 14.1275 108.07 12.9546C108.096 11.7816 108.138 10.6139 108.191 9.46171C108.259 9.28525 108.374 9.14512 108.537 9.04132C108.695 8.93752 108.863 8.88562 109.041 8.88562C109.11 8.88562 109.22 8.91157 109.362 8.96347C109.504 9.01537 109.645 9.09322 109.787 9.18664C109.929 9.28525 110.055 9.38386 110.16 9.48766C110.265 9.59146 110.318 9.69526 110.318 9.80425V17.5529C110.444 18.3418 110.538 19.1359 110.612 19.9299C110.68 20.7292 110.78 21.5181 110.906 22.3069C110.906 22.3952 110.927 22.5716 110.974 22.8467C111.016 23.1166 111.069 23.4124 111.121 23.729C111.174 24.0456 111.221 24.3362 111.268 24.5957C111.316 24.8552 111.342 25.0265 111.363 25.094V25.4106C111.363 26.0385 111.016 26.3811 110.328 26.433C110.029 26.4693 109.771 26.3396 109.572 26.0541C109.367 25.7635 109.204 25.3898 109.078 24.9227C108.952 24.4608 108.852 23.9366 108.774 23.3605C108.695 22.7844 108.627 22.2239 108.574 21.6789C108.522 21.134 108.469 20.6409 108.416 20.1946C108.348 19.7587 108.275 19.4369 108.185 19.2448Z" fill="white"/>
<path d="M116.92 11.4131C116.904 11.273 116.877 11.0913 116.851 10.8734C116.825 10.6554 116.799 10.4426 116.772 10.2454C116.746 10.043 116.715 9.80423 116.678 9.52397H116.463L113.432 10.4166C113.343 10.5568 113.196 10.6294 112.996 10.6294C112.791 10.6294 112.639 10.6294 112.529 10.6294C112.282 10.6294 112.03 10.5204 111.773 10.3025C111.515 10.0845 111.389 9.84055 111.389 9.58106C111.389 9.38903 111.457 9.20219 111.589 9.01535C111.72 8.8337 111.888 8.70395 112.082 8.63648L116.363 7.29746C116.415 7.10543 116.515 6.90821 116.667 6.7058C116.82 6.50339 117.019 6.40478 117.266 6.40478C117.513 6.40478 117.723 6.46706 117.891 6.58643C118.059 6.71099 118.248 6.80441 118.464 6.87707C118.621 6.8615 118.889 6.8096 119.262 6.72137C119.635 6.63314 120.029 6.53972 120.444 6.4463C120.858 6.35288 121.252 6.25946 121.625 6.17123C121.998 6.083 122.256 6.02072 122.397 5.98958C122.613 5.95325 122.77 5.91173 122.875 5.85983C122.98 5.80793 123.148 5.78198 123.379 5.78198C123.679 5.78198 123.989 5.87021 124.309 6.04667C124.629 6.22313 124.787 6.48263 124.787 6.83555C124.787 7.06391 124.708 7.26113 124.545 7.42721C124.388 7.59329 124.188 7.70228 123.962 7.75418L118.91 9.01535V9.25409C118.91 9.79904 118.957 10.3336 119.057 10.8578C119.157 11.382 119.188 11.9114 119.152 12.4356L120.055 20.5527V21.1288C120.055 21.3416 120.05 21.5544 120.039 21.7723C120.029 21.9903 119.997 22.1875 119.934 22.364C119.871 22.5405 119.771 22.6858 119.63 22.7948C119.488 22.909 119.272 22.966 118.994 22.966C118.779 22.966 118.553 22.8778 118.317 22.7014C118.075 22.5249 117.949 22.3173 117.933 22.0682L116.925 11.6363V11.4131H116.92Z" fill="white"/>
<path d="M127.471 16.1983H127.392C127.392 16.9145 127.408 17.6203 127.434 18.3158C127.46 19.0061 127.476 19.7223 127.476 20.4592C127.476 20.672 127.471 20.8744 127.46 21.0769C127.45 21.2793 127.418 21.4609 127.366 21.627C127.313 21.7931 127.219 21.9228 127.087 22.0214C126.956 22.12 126.756 22.1668 126.488 22.1668C125.99 22.1668 125.648 21.9124 125.454 21.4038C125.365 20.5786 125.312 19.769 125.296 18.9749C125.281 18.1757 125.228 17.3608 125.139 16.52C125.102 16.2761 125.002 16.0374 124.834 15.809C124.666 15.5807 124.582 15.3627 124.582 15.1499C124.582 14.9942 124.64 14.8592 124.755 14.7554C124.871 14.6516 124.929 14.5011 124.929 14.3091C124.929 12.9441 124.887 11.5896 124.808 10.2505C124.729 8.91152 124.687 7.56731 124.687 6.21791V5.77157C124.813 5.59511 124.934 5.49131 125.06 5.45498C125.186 5.41865 125.354 5.40308 125.564 5.40308C126.079 5.40308 126.404 5.55878 126.546 5.86499C126.688 6.1712 126.767 6.54488 126.788 6.98084L127.029 13.9718C127.045 14.0237 127.077 14.1067 127.124 14.2209C127.166 14.3351 127.234 14.3921 127.324 14.3921C127.45 14.3921 127.675 14.361 128.017 14.2987C128.353 14.2364 128.71 14.169 129.083 14.0911C129.456 14.0133 129.792 13.925 130.091 13.8264C130.391 13.733 130.569 13.6396 130.622 13.5514C130.622 13.4268 130.627 13.2088 130.638 12.8922C130.648 12.5757 130.653 12.3577 130.653 12.2331C130.653 11.4961 130.643 10.7695 130.627 10.0533C130.611 9.3371 130.575 8.6105 130.522 7.87352C130.522 7.74896 130.496 7.45832 130.443 6.99122C130.391 6.52931 130.338 6.02588 130.286 5.48093C130.233 4.93598 130.186 4.43255 130.139 3.97064C130.097 3.50874 130.07 3.21291 130.07 3.08835C130.055 3.07278 130.044 3.01569 130.044 2.91708C130.044 2.82366 130.044 2.75619 130.044 2.71986C130.044 2.4915 130.128 2.32542 130.296 2.22162C130.464 2.11782 130.648 2.06592 130.842 2.06592C131.268 2.06592 131.583 2.19567 131.788 2.46036C131.993 2.72505 132.14 3.04683 132.229 3.43089C132.245 3.62292 132.271 3.94988 132.308 4.40141C132.344 4.85813 132.386 5.34599 132.439 5.87018C132.492 6.39437 132.539 6.89261 132.586 7.35452C132.628 7.82162 132.66 8.13821 132.681 8.31467V8.73506C132.681 8.82329 132.696 8.99456 132.723 9.24887C132.749 9.50318 132.77 9.67444 132.791 9.76267V20.5371C132.88 20.8329 132.938 21.082 132.964 21.2741C132.99 21.4661 133.006 21.6945 133.006 21.9592C133.006 22.1719 132.948 22.3899 132.833 22.6287C132.717 22.8674 132.518 22.9816 132.234 22.9816C131.987 22.9816 131.761 22.9193 131.557 22.7999C131.352 22.6754 131.173 22.5197 131.026 22.3276C130.874 22.1356 130.758 21.9176 130.669 21.6841C130.58 21.4453 130.538 21.2066 130.538 20.9627V15.5391L127.471 16.1983Z" fill="white"/>
</svg>
