<svg width="146" height="28" viewBox="0 0 146 28" fill="none" xmlns="http://www.w3.org/2000/svg">
<g clip-path="url(#clip0_564_641)">
<path d="M39.3216 1.06396L42.6987 27.6938L32.7934 27.7249L31.0392 8.72439L26.8902 27.7457L15.8452 27.782L11.4808 8.93199L9.9 27.8028L0 27.8339L3.19846 1.17814L17.5311 1.13143L21.2548 18.4764L24.4007 1.10548L39.3216 1.06396Z" fill="white"/>
<path d="M49.2792 24.3878C46.5167 21.9641 45.1301 18.5491 45.1144 14.1428C45.0986 9.78838 46.4589 6.38375 49.1899 3.92888C51.921 1.47401 56.2223 0.238796 62.0836 0.218036C67.9763 0.197276 72.2934 1.40654 75.0455 3.84584C77.7923 6.28514 79.1788 9.67939 79.1893 14.0338C79.205 18.4609 77.85 21.8914 75.1295 24.3204C72.409 26.7493 68.0918 27.9741 62.1728 27.9949C56.3379 28.0156 52.0418 26.8167 49.2792 24.3878ZM68.2704 18.9331C69.5151 17.89 70.1349 16.2655 70.1296 14.0649C70.1244 11.9111 69.4941 10.3126 68.2389 9.26419C66.9837 8.21581 64.9459 7.69681 62.1151 7.70719C59.3105 7.71757 57.2832 8.24695 56.0385 9.30571C54.7938 10.3645 54.1741 11.9682 54.1793 14.1168C54.1846 16.2966 54.8148 17.9055 56.07 18.9539C57.3253 20.0023 59.3525 20.5213 62.1571 20.5109C64.9827 20.5005 67.0204 19.9763 68.2704 18.9331Z" fill="white"/>
<path d="M91.7103 20.1216C99.1051 20.0489 104.499 19.9088 109.341 19.696C109.173 21.0713 109.126 25.8254 109.367 27.4758L82.4037 27.564C82.5928 22.8152 82.6768 18.3777 82.6663 14.2413C82.6506 10.1049 82.535 5.66743 82.3145 0.918591L91.6472 0.887451L91.7103 20.1216Z" fill="white"/>
<path d="M116.085 24.1698C113.322 21.7461 111.936 18.3311 111.92 13.9248C111.904 9.57036 113.265 6.16573 115.996 3.71086C118.727 1.256 123.028 0.0207786 128.894 1.86437e-05C134.782 -0.0207413 139.104 1.18853 141.851 3.62782C144.598 6.06712 145.984 9.46137 145.995 13.8158C146.011 18.2428 144.656 21.6734 141.935 24.1023C139.215 26.5312 134.898 27.7561 128.984 27.7768C123.149 27.7976 118.847 26.5987 116.085 24.1698ZM135.076 18.7151C136.321 17.6719 136.941 16.0475 136.935 13.8469C136.93 11.6931 136.295 10.0946 135.045 9.04617C133.789 7.99779 131.752 7.4788 128.921 7.48917C126.116 7.49956 124.089 8.02893 122.844 9.08769C121.599 10.1464 120.98 11.7502 120.985 13.8988C120.99 16.0786 121.62 17.6875 122.876 18.7359C124.126 19.7843 126.158 20.3033 128.963 20.2929C131.794 20.2877 133.831 19.7583 135.076 18.7151Z" fill="white"/>
<path d="M6.71191 8.07581C6.85372 7.88378 6.97977 7.75403 7.09531 7.69694C7.21085 7.63466 7.37366 7.60352 7.589 7.60352C7.8726 7.60352 8.14045 7.68137 8.3978 7.84226C8.65515 7.99795 8.80221 8.22631 8.83897 8.52733C8.90724 9.02038 8.94926 9.51343 8.95976 10.0117C8.97027 10.5099 8.97027 11.0081 8.95976 11.5116C8.94926 12.0098 8.94401 12.5081 8.93351 13.0115C8.923 13.5097 8.93876 14.008 8.97552 14.4958C9.0438 15.6895 9.15934 16.9195 9.3064 18.2015C9.4587 19.4782 9.53223 20.7134 9.53223 21.9071C9.53223 22.26 9.46396 22.5195 9.32215 22.696C9.18035 22.8725 8.90725 22.9607 8.49759 22.9607C8.16146 22.9607 7.90412 22.8465 7.72555 22.6182C7.54698 22.3898 7.42093 22.1199 7.34215 21.8033C7.26337 21.4867 7.21085 21.1702 7.1951 20.8432C7.17934 20.5214 7.16884 20.2619 7.16884 20.0699C7.16884 19.9297 7.15308 19.6339 7.12682 19.1876C7.10056 18.7412 7.0743 18.217 7.04804 17.6098C7.02178 17.0078 6.99027 16.3642 6.95351 15.6895C6.91674 15.0148 6.87998 14.3765 6.84847 13.7692C6.8117 13.162 6.78019 12.6378 6.75393 12.1915C6.72767 11.7451 6.71191 11.4545 6.71191 11.3092V9.67951V8.07581Z" fill="black"/>
<path d="M14.3008 22.0056C14.5844 21.6215 14.8995 21.3309 15.2462 21.1389C15.5928 20.9468 15.9447 20.7911 16.3071 20.6666C16.6695 20.542 17.0319 20.4278 17.3995 20.3137C17.7619 20.1995 18.1243 20.0126 18.4761 19.7479C18.6705 19.6441 18.9436 19.4833 19.3007 19.2757C19.6526 19.0681 20.0045 18.8345 20.3511 18.5802C20.6977 18.3259 20.9971 18.0768 21.2544 17.8328C21.5118 17.5889 21.6378 17.3761 21.6378 17.2048C21.6378 17.1893 21.6273 17.1789 21.6116 17.1789C21.5748 17.1789 21.5591 17.1685 21.5591 17.1529L21.5065 17.101C21.4173 17.0647 21.2755 17.0232 21.0811 16.9713C20.8868 16.9194 20.7713 16.8831 20.7345 16.8675C18.4499 16.6028 16.6064 16.3744 15.2199 16.172C13.8281 15.9696 12.7567 15.7568 12.0004 15.5285C11.2494 15.3001 10.7452 15.0406 10.4984 14.7396C10.2515 14.4438 10.1255 14.0649 10.1255 13.6082C10.1255 13.4317 10.1623 13.2397 10.2305 13.0321C10.2988 12.8193 10.3828 12.6117 10.4826 12.4041C10.5824 12.1965 10.6822 11.9993 10.7872 11.828C10.8923 11.6516 10.9921 11.5114 11.0813 11.4076C11.365 11.0599 11.7378 10.7433 12.2 10.463C12.6622 10.1828 13.1559 9.93886 13.6863 9.72607C14.2168 9.51847 14.7525 9.33163 15.2934 9.17593C15.8344 9.02023 16.3281 8.8801 16.7693 8.75554C17.2629 8.71921 17.7671 8.60503 18.2713 8.40262C18.7755 8.20021 19.2797 8.06527 19.7734 7.9978C20.0202 7.9978 20.2251 8.09641 20.3826 8.28844C20.5402 8.48047 20.6242 8.68288 20.6242 8.89048C20.6242 9.18631 20.5664 9.40948 20.4509 9.55999C20.3354 9.7105 20.183 9.82468 19.9992 9.90253C19.8154 9.98038 19.6053 10.0427 19.3742 10.0842C19.1432 10.1257 18.9121 10.1776 18.681 10.2295C18.5392 10.2658 18.3448 10.3125 18.098 10.3748C17.8512 10.4371 17.5991 10.5046 17.3522 10.572C17.1054 10.6447 16.8848 10.7018 16.6852 10.7537C16.4909 10.8056 16.3754 10.8419 16.3386 10.8575C15.7871 11.0858 15.2724 11.2986 14.784 11.501C14.2956 11.7035 13.8702 11.9059 13.5078 12.1187C13.1454 12.3263 12.8618 12.5494 12.6569 12.7882C12.4521 13.0269 12.3576 13.2812 12.3786 13.5615V13.5874C12.5572 13.8314 12.9563 14.0182 13.576 14.1376C14.1958 14.2621 14.9258 14.3659 15.7714 14.4542C16.6117 14.5424 17.4993 14.6306 18.4289 14.7188C19.3585 14.8071 20.2146 14.9368 20.9919 15.1133C21.7691 15.2897 22.4204 15.5233 22.9351 15.8243C23.4498 16.1201 23.7124 16.525 23.7334 17.0336C23.7334 17.2256 23.6914 17.454 23.6126 17.7187C23.5338 17.9833 23.4235 18.1806 23.2817 18.3207C22.8406 18.8137 22.3101 19.3172 21.7009 19.8466C21.0916 20.3759 20.4299 20.8586 19.7209 21.3049C19.0119 21.7513 18.2818 22.1301 17.5255 22.4364C16.7745 22.7426 16.034 22.9242 15.3039 22.9761C15.0571 22.9761 14.826 22.8827 14.6107 22.701C14.4059 22.4883 14.3008 22.2651 14.3008 22.0056Z" fill="black"/>
<path d="M35.8134 19.6649C35.8134 18.5957 35.8344 17.5214 35.8816 16.4471C35.9236 15.3676 35.9762 14.2932 36.0287 13.2137C36.0812 12.1342 36.1232 11.0599 36.1495 9.98035C36.1757 8.90083 36.1705 7.8317 36.1337 6.76256C36.1863 6.57053 36.286 6.42521 36.4278 6.33179C36.5696 6.23318 36.7377 6.18647 36.932 6.18647C37.3049 6.18647 37.5885 6.25394 37.7829 6.38369C37.9772 6.51344 38.119 6.69509 38.2083 6.92345C38.2975 7.15181 38.3501 7.40612 38.3658 7.68638C38.3816 7.96664 38.4026 8.24689 38.4183 8.52715C38.6284 8.91121 38.8858 9.28489 39.1746 9.643C39.4635 10.0011 39.7261 10.3644 39.9572 10.7329C39.9572 10.7485 39.9729 10.79 39.9992 10.8523C40.0255 10.9145 40.0465 10.9457 40.0675 10.9457C40.1725 11.1014 40.3091 11.309 40.4771 11.5633C40.6452 11.8176 40.808 12.0615 40.9708 12.3003C41.1284 12.539 41.3227 12.8297 41.5538 13.1826L41.6588 13.3123L43.2029 15.5181C43.2712 15.5907 43.3342 15.6219 43.3867 15.6219H43.4392C43.2082 13.7639 43.0243 11.8695 42.8825 9.93364C42.7407 7.99778 42.6672 6.08267 42.6672 4.19351V2.87525C42.809 2.64689 43.0506 2.53271 43.3867 2.53271C43.7229 2.53271 43.9697 2.61056 44.1325 2.77145C44.2901 2.92715 44.4004 3.12437 44.4529 3.36311C44.5054 3.60185 44.5317 3.85616 44.5317 4.12604C44.5317 4.39592 44.5422 4.64504 44.5579 4.8734C44.5579 4.88897 44.5684 4.92011 44.5842 4.96682C44.5999 5.00834 44.6262 5.10695 44.6525 5.25746C44.6787 5.40797 44.705 5.63633 44.7312 5.94254C44.7575 6.24875 44.7943 6.67433 44.8363 7.21928C44.8783 7.76423 44.9256 8.44411 44.9676 9.26932C45.0096 10.0945 45.0674 11.1014 45.1409 12.2899V12.7622L46.0442 18.6217C46.06 18.7618 46.1388 18.9746 46.2701 19.2652C46.4014 19.5559 46.4696 19.7791 46.4696 19.9348C46.4696 20.3032 46.3646 20.5991 46.1493 20.8274C45.9392 21.0558 45.6346 21.17 45.2459 21.17C45.1934 21.17 45.1199 21.1492 45.0306 21.1025C44.9413 21.061 44.852 21.0091 44.7627 20.9572C44.6735 20.9053 44.5894 20.8482 44.5106 20.7859C44.4319 20.7236 44.3741 20.6769 44.3373 20.6406L40.057 14.6254C40.0412 14.6254 40.0202 14.5943 40.0044 14.532C39.9887 14.4697 39.9677 14.423 39.9519 14.3867C39.8469 14.231 39.7051 14.0337 39.5265 13.795C39.3479 13.5563 39.1799 13.3227 39.0223 13.084C38.8648 12.8452 38.723 12.6428 38.5969 12.4664C38.4709 12.2899 38.4131 12.1965 38.4131 12.1757L38.2818 12.0719C38.1925 13.7379 38.1242 15.4143 38.0665 17.101C38.0139 18.793 38.0139 20.4797 38.0665 22.1613C38.0297 22.3741 37.9194 22.5557 37.7356 22.7114C37.5518 22.8671 37.3574 22.9501 37.1631 22.9501C36.806 22.9501 36.5276 22.8567 36.3281 22.6751C36.1285 22.4934 35.9499 22.2495 35.8081 21.9537V19.6649H35.8134Z" fill="black"/>
<path d="M48.3652 22.3742C48.1866 21.6736 48.0553 21.0144 47.9661 20.3916C47.8768 19.7688 47.8137 19.1097 47.7822 18.4091C47.7665 18.0042 47.7665 17.6617 47.7822 17.3711C47.798 17.0804 47.7665 16.7638 47.6772 16.4109C47.6614 16.3434 47.6194 16.2864 47.5564 16.2552C47.4934 16.2241 47.4303 16.1774 47.3726 16.1255C47.3096 16.0736 47.2518 16.0061 47.1993 15.9282C47.1467 15.8504 47.1205 15.7206 47.1205 15.5494C47.1205 15.4092 47.152 15.2847 47.215 15.1809C47.278 15.0771 47.3411 14.9733 47.3988 14.8799C47.4566 14.7864 47.5249 14.6775 47.5827 14.5633C47.6404 14.4491 47.6772 14.3142 47.6772 14.1533V13.7536C47.6772 13.5772 47.6614 13.2813 47.6247 12.861C47.5879 12.4406 47.5564 11.9942 47.5196 11.5219C47.4829 11.0497 47.4514 10.6033 47.4251 10.1829C47.3988 9.76253 47.3778 9.47189 47.3568 9.31619C47.3411 9.02036 47.257 8.75567 47.1152 8.52731C46.9734 8.29895 46.8999 8.03945 46.8999 7.73844C46.8999 7.17792 47.0154 6.78348 47.2465 6.55512C47.4776 6.32676 47.882 6.21258 48.4702 6.21258C48.5963 6.21258 48.6961 6.26448 48.7749 6.36828C48.8536 6.47208 48.9482 6.52398 49.0532 6.52398H49.1583C49.2108 6.50841 49.2896 6.48246 49.3998 6.45651C49.5049 6.43056 49.5784 6.41499 49.6152 6.41499C51.1015 5.787 52.2622 5.29395 53.0972 4.94622C53.9323 4.59849 54.5573 4.34418 54.9827 4.18329C55.4081 4.02759 55.697 3.93936 55.8493 3.9186C56.0016 3.90303 56.1276 3.9186 56.2327 3.9705C56.448 4.00683 56.5898 4.06911 56.6739 4.16772C56.7526 4.26633 56.7946 4.40646 56.7946 4.59849C56.7946 4.77495 56.7684 4.95141 56.7159 5.12268C56.6633 5.29914 56.5373 5.42889 56.343 5.51712L52.8609 7.17273L52.7559 7.27653L49.8305 8.51174C49.7255 8.54807 49.6624 8.6363 49.6467 8.77643C49.6309 8.91656 49.6204 9.03074 49.6204 9.11897C49.6204 9.2591 49.6362 9.51341 49.673 9.8819C49.7097 10.2504 49.7412 10.6293 49.778 11.0237C49.8148 11.4181 49.8515 11.7711 49.8988 12.0773C49.9408 12.3835 49.9723 12.5392 49.9933 12.5392H50.0196L50.0458 12.5132C50.2402 12.3731 50.55 12.1344 50.9754 11.7918C51.4009 11.4493 51.8368 11.1067 52.2779 10.7538C52.7191 10.4061 53.113 10.0947 53.4491 9.81962C53.7853 9.54974 53.9638 9.40961 53.9796 9.40961C54.1739 9.40961 54.3525 9.50822 54.51 9.70025C54.6676 9.89228 54.7516 10.0947 54.7516 10.3075C54.7516 10.5151 54.7096 10.7538 54.6203 11.0185C54.531 11.2832 54.3892 11.4804 54.1949 11.6257L50.0458 15.2795C50.0458 15.456 50.0406 15.5961 50.0301 15.6999C50.0196 15.8037 50.0143 15.9127 50.0143 16.0268C50.0143 16.141 50.0143 16.2345 50.0143 16.3019C50.0143 16.9299 50.0563 17.5579 50.1456 18.1807C50.2349 18.8035 50.2769 19.4263 50.2769 20.0595H50.382C50.3977 20.0595 50.4818 19.992 50.6236 19.8467C50.7654 19.7066 50.8704 19.5924 50.9439 19.5041C50.9807 19.4522 51.0647 19.3381 51.196 19.1616C51.3273 18.9851 51.5532 18.6997 51.8735 18.2949C52.1939 17.8901 52.6193 17.3607 53.1498 16.6912C53.6802 16.0269 54.363 15.1861 55.198 14.1688C55.2663 14.1014 55.3714 13.9924 55.5027 13.8522C55.634 13.7121 55.718 13.6395 55.7548 13.6395C55.8073 13.5876 55.9176 13.5668 56.0856 13.572C56.2537 13.5824 56.3745 13.6031 56.4428 13.6395C56.532 13.6758 56.6476 13.7692 56.7894 13.9301C56.9312 14.0858 57.0047 14.2363 57.0047 14.3764C57.0047 14.5892 56.8944 14.8643 56.6739 15.2016C56.4533 15.5442 56.1907 15.8971 55.8913 16.2656C55.5867 16.6341 55.2873 16.987 54.988 17.3295C54.6886 17.6721 54.4575 17.9471 54.2947 18.1547C54.0479 18.5388 53.7485 19.0111 53.4019 19.5612C53.0552 20.1114 52.6771 20.6408 52.2727 21.139C51.8683 21.6372 51.4166 22.068 50.9282 22.4261C50.4397 22.7842 49.9198 22.9659 49.3736 22.9659C49.1057 22.9659 48.9167 22.9243 48.8011 22.8361C48.6856 22.7583 48.5385 22.5974 48.3652 22.3742Z" fill="black"/>
<path d="M63.0606 13.9612L62.9555 13.8574C62.8505 14.2778 62.7875 14.6982 62.7717 15.1185C62.7559 15.5389 62.7349 15.9697 62.7192 16.4057C62.7192 16.5458 62.7139 16.7845 62.7034 17.1167C62.6929 17.4489 62.6824 17.807 62.6614 18.1806C62.6457 18.5595 62.6299 18.9176 62.6194 19.2602C62.6089 19.6027 62.6036 19.8363 62.6036 19.9556C62.5511 20.1684 62.4356 20.3501 62.257 20.5058C62.0784 20.6615 61.8736 20.7445 61.6478 20.7445C61.5585 20.7445 61.4482 20.7289 61.3169 20.703C61.1856 20.677 61.0491 20.6407 60.9178 20.5992C60.7865 20.5577 60.6604 20.5006 60.5449 20.4279C60.4293 20.3604 60.361 20.2774 60.3453 20.1892L58.6699 14.3816L57.4462 9.62754C57.4304 9.61197 57.3937 9.54969 57.3412 9.44589C57.2886 9.34209 57.2361 9.22272 57.1836 9.09297C57.1311 8.96322 57.0838 8.83347 57.0365 8.7141C56.9945 8.58954 56.9683 8.49612 56.9683 8.42346C56.9683 8.17953 57.0891 7.98231 57.3254 7.8318C57.567 7.68129 57.7823 7.60863 57.9766 7.60863C58.6331 7.60863 59.048 7.87851 59.2266 8.42346L60.6867 13.6498C60.776 13.6135 60.8337 13.52 60.86 13.3591C60.8862 13.2034 60.902 13.1048 60.902 13.0685C60.902 13.0529 60.9178 12.9647 60.944 12.8038C60.9703 12.6481 61.0175 12.373 61.0911 11.9786C61.1593 11.5842 61.2644 11.0444 61.3957 10.3645C61.527 9.68463 61.7108 8.80752 61.9419 7.73838C62.0837 7.56192 62.2518 7.44774 62.4461 7.38546C62.6404 7.32318 62.861 7.29204 63.1131 7.29204C63.3442 7.29204 63.528 7.32837 63.6593 7.39584C63.7906 7.4685 63.8851 7.6242 63.9376 7.86813L65.7443 15.3832C65.7811 15.4715 65.8126 15.5649 65.8494 15.6739C65.8861 15.7777 65.9176 15.8763 65.9544 15.9645C66.0227 15.3884 66.0857 14.8746 66.1382 14.4283C66.1908 13.9819 66.2433 13.546 66.2958 13.1152C66.3483 12.6844 66.4008 12.2329 66.4534 11.7502C66.5059 11.2676 66.5794 10.7122 66.6687 10.0843C66.758 9.45627 66.863 8.70891 66.9891 7.85256C67.1151 6.99622 67.2622 5.9686 67.4407 4.78009C67.4932 4.43236 67.6508 4.20919 67.9082 4.12096C68.1655 4.03273 68.4544 3.99121 68.7747 3.99121C68.7905 3.99121 68.8325 4.00678 68.8955 4.03273C68.9585 4.05868 68.9953 4.07944 69.0163 4.1002C69.0531 4.11577 69.1214 4.13653 69.2264 4.1521C69.3314 4.16767 69.405 4.18843 69.4417 4.204C69.51 4.3597 69.573 4.49983 69.6256 4.60882C69.6781 4.723 69.7043 4.84756 69.7043 4.98769C69.6676 4.81123 69.6045 4.88908 69.5205 5.22643C69.4312 5.55859 69.3209 6.10354 69.1896 6.85609C69.0583 7.60863 68.9165 8.54283 68.7642 9.65349C68.6119 10.7641 68.4649 12.0201 68.3283 13.411C68.1865 14.802 68.0552 16.3122 67.9449 17.9315C67.8294 19.5508 67.7348 21.2272 67.6666 22.9658C67.614 22.9658 67.5248 22.9554 67.3987 22.9399C67.2727 22.9243 67.1466 22.8983 67.0153 22.862C66.884 22.8257 66.7632 22.7842 66.6582 22.7323C66.5531 22.6804 66.4796 22.6077 66.4428 22.5247L63.0606 13.9612Z" fill="black"/>
<path d="M87.2565 23.106C87.2722 23.0177 87.2985 22.8517 87.3248 22.6077C87.351 22.3638 87.3878 22.1043 87.4298 21.8344C87.4718 21.5646 87.5138 21.3102 87.5506 21.0715C87.5873 20.8328 87.6136 20.6667 87.6294 20.5577C87.7187 19.7688 87.8289 18.9851 87.9602 18.2066C88.0915 17.4281 88.1598 16.6444 88.1598 15.8556V15.4611L87.7344 15.2535C87.6661 15.2172 87.4876 15.103 87.204 14.911C86.9203 14.719 86.6052 14.501 86.2586 14.2519C85.912 14.0027 85.5706 13.7588 85.2345 13.5045C84.8983 13.2502 84.641 13.0426 84.4624 12.8869C84.3574 12.8194 84.1841 12.6793 83.9425 12.4769C83.7009 12.2745 83.454 12.0565 83.1967 11.8177C82.9393 11.579 82.6978 11.3558 82.4667 11.1327C82.2356 10.9147 82.078 10.759 81.9887 10.6708C81.8469 10.5306 81.7156 10.3697 81.5896 10.1829C81.4635 10.0013 81.4058 9.80922 81.4058 9.61719C81.4058 9.32136 81.5213 9.10338 81.7524 8.97363C81.9835 8.84388 82.2303 8.77641 82.4982 8.77641C82.6767 8.77641 82.8606 8.79717 83.0549 8.84388C83.2492 8.8854 83.4173 8.97882 83.5591 9.11895C84.2313 9.85593 84.9876 10.5877 85.8174 11.3247C86.6525 12.0617 87.5033 12.6897 88.3699 13.219L88.4749 12.8765L89.5936 5.78179C89.6304 5.58976 89.7407 5.4652 89.9245 5.4133C90.1083 5.3614 90.2816 5.33545 90.4444 5.33545C90.9066 5.33545 91.2532 5.44444 91.4948 5.66242C91.7364 5.8804 91.852 6.2437 91.852 6.75232V6.80422C91.852 6.81979 91.8415 6.8665 91.8099 6.93397C91.7784 7.00144 91.7574 7.08448 91.7312 7.17271C91.7049 7.26094 91.6839 7.34398 91.6629 7.42183C91.6471 7.49968 91.6366 7.55158 91.6366 7.56715C91.5841 7.77993 91.5106 8.18475 91.4213 8.78679C91.332 9.38883 91.2375 10.1102 91.1272 10.9406C91.0221 11.771 90.9066 12.6897 90.7806 13.6861C90.6545 14.6826 90.5337 15.6895 90.4077 16.6963C90.2816 17.7032 90.1608 18.6737 90.0348 19.6131C89.9087 20.5525 89.7932 21.3777 89.6881 22.0939C89.7039 22.2704 89.7197 22.4728 89.7302 22.696C89.7407 22.9243 89.7092 23.1423 89.6356 23.3551C89.5621 23.5679 89.4518 23.7392 89.3047 23.8793C89.1524 24.0194 88.9476 24.0921 88.6798 24.0921C88.3436 24.0921 88.0443 24.0038 87.7869 23.8274C87.5453 23.6665 87.3615 23.4226 87.2565 23.106Z" fill="black"/>
<path d="M92.5345 18.2999C92.5503 18.1961 92.5503 17.9158 92.5345 17.4591C92.5188 17.0024 92.5135 16.4367 92.524 15.7672C92.5345 15.0925 92.5503 14.3503 92.5765 13.5459C92.6028 12.7414 92.6658 11.9266 92.7604 11.1014C92.8601 10.2762 93.0019 9.48728 93.1858 8.72435C93.3696 7.96143 93.6164 7.3023 93.9158 6.74178C94.0208 6.26949 94.2782 5.94252 94.6878 5.75568C95.0975 5.57403 95.67 5.46504 96.4157 5.42871C96.8937 5.42871 97.3033 5.55327 97.6395 5.7972C97.9756 6.04113 98.2644 6.34734 98.506 6.70545C98.7476 7.06356 98.9525 7.45281 99.131 7.8732C99.3096 8.29359 99.4671 8.67246 99.609 9.00461V9.13436C99.735 9.48728 99.8243 10.0063 99.8873 10.6966C99.9503 11.3868 99.9923 12.1134 100.019 12.8763C100.045 13.6393 100.061 14.3711 100.061 15.0717C100.061 15.7724 100.061 16.3069 100.061 16.6754C100.061 17.1996 99.9923 17.8276 99.8505 18.5542C99.7087 19.2808 99.4829 19.9711 99.173 20.6146C98.8632 21.2634 98.4588 21.8135 97.9651 22.2702C97.4661 22.7269 96.8727 22.9553 96.1847 22.9553C95.6017 22.9553 95.0817 22.8048 94.6301 22.509C94.1784 22.2131 93.795 21.8291 93.4851 21.3672C93.1753 20.9053 92.9389 20.3966 92.7814 19.8569C92.6238 19.3171 92.5345 18.7877 92.5345 18.2999ZM95.1185 20.0593C95.1553 20.2513 95.2551 20.4485 95.4231 20.651C95.5912 20.8534 95.7908 20.952 96.0218 20.952H96.2319C96.9777 20.2877 97.4661 19.5195 97.6972 18.6528C97.9283 17.7861 98.0439 16.8726 98.0439 15.9073C98.0439 15.6789 98.0334 15.3312 98.0176 14.8537C98.0018 14.3814 97.9703 13.8521 97.9231 13.2656C97.8758 12.6791 97.8233 12.0615 97.7497 11.4128C97.6815 10.764 97.5922 10.1568 97.4819 9.58589C97.3716 9.01499 97.2508 8.52194 97.109 8.10156C96.9672 7.68117 96.7991 7.39053 96.6048 7.23483C96.5891 7.2504 96.5628 7.28673 96.5365 7.33863C96.5103 7.39053 96.4945 7.42686 96.4945 7.44243C96.1216 7.89915 95.7855 8.52195 95.4861 9.30563C95.1868 10.0945 94.9609 11.0287 94.8086 12.103C94.6563 13.1826 94.5933 14.3866 94.6248 15.7308C94.6563 17.075 94.8139 18.5179 95.1185 20.0593Z" fill="black"/>
<path d="M108.185 19.2445C107.991 19.613 107.755 20.023 107.482 20.4797C107.209 20.9364 106.888 21.3672 106.526 21.7824C106.163 22.1924 105.769 22.5401 105.355 22.8204C104.94 23.1006 104.488 23.2408 104.01 23.2408C103.406 23.2408 102.928 23.0643 102.576 22.7166C102.224 22.3689 101.951 21.9329 101.767 21.4139C101.584 20.8949 101.463 20.3551 101.41 19.7842C101.358 19.2133 101.332 18.7047 101.332 18.248V17.5629C101.347 17.4228 101.374 17.2152 101.4 16.9297C101.426 16.6495 101.463 16.3277 101.505 15.9696C101.547 15.6115 101.589 15.2326 101.626 14.8382C101.662 14.4437 101.699 14.0701 101.746 13.7068C101.788 13.3486 101.825 13.0269 101.851 12.7466C101.878 12.4663 101.899 12.2587 101.92 12.1186C101.851 11.9422 101.825 11.7657 101.851 11.5789C101.878 11.392 101.941 11.2311 102.035 11.0806C102.13 10.9301 102.261 10.8107 102.419 10.7121C102.576 10.6187 102.755 10.5668 102.949 10.5668C103.002 10.5668 103.096 10.5824 103.228 10.6187C103.359 10.655 103.495 10.7069 103.642 10.7744C103.784 10.8419 103.91 10.9197 104.015 10.9976C104.12 11.0754 104.173 11.1533 104.173 11.2207V12.2172C103.926 14.1064 103.763 15.6167 103.695 16.7377C103.621 17.8587 103.595 18.7307 103.616 19.3535C103.632 19.9763 103.684 20.4018 103.774 20.6302C103.863 20.8586 103.952 21.0143 104.042 21.1025C104.252 21.1907 104.462 21.2115 104.667 21.17C104.871 21.1284 105.113 20.9624 105.397 20.6821C105.68 20.4018 106.022 19.9659 106.421 19.3794C106.82 18.7929 107.303 18.0093 107.87 17.0283C107.907 16.9764 107.944 16.8778 107.991 16.7377C108.033 16.5976 108.065 16.499 108.086 16.4471C108.049 15.2897 108.044 14.1271 108.07 12.9542C108.096 11.7813 108.138 10.6135 108.191 9.46134C108.259 9.28488 108.374 9.14475 108.537 9.04095C108.695 8.93715 108.863 8.88525 109.041 8.88525C109.11 8.88525 109.22 8.9112 109.362 8.9631C109.504 9.015 109.645 9.09285 109.787 9.18627C109.929 9.28488 110.055 9.38349 110.16 9.48729C110.265 9.59109 110.318 9.69489 110.318 9.80388V17.5525C110.444 18.3414 110.538 19.1355 110.612 19.9296C110.68 20.7288 110.78 21.5177 110.906 22.3066C110.906 22.3948 110.927 22.5713 110.974 22.8463C111.016 23.1162 111.069 23.412 111.121 23.7286C111.174 24.0452 111.221 24.3359 111.268 24.5954C111.316 24.8549 111.342 25.0261 111.363 25.0936V25.4102C111.363 26.0382 111.016 26.3807 110.328 26.4326C110.029 26.4689 109.771 26.3392 109.572 26.0537C109.367 25.7631 109.204 25.3894 109.078 24.9223C108.952 24.4604 108.852 23.9362 108.774 23.3601C108.695 22.784 108.627 22.2235 108.574 21.6786C108.522 21.1336 108.469 20.6406 108.416 20.1942C108.348 19.7583 108.275 19.4365 108.185 19.2445Z" fill="black"/>
<path d="M116.92 11.4129C116.904 11.2727 116.877 11.0911 116.851 10.8731C116.825 10.6551 116.799 10.4423 116.772 10.2451C116.746 10.0427 116.715 9.80398 116.678 9.52372H116.463L113.432 10.4164C113.343 10.5565 113.196 10.6292 112.996 10.6292C112.791 10.6292 112.639 10.6292 112.529 10.6292C112.282 10.6292 112.03 10.5202 111.773 10.3022C111.515 10.0842 111.389 9.84031 111.389 9.58081C111.389 9.38878 111.457 9.20194 111.589 9.0151C111.72 8.83345 111.888 8.7037 112.082 8.63623L116.363 7.29722C116.415 7.10519 116.515 6.90797 116.667 6.70556C116.82 6.50315 117.019 6.40454 117.266 6.40454C117.513 6.40454 117.723 6.46682 117.891 6.58619C118.059 6.71075 118.248 6.80417 118.464 6.87683C118.621 6.86126 118.889 6.80936 119.262 6.72113C119.635 6.6329 120.029 6.53948 120.444 6.44606C120.858 6.35264 121.252 6.25922 121.625 6.17099C121.998 6.08276 122.256 6.02048 122.397 5.98934C122.613 5.95301 122.77 5.91149 122.875 5.85959C122.98 5.80769 123.148 5.78174 123.379 5.78174C123.679 5.78174 123.989 5.86997 124.309 6.04643C124.629 6.22289 124.787 6.48239 124.787 6.83531C124.787 7.06367 124.708 7.26089 124.545 7.42697C124.388 7.59305 124.188 7.70203 123.962 7.75393L118.91 9.0151V9.25384C118.91 9.79879 118.957 10.3334 119.057 10.8575C119.157 11.3817 119.188 11.9111 119.152 12.4353L120.055 20.5525V21.1285C120.055 21.3413 120.05 21.5541 120.039 21.7721C120.029 21.9901 119.997 22.1873 119.934 22.3638C119.871 22.5402 119.771 22.6855 119.63 22.7945C119.488 22.9087 119.272 22.9658 118.994 22.9658C118.779 22.9658 118.553 22.8776 118.317 22.7011C118.075 22.5247 117.949 22.3171 117.933 22.0679L116.925 11.636V11.4129H116.92Z" fill="black"/>
<path d="M127.471 16.198H127.392C127.392 16.9142 127.408 17.6201 127.434 18.3155C127.46 19.0058 127.476 19.722 127.476 20.459C127.476 20.6718 127.471 20.8742 127.46 21.0766C127.45 21.279 127.418 21.4607 127.366 21.6267C127.313 21.7928 127.219 21.9226 127.087 22.0212C126.956 22.1198 126.756 22.1665 126.488 22.1665C125.99 22.1665 125.648 21.9122 125.454 21.4036C125.365 20.5784 125.312 19.7687 125.296 18.9747C125.281 18.1754 125.228 17.3606 125.139 16.5198C125.102 16.2759 125.002 16.0371 124.834 15.8088C124.666 15.5804 124.582 15.3624 124.582 15.1496C124.582 14.9939 124.64 14.859 124.755 14.7552C124.871 14.6514 124.929 14.5009 124.929 14.3089C124.929 12.9439 124.887 11.5893 124.808 10.2503C124.729 8.91127 124.687 7.56706 124.687 6.21767V5.77133C124.813 5.59487 124.934 5.49107 125.06 5.45474C125.186 5.41841 125.354 5.40284 125.564 5.40284C126.079 5.40284 126.404 5.55854 126.546 5.86475C126.688 6.17096 126.767 6.54464 126.788 6.9806L127.029 13.9715C127.045 14.0234 127.077 14.1065 127.124 14.2206C127.166 14.3348 127.234 14.3919 127.324 14.3919C127.45 14.3919 127.675 14.3608 128.017 14.2985C128.353 14.2362 128.71 14.1687 129.083 14.0909C129.456 14.013 129.792 13.9248 130.091 13.8262C130.391 13.7328 130.569 13.6394 130.622 13.5511C130.622 13.4266 130.627 13.2086 130.638 12.892C130.648 12.5754 130.653 12.3574 130.653 12.2329C130.653 11.4959 130.643 10.7693 130.627 10.0531C130.611 9.33685 130.575 8.61025 130.522 7.87327C130.522 7.74871 130.496 7.45807 130.443 6.99098C130.391 6.52907 130.338 6.02564 130.286 5.48069C130.233 4.93574 130.186 4.43231 130.139 3.9704C130.097 3.50849 130.07 3.21266 130.07 3.0881C130.055 3.07253 130.044 3.01544 130.044 2.91683C130.044 2.82341 130.044 2.75594 130.044 2.71961C130.044 2.49125 130.128 2.32517 130.296 2.22137C130.464 2.11757 130.648 2.06567 130.842 2.06567C131.268 2.06567 131.583 2.19542 131.788 2.46011C131.993 2.7248 132.14 3.04658 132.229 3.43064C132.245 3.62267 132.271 3.94964 132.308 4.40117C132.344 4.85789 132.386 5.34575 132.439 5.86994C132.492 6.39413 132.539 6.89237 132.586 7.35427C132.628 7.82137 132.66 8.13796 132.681 8.31442V8.73481C132.681 8.82304 132.696 8.99431 132.723 9.24862C132.749 9.50293 132.77 9.6742 132.791 9.76243V20.5369C132.88 20.8327 132.938 21.0818 132.964 21.2738C132.99 21.4659 133.006 21.6942 133.006 21.9589C133.006 22.1717 132.948 22.3897 132.833 22.6284C132.717 22.8672 132.518 22.9813 132.234 22.9813C131.987 22.9813 131.761 22.9191 131.557 22.7997C131.352 22.6751 131.173 22.5194 131.026 22.3274C130.874 22.1354 130.758 21.9174 130.669 21.6838C130.58 21.4451 130.538 21.2064 130.538 20.9624V15.5389L127.471 16.198Z" fill="black"/>
</g>
<defs>
<clipPath id="clip0_564_641">
<rect width="146" height="28" fill="white"/>
</clipPath>
</defs>
</svg>
