<svg width="99" height="24" viewBox="0 0 99 24" fill="none" xmlns="http://www.w3.org/2000/svg">
<path d="M28.1237 2.36572L30.2172 19.9638H23.9121L22.8382 7.40713L20.1558 19.9638H13.1281L10.3913 7.50569L9.34212 19.9638H3.04199L5.13049 2.36572H14.2516L16.5875 13.8333L18.6265 2.36572H28.1237V2.36572Z" stroke="black" stroke-miterlimit="10"/>
<path d="M34.4141 17.7956C32.6621 16.189 31.7861 13.927 31.7861 11.0195C31.7861 8.14148 32.6572 5.89428 34.4042 4.27788C36.1512 2.66147 38.888 1.85327 42.6196 1.85327C46.371 1.85327 49.1177 2.66147 50.8597 4.27788C52.6068 5.89428 53.4778 8.14148 53.4778 11.0195C53.4778 13.9467 52.6117 16.2087 50.8746 17.8054C49.1375 19.407 46.3858 20.2054 42.6196 20.2054C38.8979 20.2054 36.166 19.4021 34.4141 17.7956ZM46.5145 14.2326C47.3113 13.5476 47.7072 12.4732 47.7072 11.0195C47.7072 9.59526 47.3113 8.54065 46.5145 7.8458C45.7177 7.15094 44.421 6.80105 42.6196 6.80105C40.833 6.80105 39.5462 7.15094 38.7494 7.8458C37.9526 8.54065 37.5567 9.60019 37.5567 11.0195C37.5567 12.4585 37.9526 13.5229 38.7494 14.2178C39.5462 14.9126 40.833 15.2625 42.6196 15.2625C44.421 15.2625 45.7177 14.9176 46.5145 14.2326Z" stroke="black" stroke-miterlimit="10"/>
<path d="M61.4305 15.0654C66.1371 15.0309 69.5717 14.952 72.655 14.8239C72.5461 15.7307 72.5065 18.8748 72.655 19.9639H55.4917C55.6204 16.8296 55.6847 13.8974 55.6847 11.1624C55.6847 8.43222 55.6204 5.50002 55.4917 2.36084H61.4305V15.0654Z" stroke="black" stroke-miterlimit="10"/>
<path d="M76.9361 17.7956C75.1841 16.189 74.3081 13.927 74.3081 11.0195C74.3081 8.14148 75.1791 5.89428 76.9262 4.27788C78.6732 2.66147 81.41 1.85327 85.1416 1.85327C88.8929 1.85327 91.6397 2.66147 93.3817 4.27788C95.1238 5.89428 95.9998 8.14148 95.9998 11.0195C95.9998 13.9467 95.1287 16.2087 93.3966 17.8054C91.6595 19.407 88.9078 20.2054 85.1416 20.2054C81.4248 20.2054 78.688 19.4021 76.9361 17.7956ZM89.0365 14.2326C89.8333 13.5476 90.2292 12.4732 90.2292 11.0195C90.2292 9.59526 89.8333 8.54065 89.0365 7.8458C88.2397 7.15094 86.943 6.80105 85.1416 6.80105C83.355 6.80105 82.0633 7.15094 81.2714 7.8458C80.4746 8.54065 80.0787 9.60019 80.0787 11.0195C80.0787 12.4585 80.4746 13.5229 81.2714 14.2178C82.0682 14.9126 83.355 15.2625 85.1416 15.2625C86.943 15.2625 88.2397 14.9176 89.0365 14.2326Z" stroke="black" stroke-miterlimit="10"/>
<path d="M26.1844 5.48824C26.1894 5.59808 26.1894 5.71746 26.1943 5.85117C26.1993 5.98489 26.1844 6.10427 26.1597 6.21888C26.1498 6.28097 26.1201 6.34305 26.0657 6.4099C26.0113 6.47676 25.9767 6.53406 25.9569 6.58182C25.9025 6.71553 25.8234 6.82059 25.7294 6.90177C25.6305 6.98296 25.5712 7.02116 25.5415 7.02594C25.4723 7.03549 25.4129 7.07847 25.3684 7.1501C25.319 7.22173 25.2695 7.25993 25.2102 7.26948C25.1409 7.27903 25.0569 7.25993 24.958 7.2074C24.8591 7.15487 24.7849 7.131 24.7354 7.14055C24.5178 7.15487 24.3497 7.15487 24.226 7.14055C24.1024 7.12622 23.9986 7.10234 23.9194 7.07369C23.8007 7.02594 23.6672 6.98296 23.5189 6.94475C23.3705 6.90177 23.0936 6.88745 22.688 6.88745C22.5594 6.897 22.4259 6.897 22.2875 6.90177C22.149 6.90177 22.0105 6.91132 21.872 6.92565C21.783 6.93998 21.6792 6.96863 21.5654 7.00683C21.4467 7.04504 21.3379 7.07369 21.244 7.08802C21.155 7.10234 21.0659 7.10234 20.972 7.07847C20.878 7.05936 20.7791 7.05459 20.6851 7.07369C20.5071 7.10234 20.3241 7.14055 20.1313 7.1883C19.9384 7.23606 19.7406 7.27903 19.5378 7.32201C19.4488 7.33634 19.3548 7.35544 19.2559 7.37932C19.157 7.4032 19.0581 7.4223 18.9592 7.4414C18.9295 7.48438 18.8949 7.52736 18.8603 7.57034C18.8207 7.61332 18.7861 7.6563 18.7614 7.69927C18.7218 7.7518 18.6674 7.80433 18.5932 7.86642C18.5191 7.9285 18.4696 7.98103 18.4399 8.02878C18.4103 8.07653 18.3905 8.12906 18.3756 8.18637C18.3608 8.24368 18.346 8.29621 18.3262 8.34396C18.252 8.48722 18.1729 8.64004 18.0938 8.8024C18.0146 8.96477 17.9404 9.12713 17.8762 9.29905C17.8317 9.40889 17.7723 9.56647 17.7031 9.77182C17.6338 9.97716 17.5597 10.2207 17.4756 10.4977C17.3915 10.8033 17.2975 11.1663 17.1838 11.5817C17.0701 11.9972 16.9613 12.4461 16.8525 12.9332C16.7882 13.2054 16.7239 13.4967 16.6497 13.8023C16.5755 14.1079 16.5112 14.4183 16.4519 14.7383C16.3975 14.9914 16.3431 15.2445 16.2837 15.5071C16.2244 15.7698 16.17 16.0324 16.1156 16.2999C16.0019 16.892 15.8832 17.4842 15.7645 18.0859C15.6458 18.6828 15.5419 19.2654 15.4579 19.8289C15.4232 20.1107 15.3837 20.3972 15.3392 20.6789C15.2897 20.9607 15.2551 21.2329 15.2304 21.4955C15.2304 21.5624 15.265 21.6293 15.3293 21.7057C15.3936 21.7773 15.4232 21.8489 15.4134 21.9158C15.4134 21.9826 15.3936 22.0447 15.3441 22.102C15.2947 22.1593 15.2749 22.2214 15.2749 22.2883C15.2749 22.3313 15.2353 22.4029 15.1463 22.5032C15.0573 22.6035 14.988 22.6655 14.9287 22.699C14.899 22.7133 14.8249 22.761 14.7111 22.847C14.5924 22.933 14.5133 22.9807 14.4638 22.9903C14.4045 23.0094 14.3451 22.9998 14.2858 22.9664C14.2265 22.933 14.1721 22.9186 14.1226 22.9282C14.083 22.933 14.0286 22.9186 13.9644 22.8804C13.9001 22.8422 13.8358 22.8183 13.7764 22.8136C13.6775 22.8088 13.5588 22.7754 13.4253 22.7085C13.2918 22.6417 13.2077 22.5891 13.178 22.5414C13.1385 22.4888 13.1039 22.422 13.0791 22.3456C13.0544 22.2644 13.0396 22.1737 13.0346 22.0734C13.0346 21.9874 13.0346 21.8919 13.0346 21.7869C13.0396 21.6818 13.0396 21.5863 13.0346 21.5003C13.0297 21.3618 13.0742 21.2138 13.1583 21.0514C13.2423 20.8891 13.2819 20.741 13.2819 20.6025C13.2769 20.3351 13.3017 20.0725 13.366 19.8194C13.4302 19.5663 13.4649 19.3036 13.4797 19.0314C13.4748 18.8499 13.4995 18.6589 13.5539 18.4584C13.6083 18.2578 13.6429 18.0668 13.6577 17.8805C13.6775 17.5606 13.7072 17.2358 13.7369 16.9063C13.7665 16.5768 13.7962 16.2473 13.816 15.9226C13.8407 15.7411 13.8654 15.5549 13.8902 15.3591C13.9149 15.1633 13.9396 14.9723 13.9644 14.786C13.9792 14.5998 13.999 14.404 14.0237 14.1987C14.0484 13.9933 14.083 13.788 14.1276 13.5826C14.1523 13.4441 14.1918 13.3104 14.2462 13.1719C14.2957 13.0335 14.3303 12.9045 14.3501 12.7756C14.3748 12.661 14.3897 12.5416 14.3946 12.4222C14.3946 12.3028 14.4094 12.1834 14.4391 12.0688C14.4638 11.9303 14.4737 11.7966 14.4589 11.6581C14.4441 11.5196 14.4539 11.3764 14.4787 11.2283C14.5083 11.1376 14.5578 11.0325 14.632 10.9179C14.7062 10.8033 14.7556 10.6983 14.7705 10.598C14.7902 10.5072 14.81 10.4117 14.8397 10.3114C14.8694 10.2112 14.8891 10.1157 14.9089 10.0249C14.9089 10.0106 14.9336 9.97716 14.9782 9.92463C15.0276 9.8721 15.082 9.80047 15.1512 9.70974C15.2007 9.63333 15.2798 9.5426 15.3985 9.42799C15.5123 9.31338 15.6161 9.21309 15.7002 9.12236C15.8436 8.97432 15.9227 8.87881 15.9376 8.84061C15.9524 8.8024 16.0315 8.71644 16.1749 8.58273C16.2046 8.55408 16.2788 8.50633 16.3925 8.43469C16.5112 8.36306 16.5805 8.31531 16.6101 8.28665C16.6398 8.258 16.6349 8.22457 16.6002 8.18637C16.5656 8.14339 16.5557 8.11474 16.5755 8.09564C16.4766 8.10996 16.3975 8.11951 16.3381 8.11951C16.2788 8.11951 16.1898 8.13384 16.0711 8.15772C15.9029 8.2007 15.7744 8.23412 15.6755 8.26278C15.5766 8.29143 15.443 8.32486 15.2798 8.36784C15.0721 8.42514 14.8743 8.47767 14.6765 8.52543C14.4787 8.57318 14.2957 8.62571 14.1177 8.67347C14.0781 8.67824 14.0336 8.67347 13.9841 8.65914C13.9347 8.64004 13.8902 8.64004 13.8506 8.65436C13.7913 8.67347 13.7369 8.71167 13.6825 8.76898C13.6281 8.83106 13.5836 8.86448 13.544 8.86926C13.5143 8.88359 13.4846 8.92179 13.45 8.98865C13.4154 9.0555 13.3857 9.09848 13.3561 9.10803C13.3165 9.12236 13.272 9.11758 13.2176 9.08893C13.1632 9.06028 13.1236 9.05073 13.1039 9.05073C13.0445 9.0746 13.0148 9.07938 13.0099 9.0555C13.0049 9.0364 13 8.9982 13 8.94567C13 8.89314 13.0148 8.83106 13.0544 8.75942C13.094 8.68779 13.1434 8.59228 13.2127 8.48245C13.2621 8.40127 13.3165 8.31531 13.3857 8.22935C13.45 8.14339 13.5143 8.05743 13.5737 7.9858C13.6429 7.89984 13.7121 7.82344 13.7814 7.75658C13.8506 7.68972 13.91 7.64674 13.9495 7.63242C13.999 7.61809 14.0435 7.58466 14.0781 7.53213C14.1177 7.4796 14.1572 7.44618 14.2067 7.4223C14.2561 7.40797 14.3105 7.4032 14.3699 7.4032C14.4292 7.40797 14.4787 7.4032 14.5182 7.38887C14.7111 7.31246 14.9089 7.23128 15.0968 7.14055C15.2848 7.05459 15.4776 6.96863 15.6755 6.89222C15.8881 6.81104 16.1205 6.72031 16.3728 6.62002C16.62 6.51974 16.8871 6.41945 17.1739 6.31917C17.2629 6.29052 17.3519 6.23799 17.4459 6.17113C17.5399 6.0995 17.6388 6.04697 17.7476 6.01354C17.797 5.99921 17.8514 5.99444 17.9108 5.99921C17.9701 6.00399 18.0245 6.00399 18.074 5.99444C18.6526 5.80342 19.2955 5.60763 20.0126 5.40706C20.7297 5.20649 21.511 5.0107 22.3666 4.8149C22.5545 4.7767 22.7474 4.71939 22.9551 4.64299C23.1628 4.56658 23.3655 4.51405 23.5733 4.47585C23.6524 4.46152 23.7315 4.45674 23.8106 4.46152C23.8898 4.46629 23.9689 4.46152 24.048 4.44719C24.1568 4.42809 24.2706 4.40899 24.3843 4.38511C24.503 4.36123 24.6217 4.34213 24.7354 4.31826C24.8541 4.29915 24.9679 4.28483 25.0767 4.28005C25.1855 4.27528 25.2794 4.28005 25.3585 4.28483C25.408 4.2896 25.4377 4.32781 25.4476 4.38989C25.4574 4.45197 25.4822 4.49495 25.5267 4.50927C25.586 4.52838 25.6602 4.52838 25.7492 4.51405C25.8382 4.49972 25.8976 4.50927 25.9273 4.54748C26.0361 4.66209 26.1152 4.80535 26.1498 4.97727C26.1894 5.15873 26.2042 5.32588 26.1844 5.48824ZM19.6763 16.3046C19.7455 16.233 19.8148 16.147 19.884 16.0372C19.9532 15.9274 20.0373 15.808 20.1362 15.6743L21.2539 14.8147C21.3874 14.6476 21.5951 14.4327 21.872 14.1605C22.1539 13.8883 22.5001 13.5588 22.9155 13.1719C22.96 13.0717 23.0392 12.9523 23.1529 12.809C23.2617 12.6705 23.3952 12.5273 23.5485 12.384C23.6821 12.2503 23.8205 12.1261 23.9541 12.0067C24.0876 11.8873 24.2162 11.7727 24.3299 11.6581C24.4733 11.5053 24.6118 11.3573 24.7404 11.2092C24.8689 11.0612 25.0025 10.9179 25.136 10.7747C25.2893 10.6314 25.4525 10.512 25.6157 10.4165C25.7789 10.321 25.9619 10.2589 26.1597 10.2255C26.3773 10.1873 26.5405 10.1825 26.6542 10.2112C26.768 10.2398 26.8323 10.2923 26.8422 10.3735C26.7482 10.5836 26.6493 10.7938 26.5454 11.0039L26.6345 11.1042C27.0647 10.8893 27.401 10.7269 27.6433 10.6171C27.8856 10.5072 28.0439 10.4499 28.1131 10.4356C28.8302 10.3114 29.3742 10.407 29.7402 10.7174C30.1061 11.0278 30.299 11.5626 30.3188 12.3124C30.3237 12.4556 30.3039 12.6228 30.2693 12.8233C30.2347 13.0239 30.1754 13.2436 30.0913 13.4823C29.9973 13.7498 29.8984 13.979 29.7896 14.1652C29.6808 14.3515 29.577 14.49 29.483 14.5807C29.5226 14.681 29.572 14.7526 29.6215 14.7908C29.6709 14.829 29.7352 14.8386 29.8143 14.829C29.8935 14.8147 29.9726 14.7813 30.0567 14.724C30.1407 14.6667 30.2396 14.5902 30.3534 14.4852C30.4572 14.6523 30.5562 14.8242 30.6551 15.0057C30.754 15.1872 30.8529 15.3639 30.9567 15.5406C30.7836 15.7029 30.6155 15.8653 30.4523 16.0181C30.2891 16.1709 30.116 16.3237 29.9281 16.4718C29.7055 16.6676 29.4929 16.8204 29.2951 16.9254C29.0973 17.0305 28.8994 17.1021 28.7016 17.1356C28.4741 17.1738 28.2862 17.1594 28.1379 17.0926C27.9895 17.0257 27.8659 16.9159 27.7768 16.7631C27.5395 17.0783 27.2477 17.3839 26.9015 17.6752C26.5603 17.9665 26.1795 18.2196 25.7591 18.444C25.5168 18.5873 25.2943 18.7019 25.0964 18.7879C24.8986 18.8786 24.7107 18.9359 24.5475 18.9646C24.498 18.9741 24.4041 19.0075 24.2607 19.0648C24.1172 19.1222 24.0035 19.1604 23.9145 19.1747C23.3557 19.2702 22.8463 19.1556 22.3814 18.8308C21.9215 18.5061 21.6841 18.0954 21.6742 17.6036C21.6693 17.403 21.7187 17.126 21.8176 16.7774C21.9165 16.4288 21.966 16.2235 21.966 16.1661C21.966 16.1088 21.9413 16.0611 21.8968 16.0324C21.8523 16.0038 21.788 15.9942 21.7088 16.0086C21.6594 16.0181 21.5456 16.0993 21.3577 16.2569C21.1747 16.4145 20.9126 16.6389 20.5763 16.9302C20.5467 16.9684 20.5121 17.0257 20.4774 17.0974C20.4379 17.169 20.3785 17.2549 20.2895 17.3552C20.2054 17.1738 20.1115 16.9971 20.0126 16.8156C19.9137 16.6389 19.7999 16.467 19.6763 16.3046ZM26.7086 12.8042C26.6592 12.8233 26.5899 12.8759 26.496 12.9714C26.402 13.0669 26.3179 13.1815 26.2289 13.3104C26.0954 13.5253 25.9421 13.7641 25.774 14.0172C25.6701 14.1366 25.5564 14.2321 25.4327 14.3085C25.3091 14.3849 25.1706 14.447 25.0173 14.4995C24.9184 14.5234 24.8195 14.6237 24.7156 14.7956C24.6118 14.9675 24.5079 15.2111 24.409 15.5215C24.3052 15.7984 24.2359 16.0324 24.1914 16.2282C24.1469 16.4192 24.1271 16.5768 24.1271 16.7058C24.1321 16.9398 24.2063 17.1021 24.3447 17.1976C24.4832 17.2932 24.6959 17.3123 24.9827 17.2645C25.4327 17.1881 25.8481 17.0114 26.219 16.7344C26.5899 16.4574 26.9411 16.0754 27.2625 15.5931C27.4158 15.4068 27.5592 15.2302 27.6928 15.0678C27.7719 15.0057 27.8312 14.9102 27.8807 14.7908C27.9252 14.6714 27.9747 14.5234 28.0192 14.3467L28.2664 13.5874C28.1725 13.3534 28.0835 13.1672 28.0043 13.0335C27.9203 12.8997 27.8411 12.8233 27.762 12.8042C27.7125 12.7851 27.6038 12.7804 27.4356 12.7756C27.2675 12.7756 27.0251 12.7851 26.7086 12.8042ZM42.1333 13.4537C42.0492 13.554 41.9503 13.6543 41.8465 13.7593C41.7426 13.8644 41.6388 13.9647 41.5448 14.0554C41.3519 14.2369 41.1492 14.4231 40.9365 14.6046C40.7239 14.786 40.5162 14.958 40.3134 15.1203C40.1107 15.2827 39.9029 15.4307 39.6952 15.5644C39.4875 15.7029 39.2947 15.8128 39.1166 15.9035C38.8941 16.0181 38.6715 16.1088 38.4589 16.1709C38.2413 16.2378 38.0435 16.2712 37.8556 16.2808C37.6478 16.2903 37.455 16.2569 37.2769 16.1757C37.0989 16.0993 36.9357 15.9751 36.7972 15.8032C36.7082 15.6838 36.6489 15.5358 36.6241 15.3543C36.5994 15.1729 36.5994 14.9818 36.6241 14.7765C36.6291 14.6237 36.6538 14.4565 36.7033 14.2798C36.7478 14.0984 36.7972 13.9265 36.8516 13.7545C36.906 13.5874 36.9604 13.4155 37.0148 13.2483C37.0692 13.0812 37.1088 12.9284 37.1385 12.7995C37.1681 12.6944 37.2077 12.5893 37.272 12.489C37.3313 12.3888 37.3758 12.2837 37.4055 12.1786C37.4253 12.1022 37.4253 12.0115 37.4154 11.9112C37.4055 11.8109 37.3956 11.725 37.3956 11.6486C37.4006 11.4862 37.3907 11.3334 37.3709 11.1854C37.3462 11.0373 37.2967 10.9179 37.2127 10.8224C37.1632 10.7556 37.089 10.703 36.9852 10.6648C36.8863 10.6266 36.7725 10.6075 36.6439 10.6027C36.6143 10.7078 36.5846 10.8176 36.5401 10.937C36.5005 11.0516 36.461 11.1663 36.4214 11.2713C36.3472 11.4671 36.2631 11.6772 36.1692 11.8921C36.0752 12.107 35.9862 12.3219 35.9021 12.5273C35.8724 12.618 35.8131 12.7135 35.7191 12.8233C35.6252 12.9332 35.5559 13.0335 35.5213 13.1194C35.3878 13.4012 35.2741 13.6877 35.1702 13.9742C35.0664 14.2607 34.9477 14.5377 34.8042 14.8051C34.6163 15.1538 34.4185 15.4976 34.2157 15.8223C34.013 16.1518 33.8152 16.4574 33.6223 16.7392C33.4393 17.0114 33.2563 17.2645 33.0684 17.4937C32.8805 17.7229 32.7025 17.914 32.5294 18.0716C32.3958 18.1957 32.2574 18.3008 32.1238 18.3867C31.9854 18.4727 31.8617 18.5252 31.743 18.5443C31.5947 18.5682 31.4562 18.5682 31.3227 18.5395C31.1892 18.5109 31.0655 18.4679 30.9567 18.4154C30.838 18.3342 30.7243 18.2291 30.6254 18.1002C30.5215 17.9713 30.4424 17.8232 30.3781 17.6561C30.3237 17.5224 30.2792 17.3791 30.2446 17.2263C30.205 17.0735 30.1852 16.9111 30.1803 16.744C30.1655 16.5291 30.1605 16.2999 30.1655 16.0611C30.1704 15.8223 30.1852 15.5835 30.21 15.3543C30.2248 15.2254 30.2495 15.0964 30.2743 14.9675C30.299 14.8386 30.3287 14.7049 30.3534 14.5759C30.3732 14.4995 30.4424 14.4088 30.571 14.3133C30.6946 14.2178 30.8232 14.1557 30.9518 14.1366C31.0705 14.1175 31.1743 14.1318 31.2683 14.1748C31.3622 14.2225 31.4117 14.2703 31.4117 14.318C31.4117 14.3945 31.4216 14.4947 31.4414 14.6285C31.4612 14.7574 31.4809 14.9007 31.5007 15.0439C31.5452 15.3304 31.6244 15.6026 31.7282 15.8605C31.8321 16.1184 31.9606 16.2378 32.1041 16.2139C32.4008 16.1661 32.747 15.8605 33.1525 15.297C33.558 14.7383 33.9091 14.17 34.2009 13.6017C34.2454 13.5014 34.3097 13.3964 34.3938 13.2866C34.4729 13.1767 34.5421 13.0621 34.6015 12.9427C34.641 12.852 34.6658 12.7517 34.6806 12.6371C34.6954 12.5273 34.7301 12.427 34.7795 12.3458C34.829 12.2646 34.8883 12.1739 34.9674 12.0831C35.0416 11.9924 35.096 11.9017 35.1257 11.8253C35.1801 11.6916 35.2295 11.5578 35.2741 11.4337C35.3136 11.3095 35.3581 11.1949 35.4076 11.0851C35.462 10.9514 35.5164 10.8224 35.5609 10.7078C35.6054 10.5932 35.645 10.5025 35.6746 10.4356C35.4768 10.3688 35.3136 10.3019 35.1801 10.2303C35.0515 10.1586 34.9526 10.0918 34.8933 10.0249C34.8339 9.94374 34.7944 9.85778 34.7746 9.77182C34.7597 9.68586 34.7597 9.60468 34.7746 9.52827C34.8042 9.43276 34.8537 9.33725 34.9229 9.2513C34.9971 9.16534 35.0664 9.0746 35.1306 8.98865C35.1999 8.91701 35.2642 8.84538 35.3334 8.7642C35.4026 8.68779 35.4521 8.61616 35.4917 8.55886C35.5807 8.54453 35.6895 8.5111 35.823 8.46335C35.9565 8.41559 36.0802 8.35829 36.1939 8.28665C36.2434 8.25323 36.2681 8.2007 36.273 8.12429C36.278 8.04788 36.3027 7.99058 36.3522 7.9476C36.4115 7.89507 36.4906 7.86164 36.5945 7.85209C36.6983 7.83776 36.7725 7.81866 36.822 7.79478C37.0247 7.68495 37.1929 7.6563 37.3215 7.70883C37.45 7.76135 37.4797 8.024 37.4154 8.49677C37.5044 8.52543 37.5984 8.55408 37.6924 8.58273C37.7863 8.61138 37.8753 8.64004 37.9545 8.66869C38.1226 8.73077 38.2858 8.80718 38.449 8.88836C38.6073 8.96954 38.7507 9.05073 38.8694 9.13191C39.0078 9.23219 39.1216 9.3468 39.2106 9.46619C39.2947 9.58558 39.3688 9.70496 39.4183 9.81957C39.4678 9.93896 39.5123 10.0631 39.537 10.1968C39.5667 10.3305 39.5815 10.4595 39.5815 10.5836C39.5864 10.7508 39.5766 10.9227 39.5518 11.1042C39.5271 11.2856 39.4925 11.4528 39.443 11.6151C39.4232 11.7011 39.3738 11.8014 39.2947 11.9112C39.2155 12.0211 39.1611 12.1309 39.1315 12.236C39.1117 12.2885 39.1117 12.3506 39.1265 12.4126C39.1414 12.4747 39.1414 12.5368 39.1216 12.5893C39.0672 12.7756 39.0029 12.9618 38.9337 13.1576C38.8644 13.3486 38.8199 13.5205 38.8051 13.6781C38.7902 13.831 38.8051 13.9551 38.8595 14.0506C38.9089 14.1461 38.988 14.213 39.087 14.2464C39.1562 14.2703 39.2452 14.2607 39.359 14.2178C39.4727 14.1796 39.5914 14.1223 39.715 14.0506C39.8584 13.9599 40.0266 13.8357 40.2096 13.6829C40.3925 13.5301 40.5656 13.3773 40.7288 13.2245C40.8821 13.0812 41.0256 12.9379 41.164 12.7899C41.2975 12.6466 41.4113 12.5225 41.4954 12.427L42.1333 13.4537ZM41.5053 12.5893C41.5745 12.5177 41.6437 12.4317 41.713 12.3219C41.7822 12.2121 41.8663 12.0927 41.9652 11.959L43.0828 11.0994C43.2164 10.9323 43.4241 10.7174 43.701 10.4452C43.9829 10.173 44.3291 9.84345 44.7445 9.45664C44.789 9.35636 44.8681 9.23697 44.9819 9.09371C45.0907 8.95522 45.2242 8.81195 45.3775 8.66869C45.511 8.53498 45.6495 8.41082 45.783 8.29143C45.9165 8.17204 46.0451 8.05743 46.1589 7.94282C46.3023 7.79001 46.4408 7.64197 46.5693 7.49393C46.6979 7.34589 46.8314 7.20263 46.965 7.05936C47.1183 6.9161 47.2815 6.79671 47.4447 6.70121C47.6079 6.6057 47.7909 6.54362 47.9887 6.51019C48.2063 6.47198 48.3695 6.46721 48.4832 6.49586C48.597 6.52451 48.6612 6.57704 48.6711 6.65823C48.5772 6.86835 48.4783 7.07847 48.3744 7.28859L48.4634 7.38887C48.8937 7.17397 49.23 7.01161 49.4723 6.90177C49.7146 6.79194 49.8729 6.73463 49.9421 6.72031C50.6592 6.59615 51.2032 6.69165 51.5691 7.00206C51.9351 7.31246 52.128 7.84731 52.1477 8.59706C52.1527 8.74032 52.1329 8.90746 52.0983 9.10803C52.0637 9.3086 52.0043 9.52827 51.9203 9.76704C51.8263 10.0345 51.7274 10.2637 51.6186 10.4499C51.5098 10.6362 51.4059 10.7747 51.312 10.8654C51.3515 10.9657 51.401 11.0373 51.4504 11.0755C51.4999 11.1137 51.5642 11.1233 51.6433 11.1137C51.7224 11.0994 51.8016 11.066 51.8856 11.0087C51.9697 10.9514 52.0686 10.8749 52.1824 10.7699C52.2862 10.937 52.3851 11.1089 52.484 11.2904C52.5829 11.4719 52.6818 11.6486 52.7857 11.8253C52.6126 11.9876 52.4445 12.15 52.2813 12.3028C52.1181 12.4556 51.945 12.6084 51.7571 12.7565C51.5345 12.9523 51.3219 13.1051 51.124 13.2101C50.9262 13.3152 50.7284 13.3868 50.5306 13.4203C50.3031 13.4585 50.1152 13.4441 49.9668 13.3773C49.8185 13.3104 49.6948 13.2006 49.6058 13.0478C49.3684 13.363 49.0767 13.6686 48.7305 13.9599C48.3843 14.2512 48.0084 14.5043 47.5881 14.7287C47.3458 14.872 47.1232 14.9866 46.9254 15.0726C46.7276 15.1633 46.5397 15.2206 46.3765 15.2493C46.327 15.2588 46.2331 15.2922 46.0896 15.3495C45.9462 15.4069 45.8325 15.4451 45.7435 15.4594C45.1846 15.5549 44.6753 15.4403 44.2104 15.1155C43.7505 14.7908 43.5131 14.3801 43.5032 13.8883C43.4982 13.6877 43.5477 13.4107 43.6466 13.0621C43.7455 12.7135 43.795 12.5082 43.795 12.4508C43.795 12.3935 43.7702 12.3458 43.7257 12.3171C43.6812 12.2885 43.6169 12.2789 43.5378 12.2933C43.4884 12.3028 43.3746 12.384 43.1867 12.5416C43.0037 12.6992 42.7416 12.9236 42.4053 13.2149C42.3756 13.2531 42.341 13.3104 42.3064 13.3821C42.2668 13.4537 42.2075 13.5396 42.1185 13.6399C42.0344 13.4585 41.9404 13.2818 41.8415 13.1003C41.7426 12.9284 41.6289 12.7565 41.5053 12.5893ZM48.5376 9.08893C48.4882 9.10803 48.4189 9.16056 48.325 9.25607C48.231 9.35158 48.1469 9.46619 48.0579 9.59513C47.9244 9.81002 47.7711 10.0488 47.6029 10.3019C47.4991 10.4213 47.3853 10.5168 47.2617 10.5932C47.1381 10.6696 46.9996 10.7317 46.8463 10.7842C46.7474 10.8081 46.6485 10.9084 46.5446 11.0803C46.4408 11.2522 46.3369 11.4958 46.238 11.8062C46.1341 12.0831 46.0649 12.3171 46.0204 12.5129C45.9759 12.7039 45.9561 12.8615 45.9561 12.9905C45.9611 13.2245 46.0352 13.3868 46.1737 13.4823C46.3122 13.5779 46.5248 13.597 46.8117 13.5492C47.2617 13.4728 47.6771 13.2961 48.048 13.0191C48.4189 12.7421 48.77 12.3601 49.0915 11.8778C49.2448 11.6916 49.3882 11.5149 49.5217 11.3525C49.6009 11.2904 49.6602 11.1949 49.7097 11.0755C49.7542 10.9561 49.8036 10.8081 49.8481 10.6314L50.0954 9.8721C50.0014 9.63811 49.9124 9.45186 49.8333 9.31815C49.7492 9.18444 49.6701 9.10803 49.591 9.08893C49.5415 9.06983 49.4327 9.06505 49.2646 9.06028C49.0964 9.06028 48.8541 9.06983 48.5376 9.08893ZM52.1576 10.7794L52.2862 10.6553C52.2961 10.5598 52.3604 10.4404 52.484 10.2923C52.6077 10.1443 52.7857 9.96761 53.0181 9.76227C53.1615 9.64766 53.3149 9.53305 53.4781 9.41844C53.6363 9.3086 53.7896 9.18921 53.938 9.06505C54.5463 8.50632 55.1348 7.97148 55.7035 7.45573C56.0299 7.1501 56.3612 6.8779 56.6876 6.63912C57.019 6.40035 57.3305 6.20456 57.6223 6.04697C57.8251 5.78432 58.2009 5.49302 58.7647 5.15873C59.3235 4.82923 59.7785 4.63344 60.1346 4.57135C60.273 4.54748 60.3818 4.5618 60.4659 4.61433C60.55 4.66686 60.6044 4.74327 60.6242 4.83878L60.639 5.52644C60.6439 5.76999 60.5698 5.99921 60.4115 6.21411C60.2532 6.429 60.0159 6.6439 59.6944 6.8588C59.4818 6.97818 59.2642 7.10712 59.0515 7.24561C58.8389 7.38409 58.6262 7.51303 58.4086 7.63242C58.3295 7.72793 58.1267 7.92372 57.7954 8.21025C57.464 8.49677 57.0091 8.88359 56.4403 9.36591C56.1782 9.58558 55.9606 9.78137 55.7876 9.94851C55.6145 10.1157 55.4958 10.2494 55.4265 10.3449C55.3326 10.5216 55.2584 10.7078 55.2089 10.9084C55.1595 11.1089 55.1397 11.3382 55.1447 11.5865C55.1496 11.7775 55.1892 11.9399 55.2584 12.064C55.3326 12.1882 55.4364 12.2837 55.5749 12.3458C55.6738 12.3888 55.8123 12.4222 55.9854 12.4508C56.1585 12.4795 56.3711 12.5034 56.6283 12.5177C56.7766 12.4413 56.9695 12.3601 57.2069 12.2742C57.4443 12.1882 57.7113 12.0831 58.0031 11.9542C58.3344 11.7298 58.6707 11.4958 59.012 11.2522C59.3581 11.0087 59.6994 10.7603 60.0356 10.512C60.0851 10.4786 60.1445 10.4404 60.2186 10.3974C60.2928 10.3544 60.367 10.2971 60.4461 10.2255C60.5401 10.1013 60.6736 9.95329 60.8417 9.78137C61.0099 9.60945 61.2127 9.41366 61.455 9.18444C61.8654 9.84345 62.0682 10.1968 62.0732 10.2398C61.7171 10.5502 61.3511 10.8702 60.9852 11.1997C60.6192 11.5244 60.1939 11.8157 59.7191 12.064C59.5658 12.1977 59.4323 12.3219 59.3285 12.4317C58.8488 12.9332 58.285 13.3439 57.6322 13.6686C56.9843 13.9933 56.2425 14.2273 55.4068 14.3658C55.2188 14.3992 55.0507 14.4136 54.9073 14.4136C54.7589 14.4136 54.6353 14.3992 54.5364 14.3754C54.2396 14.256 53.9825 14.1557 53.7748 14.0649C53.5572 13.9694 53.3693 13.8692 53.2209 13.7736C53.0725 13.6781 52.9588 13.5826 52.8896 13.4823C52.8005 13.3821 52.7362 13.2483 52.6967 13.086C52.6571 12.9236 52.6373 12.723 52.6324 12.4795C52.6324 12.4126 52.6522 12.298 52.6967 12.1404C52.7412 11.9829 52.7659 11.873 52.761 11.8157C52.6868 11.6438 52.5978 11.4719 52.4989 11.2952C52.4049 11.1376 52.2912 10.9561 52.1576 10.7794ZM74.496 7.92372C74.4268 8.00013 74.3526 8.08131 74.2734 8.16249C74.1894 8.24368 74.1102 8.32008 74.0361 8.39171C73.8333 8.58751 73.6206 8.77375 73.3932 8.95999C73.1657 9.14624 72.9481 9.30383 72.7453 9.44231C72.592 9.5426 72.4338 9.64288 72.2706 9.73839C72.1123 9.8339 71.959 9.91508 71.8106 9.98194C71.6623 10.0583 71.5238 10.1204 71.3853 10.1682C71.2469 10.2159 71.1282 10.2494 71.0194 10.2685C70.8413 10.2971 70.6682 10.3114 70.4952 10.3019C70.3221 10.2923 70.1638 10.2732 70.0155 10.2398C69.8176 10.1968 69.6248 10.13 69.4418 10.0345C69.2588 9.93896 69.0808 9.8339 68.9126 9.70974C68.8038 9.62856 68.6802 9.53782 68.5467 9.43754C68.4132 9.33725 68.2648 9.21309 68.1016 9.06505C68.0422 9.14146 67.9829 9.22264 67.9137 9.30383C67.8444 9.38501 67.7851 9.46619 67.7257 9.5426C67.612 9.69541 67.5032 9.84345 67.3944 9.98194C67.2905 10.1204 67.1768 10.2637 67.0631 10.4117C66.9098 10.6075 66.796 10.7365 66.7268 10.8033C66.6526 10.8702 66.5388 10.9896 66.3855 11.1567C66.252 11.3047 66.1333 11.4623 66.0344 11.6247C65.9355 11.7871 65.8267 11.9351 65.713 12.064C65.3965 12.3935 65.1096 12.6562 64.8525 12.852C64.5953 13.0478 64.4321 13.1481 64.3629 13.1624C64.0019 13.1576 63.7397 13.086 63.5716 12.9427C63.4035 12.8042 63.2848 12.6037 63.2106 12.3506C63.1364 12.1022 63.1216 11.8205 63.171 11.5005C63.2155 11.1806 63.2749 10.8749 63.3491 10.5789C63.4035 10.3592 63.4727 10.1157 63.5617 9.84823C63.6507 9.5808 63.7348 9.3277 63.8189 9.08893C63.9079 8.77853 63.987 8.5111 64.0513 8.28188C64.1156 8.05266 64.1205 7.9285 64.0711 7.91417C64.0216 7.89507 63.9227 7.98103 63.7793 8.16249C63.6359 8.34874 63.4826 8.5493 63.3194 8.76898C63.1166 9.0364 62.9139 9.3086 62.7012 9.58558C62.4886 9.86255 62.2166 10.1395 61.8803 10.4261L61.2769 9.38501C61.6429 9.04595 62.0633 8.60183 62.538 8.05743C63.0128 7.51303 63.6013 6.81582 64.2986 5.97534C65.0058 5.11576 65.4954 4.50927 65.7575 4.16067C66.0196 3.80728 66.346 3.69745 66.7317 3.82638C66.8009 3.85026 66.8751 3.88369 66.9543 3.94099C67.0334 3.99353 67.0828 4.06993 67.1076 4.16544C67.1175 4.23707 67.1323 4.33736 67.1521 4.45197C67.1719 4.57135 67.1768 4.68119 67.1669 4.78147C67.157 4.87698 67.1125 4.97727 67.0334 5.0871C66.9543 5.19694 66.8949 5.302 66.8553 5.40228C66.8257 5.50734 66.8158 5.61718 66.8108 5.73656C66.8059 5.85595 66.796 5.97534 66.7663 6.09472C66.7317 6.24276 66.6872 6.4099 66.6328 6.59137C66.5784 6.77284 66.524 6.9543 66.4696 7.14055C66.4152 7.33634 66.3559 7.53691 66.2866 7.74225C66.2174 7.95237 66.1581 8.15772 66.1036 8.35829C66.069 8.492 66.0245 8.63049 65.98 8.7833C65.9355 8.93612 65.8959 9.0746 65.8712 9.20354C65.8465 9.35158 65.8218 9.49484 65.802 9.63811C65.7822 9.78137 65.7674 9.91031 65.7575 10.0297C65.713 10.2876 65.7377 10.4022 65.8317 10.3783C65.9256 10.3496 66.0542 10.1968 66.2273 9.91508C66.3311 9.74794 66.4548 9.54737 66.5883 9.32293C66.7268 9.09848 66.8603 8.90269 66.9938 8.73555C67.0779 8.63049 67.157 8.53498 67.2312 8.46335C67.3054 8.38694 67.3697 8.30576 67.4241 8.21025C67.4043 8.15294 67.3449 8.09086 67.2559 8.01923C67.1669 7.9476 67.1175 7.88552 67.1175 7.83299C67.1175 7.75658 67.1323 7.66107 67.1718 7.54646C67.2065 7.43185 67.2361 7.33634 67.2559 7.26948C67.2807 7.15487 67.335 7.03549 67.4191 6.90177C67.4982 6.77284 67.607 6.63435 67.7406 6.49586C67.9137 6.31439 68.0769 6.18068 68.2351 6.08995C68.3884 5.99921 68.5269 5.95146 68.6456 5.93713C69.2539 4.92951 69.7632 4.06993 70.1737 3.35839C70.5842 2.65162 70.8463 2.17885 70.96 1.94008C71.0441 1.76817 71.1875 1.6249 71.3952 1.51507C71.598 1.40523 71.7909 1.34793 71.9689 1.34315C72.1667 1.3336 72.3348 1.40046 72.4684 1.54372C72.6019 1.68698 72.6464 1.9162 72.597 2.24571C72.5871 2.31257 72.5574 2.40808 72.5079 2.52746C72.4585 2.64685 72.3892 2.78056 72.3002 2.9286C72.226 3.07664 72.1074 3.24855 71.9491 3.44912C71.7909 3.64969 71.6474 3.85504 71.5139 4.06993C71.4645 4.15111 71.4249 4.24662 71.3853 4.34213C71.3458 4.44242 71.3013 4.53315 71.2419 4.61911C71.1677 4.74327 71.054 4.93429 70.9056 5.19216C70.7573 5.45004 70.6435 5.64583 70.5594 5.77954C70.416 6.00399 70.2875 6.17591 70.1737 6.28574C70.06 6.39558 69.9165 6.57227 69.7435 6.81104C69.8127 6.9352 69.8918 7.04981 69.966 7.15487C70.0402 7.26471 70.1243 7.37454 70.2182 7.48438C70.3072 7.60377 70.4111 7.7136 70.5199 7.80911C70.6287 7.90939 70.7375 7.9858 70.8364 8.04311C70.9452 8.11474 71.0639 8.17204 71.1875 8.20547C71.3111 8.2389 71.4397 8.25323 71.5634 8.24845C71.7117 8.24845 71.87 8.2198 72.0381 8.16249C72.2063 8.10519 72.3793 8.024 72.5574 7.91894C72.6761 7.85686 72.7997 7.77568 72.9283 7.68017C73.0569 7.58466 73.1953 7.47483 73.3388 7.36022C73.4278 7.28859 73.5168 7.2074 73.6058 7.12622C73.6948 7.04504 73.7838 6.95908 73.8729 6.8779L74.496 7.92372ZM73.7196 7.11189C73.7888 7.04026 73.858 6.9543 73.9273 6.84447C73.9965 6.73463 74.0806 6.61525 74.1795 6.48153L75.2971 5.62195C75.4307 5.45481 75.6384 5.23992 75.9153 4.96772C76.1972 4.69552 76.5434 4.36601 76.9588 3.9792C77.0033 3.87891 77.0824 3.75953 77.1962 3.61626C77.305 3.47778 77.4385 3.33451 77.5918 3.19125C77.7253 3.05754 77.8638 2.93338 77.9973 2.81399C78.1308 2.6946 78.2594 2.57999 78.3732 2.46538C78.5166 2.31257 78.6551 2.16453 78.7836 2.01649C78.9122 1.86845 79.0458 1.72519 79.1793 1.58192C79.3326 1.43866 79.4958 1.31927 79.659 1.22376C79.8222 1.12825 80.0051 1.06617 80.203 1.03275C80.4206 0.994542 80.5838 0.989767 80.6975 1.01842C80.8112 1.04707 80.8755 1.0996 80.8854 1.18078C80.7915 1.3909 80.6926 1.60102 80.5887 1.81114L80.6777 1.91143C81.108 1.69653 81.4443 1.53417 81.6866 1.42433C81.9289 1.3145 82.0872 1.25719 82.1564 1.24287C82.8735 1.1187 83.4175 1.21421 83.7834 1.52462C84.1494 1.83502 84.3423 2.36987 84.362 3.11962C84.367 3.26288 84.3472 3.43002 84.3126 3.63059C84.278 3.83116 84.2186 4.05083 84.1346 4.2896C84.0406 4.55703 83.9417 4.78625 83.8329 4.97249C83.7241 5.15873 83.6202 5.29722 83.5263 5.38796C83.5658 5.48824 83.6153 5.55987 83.6647 5.59808C83.7142 5.63628 83.7785 5.64583 83.8576 5.63628C83.9367 5.62195 84.0159 5.58852 84.0999 5.53122C84.184 5.47391 84.2829 5.39751 84.3967 5.29245C84.5005 5.45959 84.5994 5.6315 84.6983 5.81297C84.7972 5.99444 84.8961 6.17113 85 6.34782C84.8269 6.51019 84.6588 6.67255 84.4956 6.82537C84.3324 6.97818 84.1593 7.131 83.9714 7.27903C83.7488 7.47483 83.5362 7.62764 83.3383 7.7327C83.1405 7.83776 82.9427 7.90939 82.7449 7.94282C82.5174 7.98103 82.3295 7.9667 82.1811 7.89984C82.0328 7.83299 81.9091 7.72315 81.8201 7.57034C81.5827 7.88552 81.291 8.19115 80.9448 8.48245C80.6035 8.77375 80.2227 9.02685 79.8024 9.2513C79.5601 9.39456 79.3375 9.50917 79.1397 9.59513C78.9419 9.68586 78.754 9.74317 78.5908 9.77182C78.5413 9.78137 78.4474 9.8148 78.3039 9.8721C78.1605 9.92941 78.0468 9.96761 77.9578 9.98194C77.3989 10.0774 76.8896 9.96284 76.4247 9.63811C75.9648 9.31338 75.7274 8.90269 75.7175 8.41082C75.7126 8.21025 75.762 7.93327 75.8609 7.58466C75.9598 7.23606 76.0093 7.03071 76.0093 6.97341C76.0093 6.9161 75.9846 6.86835 75.94 6.83969C75.8955 6.81104 75.8312 6.80149 75.7521 6.81582C75.7027 6.82537 75.5889 6.90655 75.401 7.06414C75.218 7.22173 74.9559 7.44618 74.6196 7.73748C74.5899 7.77568 74.5553 7.83299 74.5207 7.90462C74.4811 7.97625 74.4218 8.06221 74.3328 8.16249C74.2487 7.98103 74.1548 7.80433 74.0558 7.62287C73.9569 7.44618 73.8432 7.27426 73.7196 7.11189ZM80.7519 3.61149C80.7025 3.63059 80.6332 3.68312 80.5393 3.77863C80.4453 3.87414 80.3612 3.98875 80.2722 4.11769C80.1387 4.33258 79.9854 4.57135 79.8172 4.82445C79.7134 4.94384 79.5996 5.03935 79.476 5.11576C79.3524 5.19216 79.2139 5.25424 79.0606 5.30677C78.9617 5.33065 78.8628 5.43094 78.7589 5.60285C78.6551 5.77477 78.5512 6.01832 78.4523 6.32872C78.3484 6.6057 78.2792 6.83969 78.2298 7.03549C78.1852 7.2265 78.1655 7.38409 78.1655 7.51303C78.1704 7.74703 78.2446 7.90939 78.3831 8.0049C78.5215 8.10041 78.7342 8.11951 79.021 8.07176C79.471 7.99535 79.8865 7.81866 80.2574 7.54168C80.6283 7.26471 80.9794 6.88267 81.3008 6.40035C81.4542 6.21411 81.5976 6.03742 81.7311 5.87505C81.8102 5.81297 81.8696 5.71746 81.919 5.59808C81.9635 5.47869 82.013 5.33065 82.0575 5.15396L82.3048 4.39466C82.2108 4.16067 82.1218 3.97442 82.0427 3.84071C81.9586 3.707 81.8795 3.63059 81.8003 3.61149C81.7509 3.59239 81.6421 3.58761 81.4739 3.58284C81.3107 3.58284 81.0684 3.59239 80.7519 3.61149Z" fill="black"/>
</svg>
