<svg width="65" height="38" viewBox="0 0 65 38" fill="none" xmlns="http://www.w3.org/2000/svg">
<g clip-path="url(#clip0_421_293)">
<path d="M51.4778 35.972C50.1129 35.9216 48.2004 35.8936 45.3202 35.9972C43.9865 36.0477 43.6716 35.5041 43.2261 33.1982C43.0303 32.198 42.2556 32.7303 41.1574 32.4221C40.1614 32.0355 39.977 29.6764 39.977 29.6764C39.9656 29.1468 39.6762 29.1328 39.506 29.2113C35.6042 30.8419 31.4784 28.3707 31.3847 28.7966C30.6668 30.7438 28.7003 30.5953 28.4506 30.091C28.5045 30.968 27.1425 31.6937 26.7225 31.4863C25.2157 30.699 25.1902 30.1274 24.1431 29.766C22.2306 28.9507 22.6364 28.0653 20.8033 27.9673C19.4667 27.8972 19.0212 27.6787 18.7063 27.3985C17.3187 26.0564 18.5218 24.2689 19.3618 23.6721C19.0496 22.2768 21.0927 20.5761 21.5637 19.4106C20.9338 19.3993 19.9775 19.2537 18.4991 18.7577C17.7273 18.4972 17.9117 18.8782 16.561 18.7437C14.7393 18.584 14.0441 18.3963 13.468 18.1385C13.1304 17.9844 11.371 18.0237 10.4573 17.7099C7.54878 17.2952 8.00563 14.7091 8.07373 14.4626C8.09927 14.3589 8.12765 14.3589 8.66964 14.3589C9.40458 14.4121 10.7184 14.0339 11.7938 14.2048C12.211 14.2552 12.8693 14.0731 13.888 14.2048C15.1621 13.9835 16.0928 14.3169 17.5741 13.7985C17.7954 13.7341 17.75 13.9414 18.2409 13.8966C18.502 13.8686 18.4707 13.6641 19.2426 13.7537C20.1279 13.8546 21.2544 13.7649 22.3271 13.7649C23.4025 13.7649 24.2396 13.5492 26.8587 13.3306C27.9313 13.2382 28.7741 12.7591 29.5573 13.1457C30.7519 13.7341 34.9033 15.5245 39.3556 17.6987C39.4492 17.7435 39.8408 17.962 40.0905 17.3877C40.5899 16.4743 40.8765 16.7404 42.633 16.7937C43.8872 16.7432 42.9565 15.7934 44.3356 15.8214C46.4581 15.8663 47.2895 16.04 50.3882 15.9783C51.6367 15.9559 51.9773 15.9111 52 16.7881V35.4004C52.0028 35.6862 51.8694 35.972 51.4778 35.972Z" fill="#773DBD"/>
<path d="M8.69535 14.9893C8.61874 15.813 10.1624 15.6113 10.7782 15.488C11.1442 15.418 11.4195 14.8436 11.0534 14.7119L8.77481 14.9192C8.74075 14.9164 8.68968 14.9725 8.69535 14.9893Z" fill="#2FA341"/>
<path d="M20.9764 24.5911C21.8674 24.7256 21.788 25.087 22.2647 25.0226C22.8975 24.9358 22.33 24.6976 24.4951 24.7508C25.1222 24.7508 25.4627 24.7088 25.8826 24.9694C26.0926 24.7985 26.5892 24.5659 26.9297 24.8629C27.7157 24.706 27.4377 24.6163 28.7657 24.9161C30.5562 25.3196 30.9109 24.5967 31.7423 24.1933C31.9636 24.0924 32.1112 24.014 32.5454 24.0812C35.8483 24.4763 34.4182 24.465 38.9952 24.1933C40.5786 23.8963 41.1944 23.0529 41.1263 20.932C40.9958 18.528 40.4736 18.8614 39.1371 18.2927C33.7145 15.9167 30.0738 13.8742 28.6578 13.9779C24.6483 14.0311 25.3832 14.754 20.0911 14.5971C18.4141 14.3898 18.4651 15.2415 17.838 15.1407C17.3641 14.8801 17.7529 14.6335 16.1326 14.7792C12.8438 15.0762 12.1883 14.5215 11.8875 15.037C11.4846 15.7262 11.496 16.1577 9.35923 15.9812C9.1833 15.97 9.12939 15.9644 9.02439 15.9448C8.76333 15.8831 8.74914 16.0372 9.00453 16.2278C9.21451 16.3875 10.9511 17.2196 12.9857 16.9002C14.1406 16.7181 13.5362 17.1608 15.4487 17.1608C16.2858 17.1047 16.808 17.1047 17.0719 17.0515C17.909 17.3653 19.5349 17.3877 20.0627 17.2616C20.704 17.1019 21.0048 16.8974 21.5808 17.2056C22.154 17.5166 23.4168 17.9453 25.2981 17.7239C27.5001 17.4661 27.3809 17.0459 27.6051 17.2056C28.1158 17.5894 27.0688 18.3011 28.1556 19.1192C28.7146 19.5423 29.3105 17.8528 29.861 17.878C30.1901 17.9228 30.2526 18.2198 30.0965 18.5785C30.0227 18.7466 29.3672 19.7048 29.9121 20.1026C30.8031 20.7527 32.4006 18.811 33.635 19.6123C33.9216 19.8309 33.6151 20.1419 33.2689 20.1026C32.673 20.0326 31.6685 20.5986 31.2514 20.9572C30.7009 21.4475 29.1289 22.1984 28.55 22.4309C26.5069 23.2575 25.8287 22.6383 25.4598 23.1566C25.1477 23.5433 24.5092 22.9605 23.7828 22.8456C22.4122 22.6243 19.2625 23.7394 19.5633 24.4258C19.6768 24.6528 19.8924 24.636 20.1734 24.5827C20.4713 24.5379 20.582 24.5323 20.9764 24.5911Z" fill="#2FA341"/>
<path d="M21.7426 26.2637C21.4276 25.5885 21.3935 25.4988 20.7324 25.3588C20.1535 25.2327 18.4765 25.7202 18.7006 26.4206C18.8737 26.6392 19.5775 26.6532 20.023 26.7541C20.4968 26.8633 21.9639 27.0258 21.7426 26.2637Z" fill="#2FA341"/>
<path d="M42.3522 31.7388C41.6797 31.7052 41.6002 31.3017 41.4924 30.8674C41.342 30.2454 41.8074 27.6594 41.8613 24.4009C41.9124 21.1424 41.8074 20.2094 41.6485 18.4526C41.6116 18.0212 41.2569 17.4776 41.8613 17.4468C43.8221 17.3375 44.4265 17.1862 44.7443 18.7104C45.1103 20.4951 45.1614 27.4352 44.6904 31.0776C44.5286 31.3633 44.9287 31.9321 42.3522 31.7388Z" fill="#2FA341"/>
</g>
<defs>
<clipPath id="clip0_421_293">
<rect width="44" height="23" fill="white" transform="matrix(-1 0 0 1 52 13)"/>
</clipPath>
</defs>
</svg>
