<svg width="152" height="21" viewBox="0 0 152 21" fill="none" xmlns="http://www.w3.org/2000/svg">
<path d="M16.6083 6.18434L15.3914 7.95551C15.1519 8.12106 14.985 8.44989 14.7455 8.74698L14.339 9.30486C13.4536 10.2936 12.5319 11.1849 11.6125 12.1419C11.4069 12.3097 11.3779 12.4707 11.3464 12.634C11.2811 12.8631 11.3174 13.0241 10.8021 13.2622C10.49 13.1692 9.93115 13.0468 9.65051 12.922C9.30214 12.6998 8.94651 12.2825 8.59329 11.8992V11.931C8.38282 11.7065 8.24008 11.4479 8.06106 11.2552L7.39334 10.6814C6.61917 10.0102 5.74098 9.21188 5.09987 8.50659L4.53619 7.89881L4.04024 7.28877L3.79347 7.00076C3.29752 6.42246 2.97334 5.68089 2.73141 5.68315C2.79673 7.43844 2.97092 9.45 3.14027 11.203L3.40639 14.5163C3.42332 15.4575 3.33623 16.4666 3.24672 17.3465L3.17898 17.5098C3.17898 17.5416 3.14753 17.6708 3.11366 17.7389C3.04834 18.0337 2.9177 18.358 2.53545 18.3648C1.98144 18.3739 1.41775 17.9271 1.27018 17.41C1.1855 16.4349 1.16615 15.428 1.11535 14.4551L0.960513 11.5319L0.77181 8.70842C0.667781 6.79212 0.534722 5.03909 0.537141 3.12052L0.396824 2.9595C0.183928 2.72819 0.00732209 2.50367 6.42993e-05 2.14762C-0.012032 1.39924 1.68629 1.4378 1.96209 1.43553C2.45078 1.62376 2.5282 1.97981 2.63706 2.27009V2.23834C2.70964 2.46285 2.78222 2.68963 2.81851 2.72138L3.63138 3.58769C4.05475 4.00497 4.40796 4.41998 4.7636 4.83952L5.01036 5.12981C5.71921 6.02786 6.49821 6.98942 7.24092 7.72646L7.62801 8.07797L8.08525 8.55875C8.40217 8.84449 8.8957 9.32527 9.18118 9.67905L9.85373 10.4501C11.3803 8.63812 13.0133 6.6946 14.6826 4.94838L15.6721 3.98909L16.2527 3.49471C16.4922 3.26339 16.5551 2.93683 16.5841 2.61026C16.6107 2.22019 16.6398 1.89363 17.0898 1.75756L17.5059 1.75076C18.5462 1.73488 18.5849 2.05918 18.5994 2.83931V3.03434C18.6986 4.52657 18.9332 6.01879 19.1679 7.54276C19.1655 7.34773 19.2453 7.93056 19.284 8.15734V8.12559C19.3566 8.48164 19.434 8.90346 19.4074 9.29352C19.6784 10.915 20.0171 12.4707 20.288 14.0922C20.2614 14.5798 20.305 15.1309 20.3824 15.5527C20.4598 15.9745 20.5372 16.3306 20.5445 16.7864C20.5517 17.1447 19.8501 18.714 19.1897 18.6596C19.3203 18.1698 19.1461 18.1403 18.9719 18.1085C18.7276 18.0473 18.5171 17.9521 18.2728 17.7616C18.13 17.503 18.0937 17.4395 18.1591 17.2445L18.1542 17.0177L18.1905 17.0495C18.1542 16.9519 17.8978 16.2398 17.8954 16.0131C17.7067 15.1717 17.622 14.1013 17.5688 13.1261C17.5228 12.4118 17.5446 11.7609 17.3922 10.983C17.2736 10.0419 17.1164 9.10302 16.9615 8.16188L16.6156 6.18661L16.6083 6.18434ZM26.0822 3.04795C26.2201 2.94816 26.4257 2.88013 26.6676 2.74633H26.6338C27.045 2.48099 27.5603 2.17937 27.6619 2.05011C29.1038 1.21328 31.0344 0.535205 32.8005 0.507991L33.2867 0.501188C33.4633 0.757451 33.7077 0.784665 33.9182 0.814147C34.0923 0.843629 34.2641 0.907127 34.4431 1.06587C34.4431 1.06587 34.5472 1.09536 34.5472 1.12937C34.9633 1.15432 34.898 1.31987 34.6609 1.6487L34.6657 1.94125C34.6681 2.10227 34.6705 2.16803 34.7044 2.19978C34.777 2.39482 34.777 2.49233 34.7794 2.58985C34.7794 2.68737 34.7141 2.78488 34.7141 2.78488L34.5786 3.04568V3.20896C34.6222 3.56501 34.5931 3.85756 34.1093 3.86436C33.7633 3.87117 33.5528 3.80994 33.3424 3.71469C33.4125 3.84395 33.4488 3.9392 33.4875 4.10248C33.4875 4.2 33.5262 4.32927 33.5625 4.39503C33.5964 4.39503 33.7706 4.35875 33.8045 4.35875C33.8045 4.35875 34.1165 4.48348 34.2593 4.54698C34.4673 4.67397 34.7141 4.7987 34.956 4.79644H35.0601C35.1302 4.76015 35.2318 4.69438 35.2318 4.69438C35.8923 4.81458 36.1076 5.20011 36.1826 5.59017L36.4898 5.29082C36.4971 5.68315 36.5406 6.23197 36.4729 6.3635L36.6132 6.52225C36.6834 6.52225 36.7874 6.55173 36.8213 6.55173C36.8213 6.55173 37.0318 6.74449 37.1745 6.90551C37.3487 7.09827 37.564 7.41803 37.6366 7.57905L37.6462 8.16415L37.8253 8.45443C37.8253 8.52019 37.9341 8.61544 37.968 8.64719C38.1785 8.77646 38.2148 8.80367 38.2196 9.06447C38.2244 9.29125 38.0527 9.4568 37.847 9.52711H37.8132C37.8132 9.59287 37.7817 9.69039 37.7841 9.82192C37.7503 9.95346 37.7527 10.0487 37.7527 10.0805C37.7575 10.4048 37.7648 10.6973 37.8035 11.0216C37.8446 11.3459 37.8857 11.6702 37.8906 11.9945C37.8954 12.3846 37.8325 12.6794 37.7672 12.9402C37.7019 13.2327 37.6366 13.5275 37.6414 13.7543C37.6414 13.8178 37.6801 13.8836 37.714 13.9153C37.8204 14.0764 37.9245 14.1081 37.9293 14.3666C37.9366 14.7567 37.5229 14.9268 37.0753 15.0311C36.9035 15.0651 36.7632 15.0991 36.7293 15.1332L36.3882 15.496C36.2189 15.6933 36.0834 15.8589 35.8463 16.0562C34.3754 17.215 32.244 18.3217 30.2675 18.3512C29.6094 18.3625 29.0143 18.1425 28.424 17.9248L27.5869 17.6459C27.6208 17.6459 27.4829 17.6799 27.4829 17.6799C24.1734 16.6254 22.7605 13.2985 22.7097 10.4388C22.6613 7.57905 23.7597 4.96199 26.0846 3.04114L26.0822 3.04795ZM31.6416 3.7419L31.6755 3.70788C31.4336 3.71242 31.1916 3.71469 31.0513 3.68521C27.9789 4.57646 26.5588 6.54946 25.6709 9.42279C25.7096 9.71533 25.6128 10.0737 25.5838 10.4297C25.5548 10.6905 25.5572 10.8538 25.5596 10.983C25.5935 12.9334 26.133 14.0627 28.0224 15.0084C28.4071 15.2307 29.07 15.4801 29.5562 15.4733C29.6603 15.4733 30.6981 15.3259 30.732 15.2602C31.9005 14.7544 32.8295 14.285 33.1512 12.8835C33.1851 12.8835 33.2141 12.4934 33.248 12.3301C33.3109 12.0353 33.3762 11.7745 33.5093 11.3527H33.4754C33.6061 10.9286 33.7391 10.534 33.7319 10.1462C33.7198 9.46361 33.4343 9.01231 33.1125 8.49752L32.8271 7.88294V7.91469C32.1134 6.78985 31.6779 5.85324 31.6561 4.51976L31.644 3.73963L31.6416 3.7419ZM47.4999 4.7987C47.1636 5.35659 46.2879 6.8987 45.9201 7.58585C45.683 7.98045 44.7782 9.74935 44.6452 10.1077L44.679 10.0736C44.6476 10.2369 44.4807 10.5635 44.3476 10.8266C44.1444 11.1894 43.946 11.643 43.9557 12.3279H43.9218L43.7888 12.6227C43.3509 13.3756 42.7823 14.4914 42.5501 15.208L42.7678 15.691C42.6977 15.691 42.5574 15.6298 42.5574 15.5981C42.4582 15.8248 42.2598 16.351 42.2598 16.3827C42.2259 16.4802 42.1945 16.6118 42.1969 16.7728C42.1388 17.3579 42.1509 18.1063 41.2848 18.1176C41.2147 18.1176 40.9364 18.0269 40.9364 18.0269L40.6534 17.7706L40.4066 17.5801C40.0583 17.3239 39.8792 17.1969 39.8671 16.5165C39.8478 15.4438 40.2808 14.3644 40.7502 13.4482L41.3526 12.1396C41.6211 11.5817 41.9888 10.8629 42.0566 10.6656C42.2259 10.5023 42.6953 9.55205 42.659 9.48855L43.6968 7.39082L43.767 7.32505C43.9363 7.09374 44.3113 6.7649 44.3113 6.7649L44.0017 6.96447L44.2702 6.4406C44.3016 6.34309 44.3694 6.2433 44.3694 6.21156C44.4347 5.98251 45.4798 4.34287 45.6129 4.08207C45.983 3.36091 46.7911 1.98434 47.7273 1.96847C47.7951 1.96847 47.9015 1.99795 47.9717 2.0297L47.9547 1.1203C47.9547 1.1203 48.6297 1.98661 48.6974 1.95259L49.1547 2.46512C49.6385 4.37689 50.3304 6.21609 51.0224 8.09158L51.8231 10.1916C51.9997 10.4478 52.0022 10.6111 52.0409 10.8697C52.0796 11.0012 52.1183 11.228 52.186 11.3232C52.336 11.8085 52.7739 13.1012 52.7739 13.1012L52.7376 13.0694L52.9868 13.455L54.448 17.723C54.4529 17.9498 54.4867 18.1131 54.5255 18.2741C54.5642 18.4033 54.6029 18.6641 54.6101 19.1495C53.9158 19.1608 53.7755 18.9998 53.669 18.8388L53.6327 18.773C53.6013 18.773 53.565 18.7413 53.565 18.7095C52.7594 18.3308 51.9901 17.791 51.6949 16.8522L47.4975 4.79417L47.4999 4.7987ZM58.793 2.54676C58.9309 2.44698 59.139 2.37894 59.3785 2.24514H59.3446C59.7559 1.97981 60.2712 1.67819 60.3728 1.54892C61.8147 0.714363 63.7429 0.0340173 65.5113 0.00680346L65.9976 0C66.1742 0.256263 66.4186 0.285745 66.6266 0.315227C66.8008 0.344708 66.975 0.408207 67.1516 0.566955C67.1516 0.566955 67.2556 0.596436 67.2556 0.630454C67.6717 0.6554 67.6064 0.82095 67.3693 1.14978L67.3742 1.44233C67.3766 1.60335 67.379 1.66911 67.4129 1.70086C67.4855 1.89363 67.4855 1.99114 67.4879 2.09093C67.4879 2.18845 67.4226 2.28823 67.4226 2.28823L67.2871 2.54903V2.71231C67.3306 3.06836 67.3016 3.36091 66.8153 3.36771C66.4694 3.37451 66.2589 3.31328 66.0508 3.21577C66.121 3.34503 66.1573 3.44255 66.196 3.60356C66.196 3.70108 66.2347 3.83035 66.271 3.89611C66.3049 3.89611 66.479 3.85983 66.5129 3.85983C66.5129 3.85983 66.825 3.98456 66.9653 4.04806C67.1758 4.17505 67.4201 4.29978 67.6645 4.29752H67.7685C67.8387 4.26123 67.9403 4.19546 67.9403 4.19546C68.6007 4.31566 68.8185 4.70346 68.8911 5.09125L69.1983 4.7919C69.2056 5.18423 69.2491 5.73305 69.1814 5.86458L69.3217 6.02559C69.3918 6.02559 69.4959 6.05508 69.5297 6.05508C69.5297 6.05508 69.7402 6.24784 69.8829 6.40886C70.0596 6.60162 70.2725 6.92365 70.345 7.08467L70.3547 7.66749L70.5337 7.95778C70.5337 8.02354 70.6402 8.11879 70.6741 8.15054C70.8845 8.27754 70.9208 8.30702 70.9257 8.56782C70.9305 8.7946 70.7587 8.96015 70.5531 9.03045H70.5192C70.5192 9.09622 70.4878 9.19374 70.4902 9.32527C70.4563 9.45454 70.4587 9.55205 70.4587 9.5838C70.4636 9.9081 70.4708 10.2006 70.5095 10.5249C70.5507 10.8492 70.5918 11.1735 70.5966 11.4978C70.6039 11.8879 70.541 12.1827 70.4757 12.4413C70.4104 12.7361 70.345 13.0286 70.3499 13.2577C70.3499 13.3212 70.3886 13.3869 70.4224 13.4187C70.5289 13.5797 70.6329 13.6114 70.6378 13.87C70.645 14.26 70.2313 14.4301 69.7813 14.5322C69.6096 14.5662 69.4717 14.6025 69.4378 14.6342L69.0967 14.9971C68.9273 15.1944 68.7894 15.3599 68.5524 15.5595C67.0814 16.7184 64.9525 17.8251 62.976 17.8545C62.3179 17.8636 61.7228 17.6459 61.13 17.4259L60.293 17.147C60.3269 17.147 60.189 17.181 60.189 17.181C56.877 16.1265 55.4665 12.7996 55.4157 9.94212C55.3649 7.0824 56.4657 4.46533 58.7882 2.54449L58.793 2.54676ZM64.3549 3.24071L64.3888 3.2067C64.1469 3.21123 63.9049 3.2135 63.7646 3.18402C60.6922 4.07527 59.2721 6.046 58.3866 8.91933C58.4253 9.21188 58.3285 9.57246 58.2995 9.92851C58.2681 10.1893 58.2705 10.3526 58.2729 10.4819C58.3068 12.4322 58.8487 13.5616 60.7357 14.5072C61.1204 14.7295 61.7833 14.9789 62.2695 14.9721C62.3711 14.9721 63.4114 14.8247 63.4429 14.759C64.6138 14.2532 65.5404 13.7838 65.8621 12.3823C65.896 12.3823 65.925 11.9922 65.9589 11.8267C66.0218 11.5319 66.0871 11.2711 66.2202 10.8492H66.1863C66.317 10.4252 66.45 10.0306 66.4428 9.64277C66.4307 8.96015 66.1452 8.50886 65.8234 7.99406L65.5355 7.37948V7.41123C64.8243 6.28639 64.3912 5.34978 64.367 4.01631L64.3549 3.23618V3.24071ZM97.3102 14.9563C97.3102 14.9245 97.344 14.8587 97.3416 14.7612C97.3416 14.6977 97.3029 14.5662 97.2642 14.3712C97.2279 14.2102 97.1892 13.9834 97.1892 13.9834V13.8859C97.1723 13.074 97.2279 12.2576 97.2835 11.4457C97.3053 10.6656 97.3948 9.88542 97.3803 9.07354C97.3634 8.13013 97.3126 7.22073 97.2642 6.31134C97.2158 5.49946 97.2037 4.75335 97.1892 3.90745C96.8771 3.88024 96.4924 3.72376 96.4852 3.30194L96.4731 2.51955C96.4658 2.12948 96.9836 1.96166 97.3973 1.85508C97.4198 1.85508 97.4311 1.83391 97.4311 1.79158C98.677 1.5784 99.8214 1.56026 100.963 1.54212L101.933 1.52851C102.212 1.52397 104.604 1.55119 104.88 1.58067C106.544 1.62149 108.342 3.18629 108.886 4.57646C109.104 5.15702 109.15 5.73985 109.16 6.29546L109.165 6.52225C109.165 6.52225 109.063 6.7513 108.998 6.91458L108.901 7.33866C108.872 7.69698 108.811 8.05529 108.504 8.41588L107.926 9.04406C108.528 9.7811 109.278 11.0057 109.431 11.8494C109.467 11.8811 109.503 12.0421 109.506 12.2054C109.544 12.4004 109.619 12.854 109.619 12.854C109.619 12.854 109.723 12.854 109.794 12.8835C109.794 12.9152 109.869 13.2055 109.905 13.303C109.837 13.4663 109.511 14.4483 109.477 14.6433C108.923 16.5052 106.017 17.0041 104.249 17.0313C103.554 17.0427 102.722 16.9565 102.025 16.8703C101.82 16.8726 101.435 16.8136 101.261 16.8181C101.188 16.7546 101.05 16.7252 100.946 16.7252C100.668 16.7297 100.356 16.7025 100.146 16.5415H99.9714C99.9423 16.8703 99.8455 17.2626 99.2552 17.2694H99.0811L98.7303 16.9519C98.7303 16.9202 98.6214 16.7592 98.6214 16.7592L98.0916 16.3124C97.6343 15.9632 97.2473 15.6117 97.2448 15.3509C97.2448 15.2533 97.2424 15.1558 97.3077 14.9585L97.3102 14.9563ZM99.5093 3.93693L99.9641 8.12333C100.034 8.12333 100.138 8.12106 100.31 8.05302L100.276 8.08704C100.412 7.98952 100.685 7.72419 100.685 7.72419L101.343 7.71512C101.447 7.71512 102.758 7.43391 103.208 7.26382L104.895 6.71728C105.446 6.51091 106.373 6.01199 106.363 5.45864C106.334 3.76911 101.863 3.90292 100.545 3.92333L99.5044 3.9392L99.5093 3.93693ZM101.2 11.355L100.683 11.4933L100.716 11.4593C100.511 11.5273 100.373 11.5296 100.303 11.5296H100.233L100.199 11.5636C100.165 11.5954 100.167 11.7269 100.167 11.8221C100.167 11.9197 100.138 12.1805 100.143 12.473L100.148 12.7996C100.252 12.7996 100.32 12.7633 100.458 12.7293H100.424C100.629 12.693 100.908 12.6884 101.15 12.6862C101.498 12.6794 101.844 12.7089 102.156 12.7361C102.502 12.7633 102.816 12.7587 103.126 12.7542C103.576 12.7474 106.419 12.7043 106.409 12.0852C106.397 11.4366 105.666 11.1871 105.003 11.0329L104.621 10.9082L103.963 10.9195C103.027 10.9332 102.129 11.1441 101.198 11.3527L101.2 11.355ZM113.301 15.5913C113.299 15.3962 113.156 15.2352 113.57 15.0991C113.981 14.8656 115.019 14.7499 115.781 14.6728C115.919 14.6728 116.059 14.6365 116.161 14.6365C116.921 14.5254 117.893 14.5118 118.723 14.4664C118.687 14.3394 118.682 14.1444 118.68 14.0446C118.677 13.8496 118.634 13.3302 118.624 12.7769L118.602 11.5432C118.571 9.69039 118.571 7.80583 118.849 5.78747C118.894 5.76479 118.917 5.74212 118.917 5.71944L119.011 5.06857C119.103 4.41771 119.231 3.73283 119.219 3.08423L119.212 2.59665H119.142C119.071 2.59665 119.038 2.59892 118.938 2.82797L118.382 2.83704C118.208 2.83931 118.002 2.87559 117.932 2.87786H117.794C117.482 2.88467 117.136 2.89147 116.403 2.60799L116.057 2.61253L115.917 2.45378L114.286 2.47873C114.252 2.64201 114.117 2.77354 113.771 2.78035C113.321 2.78715 113.316 2.4946 113.314 2.26555C113.28 2.29957 113.246 2.33132 113.072 2.30184C113.072 2.20432 112.997 1.97981 112.96 1.94579C112.956 1.61922 113.057 1.48996 113.159 1.32441C113.052 1.29492 112.948 1.26318 112.914 1.22916C112.81 1.19968 112.597 1.03866 112.53 1.04093C112.668 0.975162 112.975 0.678078 113.04 0.546544L112.477 0.0340173L113.689 0.0158747C113.897 0.0136069 114.141 0.106587 114.419 0.133801C114.557 0.1973 114.7 0.226782 114.872 0.224514C115.878 0.274406 116.882 0.32203 117.922 0.340173C118.931 0.358315 120.005 0.37419 121.009 0.424082L123.3 0.55108C123.542 0.546544 123.82 0.605508 124.065 0.60324C124.689 0.657667 125.349 0.714363 125.903 0.673542L126.254 0.864039C126.218 0.766523 126.288 0.766523 126.288 0.798272C126.462 0.796004 126.67 0.857235 126.811 0.952484L127.057 1.14298L127.587 1.62149C127.691 1.71901 127.836 2.00702 127.839 2.1703C127.724 2.21566 127.667 2.24892 127.667 2.27009C127.331 3.023 126.501 3.03661 125.981 3.04341C125.947 3.04341 125.703 3.04795 125.495 3.01847C124.841 3.32009 124.529 3.32462 124.251 3.33143C123.629 3.3405 123.107 3.2838 122.55 3.22711L121.404 3.14773L121.687 3.40173C121.411 3.56955 121.048 4.55151 121.118 4.71253L121.058 5.16836C120.772 6.73089 120.586 7.93737 120.613 9.46588C120.617 9.72667 120.661 10.2778 120.668 10.6361L120.673 10.8946C120.678 11.1554 120.69 11.9015 120.738 12.6159V12.5841C120.779 13.1035 120.789 13.6228 120.792 13.7861C120.792 13.8518 120.799 14.1444 120.942 14.3371L124.614 14.2805C125.48 14.2668 126.22 14.8724 126.784 15.4824C126.789 15.7727 126.721 15.9042 126.586 16.004C126.762 16.165 126.869 16.292 126.871 16.5188C125.623 16.5392 124.585 16.6186 123.547 16.732C122.751 16.8113 121.989 16.8862 121.227 16.9293C121.123 16.9633 121.021 16.9973 120.847 17.0018C120.743 17.0359 120.571 17.0381 120.501 17.0404C120.397 17.1062 120.293 17.1084 120.223 17.1107C119.945 17.1152 119.841 17.02 119.63 16.893C119.422 16.766 119.175 16.639 118.967 16.6095V16.512L117.891 16.5279C117.857 16.5279 117.646 16.5006 117.438 16.5029C117.194 16.4734 116.952 16.478 116.882 16.4802C116.05 16.4916 115.116 16.5709 114.296 17.2672L114.015 17.1424C113.981 17.1424 113.706 17.2105 113.289 17.2173C113.35 16.6639 113.243 16.4712 113.171 16.3079L113.06 15.9201C113.06 15.7908 113.159 15.6593 113.297 15.5913H113.301ZM117.782 2.1L117.579 2.33132L117.826 2.55583C117.859 2.55583 117.927 2.52181 117.961 2.45605L117.782 2.10227V2.1ZM118.305 2.18844C118.305 2.18844 118.232 2.06145 118.128 2.06145C118.024 2.06145 117.954 2.12948 117.99 2.19298L118.341 2.44698V2.28369L118.302 2.18618L118.305 2.18844ZM118.999 2.17711C118.817 1.85508 118.646 1.89136 118.513 2.18391L118.999 2.17711ZM124.483 2.51501C124.241 2.51955 124.067 2.55356 123.999 2.6216H124.033C124.067 2.6216 124.072 2.7486 124.072 2.88013C124.142 2.94363 124.249 2.97538 124.387 3.03888L124.483 2.51501ZM142.93 10.8787L142.964 10.813H142.998C142.998 10.9105 143.071 11.008 143.073 11.1373C143.073 11.169 143.109 11.2348 143.109 11.2665C143.112 11.4275 143.112 11.4593 143.046 11.5591C143.012 11.5931 143.012 11.6248 143.015 11.6566C143.015 11.6883 143.02 11.8834 142.812 11.9197L143.366 11.9106C143.383 12.8517 143.204 12.532 143.034 12.6952C142.933 12.7928 142.761 12.9266 142.729 13.1216L143.283 13.1783L143.298 13.9267C143.305 14.4143 143.351 15.0311 142.804 15.3962C142.7 15.462 142.427 15.564 142.427 15.564L142.529 15.4983C142.596 15.4325 142.417 15.1105 142.279 15.1127L142.188 15.7319C141.837 15.6389 141.798 15.4461 141.658 15.2874L141.411 15.0629C141.338 14.9971 141.304 14.9994 141.164 14.9359C140.78 14.7794 140.325 14.5911 140.313 13.845L140.073 14.0106C140.059 13.1987 140.078 12.3528 140.105 11.8312C140.165 11.3119 140.225 10.7903 140.216 10.3027C140.216 10.2052 140.172 9.84914 140.134 9.58834C139.446 9.95572 138.692 10.4546 137.973 10.9218C137.666 11.1531 137.218 11.389 136.945 11.5886L136.464 11.8244C136.326 11.8584 136.188 11.9582 136.086 12.058L135.61 12.4889L135.438 12.6204C135.06 12.8857 134.339 13.3847 134.035 13.6818C133.933 13.8133 133.798 14.0106 133.696 14.1104L133.868 14.0083C133.664 14.3031 133.355 14.5027 132.91 14.7703H132.944L132.464 15.1354L131.47 15.8657L131.453 14.8905C130.965 14.6705 130.575 14.1897 130.568 13.7339C130.561 13.4073 130.66 13.1465 130.931 12.6227C130.965 12.6227 131.105 12.6204 131.173 12.5864L131.412 12.5184H131.206C131.206 12.5184 131.436 11.8017 131.642 11.6362L131.881 11.4049C132.462 10.8424 133.56 10.1757 134.523 9.80605C135.45 9.20508 136.548 8.57235 137.472 7.93963L137.371 8.00767C137.642 7.70832 138.022 7.44525 138.433 7.17991H138.399L139.016 6.78078L138.735 6.62203L137.618 6.08683L137.828 6.11631C137.896 6.11631 137.269 5.86685 137.129 5.8351C136.884 5.7081 136.115 5.29989 135.52 4.95065H135.554L134.431 4.31793C134.081 4.09568 132.958 3.42894 132.639 2.97991L132.252 2.69417C131.55 2.24968 130.708 1.67819 130.694 0.766523C130.694 0.766523 130.829 0.505724 130.965 0.37419L131.308 0.174622C132.627 0.154212 134.521 1.48996 135.924 2.47646L137.047 3.23844L137.538 3.52419C137.642 3.58769 137.818 3.71469 138.026 3.80767H137.959L138.133 3.87117C138.169 3.90292 138.307 3.90065 138.307 3.90065C138.796 4.12063 139.251 4.30886 139.674 4.69212C139.78 4.81911 139.991 5.01188 140.131 5.14114C140.165 5.14114 140.235 5.10713 140.235 5.10713C140.296 4.58553 140.322 4.1297 140.349 3.64438C140.434 2.53769 140.518 1.39924 140.782 0.580562C141.014 -0.0408208 141.534 0.0158747 141.883 0.0113391L142.369 0.00453564L142.618 0.521598C142.618 0.521598 142.679 2.04784 142.727 2.69644V2.8257C142.739 3.37905 142.715 4.02991 142.725 4.58099C142.696 4.93931 142.7 5.26361 142.708 5.59017C142.846 5.49039 143.015 5.42235 143.363 5.41782C143.467 5.41782 143.605 5.47905 143.748 5.54028C143.712 5.44276 143.709 5.34525 143.707 5.21598C143.707 5.08445 143.806 4.92117 143.806 4.92117C143.806 4.92117 143.84 4.88715 143.874 4.95292C143.835 4.82365 143.799 4.59687 143.796 4.49708C144.72 3.83261 144.481 4.06393 144.825 3.86436C145.478 3.52873 146.165 3.16134 146.264 2.96404L146.779 2.63067L149.661 0.832289H149.728C149.661 0.895788 149.59 0.961555 149.559 1.09309L150.118 1.21555C150.111 0.759719 149.934 0.600972 149.728 0.798272H149.695C149.9 0.664471 149.9 0.632721 150.35 0.625918C150.766 0.619114 150.909 0.845896 151.052 1.03866C151.086 1.07041 151.156 1.07041 151.364 1.06587L151.376 1.81425L151.098 1.81879L150.931 2.24514C150.861 2.24514 150.827 2.14762 150.827 2.11587L150.519 2.41296C150.59 2.41296 149.939 2.94136 149.598 3.2067C149.46 3.3405 149.29 3.44028 149.257 3.47203C149.049 3.57181 148.64 3.83715 148.606 3.97095C148.637 3.87117 148.952 4.06166 148.952 4.06166C148.236 4.56058 147.684 4.89395 147.169 5.16156V5.12981L146.344 5.63099L146.414 5.59698C146.245 5.76253 146.07 5.76479 145.896 5.76706C145.862 5.76706 145.829 5.80108 145.761 5.8986L145.553 5.80562C145.483 5.83963 145.379 5.83963 145.274 5.8419C145.204 5.8419 145.137 5.8419 145.103 5.87819L144.624 6.17754C144.483 6.14579 144.379 6.08456 144.275 6.05281C144.452 6.27732 144.561 6.53585 144.6 6.76264C145.904 8.04169 147.624 9.18693 149.235 10.2006C150.077 10.7086 150.778 11.1849 151.732 12.1124C151.732 12.1124 151.836 12.1759 151.94 12.2077L151.804 12.3075H152.01C151.702 12.634 151.432 12.9288 151.192 13.0309L151.122 13.0649L151.088 13.1284C151.088 13.2259 151.161 13.3552 150.819 13.5888C150.819 13.5888 150.786 13.6545 150.718 13.6886C150.58 13.7883 150.307 13.8904 150.169 13.8927C150.169 13.8927 149.888 13.6681 149.675 13.5094L148.935 12.9334C148.935 12.9334 148.48 12.6159 148.303 12.4571C148.163 12.3596 147.919 12.2666 147.849 12.2031L147.147 11.7586C147.041 11.6974 146.9 11.5999 146.864 11.5024L146.9 11.6316L144.408 9.78564C144.37 9.55886 143.279 8.69708 142.754 8.38186L142.763 8.93294C142.768 9.19374 142.775 9.61555 142.848 9.87408L142.921 10.0011C142.991 10.1621 143.027 10.2936 143.032 10.4887C143.032 10.5204 142.998 10.5522 143 10.6179C143 10.6179 143 10.6837 142.969 10.7812C142.935 10.8152 142.935 10.847 142.937 10.8787H142.93ZM140.38 13.777H140.414V13.743L140.383 13.777H140.38ZM142.662 7.30691C142.662 7.27516 142.589 7.2094 142.488 7.24341L142.217 7.57225C142.217 7.604 142.217 7.63575 142.321 7.63575L142.664 7.30464L142.662 7.30691ZM142.812 7.95551L142.913 7.85572L142.942 7.66069L142.802 7.49968L142.812 7.95551ZM142.659 13.1261H142.729C142.693 13.0921 142.659 13.0944 142.659 13.0944V13.1261ZM142.945 7.66296V7.82624L143.015 7.76048L142.945 7.66296ZM149.726 0.80054V0.832289L149.864 0.764255L149.726 0.80054Z" fill="white"/>
<path d="M93.8508 15.1944L93.8121 14.1217L93.7807 14.1557C93.5508 13.5457 91.8622 11.906 91.5815 11.8494C91.4775 11.8516 91.2743 11.9559 91.1364 12.0262L91.1703 11.9945H91.1364C91.0687 12.0285 90.9985 12.0308 90.9284 12.033C90.4106 12.1464 89.8953 12.2281 89.409 12.244L89.0631 12.2553C89.0268 12.2235 89.0244 12.1578 89.022 12.0603C88.9494 11.965 88.8357 11.7405 88.8357 11.7405L88.9083 11.8335L83.477 1.46728C83.4359 1.27225 82.9665 0.802808 82.6206 0.811879L82.4512 0.979698C82.3859 1.04546 82.3859 1.07948 82.3859 1.07948C82.3158 1.08175 82.0061 1.12484 82.0061 1.12484L81.8029 1.32667C81.7013 1.39471 81.6335 1.49449 81.5682 1.56253C81.5343 1.59654 81.5343 1.62829 81.5005 1.63056C81.2223 1.63963 80.9489 1.74395 80.7916 2.20432C80.7916 2.27009 80.7311 2.46512 80.7336 2.53089L80.6102 2.98898L80.6441 2.92322C80.1989 4.07527 79.8239 5.28855 79.3812 6.44287C79.3473 6.47689 79.3135 6.51091 79.3135 6.54266C79.282 6.64017 79.1248 7.10054 79.1586 7.06652L78.203 9.47041C77.7917 10.5249 77.3393 11.5137 76.8894 12.5342L76.6039 13.2282V13.1964C76.57 13.2622 76.5361 13.2962 76.5361 13.2962C76.2942 13.3348 76.0523 13.3756 75.8781 13.3801C75.1862 13.4346 74.7749 13.5117 74.1314 14.0174L73.9959 14.0877L74.1314 13.9856C73.8895 14.0582 73.5871 14.2941 73.6016 14.6524C73.6016 14.6524 73.679 14.9109 73.679 14.8792C73.6814 14.9767 73.7201 15.0402 73.7201 15.0719C73.7201 15.1037 73.7201 15.1377 73.6862 15.1377L73.4879 15.437C73.4927 15.5663 73.6354 15.691 73.7806 15.818C73.8532 15.8793 73.9233 15.9428 74.0274 15.9722C74.0298 16.0698 74.0733 16.2965 74.112 16.4576C74.1217 16.7161 74.1725 17.1697 74.2451 17.2672H74.2112C74.562 18.3625 75.7668 21.0544 77.603 20.9977C78.1135 20.6893 78.5151 20.3197 78.4982 19.8343C78.4909 19.6393 78.3095 19.3513 78.1643 19.1925L78.0893 19.0973L77.7917 18.4895C77.3466 17.6913 76.7902 16.6344 76.7345 16.0516L77.0805 16.0403C77.1845 16.0357 77.2909 16.0992 77.3055 16.5211C78.6675 15.7954 79.911 15.6593 80.9126 15.5323C80.9803 15.53 81.0505 15.4937 81.1206 15.4937L82.5698 15.3191C83.7456 15.1853 84.9189 15.0515 86.1672 15.0447C86.1672 15.0447 86.3027 14.9767 86.2688 14.9767C86.3027 14.9767 86.4092 15.0039 86.4793 15.0039C86.6535 15.0311 86.7212 15.0288 86.7575 15.0288L88.2817 14.9812C88.3833 14.8814 88.4534 14.8792 88.4873 14.8769C88.4873 14.8769 88.7317 14.9676 88.8405 15.0288C89.3292 15.1127 89.3897 14.8814 89.3824 14.6546C89.484 14.5866 89.6921 14.5481 89.9002 14.5413L89.9244 15.2556C89.9002 15.5844 89.9171 16.0698 89.9292 16.3623C89.9485 16.9474 90.0695 17.3964 90.1905 17.9135L90.3114 18.3648C90.5001 18.8138 90.984 18.7322 91.2961 18.7231L91.4364 18.7186C91.5066 18.7163 91.6759 18.6778 91.7436 18.6755C91.7662 18.6543 91.7888 18.643 91.8114 18.6415C92.0993 18.8932 92.6726 19.3944 92.6025 19.3967L92.9073 19.1903C92.9073 19.1903 93.425 18.1335 93.5484 17.7071C93.5436 17.5438 93.5726 17.3806 93.6645 17.054C93.7468 16.4326 93.8629 15.843 93.8411 15.1944H93.8508ZM82.9375 12.6091C82.0037 12.7043 81.1061 12.795 80.1699 12.8245C80.2328 12.6612 80.2981 12.4957 80.3634 12.3959L80.3973 12.3619L82.3908 6.93499C82.3109 6.67646 82.4319 6.18661 82.6254 5.78974L84.0601 9.0622L84.556 10.3458H84.5221C84.7133 10.8288 84.9721 11.3414 85.0132 11.5046L85.3471 12.1102L85.5285 12.3982C84.5584 12.4276 83.8714 12.5161 82.9351 12.6091H82.9375Z" fill="white"/>
</svg>
