<svg width="77" height="36" viewBox="0 0 77 36" fill="none" xmlns="http://www.w3.org/2000/svg">
<g clip-path="url(#clip0_1236_1839)">
<path d="M5.12 31.15C1.71 28.01 0 23.59 0 17.91C0 12.23 1.7 7.9 5.09 4.74C8.49 1.58 13.82 0 21.08 0C28.34 0 33.72 1.58 37.12 4.74C40.51 7.9 42.21 12.29 42.21 17.91C42.21 23.53 40.52 28.05 37.14 31.18C33.76 34.31 28.41 35.87 21.08 35.87C13.75 35.87 8.53 34.3 5.11 31.16L5.12 31.15ZM28.67 24.19C30.22 22.85 30.99 20.76 30.99 17.91C30.99 15.06 30.22 13.06 28.67 11.7C27.12 10.34 24.6 9.66 21.09 9.66C17.58 9.66 15.1 10.34 13.56 11.7C12.01 13.06 11.24 15.13 11.24 17.91C11.24 20.69 12.01 22.81 13.56 24.16C15.11 25.52 17.62 26.2 21.09 26.2C24.56 26.2 27.12 25.53 28.67 24.19Z" fill="white"/>
<path d="M58.3002 25.82C67.4602 25.76 69.5502 25.6 75.5502 25.35C75.7102 27.28 75.9902 33.03 76.2502 35.39H46.7402C46.9902 29.26 47.1202 23.53 47.1202 18.19C47.1202 12.85 46.9902 7.11999 46.7402 0.98999H58.3002V25.82Z" fill="white"/>
</g>
<defs>
<clipPath id="clip0_1236_1839">
<rect width="76.24" height="35.86" fill="white"/>
</clipPath>
</defs>
</svg>
