<svg width="180" height="107" viewBox="0 0 180 107" fill="none" xmlns="http://www.w3.org/2000/svg">
<path d="M157.527 13.1441L161.688 10.3772L161.935 10.625L158.399 12.9768L162.8 12.4129L162.923 12.5367L161.38 16.0344L164.956 13.6529L165.203 13.9006L161.042 16.6676L160.835 16.4594L162.482 12.7491L157.75 13.3671L157.527 13.1441Z" fill="black" fill-opacity="0.4"/>
<path d="M154.498 7.91336C154.981 8.02204 155.335 8.24297 155.561 8.57617C155.783 8.90834 155.843 9.29978 155.742 9.7505C155.651 10.1557 155.482 10.5004 155.236 10.7847C154.986 11.068 154.685 11.268 154.333 11.385C153.982 11.5019 153.61 11.5163 153.219 11.4282C152.736 11.3195 152.384 11.0991 152.162 10.7669C151.935 10.4382 151.872 10.0463 151.975 9.59102C152.066 9.18584 152.237 8.83934 152.489 8.55153C152.734 8.26725 153.033 8.06664 153.385 7.9497C153.735 7.83731 154.106 7.8252 154.498 7.91336ZM154.401 8.21452C154.083 8.14275 153.781 8.15607 153.496 8.25447C153.206 8.35185 152.957 8.52072 152.75 8.76107C152.542 9.00597 152.399 9.30143 152.321 9.64743C152.236 10.0253 152.281 10.3441 152.457 10.6037C152.628 10.8624 152.914 11.0368 153.315 11.127C153.634 11.1988 153.939 11.1837 154.229 11.0818C154.515 10.9834 154.761 10.8117 154.97 10.5668C155.177 10.3264 155.319 10.0355 155.396 9.69409C155.481 9.31622 155.438 8.99797 155.266 8.73934C155.09 8.47968 154.802 8.30474 154.401 8.21452Z" fill="black" fill-opacity="0.4"/>
<path d="M146.036 10.777L146.939 7.16095L147.289 7.17714L146.47 10.4888L148.372 10.5769L148.662 9.60227C148.833 9.03558 148.997 8.58299 149.153 8.24451C149.304 7.9058 149.465 7.65632 149.636 7.49606C149.807 7.3358 149.997 7.26052 150.207 7.27024C150.3 7.27456 150.402 7.29562 150.512 7.33344L150.414 7.63023C150.322 7.60726 150.266 7.59535 150.248 7.59448C150.08 7.58671 149.927 7.65439 149.79 7.79752C149.652 7.94064 149.521 8.16112 149.395 8.45895C149.264 8.76122 149.124 9.1635 148.975 9.6658L148.602 10.8959L146.036 10.777Z" fill="black" fill-opacity="0.4"/>
<path d="M142.203 7.28828C142.697 7.2602 143.099 7.37526 143.408 7.63346C143.712 7.89193 143.878 8.25179 143.904 8.71305C143.927 9.12771 143.86 9.50547 143.702 9.84634C143.539 10.1875 143.305 10.4626 142.999 10.6716C142.693 10.8806 142.339 10.9965 141.939 11.0193C141.445 11.0474 141.046 10.9322 140.741 10.6737C140.432 10.4202 140.264 10.0605 140.238 9.59456C140.214 9.17989 140.284 8.79967 140.447 8.45388C140.605 8.11301 140.837 7.83806 141.143 7.62902C141.449 7.42464 141.803 7.31106 142.203 7.28828ZM142.193 7.60436C141.867 7.62291 141.58 7.71867 141.333 7.89165C141.081 8.06489 140.889 8.29553 140.755 8.58355C140.623 8.87624 140.566 9.19963 140.586 9.55372C140.608 9.94043 140.739 10.2345 140.98 10.4358C141.216 10.6374 141.539 10.7265 141.949 10.7032C142.275 10.6847 142.564 10.5865 142.815 10.4086C143.063 10.2356 143.253 10.0028 143.386 9.71007C143.519 9.42205 143.575 9.10332 143.556 8.75388C143.534 8.36717 143.405 8.07301 143.169 7.87141C142.928 7.67007 142.603 7.58105 142.193 7.60436Z" fill="black" fill-opacity="0.4"/>
<path d="M134.255 8.51035L133.506 8.61085L133.605 7.14257L133.938 7.0979L133.865 8.23774L138.312 7.64124L138.393 6.50047L138.726 6.4558L138.626 7.92409L138.376 7.95759C138.056 8.02877 137.815 8.33657 137.652 8.88099C137.485 9.42603 137.357 10.1707 137.267 11.1151L137.111 12.7462L133.955 13.1696L134.255 8.51035ZM136.947 11.1014C137.027 10.2903 137.128 9.6246 137.252 9.10426C137.375 8.58855 137.551 8.233 137.779 8.03762L134.609 8.46289L134.328 12.7946L136.819 12.4606L136.947 11.1014Z" fill="black" fill-opacity="0.4"/>
<path d="M128.785 11.1069C128.561 11.1032 128.386 11.0517 128.262 10.9524C128.135 10.8585 128.051 10.7085 128.01 10.5024C127.942 10.1544 128.026 9.85267 128.261 9.59737C128.497 9.34665 128.86 9.17333 129.35 9.07741L130.917 8.77081L130.897 12.498L129.4 12.7911C129.033 12.8628 128.743 12.8507 128.53 12.7546C128.311 12.6594 128.177 12.4836 128.127 12.2272C128.081 11.9936 128.117 11.7773 128.235 11.5783C128.354 11.3838 128.537 11.2267 128.785 11.1069ZM130.57 10.8643L129.416 11.0902C129.087 11.1548 128.835 11.2801 128.663 11.4661C128.486 11.6575 128.421 11.8723 128.468 12.1105C128.504 12.2983 128.6 12.4222 128.754 12.4823C128.91 12.547 129.125 12.5525 129.4 12.4987L130.567 12.2701L130.57 10.8643ZM129.378 9.36444C129.003 9.43796 128.724 9.56861 128.542 9.7564C128.361 9.94877 128.296 10.1778 128.348 10.4434C128.387 10.6403 128.481 10.7693 128.631 10.8303C128.776 10.8922 128.998 10.894 129.295 10.8358L130.573 10.5857L130.58 9.12912L129.378 9.36444Z" fill="black" fill-opacity="0.4"/>
<path d="M125.502 13.6519L125.161 13.731L125.044 10.007L125.385 9.92795L125.502 13.6519ZM125.321 14.6065C125.394 14.5897 125.461 14.6004 125.522 14.6388C125.584 14.6772 125.623 14.7305 125.639 14.7987C125.658 14.8806 125.647 14.9573 125.606 15.0291C125.56 15.1019 125.494 15.1483 125.408 15.1684C125.335 15.1852 125.268 15.1745 125.207 15.1361C125.14 15.0987 125.099 15.0459 125.084 14.9777C125.064 14.8914 125.076 14.8118 125.122 14.739C125.168 14.6707 125.235 14.6266 125.321 14.6065Z" fill="black" fill-opacity="0.4"/>
<path d="M119.427 13.3122L118.01 11.7773L118.403 11.6756L119.699 13.1045L120.518 12.8922L120.422 11.1528L120.761 11.0651L120.857 12.8045L121.67 12.594L122.754 10.5493L123.181 10.4387L121.965 12.6985L123.276 14.1884L122.917 14.2814L121.702 12.8823L120.875 13.0964L120.966 14.7866L120.627 14.8744L120.536 13.1841L119.709 13.3981L118.695 15.3744L118.302 15.4761L119.427 13.3122Z" fill="black" fill-opacity="0.4"/>
<path d="M111.999 13.9186L111.242 14.1467L111.096 12.6189L111.418 12.522L111.538 13.7213L115.673 12.4755L116.148 17.4499L115.807 17.5529L115.364 12.905L112.341 13.8156L112.79 18.4615L112.442 18.5665L111.999 13.9186Z" fill="black" fill-opacity="0.4"/>
<path d="M109.326 16.3043C109.302 16.204 109.282 16.1296 109.265 16.081C109.138 15.7052 108.932 15.4522 108.647 15.3221C108.363 15.1964 108.011 15.2045 107.591 15.3465C107.348 15.4286 107.138 15.5439 106.962 15.6922C106.782 15.8464 106.649 16.0197 106.561 16.2119L106.33 16.0313C106.428 15.811 106.583 15.6134 106.795 15.4384C107.002 15.2648 107.243 15.1317 107.517 15.0391C108.007 14.8732 108.438 14.8706 108.807 15.0314C109.172 15.1937 109.432 15.5025 109.586 15.9579C109.717 16.3469 109.754 16.726 109.697 17.0952C109.64 17.4644 109.497 17.7859 109.269 18.0599C109.043 18.3383 108.751 18.538 108.393 18.6591C107.942 18.8115 107.541 18.8043 107.189 18.6376C106.837 18.4708 106.585 18.162 106.432 17.711C106.396 17.6049 106.366 17.4723 106.342 17.313L109.326 16.3043ZM108.303 18.3717C108.679 18.2446 108.964 18.0177 109.159 17.6907C109.35 17.3652 109.421 16.9938 109.374 16.5763L106.708 17.4775C106.717 17.5187 106.734 17.577 106.76 17.6521C106.878 18.0014 107.076 18.2374 107.354 18.3602C107.633 18.4874 107.95 18.4912 108.303 18.3717Z" fill="black" fill-opacity="0.4"/>
<path d="M104.382 20.0447L104.053 20.1651L103.796 18.4852L101.462 19.34L101.72 21.0199L101.391 21.1403L100.824 17.4565L101.153 17.3361L101.409 19.0315L103.742 18.1767L103.48 16.4837L103.809 16.3633L104.382 20.0447Z" fill="black" fill-opacity="0.4"/>
<path d="M96.2532 22.8162L97.5889 22.2918L96.9809 18.9433L97.3067 18.8153L97.9146 22.1638L99.2308 21.647L99.2873 21.9632L96.3096 23.1325L96.2532 22.8162Z" fill="black" fill-opacity="0.4"/>
<path d="M93.1568 24.4745C92.7171 24.6569 92.3109 24.6763 91.9382 24.5327C91.5672 24.3935 91.2924 24.1084 91.1136 23.6773C90.9546 23.2936 90.8947 22.9118 90.9342 22.5317C90.9711 22.1577 91.0994 21.8216 91.3193 21.5233C91.5366 21.2311 91.8263 21.0099 92.1884 20.8598C92.5376 20.715 92.8568 20.6685 93.1461 20.7204C93.4328 20.7783 93.6774 20.9295 93.8798 21.174L93.4314 18.9046L93.7547 18.7706L94.7497 23.7838L94.4328 23.9151L94.2914 23.2084C94.2169 23.4919 94.0831 23.7419 93.89 23.9584C93.6986 24.1792 93.4542 24.3512 93.1568 24.4745ZM92.3026 21.1534C92.0009 21.2786 91.7618 21.4636 91.5855 21.7084C91.4067 21.9594 91.304 22.2419 91.2777 22.556C91.247 22.8718 91.2995 23.1936 91.4354 23.5212C91.5837 23.879 91.8046 24.1132 92.0981 24.2239C92.3872 24.3364 92.7215 24.314 93.1008 24.1568C93.4026 24.0316 93.6438 23.8458 93.8244 23.5991C94.0007 23.3542 94.1033 23.0717 94.1322 22.7515C94.1629 22.4357 94.1104 22.114 93.9745 21.7863C93.8262 21.4286 93.6053 21.1943 93.3118 21.0836C93.0184 20.9729 92.682 20.9962 92.3026 21.1534Z" fill="black" fill-opacity="0.4"/>
<path d="M88.2546 22.5437C88.3272 22.5119 88.4005 22.5104 88.4742 22.5392C88.548 22.568 88.6008 22.6188 88.6326 22.6915C88.6682 22.7727 88.6694 22.8511 88.6363 22.9267C88.6051 23.0066 88.551 23.0635 88.474 23.0971C88.4013 23.129 88.3281 23.1305 88.2544 23.1016C88.1806 23.0728 88.1278 23.022 88.096 22.9494C88.0623 22.8724 88.0611 22.794 88.0923 22.7141C88.1235 22.6342 88.1776 22.5774 88.2546 22.5437Z" fill="black" fill-opacity="0.4"/>
<path d="M83.9603 29.8738L82.8309 25.006L83.1561 24.8587L84.21 29.4072L86.5245 28.3586L86.1619 26.5402C86.0279 25.8375 85.9537 25.2666 85.9392 24.8274C85.9247 24.3883 85.9703 24.0423 86.0761 23.7895C86.1838 23.5409 86.3609 23.3607 86.6074 23.249C86.7264 23.1951 86.8385 23.1597 86.9436 23.1429L86.9964 23.4801C86.9165 23.4958 86.8446 23.5181 86.7808 23.547C86.5853 23.6356 86.4459 23.7859 86.3626 23.9978C86.2812 24.214 86.2488 24.5156 86.2653 24.9026C86.2818 25.2896 86.3503 25.7914 86.4708 26.4079L86.887 28.5479L83.9603 29.8738Z" fill="black" fill-opacity="0.4"/>
<path d="M79.3137 29.2645C78.5819 29.6164 78.0764 29.5021 77.7974 28.9217C77.6801 28.6778 77.6391 28.4308 77.6742 28.1809C77.7072 27.9372 77.813 27.7103 77.9916 27.5002C78.1702 27.29 78.4109 27.1122 78.7137 26.9666L80.007 26.3448L80.9312 29.9471L80.6157 30.0987L80.2789 28.8005L79.3137 29.2645ZM78.832 27.2126C78.4703 27.3865 78.2226 27.6144 78.0888 27.8962C77.955 28.1779 77.9579 28.4639 78.0974 28.7541C78.2026 28.9728 78.3519 29.1004 78.5455 29.1368C78.739 29.1732 78.9851 29.1196 79.2837 28.976L80.2111 28.5302L79.7594 26.7667L78.832 27.2126Z" fill="black" fill-opacity="0.4"/>
<path d="M73.9104 31.4558C73.6936 31.513 73.512 31.5105 73.3657 31.4485C73.2173 31.3927 73.0958 31.2711 73.0012 31.0836C72.8413 30.767 72.8401 30.4539 72.9976 30.1445C73.1571 29.8391 73.4597 29.574 73.9055 29.349L75.3303 28.6297L76.3208 32.2229L74.9585 32.9106C74.6252 33.0788 74.3427 33.1456 74.1109 33.1111C73.8749 33.0786 73.6981 32.9457 73.5803 32.7124C73.473 32.4999 73.4492 32.2819 73.5089 32.0584C73.5707 31.839 73.7045 31.6381 73.9104 31.4558ZM75.5637 30.7388L74.5139 31.2688C74.214 31.4202 74.006 31.6088 73.89 31.8346C73.7719 32.0668 73.7676 32.2911 73.8769 32.5078C73.9631 32.6786 74.0887 32.772 74.2536 32.7881C74.4207 32.8083 74.6292 32.7553 74.8791 32.6291L75.9415 32.0929L75.5637 30.7388ZM74.0098 29.6178C73.6682 29.7902 73.4353 29.9915 73.3109 30.2215C73.1887 30.4557 73.1885 30.6937 73.3105 30.9353C73.4009 31.1144 73.5265 31.2131 73.6873 31.2312C73.8439 31.2515 74.0576 31.1933 74.3284 31.0566L75.4907 30.4699L75.1034 29.0657L74.0098 29.6178Z" fill="black" fill-opacity="0.4"/>
<path d="M71.4389 34.7422L71.1292 34.9052L70.0712 31.3327L70.3809 31.1697L71.4389 34.7422ZM71.5061 35.7114C71.5722 35.6766 71.6399 35.67 71.7092 35.6915C71.7786 35.713 71.8295 35.7547 71.8621 35.8167C71.9013 35.891 71.9102 35.9681 71.8889 36.0478C71.8635 36.1298 71.8115 36.1914 71.7331 36.2327C71.667 36.2675 71.5993 36.2741 71.53 36.2526C71.4565 36.2333 71.4035 36.1926 71.3709 36.1307C71.3296 36.0522 71.3216 35.972 71.347 35.8901C71.3746 35.8123 71.4277 35.7527 71.5061 35.7114Z" fill="black" fill-opacity="0.4"/>
<path d="M66.5656 35.3573C66.3506 35.4211 66.169 35.4243 66.0209 35.3668C65.8708 35.3156 65.7456 35.1978 65.6452 35.0134C65.4757 34.7018 65.4649 34.389 65.6127 34.0748C65.7627 33.7647 66.057 33.4903 66.4956 33.2516L67.8975 32.4888L68.9984 36.0497L67.658 36.7791C67.3301 36.9575 67.0497 37.033 66.817 37.0056C66.5801 36.9804 66.3993 36.853 66.2744 36.6235C66.1606 36.4144 66.1301 36.1973 66.1828 35.972C66.2378 35.7508 66.3654 35.5459 66.5656 35.3573ZM68.196 34.5897L67.163 35.1518C66.8679 35.3124 66.6658 35.5073 66.5568 35.7366C66.446 35.9723 66.4485 36.1967 66.5645 36.4098C66.656 36.5779 66.7844 36.6674 66.9497 36.6784C67.1173 36.6934 67.3241 36.634 67.57 36.5002L68.6153 35.9314L68.196 34.5897ZM66.6082 33.5171C66.2721 33.7 66.0454 33.9084 65.9282 34.1421C65.8133 34.38 65.8205 34.6178 65.9499 34.8556C66.0458 35.0318 66.1744 35.1266 66.3356 35.1398C66.4928 35.1552 66.7046 35.0904 66.971 34.9454L68.1147 34.3231L67.6842 32.9316L66.6082 33.5171Z" fill="black" fill-opacity="0.4"/>
<path d="M56.6571 44.6192L54.9814 39.9115L55.2817 39.7317L56.7061 43.7333L57.2258 39.3268L57.3759 39.237L60.3951 41.5823L58.9516 37.5351L59.2519 37.3554L60.9276 42.0631L60.6753 42.2141L57.4751 39.7161L56.9274 44.4574L56.6571 44.6192Z" fill="black" fill-opacity="0.4"/>
<path d="M50.8495 42.5117C51.2657 42.2442 51.6718 42.1468 52.068 42.2195C52.4603 42.2947 52.7813 42.5266 53.0311 42.9152C53.2556 43.2646 53.3829 43.6266 53.4129 44.0012C53.4389 44.3784 53.3702 44.7332 53.2067 45.0657C53.0432 45.3983 52.7926 45.673 52.455 45.89C52.0389 46.1575 51.6347 46.2536 51.2425 46.1784C50.8488 46.1097 50.5258 45.8791 50.2735 45.4865C50.0489 45.1371 49.9223 44.7719 49.8938 44.3908C49.8638 44.0162 49.9306 43.6626 50.0941 43.3301C50.2601 43.0015 50.5119 42.7287 50.8495 42.5117ZM50.9963 42.7918C50.7215 42.9685 50.519 43.1929 50.3889 43.4651C50.2548 43.7399 50.2007 44.0354 50.2265 44.3517C50.2548 44.6719 50.3648 44.9812 50.5566 45.2796C50.766 45.6054 51.0249 45.7968 51.3333 45.8537C51.6378 45.9132 51.9628 45.8319 52.3083 45.6099C52.5831 45.4333 52.7862 45.2056 52.9178 44.9269C53.0479 44.6547 53.0988 44.3584 53.0705 44.0382C53.0448 43.7219 52.9373 43.4166 52.748 43.1221C52.5386 42.7963 52.2816 42.6037 51.9771 42.5442C51.6687 42.4872 51.3417 42.5698 50.9963 42.7918Z" fill="black" fill-opacity="0.4"/>
<path d="M46.6081 49.7772L45.1617 46.3421L45.4512 46.1453L46.7823 49.2864L48.3569 48.2159L48.0047 47.2619C47.8016 46.7059 47.6609 46.2457 47.5825 45.8814C47.5003 45.5198 47.4795 45.2236 47.5201 44.9928C47.5607 44.762 47.6679 44.5876 47.8416 44.4696C47.9188 44.4171 48.0128 44.3729 48.1238 44.3369L48.2236 44.6331C48.1359 44.6701 48.0843 44.6939 48.0689 44.7044C47.93 44.7988 47.8484 44.9445 47.8243 45.1415C47.8002 45.3384 47.8271 45.5938 47.905 45.9077C47.9817 46.228 48.1109 46.6339 48.2927 47.1254L48.7327 48.3329L46.6081 49.7772Z" fill="black" fill-opacity="0.4"/>
<path d="M41.5863 48.8549C41.9873 48.5651 42.3875 48.4458 42.7871 48.4967C43.1829 48.5504 43.516 48.7645 43.7866 49.139C44.0299 49.4756 44.1767 49.8301 44.227 50.2026C44.2736 50.5777 44.2243 50.9358 44.0791 51.2767C43.934 51.6177 43.6988 51.9057 43.3735 52.1407C42.9725 52.4304 42.5742 52.5485 42.1784 52.4948C41.7816 52.4476 41.4465 52.2349 41.1732 51.8566C40.9299 51.52 40.7836 51.1622 40.7344 50.7832C40.684 50.4108 40.7314 50.0541 40.8766 49.7132C41.0245 49.376 41.261 49.0899 41.5863 48.8549ZM41.7481 49.1266C41.4834 49.3179 41.2934 49.553 41.1783 49.832C41.0594 50.1136 41.0215 50.4117 41.0644 50.7261C41.1101 51.0443 41.2368 51.3471 41.4446 51.6346C41.6714 51.9485 41.9404 52.1255 42.2514 52.1656C42.5587 52.2084 42.8788 52.1095 43.2117 51.869C43.4764 51.6777 43.6669 51.4393 43.7831 51.1538C43.8982 50.8749 43.9329 50.5763 43.8872 50.2581C43.8442 49.9437 43.7202 49.6447 43.5152 49.361C43.2884 49.0471 43.0213 48.8687 42.714 48.8259C42.4029 48.7858 42.081 48.8861 41.7481 49.1266Z" fill="black" fill-opacity="0.4"/>
<path d="M35.5491 53.8786L34.9524 54.3429L34.2989 53.0243L34.5641 52.8179L35.0751 53.8394L38.6164 51.084L38.1109 50.0582L38.3761 49.8518L39.0296 51.1704L38.8307 51.3252C38.5901 51.5479 38.5367 51.9353 38.6707 52.4874C38.801 53.0424 39.0651 53.7504 39.4631 54.6115L40.1504 56.0989L37.6367 58.0548L35.5491 53.8786ZM39.1801 54.7607C38.8403 54.02 38.5925 53.3938 38.4369 52.8822C38.2841 52.3743 38.257 51.9785 38.3556 51.6949L35.8308 53.6594L37.7705 57.5428L39.7538 55.9995L39.1801 54.7607Z" fill="black" fill-opacity="0.4"/>
<path d="M32.1263 58.7792C31.9291 58.8859 31.752 58.9264 31.5952 58.9007C31.4378 58.8815 31.291 58.7921 31.1548 58.6322C30.9247 58.3623 30.8496 58.0584 30.9295 57.7205C31.0125 57.3861 31.2439 57.057 31.6239 56.7331L32.8386 55.6978L34.6495 58.9554L33.4882 59.9453C33.2041 60.1875 32.9453 60.3192 32.7119 60.3403C32.4749 60.3644 32.2717 60.2771 32.1022 60.0782C31.9478 59.8971 31.8732 59.6908 31.8784 59.4595C31.8866 59.2318 31.9692 59.005 32.1263 58.7792ZM33.5635 57.6921L32.6685 58.4549C32.4128 58.6729 32.2552 58.9053 32.1958 59.1522C32.1359 59.4056 32.1847 59.6246 32.3421 59.8093C32.4662 59.9549 32.6103 60.0161 32.7744 59.9927C32.9415 59.9729 33.1315 59.8722 33.3446 59.6906L34.2503 58.9186L33.5635 57.6921ZM31.7888 56.9697C31.4976 57.2179 31.3187 57.4685 31.2522 57.7214C31.1887 57.9778 31.2448 58.2091 31.4204 58.4151C31.5506 58.5678 31.6959 58.634 31.8564 58.6137C32.0134 58.5964 32.2073 58.4893 32.4381 58.2926L33.429 57.448L32.7211 56.175L31.7888 56.9697Z" fill="black" fill-opacity="0.4"/>
<path d="M30.5225 62.6147L30.2653 62.8521L28.3224 59.673L28.5796 59.4356L30.5225 62.6147ZM30.8373 63.5339C30.8922 63.4833 30.9559 63.4594 31.0284 63.4623C31.101 63.4653 31.161 63.4924 31.2084 63.5439C31.2654 63.6056 31.2939 63.6778 31.2939 63.7603C31.2904 63.8461 31.2561 63.919 31.1909 63.9791C31.1361 64.0297 31.0724 64.0536 30.9998 64.0507C30.9239 64.0509 30.8621 64.0253 30.8147 63.9739C30.7545 63.9087 30.7262 63.8333 30.7296 63.7476C30.7363 63.6653 30.7721 63.5941 30.8373 63.5339Z" fill="black" fill-opacity="0.4"/>
<path d="M25.0646 65.4261L23.0635 64.827L23.3499 64.5393L25.1925 65.109L25.79 64.5086L24.8213 63.0607L25.0682 62.8126L26.0369 64.2606L26.6295 63.6652L26.52 61.3539L26.831 61.0413L26.9362 63.605L28.8235 64.2192L28.5618 64.4822L26.8033 63.8974L26.2008 64.5027L27.1397 65.9111L26.8928 66.1592L25.9539 64.7508L25.3515 65.3561L25.4855 67.5733L25.1991 67.8611L25.0646 65.4261Z" fill="black" fill-opacity="0.4"/>
<path d="M19.05 70.0996L18.5473 70.7104L17.5765 69.5216L17.79 69.2621L18.5567 70.1922L21.3012 66.8574L24.462 70.7278L24.2351 71.0034L21.2829 67.3863L19.2768 69.8239L22.2334 73.4357L22.0021 73.7167L19.05 70.0996Z" fill="black" fill-opacity="0.4"/>
<path d="M18.1122 74.0383C18.0287 73.9778 17.9649 73.9345 17.9208 73.9083C17.5797 73.7056 17.2586 73.6478 16.9572 73.7347C16.6599 73.8241 16.398 74.0593 16.1715 74.4404C16.0404 74.6611 15.9562 74.8852 15.9187 75.1126C15.8829 75.3465 15.8943 75.5649 15.9528 75.7679L15.6599 75.7812C15.5909 75.5502 15.5798 75.2994 15.6266 75.0286C15.6711 74.7619 15.7672 74.5042 15.915 74.2555C16.1796 73.8101 16.5045 73.5282 16.8898 73.4097C17.2726 73.2952 17.6707 73.3607 18.0839 73.6062C18.437 73.816 18.7118 74.0797 18.9085 74.3974C19.1051 74.7151 19.2062 75.052 19.2118 75.4081C19.2213 75.7666 19.1296 76.1083 18.9365 76.4333C18.6934 76.8425 18.3839 77.0984 18.0082 77.2009C17.6325 77.3033 17.24 77.233 16.8308 76.9899C16.7345 76.9326 16.6253 76.8515 16.5032 76.7464L18.1122 74.0383ZM18.6813 76.2736C18.8839 75.9325 18.9528 75.5745 18.8879 75.1994C18.8207 74.8284 18.6332 74.4998 18.3254 74.2138L16.8881 76.6331C16.9218 76.6585 16.9728 76.6915 17.041 76.732C17.3579 76.9203 17.6619 76.9707 17.9528 76.883C18.2478 76.7976 18.4906 76.5945 18.6813 76.2736Z" fill="black" fill-opacity="0.4"/>
<path d="M17.0377 80.5585L16.943 80.8955L15.43 80.1213L14.7578 82.5137L16.2708 83.2878L16.1761 83.6248L12.8572 81.9288L12.9518 81.5918L14.4764 82.3765L15.1486 79.9841L13.6221 79.2062L13.7168 78.8693L17.0377 80.5585Z" fill="black" fill-opacity="0.4"/>
<path d="M17.0251 89.6324L16.6202 88.2558L13.2313 88.5667L13.1325 88.2309L16.5215 87.92L16.1225 86.5634L16.4425 86.535L17.3451 89.604L17.0251 89.6324Z" fill="black" fill-opacity="0.4"/>
<path d="M20.6282 92.4241C21.0067 92.7128 21.2275 93.0543 21.2905 93.4487C21.3564 93.8394 21.2479 94.2203 20.9649 94.5913C20.713 94.9216 20.4128 95.1651 20.0643 95.3219C19.7224 95.4778 19.3672 95.5356 18.9989 95.4952C18.6371 95.454 18.3003 95.3146 17.9886 95.0768C17.6881 94.8476 17.4876 94.5949 17.3872 94.3187C17.2933 94.0417 17.3012 93.7543 17.411 93.4565L15.6737 94.9839L15.3954 94.7716L19.2309 91.3936L19.5036 91.6016L18.9636 92.0788C19.2461 92.0009 19.5294 91.991 19.8136 92.0493C20.1007 92.1039 20.3722 92.2289 20.6282 92.4241ZM18.1852 94.8306C18.445 95.0287 18.725 95.1425 19.0253 95.172C19.3322 95.2007 19.628 95.1475 19.9128 95.0126C20.2014 94.8806 20.4532 94.6735 20.6683 94.3915C20.9032 94.0836 20.9948 93.7749 20.9432 93.4655C20.8953 93.159 20.7081 92.8812 20.3815 92.6321C20.1218 92.434 19.8399 92.3188 19.5359 92.2865C19.2356 92.257 18.9398 92.3101 18.6484 92.4459C18.3598 92.578 18.108 92.785 17.8929 93.067C17.658 93.375 17.5664 93.6836 17.618 93.993C17.6696 94.3024 17.8587 94.5816 18.1852 94.8306Z" fill="black" fill-opacity="0.4"/>
<path d="M23.5536 97.6825C23.4772 97.661 23.4197 97.6156 23.3811 97.5465C23.3424 97.4774 23.3339 97.4047 23.3554 97.3283C23.3795 97.243 23.4284 97.1816 23.502 97.1442C23.5769 97.1023 23.6547 97.0928 23.7356 97.1157C23.8119 97.1372 23.8694 97.1826 23.9081 97.2517C23.9467 97.3208 23.9553 97.3935 23.9337 97.4699C23.9109 97.5507 23.862 97.6121 23.7871 97.654C23.7123 97.6959 23.6344 97.7054 23.5536 97.6825Z" fill="black" fill-opacity="0.4"/>
<path d="M31.658 94.1178L30.0323 98.843L29.6785 98.7953L31.1988 94.3808L28.6805 94.0414L28.0231 95.7751C27.7637 96.4418 27.5236 96.965 27.3029 97.345C27.0822 97.7249 26.8599 97.9939 26.6361 98.1521C26.4129 98.3057 26.1672 98.3644 25.899 98.3282C25.7695 98.3108 25.6557 98.2813 25.5577 98.2399L25.6919 97.926C25.768 97.9551 25.8407 97.9743 25.9101 97.9836C26.1228 98.0123 26.3208 97.9589 26.5038 97.8235C26.6875 97.6835 26.875 97.445 27.0664 97.1082C27.2578 96.7715 27.466 96.3098 27.691 95.7233L28.4738 93.6886L31.658 94.1178Z" fill="black" fill-opacity="0.4"/>
<path d="M35.4754 96.5769C36.2873 96.5644 36.6982 96.8801 36.7081 97.524C36.7123 97.7947 36.646 98.0361 36.5093 98.2482C36.3771 98.4556 36.1859 98.6172 35.9356 98.7331C35.6854 98.8489 35.3923 98.9095 35.0563 98.9146L33.6215 98.9367L34.2933 95.279L34.6432 95.2736L34.4045 96.5934L35.4754 96.5769ZM35.0521 98.6417C35.4534 98.6355 35.7739 98.5325 36.0135 98.3328C36.2531 98.1331 36.3705 97.8723 36.3655 97.5503C36.3618 97.3077 36.2797 97.1293 36.1192 97.0151C35.9588 96.9008 35.7129 96.8463 35.3816 96.8514L34.3527 96.8672L34.0233 98.6575L35.0521 98.6417Z" fill="black" fill-opacity="0.4"/>
<path d="M40.9542 96.6535C41.1769 96.68 41.3448 96.749 41.4581 96.8605C41.5756 96.9669 41.6439 97.1247 41.663 97.3339C41.6953 97.687 41.5814 97.9786 41.3212 98.2086C41.0606 98.4339 40.6817 98.5693 40.1844 98.6147L38.5951 98.7599L38.9945 95.0542L40.5142 94.9153C40.886 94.8814 41.1733 94.9231 41.3762 95.0404C41.5837 95.1574 41.6993 95.346 41.7231 95.6062C41.7447 95.8432 41.6868 96.0547 41.5491 96.2407C41.411 96.422 41.2127 96.5596 40.9542 96.6535ZM39.1531 96.7126L40.3242 96.6056C40.6588 96.5751 40.9216 96.4761 41.1125 96.3087C41.3076 96.1362 41.3941 95.9292 41.372 95.6875C41.3546 95.497 41.2722 95.3639 41.1247 95.2883C40.9768 95.2081 40.7634 95.1808 40.4846 95.2063L39.2995 95.3145L39.1531 96.7126ZM40.1862 98.3263C40.5673 98.2915 40.8579 98.19 41.0581 98.0217C41.2579 97.8489 41.3455 97.6276 41.3208 97.3581C41.3026 97.1583 41.222 97.0203 41.0792 96.9444C40.941 96.8679 40.7209 96.8435 40.4188 96.8711L39.1222 96.9896L38.9663 98.4378L40.1862 98.3263Z" fill="black" fill-opacity="0.4"/>
<path d="M44.7616 94.3742L45.1078 94.3232L44.9201 98.0443L44.5739 98.0953L44.7616 94.3742ZM45.0198 93.4376C44.946 93.4485 44.8799 93.4322 44.8216 93.3889C44.7634 93.3456 44.7291 93.2894 44.7189 93.2201C44.7067 93.137 44.7239 93.0614 44.7704 92.9932C44.8216 92.9243 44.891 92.8834 44.9788 92.8705C45.0526 92.8596 45.1187 92.8758 45.177 92.9191C45.2398 92.9618 45.2764 93.0177 45.2866 93.087C45.2995 93.1747 45.2804 93.253 45.2292 93.3218C45.1773 93.3861 45.1076 93.4247 45.0198 93.4376Z" fill="black" fill-opacity="0.4"/>
<path d="M49.3055 95.4022C49.5296 95.4092 49.7029 95.4633 49.8255 95.5645C49.9518 95.6602 50.0336 95.8115 50.0709 96.0181C50.1338 96.3672 50.0457 96.6676 49.8066 96.9193C49.5666 97.1665 49.201 97.3344 48.7096 97.423L47.1389 97.7061L47.2139 93.9797L48.7157 93.7089C49.0831 93.6427 49.373 93.6592 49.5853 93.7584C49.8022 93.8569 49.9338 94.0347 49.9802 94.2918C50.0224 94.5261 49.9831 94.7418 49.8621 94.9391C49.7404 95.1317 49.5548 95.2861 49.3055 95.4022ZM47.5164 95.618L48.6737 95.4094C49.0044 95.3498 49.2575 95.2282 49.4331 95.0449C49.6124 94.856 49.6806 94.6422 49.6375 94.4034C49.6036 94.2151 49.5099 94.0897 49.3563 94.0273C49.202 93.9603 48.9871 93.9516 48.7115 94.0013L47.5404 94.2125L47.5164 95.618ZM48.6862 97.1355C49.0628 97.0677 49.3435 96.9412 49.5282 96.7561C49.7122 96.5665 49.7801 96.3385 49.7321 96.0721C49.6965 95.8746 49.6042 95.7443 49.4553 95.681C49.311 95.6169 49.0896 95.6118 48.791 95.6656L47.5097 95.8966L47.4806 97.3529L48.6862 97.1355Z" fill="black" fill-opacity="0.4"/>
<path d="M61.6508 89.3821L61.9378 94.3709L61.5991 94.4592L61.3551 90.2187L59.6195 94.3021L59.4502 94.3463L57.2107 91.2478L57.4602 95.5374L57.1215 95.6257L56.8345 90.6369L57.119 90.5627L59.4895 93.8586L61.346 89.4615L61.6508 89.3821Z" fill="black" fill-opacity="0.4"/>
<path d="M66.6196 93.0046C66.1465 93.1492 65.7292 93.1329 65.3675 92.9555C65.0103 92.7769 64.7642 92.4666 64.6291 92.0248C64.5077 91.6276 64.4833 91.2447 64.556 90.876C64.6331 90.5059 64.7955 90.183 65.043 89.9072C65.2905 89.6315 65.6062 89.4349 65.99 89.3175C66.463 89.1729 66.8781 89.1899 67.2353 89.3686C67.5956 89.5415 67.844 89.8511 67.9805 90.2973C68.1019 90.6945 68.1247 91.0804 68.0489 91.4549C67.9762 91.8236 67.8161 92.1458 67.5686 92.4216C67.3197 92.6929 67.0034 92.8872 66.6196 93.0046ZM66.5543 92.6952C66.8666 92.5996 67.1224 92.4385 67.3214 92.2117C67.5249 91.9836 67.6572 91.7138 67.7181 91.4023C67.7777 91.0865 67.7556 90.7589 67.6519 90.4198C67.5386 90.0494 67.3413 89.7949 67.0598 89.6565C66.7829 89.5167 66.448 89.5069 66.0553 89.627C65.7429 89.7225 65.4856 89.8865 65.2835 90.1192C65.0844 90.3459 64.9551 90.6173 64.8955 90.9332C64.8346 91.2446 64.8553 91.5677 64.9577 91.9024C65.0709 92.2728 65.266 92.5279 65.543 92.6677C65.8245 92.8061 66.1615 92.8152 66.5543 92.6952Z" fill="black" fill-opacity="0.4"/>
<path d="M72.9305 87.0739L73.3995 90.7715L73.0678 90.8831L72.6307 87.4998L70.8262 88.1072L70.9088 89.1208C70.9548 89.7109 70.9666 90.192 70.944 90.5639C70.9259 90.9344 70.8663 91.2253 70.7651 91.4366C70.6639 91.6479 70.5137 91.7871 70.3147 91.8541C70.2263 91.8839 70.1237 91.9011 70.0072 91.9059L69.9908 91.5938C70.0852 91.5817 70.1412 91.5727 70.1589 91.5668C70.3181 91.5132 70.4359 91.3948 70.5121 91.2116C70.5883 91.0284 70.6311 90.7751 70.6404 90.4519C70.6528 90.1228 70.6375 89.6971 70.5946 89.1748L70.4957 87.8934L72.9305 87.0739Z" fill="black" fill-opacity="0.4"/>
<path d="M77.1001 89.4842C76.6352 89.6532 76.2175 89.6585 75.8472 89.5002C75.4812 89.3403 75.2193 89.0433 75.0614 88.6091C74.9195 88.2187 74.8753 87.8376 74.9287 87.4656C74.9866 87.092 75.1319 86.7611 75.3648 86.4729C75.5977 86.1846 75.9027 85.9719 76.2799 85.8348C76.7448 85.6658 77.1602 85.6613 77.5262 85.8212C77.895 85.9751 78.1591 86.2714 78.3186 86.7099C78.4605 87.1003 78.5033 87.4844 78.447 87.8624C78.3936 88.2344 78.2504 88.5645 78.0176 88.8527C77.7831 89.1366 77.4773 89.3471 77.1001 89.4842ZM77.0188 89.1786C77.3258 89.067 77.5728 88.8928 77.7598 88.6559C77.9512 88.4175 78.0692 88.1413 78.1139 87.8271C78.157 87.5085 78.118 87.1826 77.9968 86.8493C77.8645 86.4852 77.6542 86.2414 77.3659 86.1178C77.0821 85.9926 76.7471 86.0001 76.3612 86.1404C76.0542 86.252 75.8058 86.4292 75.616 86.672C75.429 86.9088 75.3139 87.1865 75.2708 87.5051C75.2261 87.8193 75.2636 88.1408 75.3832 88.4697C75.5155 88.8338 75.7236 89.0784 76.0075 89.2036C76.2957 89.3272 76.6328 89.3189 77.0188 89.1786Z" fill="black" fill-opacity="0.4"/>
<path d="M84.4667 86.2962L85.1704 86.0199L85.4238 87.4696L85.1111 87.5924L84.9102 86.468L80.7337 88.108L80.928 89.2349L80.6153 89.3578L80.3619 87.9081L80.5964 87.816C80.8903 87.6705 81.0511 87.3141 81.079 86.7466C81.1112 86.1775 81.0583 85.4236 80.9204 84.4851L80.6824 82.8639L83.647 81.6998L84.4667 86.2962ZM81.2341 84.4221C81.3503 85.2288 81.4106 85.8994 81.415 86.4342C81.4177 86.9645 81.3317 87.3518 81.1568 87.5959L84.1344 86.4267L83.3738 82.153L81.0347 83.0715L81.2341 84.4221Z" fill="black" fill-opacity="0.4"/>
<path d="M89.2216 82.6273C89.4418 82.5848 89.6228 82.5995 89.7646 82.6713C89.9089 82.7369 90.0219 82.8665 90.1037 83.0599C90.2418 83.3865 90.222 83.699 90.044 83.9971C89.8643 84.291 89.5445 84.5352 89.0846 84.7296L87.6146 85.3512L86.8684 81.6995L88.274 81.1052C88.6178 80.9598 88.9042 80.9121 89.1331 80.9623C89.3664 81.0106 89.5339 81.1551 89.6357 81.3958C89.7284 81.615 89.7374 81.8341 89.6628 82.0531C89.5864 82.2678 89.4393 82.4592 89.2216 82.6273ZM87.5237 83.2312L88.6069 82.7732C88.9164 82.6423 89.1366 82.4682 89.2675 82.2506C89.401 82.027 89.4204 81.8034 89.3259 81.5799C89.2514 81.4037 89.1324 81.302 88.9689 81.2749C88.8036 81.2435 88.5921 81.2823 88.3342 81.3913L87.2381 81.8548L87.5237 83.2312ZM88.9986 84.4544C89.351 84.3054 89.597 84.1203 89.7366 83.8991C89.8743 83.6737 89.8905 83.4363 89.7851 83.187C89.7069 83.0022 89.5883 82.8953 89.4291 82.8663C89.2742 82.8356 89.0571 82.8792 88.7777 82.9974L87.5785 83.5045L87.8703 84.9315L88.9986 84.4544Z" fill="black" fill-opacity="0.4"/>
<path d="M91.6791 79.6212L91.9991 79.4793L92.8147 83.1147L92.4947 83.2566L91.6791 79.6212ZM91.6771 78.6496C91.6089 78.6799 91.5409 78.6819 91.4731 78.6558C91.4054 78.6297 91.3573 78.5846 91.329 78.5206C91.2949 78.4438 91.2912 78.3664 91.3178 78.2882C91.3487 78.2082 91.4046 78.1502 91.4857 78.1142C91.5539 78.084 91.6219 78.0819 91.6897 78.108C91.7617 78.1322 91.8119 78.1763 91.8402 78.2403C91.8762 78.3214 91.8787 78.4019 91.8478 78.482C91.8151 78.5578 91.7582 78.6136 91.6771 78.6496Z" fill="black" fill-opacity="0.4"/>
<path d="M97.7283 78.8589L99.3958 80.1172L99.0271 80.2872L97.498 79.1116L96.7289 79.4664L97.1329 81.161L96.8151 81.3077L96.4111 79.613L95.6484 79.9649L94.9464 82.1697L94.5459 82.3545L95.3399 79.9145L93.7844 78.6817L94.1213 78.5263L95.5663 79.6867L96.3417 79.329L95.9519 77.6818L96.2697 77.5352L96.6595 79.1824L97.435 78.8246L98.0812 76.6995L98.4499 76.5294L97.7283 78.8589Z" fill="black" fill-opacity="0.4"/>
<path d="M105.233 76.9007L105.943 76.5507L106.339 78.0335L106.037 78.1822L105.721 77.0191L101.848 78.9303L100.559 74.1025L100.879 73.9445L102.082 78.4557L104.913 77.0587L103.704 72.5506L104.03 72.3896L105.233 76.9007Z" fill="black" fill-opacity="0.4"/>
<path d="M107.62 74.0701C107.659 74.1654 107.691 74.2358 107.714 74.2813C107.898 74.6327 108.141 74.8505 108.444 74.9346C108.744 75.0146 109.09 74.9518 109.483 74.7461C109.71 74.6271 109.899 74.4806 110.051 74.3066C110.204 74.1263 110.309 73.9344 110.366 73.7309L110.622 73.8733C110.559 74.1061 110.437 74.3255 110.255 74.5314C110.077 74.7351 109.86 74.904 109.604 75.0382C109.145 75.2785 108.721 75.3479 108.33 75.2467C107.944 75.1432 107.64 74.8786 107.417 74.4528C107.227 74.0889 107.131 73.7202 107.13 73.3466C107.13 72.973 107.22 72.6331 107.402 72.3271C107.582 72.0169 107.84 71.7741 108.175 71.5988C108.596 71.378 108.994 71.3226 109.368 71.4325C109.741 71.5424 110.038 71.8083 110.259 72.23C110.311 72.3292 110.362 72.4556 110.41 72.6091L107.62 74.0701ZM108.308 71.8687C107.957 72.0527 107.71 72.3213 107.569 72.6746C107.431 73.0258 107.418 73.4038 107.53 73.8088L110.023 72.5036C110.008 72.4643 109.982 72.4094 109.945 72.3391C109.774 72.0125 109.542 71.8102 109.248 71.7322C108.952 71.65 108.639 71.6955 108.308 71.8687Z" fill="black" fill-opacity="0.4"/>
<path d="M112.091 69.5273L112.398 69.3582L112.908 70.9793L115.084 69.7789L114.574 68.1579L114.88 67.9888L116.002 71.5433L115.695 71.7124L115.184 70.0757L113.008 71.276L113.526 72.9093L113.219 73.0784L112.091 69.5273Z" fill="black" fill-opacity="0.4"/>
<path d="M119.388 65.7482L118.147 66.4676L119.251 69.6865L118.948 69.862L117.844 66.643L116.62 67.3519L116.517 67.0477L119.285 65.444L119.388 65.7482Z" fill="black" fill-opacity="0.4"/>
<path d="M122.088 63.7201C122.495 63.4737 122.894 63.3934 123.284 63.4791C123.672 63.5609 123.986 63.8014 124.228 64.2007C124.443 64.556 124.56 64.9245 124.578 65.3062C124.598 65.6815 124.521 66.0331 124.349 66.3611C124.178 66.6827 123.925 66.945 123.589 67.1479C123.266 67.3436 122.957 67.4376 122.664 67.4299C122.372 67.4158 122.107 67.3031 121.87 67.0919L122.655 69.2679L122.356 69.4491L120.617 64.6428L120.911 64.4652L121.157 65.1426C121.188 64.8512 121.283 64.5839 121.441 64.3408C121.597 64.0937 121.813 63.8868 122.088 63.7201ZM123.432 66.8748C123.712 66.7057 123.92 66.4868 124.058 66.2182C124.197 65.9431 124.256 65.6484 124.235 65.3339C124.217 65.0171 124.117 64.7069 123.933 64.4035C123.733 64.0721 123.479 63.8738 123.172 63.8085C122.87 63.7408 122.543 63.8132 122.191 64.0258C121.912 64.195 121.701 64.415 121.56 64.6861C121.422 64.9547 121.363 65.2495 121.383 65.5703C121.4 65.8872 121.501 66.1973 121.684 66.5008C121.885 66.8322 122.138 67.0305 122.445 67.0958C122.752 67.161 123.081 67.0874 123.432 66.8748Z" fill="black" fill-opacity="0.4"/>
<path d="M127.52 64.7114C127.454 64.754 127.381 64.7666 127.304 64.7494C127.227 64.7322 127.167 64.6901 127.124 64.6232C127.077 64.5483 127.064 64.471 127.085 64.3912C127.103 64.3075 127.148 64.2431 127.219 64.198C127.286 64.1555 127.358 64.1428 127.435 64.16C127.513 64.1772 127.573 64.2193 127.615 64.2863C127.66 64.3571 127.673 64.4345 127.655 64.5182C127.636 64.6019 127.591 64.6664 127.52 64.7114Z" fill="black" fill-opacity="0.4"/>
<path d="M130.804 56.6884L132.683 61.319L132.384 61.5155L130.631 57.1883L128.509 58.5866L129.152 60.3257C129.395 60.9987 129.557 61.551 129.641 61.9824C129.724 62.4139 129.733 62.7627 129.668 63.029C129.601 63.2914 129.454 63.4971 129.228 63.646C129.119 63.7179 129.014 63.7704 128.913 63.8036L128.808 63.4788C128.884 63.4507 128.952 63.4174 129.01 63.3789C129.189 63.2608 129.303 63.0905 129.352 62.8682C129.399 62.6419 129.384 62.3389 129.307 61.9593C129.23 61.5797 129.084 61.0948 128.868 60.5047L128.122 58.4564L130.804 56.6884Z" fill="black" fill-opacity="0.4"/>
<path d="M135.379 56.6108C136.043 56.1435 136.56 56.1732 136.931 56.6999C137.087 56.9212 137.168 57.158 137.174 57.4104C137.182 57.6562 137.114 57.8974 136.973 58.134C136.831 58.3706 136.623 58.5856 136.348 58.779L135.175 59.6048L133.671 56.2033L133.957 56.0019L134.503 57.2272L135.379 56.6108ZM136.191 58.5557C136.519 58.3247 136.726 58.0593 136.812 57.7593C136.898 57.4594 136.848 57.1778 136.662 56.9144C136.523 56.716 136.355 56.6147 136.158 56.6106C135.961 56.6065 135.727 56.6998 135.456 56.8905L134.614 57.4827L135.35 59.1479L136.191 58.5557Z" fill="black" fill-opacity="0.4"/>
<path d="M139.916 53.8491C140.12 53.7555 140.3 53.7267 140.454 53.7627C140.61 53.7922 140.751 53.8911 140.876 54.0595C141.088 54.344 141.143 54.6522 141.041 54.9841C140.936 55.3123 140.684 55.6255 140.283 55.9238L139.003 56.8771L137.41 53.5075L138.634 52.596C138.933 52.373 139.2 52.2586 139.435 52.2529C139.673 52.2443 139.87 52.3449 140.026 52.5545C140.168 52.7453 140.229 52.956 140.208 53.1865C140.185 53.4132 140.088 53.6341 139.916 53.8491ZM138.411 54.8395L139.354 54.137C139.624 53.9363 139.796 53.7148 139.871 53.4724C139.948 53.2234 139.914 53.0016 139.769 52.807C139.654 52.6536 139.515 52.5831 139.349 52.5956C139.181 52.6044 138.985 52.6924 138.761 52.8596L137.806 53.5704L138.411 54.8395ZM140.134 55.6768C140.441 55.4483 140.636 55.21 140.719 54.962C140.799 54.7103 140.759 54.4759 140.597 54.2588C140.477 54.0979 140.336 54.0223 140.175 54.032C140.017 54.0389 139.817 54.133 139.573 54.3142L138.529 55.0918L139.152 56.4086L140.134 55.6768Z" fill="black" fill-opacity="0.4"/>
<path d="M141.82 50.1348L142.095 49.9177L143.79 53.2354L143.516 53.4525L141.82 50.1348ZM141.576 49.1944C141.518 49.2407 141.453 49.2596 141.38 49.2512C141.308 49.2428 141.251 49.2111 141.207 49.1562C141.155 49.0903 141.132 49.0162 141.138 48.9339C141.148 48.8487 141.188 48.7786 141.258 48.7236C141.316 48.6773 141.382 48.6583 141.454 48.6667C141.53 48.6723 141.589 48.7025 141.633 48.7574C141.688 48.8269 141.71 48.9043 141.7 48.9895C141.687 49.0711 141.646 49.1394 141.576 49.1944Z" fill="black" fill-opacity="0.4"/>
<path d="M146.479 48.6179C146.678 48.5135 146.855 48.4751 147.012 48.5028C147.169 48.5238 147.315 48.6151 147.449 48.7766C147.676 49.0493 147.747 49.3541 147.663 49.691C147.576 50.0243 147.341 50.3506 146.957 50.6699L145.73 51.6904L143.958 48.411L145.132 47.4352C145.419 47.1965 145.679 47.068 145.913 47.0497C146.15 47.0285 146.352 47.1183 146.519 47.3192C146.671 47.5022 146.743 47.7093 146.735 47.9405C146.724 48.1682 146.639 48.394 146.479 48.6179ZM145.029 49.6874L145.933 48.9355C146.191 48.7206 146.352 48.4902 146.414 48.2441C146.477 47.9914 146.431 47.7717 146.276 47.5852C146.154 47.4381 146.01 47.3752 145.846 47.3965C145.679 47.4143 145.487 47.5127 145.272 47.6917L144.357 48.4526L145.029 49.6874ZM146.795 50.4313C147.089 50.1866 147.271 49.9382 147.34 49.6862C147.407 49.4305 147.354 49.1986 147.181 48.9905C147.052 48.8362 146.908 48.7683 146.747 48.7866C146.59 48.802 146.395 48.9067 146.161 49.1006L145.16 49.9331L145.853 51.2146L146.795 50.4313Z" fill="black" fill-opacity="0.4"/>
<path d="M154.328 37.0545L157.119 41.1992L156.873 41.4479L154.5 37.9248L155.09 42.3224L154.967 42.4468L151.46 40.9238L153.863 44.4863L153.616 44.735L150.825 40.5902L151.032 40.3813L154.752 42.0072L154.106 37.2783L154.328 37.0545Z" fill="black" fill-opacity="0.4"/>
<path d="M160.554 37.1556C160.246 37.5424 159.892 37.7649 159.494 37.8231C159.098 37.8777 158.719 37.761 158.358 37.473C158.033 37.2141 157.797 36.912 157.648 36.5668C157.503 36.2179 157.454 35.8598 157.502 35.4924C157.55 35.125 157.7 34.7844 157.95 34.4706C158.258 34.0838 158.61 33.8631 159.006 33.8085C159.401 33.7474 159.781 33.8623 160.146 34.1532C160.47 34.4121 160.707 34.7175 160.857 35.0692C161.005 35.4144 161.055 35.7707 161.007 36.1381C160.955 36.5026 160.804 36.8418 160.554 37.1556ZM160.325 36.9373C160.529 36.6819 160.649 36.4044 160.685 36.1048C160.723 35.8015 160.68 35.5042 160.554 35.2129C160.425 34.9187 160.221 34.661 159.944 34.4399C159.641 34.1985 159.334 34.1002 159.024 34.1452C158.716 34.1865 158.435 34.3677 158.179 34.6888C157.975 34.9443 157.856 35.2251 157.82 35.5312C157.784 35.8308 157.831 36.1277 157.961 36.422C158.087 36.7133 158.286 36.968 158.56 37.1862C158.863 37.4277 159.168 37.5278 159.476 37.4864C159.786 37.4415 160.069 37.2584 160.325 36.9373Z" fill="black" fill-opacity="0.4"/>
<path d="M161.846 28.637L164.589 31.1601L164.407 31.4594L161.891 29.1558L160.904 30.7838L161.621 31.5051C162.037 31.9265 162.356 32.2865 162.579 32.5853C162.804 32.8801 162.946 33.1408 163.005 33.3676C163.064 33.5944 163.039 33.7975 162.93 33.9771C162.881 34.0569 162.814 34.1362 162.728 34.2151L162.514 33.9872C162.579 33.917 162.616 33.874 162.625 33.858C162.712 33.7144 162.726 33.548 162.666 33.3588C162.606 33.1697 162.476 32.9485 162.274 32.6955C162.071 32.436 161.785 32.1206 161.416 31.7491L160.513 30.8336L161.846 28.637Z" fill="black" fill-opacity="0.4"/>
<path d="M166.741 26.1055C166.593 26.5775 166.344 26.9126 165.993 27.1108C165.644 27.3044 165.249 27.3322 164.808 27.1939C164.411 27.0697 164.082 26.8734 163.819 26.605C163.557 26.3322 163.382 26.0158 163.295 25.6558C163.207 25.2957 163.223 24.9242 163.343 24.5413C163.491 24.0693 163.74 23.7364 164.089 23.5427C164.435 23.3432 164.831 23.3132 165.277 23.4528C165.673 23.5771 166.004 23.7763 166.27 24.0505C166.533 24.3189 166.709 24.6331 166.796 24.9931C166.879 25.3518 166.861 25.7226 166.741 26.1055ZM166.449 25.9846C166.546 25.6729 166.558 25.3708 166.483 25.0784C166.41 24.7816 166.262 24.52 166.04 24.2938C165.813 24.0661 165.53 23.8992 165.192 23.7931C164.822 23.6772 164.501 23.6962 164.228 23.8502C163.956 23.9997 163.758 24.2704 163.636 24.6622C163.538 24.9739 163.528 25.2789 163.605 25.5771C163.68 25.8695 163.831 26.1295 164.058 26.3572C164.28 26.5835 164.558 26.749 164.892 26.8537C165.262 26.9696 165.583 26.9528 165.855 26.8033C166.128 26.6493 166.326 26.3764 166.449 25.9846Z" fill="black" fill-opacity="0.4"/>
</svg>
