<svg width="40" height="51" viewBox="0 0 40 51" fill="none" xmlns="http://www.w3.org/2000/svg">
<mask id="path-1-inside-1_1249_3695" fill="white">
<path fill-rule="evenodd" clip-rule="evenodd" d="M5.34058e-05 13.9928V51H39.4414V13.9928V13.6246H39.4347C39.1596 6.06675 30.4386 0 19.7207 0C9.00282 0 0.281906 6.06675 0.0067482 13.6246H5.34058e-05V13.9928Z"/>
</mask>
<path d="M5.34058e-05 51V52H-0.999947V51H5.34058e-05ZM39.4414 51H40.4414V52H39.4414V51ZM39.4414 13.6246V12.6246H40.4414V13.6246H39.4414ZM39.4347 13.6246V14.6246H38.4705L38.4354 13.6609L39.4347 13.6246ZM0.0067482 13.6246L1.00608 13.6609L0.971004 14.6246H0.0067482V13.6246ZM5.34058e-05 13.6246H-0.999947V12.6246H5.34058e-05V13.6246ZM1.00005 13.9928V51H-0.999947V13.9928H1.00005ZM5.34058e-05 50H39.4414V52H5.34058e-05V50ZM38.4414 51V13.9928H40.4414V51H38.4414ZM38.4414 13.9928V13.6246H40.4414V13.9928H38.4414ZM39.4414 14.6246H39.4347V12.6246H39.4414V14.6246ZM38.4354 13.6609C38.3123 10.2806 36.297 7.13574 32.9244 4.80022C29.5553 2.46708 24.8993 1 19.7207 1V-1C25.2601 -1 30.3235 0.566295 34.0631 3.15599C37.7992 5.74329 40.282 9.41072 40.434 13.5882L38.4354 13.6609ZM19.7207 1C14.5422 1 9.88615 2.46708 6.51702 4.80022C3.14446 7.13574 1.12915 10.2806 1.00608 13.6609L-0.992588 13.5882C-0.8405 9.41072 1.64223 5.74329 5.37839 3.15599C9.11798 0.566295 14.1813 -1 19.7207 -1V1ZM0.0067482 14.6246H5.34058e-05V12.6246H0.0067482V14.6246ZM1.00005 13.6246V13.9928H-0.999947V13.6246H1.00005Z" fill="black" fill-opacity="0.5" mask="url(#path-1-inside-1_1249_3695)"/>
</svg>
