<svg width="65" height="28" viewBox="0 0 65 28" fill="none" xmlns="http://www.w3.org/2000/svg">
<g clip-path="url(#clip0_421_197)">
<path d="M50.4778 24.972C49.1129 24.9216 47.2004 24.8936 44.3202 24.9972C42.9865 25.0477 42.6716 24.5041 42.2261 22.1982C42.0303 21.198 41.2556 21.7303 40.1574 21.4221C39.1614 21.0355 38.977 18.6764 38.977 18.6764C38.9656 18.1468 38.6762 18.1328 38.506 18.2113C34.6042 19.8419 30.4784 17.3707 30.3847 17.7966C29.6668 19.7438 27.7003 19.5953 27.4506 19.091C27.5045 19.968 26.1425 20.6937 25.7225 20.4863C24.2157 19.699 24.1902 19.1274 23.1431 18.766C21.2306 17.9507 21.6364 17.0653 19.8033 16.9673C18.4667 16.8972 18.0212 16.6787 17.7063 16.3985C16.3187 15.0564 17.5218 13.2689 18.3618 12.6721C18.0496 11.2768 20.0927 9.5761 20.5637 8.41055C19.9338 8.39934 18.9775 8.25365 17.4991 7.75773C16.7273 7.49716 16.9117 7.87821 15.561 7.74372C13.7393 7.58402 13.0441 7.3963 12.468 7.13853C12.1304 6.98444 10.371 7.02366 9.45733 6.70986C6.54878 6.29519 7.00563 3.70913 7.07373 3.46257C7.09927 3.3589 7.12765 3.3589 7.66964 3.3589C8.40458 3.41214 9.71839 3.03389 10.7938 3.2048C11.211 3.25524 11.8693 3.07312 12.888 3.2048C14.1621 2.98346 15.0928 3.31688 16.5741 2.79854C16.7954 2.7341 16.75 2.94143 17.2409 2.89661C17.502 2.86859 17.4707 2.66406 18.2426 2.75371C19.1279 2.85458 20.2544 2.76492 21.3271 2.76492C22.4025 2.76492 23.2396 2.54918 25.8587 2.33064C26.9313 2.23818 27.7741 1.75907 28.5573 2.14572C29.7519 2.7341 33.9033 4.52445 38.3556 6.69865C38.4492 6.74348 38.8408 6.96202 39.0905 6.38765C39.5899 5.47426 39.8765 5.74043 41.633 5.79367C42.8872 5.74324 41.9565 4.79343 43.3356 4.82144C45.4581 4.86627 46.2895 5.03998 49.3882 4.97834C50.6367 4.95593 50.9773 4.9111 51 5.78807V24.4004C51.0028 24.6862 50.8694 24.972 50.4778 24.972Z" fill="#5D2D8D"/>
<path d="M7.69535 3.98929C7.61874 4.81302 9.16239 4.61129 9.77815 4.48801C10.1442 4.41797 10.4195 3.8436 10.0534 3.71191L7.77481 3.91925C7.74075 3.91645 7.68968 3.97248 7.69535 3.98929Z" fill="#FFCC04"/>
<path d="M19.9764 13.5911C20.8674 13.7256 20.788 14.087 21.2647 14.0226C21.8975 13.9358 21.33 13.6976 23.4951 13.7508C24.1222 13.7508 24.4627 13.7088 24.8826 13.9694C25.0926 13.7985 25.5892 13.5659 25.9297 13.8629C26.7157 13.706 26.4377 13.6163 27.7657 13.9161C29.5562 14.3196 29.9109 13.5967 30.7423 13.1933C30.9636 13.0924 31.1112 13.014 31.5454 13.0812C34.8483 13.4763 33.4182 13.465 37.9952 13.1933C39.5786 12.8963 40.1944 12.0529 40.1263 9.93198C39.9958 7.52803 39.4736 7.86144 38.1371 7.29268C32.7145 4.91675 29.0738 2.87424 27.6578 2.9779C23.6483 3.03114 24.3832 3.754 19.0911 3.5971C17.4141 3.38977 17.4651 4.24152 16.838 4.14065C16.3641 3.88008 16.7529 3.63352 15.1326 3.77922C11.8438 4.07621 11.1883 3.52145 10.8875 4.03698C10.4846 4.72623 10.496 5.15771 8.35923 4.98119C8.1833 4.96998 8.12939 4.96438 8.02439 4.94477C7.76333 4.88313 7.74914 5.03723 8.00453 5.22775C8.21451 5.38745 9.95113 6.21959 11.9857 5.90018C13.1406 5.71807 12.5362 6.16075 14.4487 6.16075C15.2858 6.10471 15.808 6.10471 16.0719 6.05148C16.909 6.36528 18.5349 6.3877 19.0627 6.26162C19.704 6.10191 20.0048 5.89738 20.5808 6.20558C21.154 6.51658 22.4168 6.94526 24.2981 6.72391C26.5001 6.46615 26.3809 6.04588 26.6051 6.20558C27.1158 6.58943 26.0688 7.30108 27.1556 8.11921C27.7146 8.54228 28.3105 6.8528 28.861 6.87801C29.1901 6.92284 29.2526 7.21983 29.0965 7.57846C29.0227 7.74657 28.3672 8.70479 28.9121 9.10264C29.8031 9.75266 31.4006 7.81101 32.635 8.61233C32.9216 8.83087 32.6151 9.14187 32.2689 9.10264C31.673 9.0326 30.6685 9.59856 30.2514 9.95719C29.7009 10.4475 28.1289 11.1984 27.55 11.4309C25.5069 12.2575 24.8287 11.6383 24.4598 12.1566C24.1477 12.5433 23.5092 11.9605 22.7828 11.8456C21.4122 11.6243 18.2625 12.7394 18.5633 13.4258C18.6768 13.6528 18.8924 13.636 19.1734 13.5827C19.4713 13.5379 19.582 13.5323 19.9764 13.5911Z" fill="#FFCC04"/>
<path d="M20.7426 15.2637C20.4276 14.5885 20.3935 14.4988 19.7324 14.3588C19.1535 14.2327 17.4765 14.7202 17.7006 15.4206C17.8737 15.6392 18.5775 15.6532 19.023 15.7541C19.4968 15.8633 20.9639 16.0258 20.7426 15.2637Z" fill="#FFCC04"/>
<path d="M41.3522 20.7388C40.6797 20.7052 40.6002 20.3017 40.4924 19.8674C40.342 19.2454 40.8074 16.6594 40.8613 13.4009C40.9124 10.1424 40.8074 9.20937 40.6485 7.45263C40.6116 7.02116 40.2569 6.47761 40.8613 6.44679C42.8221 6.33752 43.4265 6.18622 43.7443 7.7104C44.1103 9.49515 44.1614 16.4352 43.6904 20.0776C43.5286 20.3633 43.9287 20.9321 41.3522 20.7388Z" fill="#FFCC04"/>
</g>
<defs>
<clipPath id="clip0_421_197">
<rect width="44" height="23" fill="white" transform="matrix(-1 0 0 1 51 2)"/>
</clipPath>
</defs>
</svg>
