                                        <svg  class="animate_elips" width="247" height="101" viewBox="0 0 247 101" fill="none" xmlns="http://www.w3.org/2000/svg">
                                            <path d="M210.223 15.4468C188.018 6.71521 157.344 1.47008 123.477 1.82636C89.6092 2.18265 59.0528 8.07191 37.0361 17.2687C26.0251 21.8681 17.1987 27.2746 11.1584 33.1874C5.12076 39.0977 1.92895 45.4468 1.9976 51.973C2.06626 58.4992 5.39094 64.7798 11.5516 70.5617C17.7149 76.3461 26.6531 81.5658 37.7584 85.9326C59.9638 94.6641 90.6373 99.9092 124.505 99.5529C158.372 99.1967 188.929 93.3074 210.946 84.1106C221.957 79.5112 230.783 74.1047 236.823 68.1919C242.861 62.2816 246.053 55.9325 245.984 49.4063C245.915 42.8801 242.591 36.5995 236.43 30.8176C230.267 25.0332 221.329 19.8135 210.223 15.4468ZM246.984 49.3958C246.694 21.8571 191.394 0.11183 123.466 0.826417C55.539 1.541 0.707955 24.4448 0.997659 51.9835C1.28736 79.5222 56.5881 101.267 124.515 100.553C192.443 99.8383 247.274 76.9345 246.984 49.3958Z" stroke="black" stroke-opacity="0.5" stroke-width="0.5"/>
                                        </svg>