<?xml version="1.0" encoding="utf-8"?>
<!-- Generator: Adobe Illustrator 24.1.2, SVG Export Plug-In . SVG Version: 6.00 Build 0)  -->
<svg version="1.1" id="Layer_1" xmlns="http://www.w3.org/2000/svg" xmlns:xlink="http://www.w3.org/1999/xlink" x="0px" y="0px"
	 viewBox="0 0 98.2 20.3" style="enable-background:new 0 0 98.2 20.3;" xml:space="preserve">
<style type="text/css">
	.st0{opacity:0.8;clip-path:url(#SVGID_2_);}
	.st1{fill:none;stroke:#000000;stroke-width:0.3;stroke-miterlimit:10;}
</style>
<g>
	<defs>
		<rect id="SVGID_1_" x="0" y="0" width="98.2" height="20.2"/>
	</defs>
	<clipPath id="SVGID_2_">
		<use xlink:href="#SVGID_1_"  style="overflow:visible;"/>
	</clipPath>
	<g class="st0">
		<path class="st1" d="M94,10.2L0,10.1"/>
		<path d="M92.8,15.1c1.3-2,3.2-3.6,5.4-4.9c-2.1-1.2-4-2.9-5.3-4.9l-1.3,0c1.3,1.9,2.9,3.6,4.9,4.9c-2,1.3-3.6,3-4.9,4.9L92.8,15.1
			z"/>
		<path d="M89.8,15.1c1.3-2,3.3-3.6,5.4-4.9c-2.1-1.2-4-2.9-5.3-4.9l-1.3,0c1.3,1.9,2.9,3.6,4.9,4.9c-2,1.3-3.6,3-4.9,4.9L89.8,15.1
			z"/>
	</g>
</g>
</svg>
