<svg width="59" height="99" viewBox="0 0 59 99" fill="none" xmlns="http://www.w3.org/2000/svg">
<g opacity="0.8" clip-path="url(#clip0_596_2015)">
<path d="M45.8115 86.6261L10.036 4.84922" stroke="black" stroke-width="0.3" stroke-miterlimit="10"/>
<path d="M40.9023 87.5806C43.2502 87.8654 45.4709 88.9433 47.4084 90.2769C47.723 87.937 48.5246 85.6264 49.8441 83.6688L49.3604 82.5632C48.094 84.4977 47.1644 86.5639 46.7584 88.7911C44.8295 87.5854 42.6402 86.8203 40.4109 86.4574L40.9023 87.5806Z" fill="black"/>
<path d="M39.7377 84.9184C42.0876 85.2076 44.3083 86.2855 46.2439 87.6147C46.5584 85.2748 47.36 82.9642 48.6795 81.0066L48.1959 79.901C46.9294 81.8354 45.9999 83.9017 45.5938 86.1288C43.6649 84.9232 41.4757 84.1581 39.2463 83.7952L39.7377 84.9184Z" fill="black"/>
</g>
<defs>
<clipPath id="clip0_596_2015">
<rect width="98.18" height="20.23" fill="white" transform="translate(40.124 98.8504) rotate(-113.628)"/>
</clipPath>
</defs>
</svg>
