<?xml version="1.0" encoding="utf-8"?>
<!-- Generator: Adobe Illustrator 24.1.2, SVG Export Plug-In . SVG Version: 6.00 Build 0)  -->
<svg version="1.1" id="Layer_1" xmlns="http://www.w3.org/2000/svg" xmlns:xlink="http://www.w3.org/1999/xlink" x="0px" y="0px"
	 viewBox="0 0 59 99" style="enable-background:new 0 0 59 99;" xml:space="preserve">
<style type="text/css">
	.st0{opacity:0.8;clip-path:url(#SVGID_2_);}
	.st1{stroke:#000000;stroke-width:0.3;stroke-miterlimit:10;}
</style>
<g>
	<defs>
		
			<rect id="SVGID_1_" x="19.6" y="0.7" transform="matrix(0.9162 -0.4008 0.4008 0.9162 -17.4772 16.0867)" width="20.2" height="98.2"/>
	</defs>
	<clipPath id="SVGID_2_">
		<use xlink:href="#SVGID_1_"  style="overflow:visible;"/>
	</clipPath>
	<g class="st0">
		<path class="st1" d="M45.8,86.6L10,4.8"/>
		<path d="M40.9,87.6c2.3,0.3,4.6,1.4,6.5,2.7c0.3-2.3,1.1-4.7,2.4-6.6l-0.5-1.1c-1.3,1.9-2.2,4-2.6,6.2c-1.9-1.2-4.1-2-6.3-2.3
			L40.9,87.6z"/>
		<path d="M39.7,84.9c2.3,0.3,4.6,1.4,6.5,2.7c0.3-2.3,1.1-4.7,2.4-6.6l-0.5-1.1c-1.3,1.9-2.2,4-2.6,6.2c-1.9-1.2-4.1-2-6.3-2.3
			L39.7,84.9z"/>
	</g>
</g>
</svg>
