<svg xmlns="http://www.w3.org/2000/svg" width="282" height="442" viewBox="0 0 282 442"><g><g><path fill-opacity=".2" d="M45 7.98c-.302-1.273-1.788-2.584-3.223-2.64-1.036-.04-1.036-1.375-.005-1.415 1.574-.057 2.833-1.16 2.902-2.536.047-.905 1.575-.905 1.621 0 .065 1.375 1.328 2.475 2.902 2.536 1.036.04 1.036 1.375 0 1.416-1.336.048-2.757 1.191-3.198 2.377v5.992H1.08V82.5h280.88v356.047h-.499v.5h-63.253a13.765 13.765 0 0 1 3.25 2.625h-1.086c-1.139-1.276-2.755-2.34-4.571-3.125 1.794-.794 3.484-1.82 4.571-3.125h1.103a13.683 13.683 0 0 1-3.274 2.625h62.759v-73.304h-62.752a13.765 13.765 0 0 1 3.25 2.625h-1.086c-1.139-1.276-2.755-2.34-4.571-3.125 1.794-.794 3.484-1.82 4.571-3.125h1.103a13.683 13.683 0 0 1-3.274 2.625h62.759v-67.054h-62.752a13.765 13.765 0 0 1 3.25 2.625h-1.086c-1.139-1.276-2.755-2.34-4.571-3.125 1.794-.794 3.484-1.82 4.571-3.125h1.103a13.683 13.683 0 0 1-3.274 2.625h62.759V83.499H147.397v38.236h74.602v42.367c.897-1.218 2.022-2.229 3.296-3.088v.931c-1.49.975-2.732 2.36-3.648 3.915-.927-1.537-2.125-2.985-3.648-3.915v-.946a13.316 13.316 0 0 1 3 2.725v-40.989h-73.602v41.294c.871-1.131 1.943-2.079 3.148-2.891v.93c-1.49.976-2.731 2.36-3.648 3.916-.927-1.537-2.125-2.985-3.648-3.916v-.945a13.27 13.27 0 0 1 3.148 2.912v-41.3H68.999v41.367c.896-1.218 2.022-2.229 3.296-3.088v.931c-1.49.975-2.732 2.36-3.648 3.915-.927-1.537-2.125-2.985-3.648-3.915v-.946a13.339 13.339 0 0 1 3 2.725v-41.989h78.398V83.5H.08V12.71H45zm176.647 156.63l.01-.015h-.02zm-74.843-.015l.093.138.059-.089.033-.049zm-78.157.015l.01-.015h-.02zm-3.648-1.527c1.418.945 2.688 2.162 3.648 3.61.945-1.448 2.201-2.62 3.648-3.595v.93c-1.49.975-2.731 2.36-3.648 3.916-.927-1.541-2.125-2.989-3.648-3.916zm78.25.123c1.418.946 2.689 2.163 3.648 3.611.946-1.448 2.201-2.621 3.648-3.596v.931c-1.49.975-2.731 2.359-3.648 3.915-.927-1.541-2.125-2.989-3.648-3.915zm78.398 4.738c-.927-1.541-2.125-2.989-3.648-3.916v-.945c1.418.945 2.688 2.162 3.648 3.61.945-1.448 2.201-2.62 3.648-3.595v.93c-1.49.975-2.732 2.36-3.648 3.916zm-8.278 128.245c1.799-.794 3.489-1.82 4.571-3.125h1.103c-1.103 1.215-2.524 2.303-4.214 3.125 1.69.81 3.059 1.886 4.197 3.125h-1.086c-1.139-1.276-2.755-2.34-4.571-3.125zm5.674 64.929c-1.103 1.215-2.524 2.303-4.214 3.125 1.69.81 3.059 1.886 4.197 3.125h-1.086c-1.139-1.276-2.755-2.34-4.571-3.125 1.799-.794 3.489-1.82 4.571-3.125zm-5.674 77.429c1.799-.794 3.489-1.82 4.571-3.125h1.103c-1.103 1.215-2.524 2.303-4.214 3.125 1.69.81 3.059 1.886 4.197 3.125h-1.086c-1.139-1.276-2.755-2.34-4.571-3.125zM68.499 236.999v23.074a2.668 2.668 0 1 1-1 0v-23.074z"/></g></g></svg>