<svg width="81" height="77" viewBox="0 0 81 77" fill="none" xmlns="http://www.w3.org/2000/svg">
<path d="M40.5 0L41.793 15.0472L44.7334 0.210907L44.3647 15.3041L48.9204 0.841316L46.8941 15.8152L53.0152 1.88432L49.3535 16.5749L56.9728 3.3285L51.7158 17.5747L60.75 5.15802L53.9553 18.8038L64.3053 7.35285L56.0474 20.2487L67.5998 9.88892L57.9691 21.8936L70.5974 12.7385L59.6994 23.7204L73.2652 15.8703L61.2194 25.7092L75.574 19.25L62.5123 27.838L77.4986 22.8406L63.5641 30.0837L79.0178 26.6028L64.3632 32.4216L80.115 30.4954L64.9008 34.8261L80.7781 34.4757L65.1711 37.2709L81 38.5L65.1711 39.7291L80.7781 42.5243L64.9008 42.1739L80.115 46.5046L64.3632 44.5784L79.0178 50.3972L63.5641 46.9163L77.4986 54.1594L62.5123 49.162L75.574 57.75L61.2194 51.2908L73.2652 61.1297L59.6994 53.2796L70.5974 64.2615L57.9691 55.1064L67.5998 67.1111L56.0474 56.7513L64.3053 69.6472L53.9553 58.1962L60.75 71.842L51.7158 59.4253L56.9728 73.6715L49.3535 60.4251L53.0152 75.1157L46.8941 61.1848L48.9204 76.1587L44.3647 61.6959L44.7334 76.7891L41.793 61.9528L40.5 77L39.207 61.9528L36.2666 76.7891L36.6353 61.6959L32.0796 76.1587L34.1059 61.1848L27.9848 75.1157L31.6465 60.4251L24.0272 73.6715L29.2842 59.4253L20.25 71.842L27.0447 58.1962L16.6947 69.6472L24.9526 56.7513L13.4002 67.1111L23.0309 55.1064L10.4026 64.2615L21.3006 53.2796L7.73481 61.1297L19.7806 51.2908L5.42597 57.75L18.4877 49.162L3.50141 54.1594L17.4359 46.9163L1.98221 50.3972L16.6368 44.5784L0.885021 46.5046L16.0992 42.1739L0.221863 42.5243L15.8289 39.7291L0 38.5L15.8289 37.2709L0.221863 34.4757L16.0992 34.8261L0.885021 30.4954L16.6368 32.4216L1.98221 26.6028L17.4359 30.0837L3.50141 22.8406L18.4877 27.838L5.42597 19.25L19.7806 25.7092L7.73481 15.8703L21.3006 23.7204L10.4026 12.7385L23.0309 21.8936L13.4002 9.88892L24.9526 20.2487L16.6947 7.35285L27.0447 18.8038L20.25 5.15802L29.2842 17.5747L24.0272 3.3285L31.6465 16.5749L27.9848 1.88432L34.1059 15.8152L32.0796 0.841316L36.6353 15.3041L36.2666 0.210907L39.207 15.0472L40.5 0Z" fill="#E2E2E2"/>
</svg>
