<svg width="24" height="24" viewBox="0 0 24 24" fill="none" xmlns="http://www.w3.org/2000/svg">
<path d="M16.5833 11.0458C16.6039 10.4494 16.4735 9.8575 16.2041 9.32499C16.0214 9.10649 15.7678 8.95904 15.4875 8.90833C14.3281 8.80313 13.1639 8.76001 12 8.77916C10.8402 8.75914 9.68027 8.80087 8.52497 8.90416C8.29656 8.94571 8.08519 9.05284 7.91664 9.21249C7.54164 9.55833 7.49997 10.15 7.4583 10.65C7.39785 11.549 7.39785 12.451 7.4583 13.35C7.47036 13.6314 7.51226 13.9108 7.5833 14.1833C7.63354 14.3938 7.73519 14.5885 7.87914 14.75C8.04883 14.9181 8.26513 15.0313 8.49997 15.075C9.39827 15.1859 10.3034 15.2318 11.2083 15.2125C12.6666 15.2333 13.9458 15.2125 15.4583 15.0958C15.6989 15.0548 15.9213 14.9415 16.0958 14.7708C16.2125 14.6541 16.2996 14.5113 16.35 14.3542C16.499 13.8969 16.5722 13.4184 16.5666 12.9375C16.5833 12.7042 16.5833 11.2958 16.5833 11.0458ZM11.0583 13.1875V10.6083L13.525 11.9042C12.8333 12.2875 11.9208 12.7208 11.0583 13.1875Z" fill="white"/>
<path d="M11.1755 1.64221C11.5625 1.04418 12.4375 1.04418 12.8245 1.64221L13.9061 3.31351C14.2615 3.86276 14.9534 4.08756 15.5638 3.85213L17.4211 3.13574C18.0857 2.8794 18.7936 3.39371 18.7552 4.105L18.6478 6.09284C18.6125 6.74611 19.0401 7.33464 19.6723 7.50295L21.5961 8.01511C22.2844 8.19838 22.5548 9.03055 22.1056 9.58342L20.8503 11.1285C20.4378 11.6363 20.4378 12.3637 20.8503 12.8715L22.1056 14.4166C22.5548 14.9694 22.2844 15.8016 21.5961 15.9849L19.6723 16.497C19.0401 16.6654 18.6125 17.2539 18.6478 17.9072L18.7552 19.895C18.7936 20.6063 18.0857 21.1206 17.4211 20.8643L15.5638 20.1479C14.9534 19.9124 14.2615 20.1372 13.9061 20.6865L12.8245 22.3578C12.4375 22.9558 11.5625 22.9558 11.1755 22.3578L10.0939 20.6865C9.7385 20.1372 9.04665 19.9124 8.43625 20.1479L6.57888 20.8643C5.91427 21.1206 5.20639 20.6063 5.2448 19.895L5.35217 17.9072C5.38745 17.2539 4.95987 16.6654 4.32767 16.497L2.40394 15.9849C1.71559 15.8016 1.4452 14.9695 1.89437 14.4166L3.14965 12.8715C3.56218 12.3637 3.56218 11.6363 3.14965 11.1285L1.89437 9.58342C1.4452 9.03055 1.71559 8.19838 2.40394 8.01511L4.32766 7.50295C4.95987 7.33464 5.38745 6.74611 5.35217 6.09284L5.2448 4.105C5.20639 3.39371 5.91427 2.8794 6.57888 3.13574L8.43625 3.85213C9.04664 4.08755 9.73849 3.86276 10.0939 3.31351L11.1755 1.64221Z" stroke="white" stroke-width="0.4"/>
</svg>
